<?xml version="1.0" encoding="utf-8"?>
<!-- Generator: Adobe Illustrator 19.1.0, SVG Export Plug-In . SVG Version: 6.00 Build 0)  -->
<svg version="1.1" id="Layer_1" xmlns="http://www.w3.org/2000/svg" xmlns:xlink="http://www.w3.org/1999/xlink" x="0px" y="0px"
	 width="100px" height="100px" viewBox="0 0 100 100" style="enable-background:new 0 0 100 100;" xml:space="preserve">
<style type="text/css">
	.st0{fill:#FFFFFF;}
</style>
<g>
	<path class="st0" d="M49.9-0.2c-27.6,0-50,22.4-50,50s22.4,50,50,50c27.6,0,50-22.4,50-50S77.5-0.2,49.9-0.2z M76.4,40.1L41.6,69.8
		c-0.6,0.3-1,0.6-1.6,0.6c-0.6,0-1.3-0.3-1.9-1l-3.2-3.8l-8.9-10.5c-1-1-0.6-2.6,0.3-3.5l3.8-3.2c0.3-0.3,0.6-0.6,1.3-0.6
		c1,0,1.6,0.6,2.2,1.3l7.3,8.3l29-24.9c0.6-0.3,1-0.6,1.6-0.6c0.6,0,1.3,0.3,1.9,1l3.2,3.8C77.6,37.6,77.3,39.2,76.4,40.1z"/>
</g>
</svg>
