<?xml version="1.0" encoding="utf-8"?>
<!-- Generator: Adobe Illustrator 19.1.0, SVG Export Plug-In . SVG Version: 6.00 Build 0)  -->
<svg version="1.1" id="Layer_1" xmlns="http://www.w3.org/2000/svg" xmlns:xlink="http://www.w3.org/1999/xlink" x="0px" y="0px"
	 width="100px" height="100px" viewBox="0 0 100 100" style="enable-background:new 0 0 100 100;" xml:space="preserve">
<style type="text/css">
	.st0{fill:#FFFFFF;}
</style>
<g>
	<path class="st0" d="M66.7,70.1c-1.9-1.1-4.5-2.4-8.1-3.9c-0.1,0-0.1-0.1-0.3-0.2c-1.2-0.7-0.9-2.5-0.7-3.6
		c0.8-0.9,1.7-2.4,2.1-4.9c0.1-0.7,0.4-1.3,0.7-1.8c0.8-1,1.2-2.4,1.2-3.8c0-1.1-0.3-2-0.7-2.8c-0.1-0.2-0.2-0.3-0.4-0.5
		c0.6-1.5,1.2-3.8,0.6-6.3c-1.1-4.3-6.7-6.2-11.5-6.2c-4.4,0-7.7,1.5-9,4.1c-1.2,0.6-1.8,1.4-2.1,2.1c-1.1,2.1-0.3,4.6,0.3,6.3
		c-0.2,0.2-0.3,0.4-0.4,0.6c-0.5,0.8-0.8,1.7-0.8,2.8c0,1.4,0.4,2.7,1.1,3.7c0.4,0.5,0.7,1.2,0.7,1.8c0.4,2.5,1.3,4,2.1,4.9
		c0.2,1,0.5,2.8-0.7,3.5c-0.1,0.1-0.2,0.1-0.3,0.2c-4,1.7-6.8,3.1-8.8,4.2c-3.3,1.6-5.4,3.7-5.4,6.4c0,12.8,10.4,23.2,23.2,23.2
		c12.8,0,23.2-10.4,23.2-23.2C72.9,73.9,70.5,71.7,66.7,70.1z"/>
	<path class="st0" d="M87.6,45.9l-8.8-3.1v4.3H71c-0.9-10.2-9.1-18.4-19.3-19.3V17.6h4.2l-3.1-8.8L49.6,0l-3.1,8.8l-3.1,8.8h4.1
		v10.3c-10,1.1-18,9.2-18.8,19.3h-7.4v-4.3l-8.8,3.1l-8.8,3.1l8.8,3.1l8.8,3.1v-4h9.1c0.5,0,1-0.2,1.3-0.5c0.7-0.4,1.1-1,1.1-1.8
		c0-9.4,7.6-17.1,17.1-17.1c9.4,0,17.1,7.6,17.1,17.1c0,0,0,0.1,0,0.1c0,0,0,0.1,0,0.1c0,1.2,0.9,2.1,2.1,2.1h9.8v4l8.8-3.1l8.8-3.1
		L87.6,45.9z"/>
</g>
</svg>
