<?xml version="1.0" encoding="utf-8"?>
<!-- Generator: Adobe Illustrator 19.1.0, SVG Export Plug-In . SVG Version: 6.00 Build 0)  -->
<svg version="1.1" id="Layer_1" xmlns="http://www.w3.org/2000/svg" xmlns:xlink="http://www.w3.org/1999/xlink" x="0px" y="0px"
	 width="100px" height="100px" viewBox="0 0 100 100" style="enable-background:new 0 0 100 100;" xml:space="preserve">
<style type="text/css">
	.st0{fill:#FFFFFF;}
</style>
<path class="st0" d="M92.3,42.3c-2.9,0-5.5,1.6-6.8,4.1c-4.2,0.4-10.2,0.9-17.2,1.3c-0.4-3.4-1.8-6.5-3.8-9.1
	c4.2-3.8,8.5-7.6,13.1-11.3c2.6,0.8,5.6,0.2,7.7-1.9c3-3,3-7.8,0-10.8s-7.8-3-10.8,0c-2.1,2.1-2.7,5-1.9,7.7
	c-2.7,3.3-6.6,7.9-11.2,13.1c-2.6-2-5.7-3.3-9.1-3.8c0.3-5.6,0.7-11.4,1.3-17.2c2.4-1.3,4.1-3.8,4.1-6.8C57.7,3.4,54.2,0,50,0
	s-7.7,3.4-7.7,7.7c0,2.9,1.6,5.5,4.1,6.8c0.4,4.2,0.9,10.2,1.3,17.2c-3.5,0.4-6.7,1.8-9.4,4c-3.9-4.2-7.6-8.6-11.1-13
	c0.9-2.7,0.3-5.8-1.8-7.9c-3-3-7.8-3-10.8,0s-3,7.8,0,10.8c2.1,2.1,5,2.7,7.7,1.9c3.2,2.7,7.8,6.5,13.1,11.3c-2,2.6-3.4,5.8-3.7,9.3
	c-5.7-0.3-11.5-0.7-17-1.4c-1.2-2.6-3.9-4.3-6.9-4.3C3.4,42.3,0,45.8,0,50s3.4,7.7,7.7,7.7c2.9,0,5.5-1.6,6.8-4.1
	c4.2-0.4,10.1-0.9,17.2-1.2c0.4,3.5,1.9,6.7,4,9.2c-4.2,3.9-8.6,7.6-13,11.1c-2.7-0.9-5.8-0.3-7.9,1.8c-3,3-3,7.8,0,10.8
	s7.8,3,10.8,0c2.1-2.1,2.7-5,1.9-7.7c2.7-3.2,6.5-7.8,11.3-13.1c2.6,2,5.8,3.4,9.3,3.7c-0.3,5.7-0.7,11.5-1.4,17
	c-2.6,1.2-4.3,3.9-4.3,6.9c0,4.2,3.4,7.7,7.7,7.7s7.7-3.4,7.7-7.7c0-2.9-1.6-5.5-4.1-6.8c-0.4-4.2-0.9-10.1-1.2-17.2
	c3.4-0.4,6.4-1.8,9-3.7c3.8,4.2,7.6,8.5,11.3,13.1c-0.8,2.6-0.2,5.6,1.9,7.7c3,3,7.8,3,10.8,0s3-7.8,0-10.8c-2.1-2.1-5-2.7-7.7-1.9
	c-3.3-2.7-7.9-6.6-13.1-11.2c2-2.6,3.3-5.7,3.8-9.1c5.6,0.3,11.4,0.7,17.2,1.3c1.3,2.4,3.8,4.1,6.8,4.1c4.2,0,7.7-3.4,7.7-7.7
	S96.6,42.3,92.3,42.3z"/>
</svg>
