<?xml version="1.0" encoding="utf-8"?>
<!-- Generator: Adobe Illustrator 20.1.0, SVG Export Plug-In . SVG Version: 6.00 Build 0)  -->
<svg version="1.1" id="Layer_1" xmlns="http://www.w3.org/2000/svg" xmlns:xlink="http://www.w3.org/1999/xlink" x="0px" y="0px"
	 width="200px" height="48.4px" viewBox="0 0 200 48.4" style="enable-background:new 0 0 200 48.4;" xml:space="preserve">
<style type="text/css">
	.st0{fill:#FFFFFF;}
	.st1{fill:url(#SVGID_1_);}
	.st2{fill:url(#SVGID_2_);}
	.st3{fill:url(#SVGID_3_);}
	.st4{fill:url(#SVGID_4_);}
</style>
<g>
	<path class="st0" d="M46.2,33.3c-0.4,0.3-0.8,0.6-1.2,0.8c-0.5,0.2-0.9,0.4-1.4,0.6c-0.5,0.2-1,0.3-1.4,0.4
		c-0.5,0.1-0.9,0.1-1.3,0.1c-1.1,0-2.1-0.2-2.8-0.5s-1.3-0.8-1.7-1.4s-0.7-1.2-0.9-1.8c-0.2-0.7-0.2-1.3-0.2-1.9
		c0-2,0.3-3.8,0.8-5.3c0.5-1.6,1.3-2.9,2.2-4c0.9-1.1,1.9-1.9,3.1-2.5c1.2-0.6,2.4-0.9,3.6-0.9c0.9,0,1.6,0.1,2.2,0.2
		c0.6,0.2,1.1,0.3,1.6,0.6l-1,2.2c-0.4-0.2-0.9-0.4-1.5-0.5c-0.6-0.1-1.2-0.2-1.9-0.2c-0.8,0-1.6,0.3-2.3,0.8
		c-0.8,0.5-1.4,1.2-2,2.1c-0.6,0.9-1.1,1.9-1.4,3c-0.4,1.1-0.5,2.3-0.5,3.5c0,1.5,0.3,2.6,0.9,3.4s1.5,1.1,2.6,1.1
		c0.7,0,1.4-0.2,2.2-0.5s1.4-0.6,1.9-1L46.2,33.3z"/>
	<path class="st0" d="M48.8,29.4c0-1.8,0.2-3.5,0.7-5.1c0.5-1.5,1.1-2.8,2-3.9c0.8-1.1,1.8-1.9,2.9-2.6c1.1-0.6,2.3-0.9,3.6-0.9
		c1,0,1.8,0.2,2.5,0.5c0.7,0.3,1.2,0.7,1.7,1.3c0.4,0.5,0.7,1.2,0.9,1.9c0.2,0.7,0.3,1.5,0.3,2.2c0,1.8-0.2,3.4-0.7,4.9
		c-0.5,1.5-1.1,2.8-1.9,4c-0.8,1.1-1.7,2-2.8,2.6s-2.2,1-3.5,1c-1,0-1.9-0.2-2.6-0.5c-0.7-0.3-1.3-0.8-1.8-1.3s-0.8-1.2-1-1.9
		C48.9,30.8,48.8,30.1,48.8,29.4z M51.6,28.7c0,1.4,0.3,2.4,0.8,3.2c0.5,0.7,1.3,1.1,2.5,1.1c0.8,0,1.5-0.3,2.2-0.8
		c0.7-0.5,1.3-1.3,1.8-2.2c0.5-0.9,0.9-2,1.3-3.2c0.3-1.2,0.5-2.5,0.5-3.8c0-1.2-0.2-2.1-0.6-2.8c-0.4-0.7-1.3-1-2.5-1
		c-0.8,0-1.5,0.3-2.2,0.8c-0.7,0.5-1.3,1.2-1.9,2.1c-0.5,0.9-1,1.9-1.3,3.1C51.8,26.3,51.6,27.5,51.6,28.7z"/>
	<path class="st0" d="M76.1,34.8l2.3-11.1c0.1-0.4,0.2-0.8,0.2-1.2c0.1-0.4,0.1-0.8,0.1-1.1c0-0.7-0.2-1.2-0.5-1.6
		c-0.3-0.4-0.9-0.6-1.8-0.6c-0.6,0-1.2,0.1-1.8,0.4c-0.6,0.3-1.1,0.6-1.6,1.1c-0.5,0.4-1,0.9-1.4,1.4c-0.4,0.5-0.8,1-1,1.6
		l-2.3,11.2h-2.6l3.7-17.5h1.8l-0.1,3h0.1c0.3-0.4,0.7-0.8,1.1-1.2c0.4-0.4,0.9-0.8,1.4-1.1c0.5-0.3,1.1-0.6,1.8-0.8
		c0.7-0.2,1.4-0.3,2.2-0.3c1.2,0,2.1,0.3,2.8,0.8c0.7,0.6,1,1.5,1,2.9c0,0.7-0.1,1.5-0.3,2.5l-2.5,11.6H76.1z"/>
	<path class="st0" d="M91.8,29.9c0-0.6-0.2-1.1-0.5-1.5c-0.3-0.4-0.7-0.8-1.2-1.1c-0.5-0.3-1-0.7-1.5-1c-0.5-0.3-1-0.7-1.5-1.1
		c-0.5-0.4-0.9-0.9-1.2-1.4c-0.3-0.5-0.5-1.2-0.5-2c0-0.7,0.2-1.3,0.5-1.8c0.3-0.6,0.7-1.1,1.3-1.5c0.5-0.4,1.2-0.8,2-1
		c0.8-0.2,1.6-0.4,2.5-0.4c1.2,0,2.2,0.1,2.9,0.2c0.7,0.2,1.3,0.4,1.8,0.7l-0.9,2.1c-0.9-0.5-2.2-0.8-3.8-0.8c-1,0-1.8,0.2-2.4,0.6
		c-0.6,0.4-1,1-1,1.9c0,0.5,0.2,0.9,0.5,1.3c0.3,0.4,0.7,0.7,1.2,1s1,0.7,1.5,1c0.5,0.3,1,0.7,1.5,1.2c0.5,0.4,0.9,0.9,1.2,1.5
		c0.3,0.6,0.5,1.3,0.5,2.1c0,1.8-0.6,3.2-1.8,4.1c-1.2,0.9-2.9,1.4-4.9,1.4c-1.1,0-2-0.1-2.9-0.3s-1.6-0.5-2.1-0.8l1-2.2
		c0.5,0.3,1.1,0.6,1.8,0.8c0.8,0.2,1.5,0.3,2.4,0.3c1.1,0,2.1-0.3,2.7-0.8C91.5,31.7,91.8,30.9,91.8,29.9z"/>
	<path class="st0" d="M104.2,17.3L101.7,29c-0.1,0.6-0.2,1.2-0.2,1.8c0,0.7,0.1,1.2,0.4,1.6s0.7,0.6,1.4,0.6c0.6,0,1.1-0.1,1.7-0.4
		c0.6-0.3,1.1-0.6,1.6-1.1c0.5-0.4,1-0.9,1.4-1.5c0.4-0.5,0.8-1.1,1.1-1.6l2.3-11.1h2.6l-2.2,10.4c-0.1,0.4-0.2,0.9-0.3,1.5
		c-0.1,0.6-0.2,1.2-0.3,1.8c-0.1,0.6-0.1,1.2-0.2,1.8c0,0.6-0.1,1.1-0.1,1.6v0.5H109v-3.3h-0.1c-0.3,0.5-0.8,0.9-1.2,1.4
		c-0.5,0.4-1,0.8-1.5,1.2c-0.5,0.4-1.1,0.6-1.8,0.9c-0.6,0.2-1.3,0.3-2,0.3c-0.5,0-1-0.1-1.4-0.2c-0.4-0.1-0.8-0.3-1.1-0.6
		c-0.3-0.3-0.6-0.7-0.8-1.2c-0.2-0.5-0.3-1.1-0.3-1.8c0-0.8,0.1-1.7,0.4-2.8l2.4-11.4H104.2z"/>
	<path class="st0" d="M119.2,30.6c-0.1,0.4-0.1,0.7-0.1,1c0,0.4,0.1,0.8,0.2,1c0.2,0.2,0.4,0.3,0.6,0.3c0.5,0,0.9,0,1.2-0.1
		c0.3-0.1,0.7-0.2,1.1-0.3v2c-0.2,0.1-0.5,0.2-0.7,0.3c-0.3,0.1-0.6,0.1-0.9,0.2c-0.3,0-0.6,0.1-0.9,0.1c-0.3,0-0.6,0.1-0.8,0.1
		c-0.8,0-1.5-0.2-2-0.6c-0.5-0.4-0.7-1.1-0.7-2.1c0-0.5,0.1-1,0.2-1.7l4.3-20.5h2.6L119.2,30.6z"/>
	<path class="st0" d="M126.5,17.3h2.6l0.7-3.5l2.8-0.8l-0.9,4.3h4.6l-0.5,2.2h-4.5L129,30.1c0,0.3-0.1,0.5-0.1,0.8
		c0,0.2-0.1,0.4-0.1,0.6c0,0.6,0.1,0.9,0.4,1.2c0.3,0.2,0.6,0.3,1.2,0.3c0.6,0,1.1-0.1,1.5-0.2c0.5-0.1,0.9-0.4,1.4-0.6v2.1
		c-0.5,0.3-1.1,0.5-1.9,0.7c-0.8,0.2-1.5,0.3-2.2,0.3c-2.1,0-3.2-1-3.2-2.9c0-0.4,0.1-0.9,0.2-1.5l2.4-11.3H126L126.5,17.3z"/>
	<path class="st0" d="M140.6,17.3h2.6l-3.7,17.5h-2.6L140.6,17.3z M141.2,12c0-0.5,0.2-1,0.5-1.4c0.4-0.4,0.8-0.6,1.3-0.6
		s1,0.2,1.4,0.6c0.4,0.4,0.6,0.8,0.6,1.4c0,0.5-0.2,1-0.6,1.3c-0.4,0.4-0.8,0.5-1.4,0.5s-1-0.2-1.3-0.5
		C141.3,12.9,141.2,12.5,141.2,12z"/>
	<path class="st0" d="M155.6,34.8l2.3-11.1c0.1-0.4,0.2-0.8,0.2-1.2c0.1-0.4,0.1-0.8,0.1-1.1c0-0.7-0.2-1.2-0.5-1.6
		c-0.3-0.4-0.9-0.6-1.8-0.6c-0.6,0-1.2,0.1-1.8,0.4c-0.6,0.3-1.1,0.6-1.6,1.1c-0.5,0.4-1,0.9-1.4,1.4c-0.4,0.5-0.8,1-1,1.6
		l-2.3,11.2h-2.6l3.7-17.5h1.8l-0.1,3h0.1c0.3-0.4,0.7-0.8,1.1-1.2c0.4-0.4,0.9-0.8,1.4-1.1c0.5-0.3,1.1-0.6,1.8-0.8
		c0.7-0.2,1.4-0.3,2.2-0.3c1.2,0,2.1,0.3,2.8,0.8s1,1.5,1,2.9c0,0.7-0.1,1.5-0.3,2.5l-2.5,11.6H155.6z"/>
	<path class="st0" d="M175.8,35.6c-0.5,2.3-1.3,4-2.5,5c-1.2,1.1-2.8,1.6-4.8,1.6c-1.5,0-2.8-0.2-3.7-0.6c-1-0.4-1.7-0.7-2.2-1
		l1.2-2c0.2,0.1,0.4,0.2,0.7,0.4c0.3,0.2,0.6,0.3,1,0.4c0.4,0.1,0.9,0.3,1.4,0.4c0.5,0.1,1.2,0.1,1.9,0.1c1.2,0,2.1-0.4,2.9-1.3
		c0.8-0.8,1.4-2.2,1.8-4l0.6-2.9h-0.1c-0.3,0.4-0.7,0.9-1.1,1.3c-0.4,0.4-0.8,0.8-1.3,1.1s-1,0.6-1.5,0.8c-0.5,0.2-1.1,0.3-1.8,0.3
		c-1.3,0-2.3-0.5-3-1.4c-0.8-0.9-1.2-2.2-1.2-3.9c0-1.6,0.2-3.1,0.6-4.7c0.4-1.5,1.1-2.9,1.9-4.1c0.9-1.2,1.9-2.2,3.1-3
		c1.2-0.8,2.7-1.2,4.3-1.2c1.3,0,2.3,0.1,3.2,0.3s1.6,0.5,2.3,0.8L175.8,35.6z M169.2,33c0.6,0,1.2-0.2,1.7-0.5
		c0.6-0.3,1.1-0.7,1.6-1.2c0.5-0.5,0.9-1,1.3-1.6c0.4-0.6,0.7-1.1,1-1.6l1.8-8.4c-0.4-0.2-0.8-0.4-1.4-0.4c-0.5-0.1-1.1-0.1-1.6-0.1
		c-1,0-1.8,0.3-2.7,0.8c-0.8,0.6-1.5,1.3-2.1,2.3c-0.6,0.9-1.1,2-1.4,3.3c-0.3,1.2-0.5,2.5-0.5,3.9c0,1.1,0.2,1.9,0.6,2.5
		C167.9,32.6,168.5,33,169.2,33z"/>
</g>
<g>
	<linearGradient id="SVGID_1_" gradientUnits="userSpaceOnUse" x1="15.8655" y1="-1.519" x2="15.8655" y2="30.643">
		<stop  offset="0" style="stop-color:#FFF200"/>
		<stop  offset="1" style="stop-color:#F15A29"/>
	</linearGradient>
	<path class="st1" d="M14.3,24.6c0-2.2,1.8-3.9,3.9-3.9h0.8c0.9,0,1.7-0.7,1.7-1.7s-0.7-1.7-1.7-1.7h-0.8c-4,0-7.2,3.2-7.2,7.2v2.3
		h3.3V24.6z"/>
	<linearGradient id="SVGID_2_" gradientUnits="userSpaceOnUse" x1="10.5361" y1="-1.519" x2="10.5361" y2="30.643">
		<stop  offset="0" style="stop-color:#FFF200"/>
		<stop  offset="1" style="stop-color:#F15A29"/>
	</linearGradient>
	<path class="st2" d="M21,11.8c-0.3-0.9-1.3-1.3-2.1-1L1.2,17.4C0.5,17.6,0,18.2,0,19c0,0.8,0.6,1.5,1.4,1.6c0,0,0,0,0,0
		c0.1,0,0.2,0,0.2,0h0c0,0,0,0,0,0c0,0,0,0,0,0h0.8c2.2,0,3.9,1.8,3.9,3.9v2.3h3.3v-2.3c0-2.3-1.1-4.4-2.8-5.7L20,13.9
		C20.8,13.6,21.3,12.7,21,11.8z"/>
	<linearGradient id="SVGID_3_" gradientUnits="userSpaceOnUse" x1="10.5401" y1="-1.519" x2="10.5401" y2="30.643">
		<stop  offset="0" style="stop-color:#FFF200"/>
		<stop  offset="1" style="stop-color:#F15A29"/>
	</linearGradient>
	<path class="st3" d="M1.7,14.3c0.2,0,0.4,0,0.6-0.1L20,7.6c0.9-0.3,1.3-1.3,1-2.1c-0.3-0.9-1.3-1.3-2.1-1L1.1,11.1
		c-0.9,0.3-1.3,1.3-1,2.1C0.4,13.9,1,14.3,1.7,14.3z"/>
	<linearGradient id="SVGID_4_" gradientUnits="userSpaceOnUse" x1="7.6592" y1="-1.519" x2="7.6592" y2="30.643">
		<stop  offset="0" style="stop-color:#FFF200"/>
		<stop  offset="1" style="stop-color:#F15A29"/>
	</linearGradient>
	<path class="st4" d="M1.7,7.8c0.2,0,0.4,0,0.6-0.1l12-4.5c0.9-0.3,1.3-1.3,1-2.1c-0.3-0.9-1.3-1.3-2.1-1l-12,4.5
		c-0.9,0.3-1.3,1.3-1,2.1C0.4,7.4,1,7.8,1.7,7.8z"/>
	<path class="st0" d="M3.3,26.8c-0.6,0-1,0.4-1,1v8c0,0.3,0.1,0.6,0.4,0.8h0L5,39C5,39,5.2,39.1,5.3,39.1h10.3c0.1,0,0.2,0,0.3-0.1
		l2.3-2.4h0c0.2-0.2,0.4-0.5,0.4-0.8v-8c0-0.6-0.4-1-1-1h-3.2H11H9.7H6.4H3.3z"/>
	<path class="st0" d="M14.2,39.9H6.8c-0.4,0-0.8,0.3-0.8,0.8c0,0.4,0.3,0.8,0.8,0.8h7.4c0.4,0,0.8-0.3,0.8-0.8
		C15,40.3,14.6,39.9,14.2,39.9z"/>
	<path class="st0" d="M14.2,42.2H6.8C6.3,42.2,6,42.6,6,43c0,0.4,0.3,0.8,0.8,0.8h7.4c0.4,0,0.8-0.3,0.8-0.8
		C15,42.6,14.6,42.2,14.2,42.2z"/>
	<path class="st0" d="M14.2,44.6H6.8c-0.4,0-0.8,0.3-0.8,0.8c0,0.4,0.3,0.8,0.8,0.8h7.4c0.4,0,0.8-0.3,0.8-0.8
		C15,44.9,14.6,44.6,14.2,44.6z"/>
	<path class="st0" d="M10.5,48.5c1,0,1.9-0.6,2.2-1.5H8.3C8.6,47.8,9.5,48.5,10.5,48.5z"/>
</g>
</svg>
