<?xml version="1.0" encoding="utf-8"?>
<!-- Generator: Adobe Illustrator 19.0.1, SVG Export Plug-In . SVG Version: 6.00 Build 0)  -->
<!DOCTYPE svg PUBLIC "-//W3C//DTD SVG 1.1//EN" "http://www.w3.org/Graphics/SVG/1.1/DTD/svg11.dtd">
<svg version="1.1" id="Layer_1" xmlns="http://www.w3.org/2000/svg" xmlns:xlink="http://www.w3.org/1999/xlink" x="0px" y="0px"
	 width="137.9px" height="53.4px" viewBox="-236 370.6 137.9 53.4" style="enable-background:new -236 370.6 137.9 53.4;"
	 xml:space="preserve">
<style type="text/css">
	.st0{fill:none;}
	.st1{fill:#13B2D4;}
</style>
<g>
	<path class="st0" d="M-229.7,420.8c-0.4,0.5-1.2,0.7-2.1,1c-0.3,0.1-0.6,0.2-0.8,0.3c0.1,0,0.3,0,0.4,0c0.7,0,1.1-0.3,1.5-0.4
		c0.2-0.1,0.4-0.2,0.5-0.2c0.1,0,0.4-0.3,0.6-0.5c0.1-0.1,0.2-0.2,0.3-0.2C-229.5,420.7-229.7,420.7-229.7,420.8z"/>
	<path class="st0" d="M-224.6,416.8c-0.1,0-0.3,0.1-0.3,0.1c-0.2,0.3-0.4,0.5-0.6,0.7l-0.2,0.2c-0.2,0.1-0.4,0.4-0.7,0.6
		c-0.3,0.2-0.7,0.5-0.8,0.6c-0.1,0.1-0.5,0.5-0.8,0.9c0.2,0,0.7-0.5,0.9-0.7c0.3-0.3,0.4-0.4,0.6-0.5c0,0,0.1-0.1,0.2-0.2
		c0.1-0.1,0.3-0.3,0.5-0.4c0.2-0.1,1-0.9,1.6-1.5C-224.3,416.8-224.5,416.8-224.6,416.8z"/>
	<path class="st1" d="M-100.3,372.2c0,0-1.1,0-2.2-0.5c-0.8-0.4-1.1-0.4-1.6-0.1c-0.2,0.1-0.3,0.2-0.7,0.3c-0.5,0.1-0.7,0-1-0.1
		c-0.3-0.1-0.7-0.3-1.4-0.3c-1.2,0-1.7,0-3-0.1c-0.5,0-0.6-0.1-0.6-0.1c-0.1-0.1-0.3-0.1-0.6-0.2c-0.4,0-0.7,0.1-0.9,0.1
		c-0.3,0.1-0.5,0.2-1.1,0.1c-1.2-0.1-1.7-0.1-2.5,0.4c-0.6,0.4-1.6,0.4-2.7,0.4l-0.4,0c-0.9,0-1,0-1.8,0.4c-0.5,0.3-1.1,0.3-2.1,0.3
		l-0.4,0c-1,0-1.4,0.2-1.9,0.4c-0.2,0.1-0.5,0.2-0.9,0.3c-0.7,0.2-0.8,0.2-1,0.1c-0.2-0.1-0.4-0.1-0.7-0.2c-0.5,0-0.9,0.1-1.3,0.3
		c-0.3,0.2-0.7,0.3-1.2,0.3c-1.2,0-1.3,0-2.2,0.4l-0.1,0.1c-0.9,0.4-1.1,0.5-2.2,0.5c-0.8,0-1.3,0.2-1.9,0.4
		c-0.3,0.1-0.7,0.2-1.1,0.3c-0.6,0.1-1,0.3-1.5,0.5c-0.4,0.2-0.8,0.3-1.1,0.3c-0.1,0-0.3,0-0.4,0c-0.6,0-1.4-0.1-2,0.6
		c-0.4,0.5-0.7,0.5-1.3,0.5l-0.1,0c-0.6,0.1-1.3,0-1.3,0l-0.2,0l-0.2,0.1c-0.3,0.3-1,0.6-1.2,0.6c-0.4,0-0.9,0.2-1.5,0.4
		c-0.3,0.1-0.7,0.3-0.8,0.3c-0.3,0-0.5,0-0.8,0.1c-0.2,0.1-0.5,0.1-1,0.2c-0.5,0.1-0.7,0.2-0.9,0.3c-0.1,0.1-0.2,0.1-0.8,0.1
		c-1.5,0-2.9,1-3.4,1.7c-0.1,0.2-0.5,0.2-0.9,0.3c-0.4,0.1-0.8,0.2-1.3,0.4c-0.5,0.2-0.9,0.5-1.3,0.8c-0.5,0.4-0.9,0.7-1.3,0.7
		c-0.8,0-1.2,0.6-1.4,1.2c-0.2,0-0.5,0.1-0.8,0.1c-0.5,0.1-3.1,1.4-4.9,2.3c-0.2,0-0.3,0.1-0.4,0.2c-0.6,0.3-1.1,0.6-1.2,0.6
		c-0.3,0.2-1.5,0.4-2.4,0.7c-0.9,0.2-1.8,0.4-2.3,0.6c-0.3,0.1-0.6,0.2-0.9,0.3c-0.5,0.2-0.9,0.3-1.5,0.6c-0.3,0.1-0.5,0.3-0.8,0.4
		c-0.4,0.2-0.7,0.4-1,0.4c-0.4,0-1.4,0.5-2.4,1.2c-0.1-0.1-0.3-0.2-0.4-0.2c-0.3,0-0.5,0-0.7,0l-0.2,0c-0.3,0-0.5,0.2-0.5,0.5
		c0,0.3,0.2,0.5,0.5,0.5l0.2,0c-0.7,0.5-1.3,0.9-1.4,1c-0.6,0.5-2.1,1.2-2.7,1.3c-0.9,0.1-3.1,0.8-4.3,1.4c-1.2,0.6-2.7,1.3-3.5,1.6
		c-1,0.4-2.1,1.1-2.2,1.1l-0.1,0.1c-0.4,0.3-0.8,0.5-1.5,0.5c-0.6,0-1.2,0.2-1.8,0.4c-0.2,0.1-0.5,0.2-0.6,0.2
		c-0.6,0.1-1.8,1-2.3,1.4c-0.4,0.3-0.9,0.5-1.5,0.6c-0.2,0-0.3,0.1-0.5,0.1c-0.6,0.2-0.9,0.4-1.2,0.6c-0.1,0.1-0.3,0.2-0.5,0.3
		c-0.3,0.2-0.5,0.3-0.8,0.5c-0.3,0.2-0.6,0.4-1,0.6c-0.3,0.2-0.6,0.4-0.9,0.6c-0.4,0.3-0.8,0.6-1.3,0.7c-0.7,0.1-1.3,0.7-1.8,1.2
		c-0.3,0.2-0.5,0.5-0.7,0.6c-0.4,0.2-1.1,0.6-1.6,0.8c-0.3,0.2-0.6,0.3-0.8,0.4c-0.5,0.3-2.4,1.2-2.9,1.4c-0.3,0.1-0.6,0.4-0.9,0.6
		c-0.3,0.2-0.6,0.5-0.9,0.5c-0.7,0.2-1,0.5-1.4,0.8c-0.1,0.1-0.3,0.2-0.4,0.4c-0.4,0.4-0.6,0.4-0.8,0.5c-0.1,0-0.2,0.1-0.4,0.2
		c-0.4,0.2-0.6,0.4-0.7,0.7c0,0.1,0,0.1-0.1,0.2c-0.1,0.2-0.3,0.3-0.4,0.4c-0.2,0.2-0.4,0.3-0.6,0.6c-0.1,0.1-0.2,0.1-0.4,0.2
		c-0.3,0.1-0.6,0.2-0.8,0.5c-0.2,0.2-0.3,0.3-0.5,0.5c-0.1,0.1-0.2,0.1-0.3,0.2c-0.1,0.1-0.4,0.3-0.7,0.5c-0.5,0.4-0.8,0.6-0.9,0.8
		c-0.2,0.3-0.9,1-1.1,1.1c-0.1,0-0.1,0-0.2,0.1c-0.4,0.1-0.9,0.2-1.2,0.6c-0.2,0.3-0.8,0.4-1.5,0.6c-0.6,0.1-1.2,0.4-1.6,0.5
		c-0.1,0-0.2,0.1-0.2,0.1c-0.2,0.1-0.5,0.3-1,0.7c-0.2,0.2-0.2,0.5-0.1,0.7c0.1,0.2,0.2,0.4,0.5,0.4c0,0,0,0,0.1,0
		c0,0,1.1-0.1,2.2-0.2c0.9-0.1,1.5-0.3,1.9-0.5c0.1-0.1,0.3-0.1,0.4-0.2c0.3-0.1,0.6-0.3,1-0.7c0.3-0.2,0.8-0.7,0.9-0.7
		c0.5,0,1-0.5,1.6-1c0.1-0.1,0.2-0.2,0.2-0.2c0.2-0.1,0.4-0.3,0.6-0.4c0.1-0.1,0.2-0.2,0.3-0.2c0.2-0.1,0.7-0.6,2.1-2
		c0.3-0.3,0.5-0.4,0.5-0.5c0.1-0.1,0.2-0.2,0.2-0.2c0.1-0.2,0.2-0.2,0.3-0.2c0.8,0,1.4-0.3,1.6-0.5c0.1-0.1,0.4-0.3,0.7-0.7
		c0.4-0.3,0.9-0.8,1.1-1c0.1-0.1,0.2-0.1,0.3-0.2c0.3-0.2,0.7-0.5,1.1-0.6c0.6-0.1,1.1-0.4,1.5-0.6l0.2-0.1c0.3-0.1,0.7-0.4,1.1-0.5
		c0.3-0.1,2.1-0.9,2.6-1.2c0.1-0.1,0.5-0.3,0.8-0.5c0.7-0.4,1.5-0.8,1.9-1.1c0.2-0.2,0.5-0.4,0.7-0.6c0.3-0.3,0.7-0.7,0.9-0.7
		c0.8-0.1,1.4-0.4,1.7-0.6c0.1-0.1,0.2-0.2,0.4-0.3c0.2-0.2,0.6-0.6,0.9-0.6c0.7,0,1.4-0.3,1.8-0.5l0.3-0.2c0.7-0.4,2.6-1.3,3.1-1.5
		c0.4-0.1,1-0.5,1.5-0.8c0.3-0.2,0.9-0.5,1-0.6c0.3,0,0.7-0.1,1.4-0.4c0.6-0.2,1.3-0.4,1.6-0.4c0.7-0.1,1.2-0.3,1.7-0.5l0.3-0.1
		c0.2-0.1,0.4-0.2,0.5-0.2c0.2-0.1,0.3-0.2,0.6-0.2c0.5,0,0.8-0.2,1-0.4c0.2-0.1,0.2-0.2,0.4-0.2c0.4,0,0.8-0.1,1-0.2
		c0.2-0.1,0.5-0.1,0.7-0.2c0.5,0,0.9-0.2,1.4-0.3c0.3-0.1,0.6-0.1,0.7-0.1h0.1c0.4,0,0.8,0,1.2-0.2l0.2-0.1c0.2-0.1,0.4-0.2,0.7-0.3
		c0.3,0,0.6-0.2,0.8-0.3c0.2-0.1,0.3-0.2,0.5-0.2c0.3-0.1,0.6-0.2,0.8-0.3c0.3-0.1,0.5-0.3,0.9-0.4c0.6-0.1,1.6-0.7,3.3-1.5
		c0.7-0.3,1.4-0.7,2.1-1.1c1.6-0.8,2.1-0.9,2.4-1c0.1,0,0.2,0,0.3-0.1c0.2,0,0.3-0.1,0.5-0.2c0.2-0.1,0.5-0.2,1-0.4
		c0.5-0.1,0.6-0.1,0.8-0.1c0.1,0,0.2,0,0.3,0c0.3,0,0.7-0.1,1-0.3c0.2-0.1,0.3-0.1,0.5-0.2c0.3-0.1,0.7-0.2,1-0.4
		c0.3,0,0.5,0.1,0.8,0.1c0,0,0,0,0.1,0c0.3,0,0.5-0.2,0.5-0.4c0-0.1,0-0.2-0.1-0.3c0.3-0.2,0.6-0.3,0.8-0.3c0.3,0,0.5-0.1,0.8-0.2
		c0.1-0.1,0.3-0.1,0.6-0.2c0.3-0.1,0.4-0.2,0.6-0.2c0.3-0.1,0.5-0.2,0.9-0.2c0.8-0.1,1.3-0.3,1.5-0.8c0-0.1,0.2-0.1,0.3-0.2
		c0.2,0,2.1-0.8,2.5-1c0.1-0.1,0.4-0.3,0.6-0.5c0.3-0.3,0.9-0.8,1.1-0.8c0.3-0.1,0.6-0.2,0.9-0.3c0,0,0.1,0,0.1,0c0,0,0,0,0,0
		c0.2,0,0.4-0.1,0.5-0.3c0.1-0.1,0.2-0.2,0.3-0.3c0.3-0.4,0.5-0.4,0.7-0.4c0.4,0,0.8-0.3,1.2-0.7c0.2-0.1,0.3-0.3,0.4-0.3
		c0.2-0.1,0.4-0.1,0.5-0.2c0.2-0.1,0.4-0.1,0.6-0.2c0.3-0.1,0.6-0.3,0.9-0.5c0.3-0.2,0.7-0.4,0.9-0.5c0.3-0.1,0.6-0.3,0.9-0.5
		c0.4-0.2,1-0.6,1.2-0.6c0.3,0,0.5,0,0.7,0c0.2,0,0.4,0,0.7,0c0.4,0,0.8-0.2,1-0.3c0.2-0.1,0.4-0.2,0.6-0.2c0.4,0,0.6,0,0.9,0
		c0.2,0,0.4,0,0.6,0c0.7,0,1.1-0.2,1.4-0.3l0.1,0c0.2-0.1,0.3-0.2,0.4-0.3c0.2-0.1,0.3-0.3,0.9-0.3c0.2,0,0.5,0,0.7,0
		c0.7,0,1.3,0,1.9-0.2l0.3-0.1c0.3-0.1,0.3-0.1,0.7-0.1c0.4,0,0.8-0.1,1.1-0.3c0.3-0.1,0.6-0.2,0.7-0.2c0.3,0,0.4,0,0.6,0
		c0.1,0,0.3,0,0.7-0.1c2.8-0.1,3.4-0.2,3.7-0.4c0.3-0.1,0.7-0.2,1.1-0.2c0.4,0,0.6-0.1,0.8-0.3c0.2-0.1,0.3-0.2,0.6-0.2l0.6,0
		c0.5,0,1.6-0.1,2,0c0,0.1,0.1,0.2,0.3,0.3c0.2,0.1,0.5,0.1,1,0c0.3-0.1,0.5-0.2,0.7-0.2c0.2-0.1,0.3-0.1,0.6-0.1
		c0.4,0,0.8-0.1,1.1-0.2c0.3-0.1,0.5-0.2,0.8-0.2c0.4,0,0.9-0.1,1.3-0.1c0.6-0.1,1.1-0.1,1.9-0.1c0.5,0,1.1-0.1,1.6-0.1
		c0.3,0,0.6,0.1,0.9,0.1c0.5,0.1,0.9,0.2,1.5,0l0.4-0.1c0.5-0.1,0.8-0.2,1.3-0.1c0.2,0.4,0.8,0.4,1.7,0.3c1.5-0.1,1.7-0.1,2,0l0.3,0
		c0.3,0,0.4,0,0.6,0c0.1,0,0.2,0,0.4,0.1c0.3,0.1,0.5-0.1,0.6-0.3c0.1-0.3-0.1-0.5-0.3-0.6c-0.3-0.1-0.5-0.1-0.7-0.1
		c-0.1,0-0.2,0-0.4,0l-0.2,0c-0.4-0.1-0.7-0.1-2.2,0c-0.5,0-0.7,0-0.8,0c-0.1-0.2-0.4-0.3-0.6-0.3c-0.7-0.1-1.1,0-1.7,0.1l-0.3,0.1
		c-0.4,0.1-0.7,0-1.1-0.1c-0.3-0.1-0.6-0.1-1-0.1c-0.5,0-1.1,0-1.7,0.1c-0.8,0.1-1.3,0.1-2,0.1c-0.4,0.1-0.8,0.1-1.1,0.1
		c-0.5,0-0.8,0.1-1.2,0.2c-0.3,0.1-0.5,0.2-0.7,0.2c-0.5,0-0.6,0-1,0.2c-0.1,0-0.3,0.1-0.6,0.2c-0.1,0-0.1,0-0.2,0
		c-0.1-0.1-0.1-0.2-0.3-0.2c-0.3-0.2-0.9-0.2-2.6-0.1l-0.6,0c-0.7,0-1,0.3-1.2,0.4c0,0-0.1,0.1-0.2,0.1c-0.4,0-1.1,0-1.6,0.3
		c-0.1,0-0.6,0.2-3.3,0.3c-0.5,0-0.6,0-0.8,0.1c-0.1,0-0.2,0-0.4,0c-0.4,0-0.7,0.1-1.1,0.3c-0.3,0.1-0.6,0.2-0.8,0.2
		c-0.5,0-0.6,0-1,0.1l-0.3,0.1c-0.4,0.1-0.9,0.1-1.6,0.2c-0.2,0-0.5,0-0.7,0c-0.9,0-1.3,0.4-1.5,0.6c0,0-0.1,0.1-0.1,0.1l-0.1,0.1
		c-0.2,0.1-0.5,0.2-0.9,0.2c-0.2,0-0.4,0-0.6,0c-0.3,0-0.6,0-1,0c-0.4,0-0.7,0.2-1,0.3c-0.6,0.3-0.9,0.2-1.2,0.2c-0.2,0-0.4,0-0.7,0
		c-0.5,0-1.1,0.4-1.7,0.7c-0.2,0.2-0.6,0.3-0.7,0.4c-0.3,0.1-0.7,0.3-1.1,0.6c-0.3,0.2-0.6,0.3-0.8,0.4c-0.2,0.1-0.4,0.1-0.6,0.2
		c-0.2,0.1-0.4,0.1-0.7,0.3c-0.2,0.1-0.4,0.3-0.6,0.4c-0.2,0.1-0.5,0.4-0.6,0.4c-0.6,0-1,0.3-1.4,0.8c-0.1,0.1-0.2,0.2-0.3,0.2
		c-0.2,0-0.5,0-0.7,0c-0.3,0-0.5,0.2-0.5,0.4c-0.4,0.2-0.8,0.5-1.3,0.9c-0.2,0.2-0.4,0.3-0.5,0.4c-0.3,0.2-1.9,0.8-2.1,0.9
		c-0.1,0-0.8,0.1-1.1,0.7c-0.1,0.1-0.1,0.2-0.8,0.3c-0.6,0.1-0.9,0.2-1.2,0.3c-0.1,0.1-0.3,0.1-0.5,0.2c-0.3,0.1-0.5,0.2-0.6,0.2
		c-0.2,0.1-0.3,0.1-0.5,0.1c-0.4,0-1,0.3-1.5,0.6c-0.1,0.1-0.3,0.2-0.4,0.2c-0.1,0-0.2,0.1-0.3,0.1c-0.1,0-0.2,0.1-0.3,0.2
		c-0.2,0.1-0.5,0.2-0.7,0.2c-0.2,0-0.4,0.1-0.5,0.2c0.1-0.1,0.1-0.2,0.1-0.3c0-0.3-0.2-0.5-0.4-0.6l-1-0.1c-0.3,0-0.5,0.2-0.6,0.4
		c0,0.3,0.2,0.5,0.4,0.6l1,0.1c0,0,0,0,0,0c-0.1,0-0.2,0.1-0.3,0.1c-0.1,0-0.2,0-0.2,0c-0.3,0-0.5,0-1.1,0.1
		c-0.6,0.2-0.9,0.3-1.2,0.4c-0.1,0.1-0.2,0.1-0.3,0.1c-0.1,0-0.1,0-0.2,0c-0.4,0.1-0.9,0.2-2.7,1c-0.7,0.3-1.4,0.7-2.1,1.1
		c-1.3,0.7-2.6,1.3-3.1,1.4c-0.5,0.1-0.9,0.3-1.2,0.5c-0.2,0.1-0.4,0.2-0.5,0.2c-0.3,0.1-0.5,0.2-0.7,0.3c-0.2,0.1-0.3,0.2-0.5,0.2
		c-0.5,0-0.8,0.2-1.1,0.4l-0.2,0.1c-0.2,0.1-0.5,0.1-0.8,0.1h-0.1c-0.2,0-0.6,0.1-0.9,0.2c-0.4,0.1-0.8,0.2-1.2,0.2
		c-0.4,0-0.7,0.1-1,0.2c-0.3,0.1-0.5,0.2-0.7,0.2c-0.5,0-0.8,0.2-1,0.4c-0.2,0.1-0.3,0.2-0.5,0.2c-0.6,0-0.8,0.1-1.1,0.3
		c-0.1,0.1-0.2,0.1-0.4,0.2l-0.3,0.1c-0.4,0.2-0.9,0.4-1.4,0.4c-0.5,0-1.2,0.3-1.9,0.5c-0.4,0.1-1,0.3-1.1,0.3
		c-0.3,0-0.8,0.2-1.5,0.7c-0.5,0.3-1,0.6-1.3,0.7c-0.6,0.2-2,0.9-3.3,1.5l-0.3,0.2c-0.3,0.2-0.9,0.4-1.4,0.4c-0.6,0-1.2,0.5-1.5,0.8
		c-0.1,0.1-0.2,0.2-0.3,0.2c-0.2,0.1-0.7,0.4-1.3,0.5c-0.6,0.1-1.1,0.6-1.5,1c-0.2,0.2-0.4,0.4-0.5,0.5c-0.3,0.2-1.2,0.7-1.8,1
		c-0.4,0.2-0.7,0.4-0.9,0.5c-0.3,0.2-1.9,0.9-2.4,1.1c-0.4,0.2-0.9,0.4-1.2,0.6l-0.3,0.1c-0.2,0.1-0.6,0.3-1.1,0.4
		c-0.6,0.1-1.1,0.5-1.5,0.7c-0.1,0.1-0.2,0.1-0.3,0.2c-0.3,0.2-0.7,0.6-1.2,1.1c-0.2,0.2-0.5,0.5-0.6,0.6c-0.1,0.1-0.5,0.3-1,0.3
		c-0.2,0-0.3,0-0.4,0.1c0.1-0.2,0.2-0.4,0.2-0.5c0,0,0,0,0.2-0.1c0.1-0.1,0.2-0.1,0.3-0.1c0.3-0.1,0.6-0.2,1.1-0.7
		c0.2-0.2,0.3-0.3,0.5-0.4c0.3-0.3,0.5-0.5,0.9-0.6c0.5-0.1,0.9-0.4,1.3-0.7c0.2-0.2,0.4-0.3,0.6-0.4c0.6-0.3,2.6-1.2,3-1.5
		c0.2-0.1,0.5-0.2,0.8-0.4c0.6-0.3,1.2-0.6,1.7-0.9c0.3-0.2,0.6-0.5,0.9-0.7c0.4-0.4,0.8-0.8,1.3-0.9c0.7-0.1,1.2-0.6,1.7-0.9
		c0.3-0.2,0.5-0.4,0.8-0.6c0.5-0.2,0.8-0.4,1.1-0.6c0.2-0.1,0.5-0.3,0.8-0.4c0.2-0.1,0.4-0.3,0.6-0.4c0.3-0.2,0.5-0.3,0.9-0.5
		c0.2,0,0.3-0.1,0.5-0.1c0.7-0.2,1.3-0.4,1.9-0.8c0.8-0.7,1.6-1.2,1.8-1.2c0.2,0,0.4-0.1,0.8-0.2c0.4-0.2,1-0.4,1.4-0.4
		c0.9,0,1.6-0.2,2.1-0.7c0.2-0.1,1.2-0.7,2-1c0.8-0.3,2.4-1,3.6-1.6c1.1-0.6,3.3-1.3,3.9-1.3c0.9-0.1,2.6-1,3.3-1.5
		c0.5-0.4,2.1-1.4,3.2-2.1c0.1,0.1,0.2,0.2,0.4,0.2c0,0,0,0,0,0l1-0.1c0.3,0,0.5-0.3,0.5-0.5c0-0.1,0-0.2-0.1-0.2
		c0.3-0.1,0.6-0.3,0.9-0.4c0.2-0.1,0.4-0.3,0.7-0.4c0.5-0.3,1-0.4,1.4-0.6c0.3-0.1,0.6-0.2,0.9-0.3c0.4-0.2,1.3-0.4,2.1-0.6
		c1.4-0.3,2.3-0.5,2.7-0.8c0.2-0.1,0.7-0.4,1.3-0.7l0.8,0c0,0,0,0,0,0c0.3,0,0.5-0.2,0.5-0.5c0-0.1,0-0.1,0-0.2
		c1.6-0.8,3.3-1.7,3.6-1.7c0.6-0.1,1-0.2,1-0.2l0.4-0.1l0-0.4c0,0,0-0.7,0.4-0.7c0.7,0,1.3-0.4,1.9-0.9c0.4-0.3,0.7-0.5,1.1-0.7
		c0.4-0.2,0.7-0.2,1.1-0.3c0.6-0.1,1.2-0.2,1.5-0.7c0.3-0.5,1.5-1.3,2.6-1.3c0.8,0,1-0.1,1.2-0.2c0.1-0.1,0.2-0.1,0.6-0.2
		c0.5-0.1,0.8-0.2,1-0.2c0.3-0.1,0.4-0.1,0.6-0.1c0.3,0,0.7-0.1,1.2-0.3c0.4-0.1,0.9-0.3,1.1-0.3c0.6,0,1.4-0.5,1.7-0.7
		c0.3,0,0.8,0,1.2,0l0.1,0c0.6-0.1,1.2-0.1,1.9-0.8c0.3-0.3,0.6-0.3,1.3-0.3c0.2,0,0.3,0,0.5,0c0.5,0,1-0.2,1.5-0.4
		c0.4-0.2,0.8-0.4,1.3-0.5c0.5-0.1,0.8-0.2,1.2-0.3c0.5-0.2,0.9-0.3,1.6-0.3c1.2,0,1.6-0.1,2.6-0.5l0.1-0.1c0.7-0.3,0.7-0.3,1.7-0.3
		c0.8,0,1.2-0.2,1.6-0.4c0.3-0.1,0.5-0.2,0.8-0.2c0.2,0,0.4,0.1,0.5,0.1c0.4,0.1,0.7,0.2,1.6-0.1c0.4-0.1,0.7-0.2,0.9-0.3
		c0.5-0.2,0.8-0.3,1.6-0.3l0.4,0c1.1,0,1.8,0,2.6-0.4c0.5-0.3,0.5-0.3,1.3-0.3l0.4,0c1.2,0,2.5,0,3.3-0.5c0.5-0.3,0.7-0.4,1.8-0.2
		c0.8,0.1,1.2-0.1,1.5-0.2c0.2-0.1,0.3-0.1,0.5-0.1c0.1,0,0.2,0,0.2,0c0.2,0.1,0.4,0.2,1.1,0.2c1.2,0.1,1.8,0.1,3,0.1
		c0.5,0,0.7,0.1,1,0.2c0.4,0.2,0.8,0.4,1.6,0.2c0.5-0.1,0.8-0.3,0.9-0.4c0.2-0.1,0.2-0.1,0.7,0.1c1.2,0.6,2.5,0.6,2.6,0.6
		c0.3,0,0.5-0.2,0.5-0.5S-100,372.2-100.3,372.2z M-230.2,421.3c-0.2,0-0.3,0.1-0.5,0.2c-0.4,0.2-0.8,0.4-1.5,0.4
		c-0.1,0-0.3,0-0.4,0c0.3-0.1,0.6-0.2,0.8-0.3c0.9-0.2,1.6-0.4,2.1-1c0.1-0.1,0.2-0.2,0.4-0.2c-0.1,0.1-0.2,0.2-0.3,0.2
		C-229.8,421-230.1,421.3-230.2,421.3z M-225.8,418.2c-0.2,0.1-0.3,0.3-0.5,0.4c-0.1,0.1-0.2,0.2-0.2,0.2c-0.2,0.1-0.3,0.2-0.6,0.5
		c-0.2,0.2-0.7,0.7-0.9,0.7c0.3-0.4,0.7-0.8,0.8-0.9c0.1-0.1,0.5-0.4,0.8-0.6c0.3-0.2,0.6-0.4,0.7-0.6l0.2-0.2
		c0.2-0.2,0.4-0.4,0.6-0.7c0,0,0.2-0.1,0.3-0.1c0.1,0,0.2-0.1,0.3-0.1C-224.8,417.3-225.7,418.1-225.8,418.2z"/>
	<path class="st1" d="M-199.4,390c-0.1,0-0.2,0-0.3,0h-0.1c-0.3,0-0.5,0.2-0.5,0.5s0.2,0.5,0.5,0.5c0.2,0,0.3,0,0.4,0
		c0.1,0,0.4,0,0.6-0.1c0.3,0,0.5-0.3,0.4-0.6c0-0.3-0.3-0.5-0.6-0.4C-199,390-199.2,390-199.4,390z"/>
	<path class="st1" d="M-196.8,389.7c-0.3,0-0.5,0.3-0.4,0.5c0,0.3,0.2,0.5,0.5,0.5c0,0,0,0,0,0c0.3,0,0.7-0.1,1-0.1
		c0.3,0,0.5-0.3,0.5-0.5c0-0.3-0.3-0.5-0.5-0.5C-196.1,389.7-196.4,389.7-196.8,389.7z"/>
	<path class="st1" d="M-185.4,392.1c-0.1,0.3,0.1,0.5,0.4,0.6c0.3,0.1,0.7,0.2,1,0.2c0,0,0.1,0,0.1,0c0.2,0,0.4-0.2,0.5-0.4
		c0.1-0.3-0.1-0.5-0.4-0.6c-0.3-0.1-0.6-0.1-1-0.2C-185.1,391.6-185.4,391.8-185.4,392.1z"/>
	<path class="st1" d="M-191.3,390.9c-0.1,0.3,0.1,0.5,0.4,0.6l1,0.2c0,0,0.1,0,0.1,0c0.2,0,0.4-0.2,0.5-0.4c0.1-0.3-0.1-0.5-0.4-0.6
		l-1-0.2C-191,390.5-191.3,390.6-191.3,390.9z"/>
	<path class="st1" d="M-194.3,390.3c-0.1,0.3,0.1,0.5,0.4,0.6c0.3,0.1,0.6,0.1,1,0.2c0,0,0.1,0,0.1,0c0.2,0,0.4-0.2,0.5-0.4
		c0.1-0.3-0.1-0.5-0.4-0.6l-1-0.2C-193.9,389.8-194.2,390-194.3,390.3z"/>
	<path class="st1" d="M-187.8,391.1c-0.3,0-0.5,0.1-0.6,0.4c0,0.3,0.1,0.5,0.4,0.6l0.2,0c0.3,0,0.5,0.1,0.8,0.1c0,0,0.1,0,0.1,0
		c0.2,0,0.4-0.2,0.5-0.4c0.1-0.3-0.1-0.5-0.4-0.6c-0.3-0.1-0.5-0.1-0.8-0.2L-187.8,391.1z"/>
	<path class="st1" d="M-110.2,398.4c-0.4-0.1-0.7-0.2-1-0.3c-0.3-0.1-0.5,0.1-0.6,0.4s0.1,0.5,0.4,0.6c0.3,0.1,0.5,0.1,0.9,0.2
		c0.1,0,0.1,0,0.2,0c0.2,0,0.4-0.1,0.5-0.3C-109.8,398.7-109.9,398.5-110.2,398.4z"/>
	<path class="st1" d="M-234,400.4C-234,400.5-234,400.5-234,400.4c0.3,0,0.5-0.2,0.6-0.4c0-0.3-0.1-0.5-0.4-0.6
		c-0.5-0.1-0.8-0.1-1-0.1c0,0-0.1,0-0.1,0c-0.3,0-0.5,0.2-0.4,0.5s0.3,0.5,0.5,0.5C-234.8,400.4-234.5,400.4-234,400.4z"/>
	<path class="st1" d="M-232.3,401c0.1,0,0.2,0.1,0.3,0.2c0.2,0.1,0.5,0.2,0.7,0.3c0,0,0.1,0,0.1,0c0.2,0,0.4-0.1,0.5-0.4
		c0.1-0.3-0.1-0.5-0.3-0.6c-0.2-0.1-0.3-0.1-0.5-0.2c-0.1-0.1-0.2-0.1-0.3-0.2c-0.2-0.1-0.5,0-0.7,0.2
		C-232.6,400.6-232.5,400.9-232.3,401z"/>
	<path class="st1" d="M-163.1,392.1l-0.2,0c-0.3,0-0.5,0.1-0.8,0.1c-0.3,0-0.5,0.3-0.4,0.6c0,0.3,0.2,0.4,0.5,0.4c0,0,0,0,0.1,0
		c0.2,0,0.5,0,0.8-0.1l0.2,0c0.3,0,0.5-0.3,0.5-0.5S-162.9,392.1-163.1,392.1z"/>
	<path class="st1" d="M-130.6,394.2l-1-0.2c-0.3-0.1-0.5,0.1-0.6,0.4c-0.1,0.3,0.1,0.5,0.4,0.6l1,0.2c0,0,0.1,0,0.1,0
		c0.2,0,0.4-0.2,0.5-0.4C-130.2,394.5-130.4,394.3-130.6,394.2z"/>
	<path class="st1" d="M-160.2,391.7l-0.2,0c-0.2,0.1-0.5,0.1-0.7,0.1c-0.3,0-0.5,0.3-0.4,0.6c0,0.2,0.3,0.4,0.5,0.4c0,0,0.1,0,0.1,0
		c0.3,0,0.5-0.1,0.8-0.1l0.2,0c0.3-0.1,0.4-0.3,0.4-0.6C-159.7,391.8-160,391.7-160.2,391.7z"/>
	<path class="st1" d="M-139.5,392.4c-0.3,0-0.6,0-1,0c0,0,0,0,0,0c-0.3,0-0.5,0.2-0.5,0.5c0,0.3,0.2,0.5,0.5,0.5c0.4,0,0.7,0,1,0
		c0,0,0,0,0,0c0.3,0,0.5-0.2,0.5-0.5C-139,392.6-139.2,392.4-139.5,392.4z"/>
	<path class="st1" d="M-226.8,398c-0.2,0.3-0.4,0.6-0.6,0.9c-0.1,0.2-0.1,0.5,0.2,0.7c0.1,0,0.2,0.1,0.3,0.1c0.2,0,0.3-0.1,0.4-0.2
		c0.1-0.2,0.3-0.5,0.5-0.8c0.2-0.2,0.1-0.5-0.1-0.7C-226.3,397.7-226.6,397.8-226.8,398z"/>
	<path class="st1" d="M-229.2,401.5c0,0,0.1,0,0.1,0c0.4-0.1,0.7-0.3,1-0.5c0.2-0.1,0.3-0.5,0.2-0.7c-0.1-0.2-0.5-0.3-0.7-0.2
		c-0.3,0.2-0.5,0.3-0.8,0.4c-0.3,0.1-0.4,0.4-0.3,0.6C-229.6,401.4-229.4,401.5-229.2,401.5z"/>
	<path class="st1" d="M-124.8,395.3c-0.4-0.1-0.7-0.1-1-0.2c-0.3-0.1-0.5,0.1-0.6,0.4c-0.1,0.3,0.1,0.5,0.4,0.6
		c0.3,0.1,0.6,0.1,1,0.2c0,0,0.1,0,0.1,0c0.2,0,0.5-0.2,0.5-0.4C-124.3,395.6-124.5,395.4-124.8,395.3z"/>
	<path class="st1" d="M-202.7,389.8c-0.3,0-0.5,0.2-0.5,0.5c0,0.3,0.2,0.5,0.5,0.5c0.3,0,0.7,0.1,1,0.1c0,0,0,0,0,0
		c0.3,0,0.5-0.2,0.5-0.5c0-0.3-0.2-0.5-0.5-0.5C-202,389.9-202.4,389.9-202.7,389.8z"/>
	<path class="st1" d="M-142.4,392.2c-0.3-0.1-0.5-0.2-0.8-0.3c-0.2-0.1-0.5,0-0.7,0.2c-0.1,0.2,0,0.5,0.2,0.7c0.3,0.2,0.7,0.3,1,0.4
		c0,0,0.1,0,0.1,0c0.2,0,0.4-0.1,0.5-0.4C-142,392.6-142.1,392.3-142.4,392.2z"/>
	<path class="st1" d="M-148,391c-0.3-0.1-0.6-0.2-1-0.2l-0.2,0c-0.3,0-0.5,0.2-0.5,0.5c0,0.3,0.2,0.5,0.5,0.5l0.1,0
		c0.2,0,0.4,0,0.7,0.1c0.1,0,0.1,0,0.2,0c0.2,0,0.4-0.1,0.5-0.3C-147.6,391.4-147.8,391.1-148,391z"/>
	<path class="st1" d="M-121.8,395.5c-0.6-0.1-0.9-0.1-1.1-0.1c-0.3,0-0.5,0.3-0.4,0.6s0.3,0.5,0.6,0.4c0.2,0,0.4,0,0.8,0.1
		c0,0,0.1,0,0.1,0c0.2,0,0.4-0.2,0.5-0.4C-121.3,395.9-121.5,395.6-121.8,395.5z"/>
	<path class="st1" d="M-118.8,396.2c-0.3-0.1-0.6-0.2-1-0.2c-0.3-0.1-0.5,0.1-0.6,0.4c-0.1,0.3,0.1,0.5,0.4,0.6
		c0.3,0.1,0.6,0.2,1,0.2c0,0,0.1,0,0.1,0c0.2,0,0.4-0.2,0.5-0.4C-118.4,396.5-118.6,396.3-118.8,396.2z"/>
	<path class="st1" d="M-157.1,391.4C-157.1,391.4-157.1,391.4-157.1,391.4c-0.4,0-0.7,0-1,0c-0.3,0-0.5,0.2-0.5,0.5
		c0,0.3,0.2,0.5,0.5,0.5c0,0,0,0,0,0c0.3,0,0.6,0,1,0c0.3,0,0.5-0.2,0.5-0.5C-156.6,391.7-156.9,391.4-157.1,391.4z"/>
	<path class="st1" d="M-154.2,391.3c-0.3,0-0.6,0.1-0.9,0.1c-0.3,0-0.5,0.3-0.5,0.5c0,0.3,0.2,0.5,0.5,0.5c0,0,0,0,0,0
		c0.4,0,0.7-0.1,1-0.1c0.3,0,0.5-0.3,0.4-0.6C-153.7,391.4-154,391.3-154.2,391.3z"/>
	<path class="st1" d="M-225,397.3c0.1,0,0.2,0,0.3-0.1c0.2-0.2,0.5-0.4,0.7-0.6c0.2-0.2,0.2-0.5,0.1-0.7c-0.2-0.2-0.5-0.2-0.7-0.1
		c-0.3,0.2-0.5,0.4-0.8,0.7c-0.2,0.2-0.2,0.5,0,0.7C-225.3,397.3-225.1,397.3-225,397.3z"/>
	<path class="st1" d="M-145.1,391c-0.2-0.1-0.5-0.1-0.7-0.1c-0.1,0-0.3,0-0.4,0c-0.3,0-0.5,0.3-0.5,0.5s0.3,0.5,0.5,0.5
		c0.1,0,0.2,0,0.3,0c0.2,0,0.4,0,0.5,0.1c0,0,0.1,0,0.1,0c0.2,0,0.4-0.2,0.5-0.4C-144.7,391.3-144.9,391.1-145.1,391z"/>
	<path class="st1" d="M-151.2,391c-0.2,0-0.5,0-0.7,0l-0.3,0c-0.3,0-0.5,0.3-0.5,0.5c0,0.3,0.2,0.5,0.5,0.5c0,0,0,0,0,0l0.3,0
		c0.3,0,0.5,0,0.7,0c0.3,0,0.5-0.3,0.5-0.5C-150.7,391.2-150.9,391-151.2,391z"/>
	<path class="st1" d="M-113.2,397.9c-0.3,0-0.5-0.1-0.7-0.3c-0.2-0.1-0.5-0.1-0.7,0.2s-0.1,0.5,0.2,0.7c0.3,0.2,0.6,0.4,1.1,0.4
		c0,0,0.1,0,0.1,0c0.2,0,0.5-0.2,0.5-0.4C-112.7,398.2-112.9,398-113.2,397.9z"/>
	<path class="st1" d="M-133.5,393.5c-0.3-0.1-0.6-0.2-1-0.3c-0.3-0.1-0.5,0.1-0.6,0.4c-0.1,0.3,0.1,0.5,0.4,0.6
		c0.3,0.1,0.6,0.2,1,0.3c0,0,0.1,0,0.1,0c0.2,0,0.4-0.1,0.5-0.4C-133.1,393.8-133.2,393.5-133.5,393.5z"/>
	<path class="st1" d="M-210.4,391.5c-0.1,0-0.3,0.1-0.5,0.1c-0.1,0-0.3,0-0.4,0c-0.3,0-0.5,0.3-0.4,0.5c0,0.3,0.2,0.4,0.5,0.4
		c0,0,0,0,0.1,0c0.1,0,0.3,0,0.4-0.1c0.3,0,0.5-0.1,0.7-0.1c0.3-0.1,0.4-0.4,0.3-0.6C-209.9,391.5-210.2,391.4-210.4,391.5z"/>
	<path class="st1" d="M-213.3,391.7l-1,0c-0.3,0-0.5,0.2-0.5,0.5c0,0.3,0.2,0.5,0.5,0.5l1,0c0,0,0,0,0,0c0.3,0,0.5-0.2,0.5-0.5
		C-212.8,391.9-213,391.7-213.3,391.7z"/>
	<path class="st1" d="M-207.7,390.7c-0.2,0.1-0.5,0.2-0.8,0.2c-0.3,0-0.5,0.2-0.5,0.5c0,0.3,0.2,0.5,0.5,0.5c0,0,0,0,0,0
		c0.4,0,0.8-0.1,1.2-0.3c0.2-0.1,0.4-0.4,0.2-0.7C-207.1,390.7-207.4,390.5-207.7,390.7z"/>
	<path class="st1" d="M-172.2,391.5c-0.4,0-0.7,0-0.9,0c-0.3,0-0.5,0.3-0.4,0.6c0,0.3,0.2,0.4,0.5,0.4c0,0,0,0,0.1,0
		c0.2,0,0.5,0,0.8,0l0.1,0c0.3,0,0.5-0.2,0.5-0.5c0-0.3-0.2-0.5-0.5-0.5L-172.2,391.5z"/>
	<path class="st1" d="M-204.8,389.6c-0.4,0-0.7,0-1,0.1c-0.3,0.1-0.4,0.3-0.4,0.6c0.1,0.2,0.3,0.4,0.5,0.4c0,0,0.1,0,0.1,0
		c0.2,0,0.3-0.1,0.7,0l0.1,0c0.3,0,0.5-0.2,0.6-0.4c0-0.3-0.2-0.5-0.4-0.6L-204.8,389.6z"/>
	<path class="st1" d="M-175.1,391.8c-0.3,0-0.6,0-1,0c-0.3,0-0.5,0.2-0.5,0.5c0,0.3,0.2,0.5,0.5,0.5c0,0,0,0,0,0c0.4,0,0.7,0,1,0
		c0.3,0,0.5-0.3,0.5-0.5S-174.8,391.8-175.1,391.8z"/>
	<path class="st1" d="M-222,394.1c-0.3,0.2-0.6,0.4-0.9,0.5c-0.2,0.1-0.3,0.5-0.2,0.7c0.1,0.2,0.3,0.2,0.4,0.2c0.1,0,0.2,0,0.3-0.1
		c0.2-0.2,0.5-0.3,0.9-0.5c0.2-0.1,0.3-0.4,0.2-0.7C-221.5,394-221.8,394-222,394.1z"/>
	<path class="st1" d="M-219.3,392.7c-0.3,0.1-0.6,0.3-0.9,0.4c-0.2,0.1-0.3,0.4-0.2,0.7c0.1,0.2,0.3,0.3,0.4,0.3
		c0.1,0,0.2,0,0.2-0.1c0.3-0.1,0.6-0.3,0.9-0.4c0.3-0.1,0.4-0.4,0.2-0.7C-218.8,392.7-219.1,392.5-219.3,392.7z"/>
	<path class="st1" d="M-136.5,392.8l-1-0.1c-0.3,0-0.5,0.1-0.6,0.4c0,0.3,0.1,0.5,0.4,0.6l1,0.1c0,0,0,0,0.1,0
		c0.2,0,0.5-0.2,0.5-0.4C-136,393.1-136.2,392.8-136.5,392.8z"/>
	<path class="st1" d="M-216.3,391.7c-0.3,0-0.7,0.1-1,0.2c-0.3,0.1-0.4,0.4-0.3,0.6c0.1,0.2,0.3,0.4,0.5,0.4c0,0,0.1,0,0.1,0
		c0.3-0.1,0.6-0.2,0.9-0.2c0.3,0,0.5-0.3,0.4-0.6C-215.8,391.8-216.1,391.6-216.3,391.7z"/>
	<path class="st1" d="M-115.9,396.8c-0.2,0-0.4-0.1-0.7-0.1l-0.3,0c-0.3,0-0.5,0.1-0.6,0.4c0,0.3,0.1,0.5,0.4,0.6l0.3,0.1
		c0.2,0,0.4,0.1,0.6,0.1c0,0,0.1,0,0.1,0c0.2,0,0.4-0.2,0.5-0.4C-115.5,397.1-115.6,396.8-115.9,396.8z"/>
	<path class="st1" d="M-127.7,394.7l-0.1,0c-0.3,0-0.5,0-0.8-0.1c-0.3,0-0.5,0.1-0.6,0.4s0.1,0.5,0.4,0.6c0.3,0,0.6,0.1,0.9,0.1
		l0.1,0c0,0,0,0,0,0c0.3,0,0.5-0.2,0.5-0.5C-127.3,395-127.5,394.7-127.7,394.7z"/>
	<path class="st1" d="M-203,387.6c0.1,0,0.1,0,0.2,0c0.2-0.1,0.5-0.2,0.7-0.3l0.2-0.1c0.3-0.1,0.4-0.4,0.3-0.6
		c-0.1-0.3-0.4-0.4-0.6-0.3l-0.2,0.1c-0.2,0.1-0.5,0.2-0.7,0.3c-0.3,0.1-0.4,0.4-0.3,0.6C-203.4,387.4-203.2,387.6-203,387.6z"/>
	<path class="st1" d="M-137.2,389.7c0.2,0,0.4-0.2,0.5-0.4c0.1-0.3-0.1-0.5-0.4-0.6l-1-0.2c-0.3-0.1-0.5,0.1-0.6,0.4
		c-0.1,0.3,0.1,0.5,0.4,0.6l1,0.2C-137.2,389.7-137.2,389.7-137.2,389.7z"/>
	<path class="st1" d="M-131.3,390.8C-131.3,390.8-131.3,390.8-131.3,390.8c0.3,0,0.5-0.2,0.5-0.5c0-0.3-0.2-0.5-0.5-0.5l-0.2,0
		c-0.3,0-0.5,0-0.8-0.1c-0.3,0-0.5,0.2-0.6,0.4c0,0.3,0.2,0.5,0.4,0.6c0.3,0,0.6,0.1,0.8,0.1L-131.3,390.8z"/>
	<path class="st1" d="M-134.2,390.4c0.2,0,0.4-0.2,0.5-0.4c0.1-0.3-0.1-0.5-0.4-0.6c-0.3-0.1-0.6-0.1-1-0.2
		c-0.3-0.1-0.5,0.1-0.6,0.4c-0.1,0.3,0.1,0.5,0.4,0.6C-135,390.2-134.7,390.3-134.2,390.4C-134.3,390.4-134.3,390.4-134.2,390.4z"/>
	<path class="st1" d="M-125.5,391.9C-125.5,391.9-125.4,391.9-125.5,391.9c0.3,0,0.5-0.2,0.6-0.4c0-0.3-0.2-0.5-0.4-0.6
		c-0.2,0-0.5-0.1-0.8-0.1c-0.1,0-0.2,0-0.3,0c-0.3,0-0.5,0.2-0.5,0.5s0.2,0.5,0.5,0.5c0.1,0,0.2,0,0.3,0
		C-125.9,391.8-125.7,391.9-125.5,391.9z"/>
	<path class="st1" d="M-170.8,388.3c0.3,0,0.7,0.1,1,0.1c0,0,0,0,0,0c0.3,0,0.5-0.2,0.5-0.5c0-0.3-0.2-0.5-0.5-0.5
		c-0.3,0-0.6,0-1-0.1c-0.3,0-0.5,0.2-0.6,0.4C-171.3,388-171.1,388.2-170.8,388.3z"/>
	<path class="st1" d="M-146.1,389c0.3,0,0.5-0.2,0.5-0.5c0-0.3-0.3-0.5-0.5-0.5l-0.3,0c-0.2,0-0.4,0-0.7,0c-0.3,0-0.5,0.2-0.6,0.4
		c0,0.3,0.2,0.5,0.4,0.6c0.3,0,0.6,0.1,0.8,0.1L-146.1,389z"/>
	<path class="st1" d="M-140.1,389.1c0.2,0,0.5-0.2,0.5-0.4c0-0.3-0.1-0.5-0.4-0.6c-0.4-0.1-0.7-0.1-1-0.1c-0.3,0-0.5,0.2-0.5,0.5
		c0,0.3,0.2,0.5,0.5,0.5C-140.8,389-140.5,389.1-140.1,389.1C-140.2,389.1-140.1,389.1-140.1,389.1z"/>
	<path class="st1" d="M-149.1,388.6c0.2,0,0.4-0.2,0.5-0.4c0.1-0.3-0.1-0.5-0.4-0.6c-0.3-0.1-0.6-0.2-1-0.2
		c-0.3-0.1-0.5,0.1-0.6,0.4c-0.1,0.3,0.1,0.5,0.4,0.6c0.3,0.1,0.7,0.2,1,0.3C-149.1,388.5-149.1,388.6-149.1,388.6z"/>
	<path class="st1" d="M-152,387.8c0.2,0,0.4-0.2,0.5-0.4c0.1-0.3-0.1-0.5-0.4-0.6c-0.3-0.1-0.6-0.1-1-0.1c-0.3,0-0.5,0.2-0.5,0.4
		c0,0.3,0.2,0.5,0.4,0.5C-152.7,387.7-152.3,387.8-152,387.8C-152,387.8-152,387.8-152,387.8z"/>
	<path class="st1" d="M-122.5,392.6c0.2,0,0.5-0.2,0.5-0.4c0-0.3-0.1-0.5-0.4-0.6c-0.4-0.1-0.7-0.1-0.9-0.2
		c-0.3-0.1-0.5,0.1-0.6,0.4c-0.1,0.3,0.1,0.5,0.4,0.6C-123.3,392.5-123,392.5-122.5,392.6C-122.6,392.6-122.5,392.6-122.5,392.6z"/>
	<path class="st1" d="M-143.1,389C-143.1,389-143.1,389-143.1,389c0.3,0,0.5-0.2,0.5-0.5c0-0.3-0.2-0.5-0.5-0.5l-0.2,0
		c-0.3,0-0.5,0-0.8,0c-0.3,0-0.5,0.2-0.5,0.5c0,0.3,0.2,0.5,0.5,0.5c0,0,0,0,0,0c0.2,0,0.5,0,0.8,0L-143.1,389z"/>
	<path class="st1" d="M-110.7,394.8c0.3,0,0.5-0.2,0.5-0.5c0-0.3-0.2-0.5-0.5-0.5l-1-0.1c-0.3,0-0.5,0.2-0.5,0.5
		c0,0.3,0.2,0.5,0.5,0.5L-110.7,394.8C-110.8,394.8-110.8,394.8-110.7,394.8z"/>
	<path class="st1" d="M-158.9,386.4c-0.3,0-0.5,0.2-0.5,0.5c0,0.3,0.2,0.5,0.5,0.5l1,0c0,0,0,0,0,0c0.3,0,0.5-0.2,0.5-0.5
		c0-0.3-0.2-0.5-0.5-0.5L-158.9,386.4z"/>
	<path class="st1" d="M-102.2,396.7c-0.3-0.1-0.6-0.2-0.9-0.3c-0.3-0.1-0.5,0.1-0.6,0.3c-0.1,0.3,0.1,0.5,0.3,0.6
		c0.3,0.1,0.7,0.2,1,0.3c0,0,0.1,0,0.1,0c0.2,0,0.4-0.2,0.5-0.4C-101.7,397-101.9,396.8-102.2,396.7z"/>
	<path class="st1" d="M-104.9,395.8c-0.1-0.1-0.3-0.2-0.5-0.3l-0.4-0.2c-0.2-0.1-0.5-0.1-0.7,0.2c-0.1,0.2-0.1,0.5,0.2,0.7l0.3,0.2
		c0.2,0.1,0.4,0.2,0.6,0.3c0.1,0,0.1,0,0.2,0c0.2,0,0.4-0.1,0.5-0.3C-104.6,396.2-104.7,395.9-104.9,395.8z"/>
	<path class="st1" d="M-119.5,393c0.2,0,0.4-0.2,0.5-0.4c0.1-0.3-0.1-0.5-0.4-0.6c-0.3-0.1-0.7-0.1-1-0.2c-0.3,0-0.5,0.1-0.6,0.4
		s0.1,0.5,0.4,0.6C-120.3,392.9-119.9,393-119.5,393C-119.6,393-119.6,393-119.5,393z"/>
	<path class="st1" d="M-161.1,386.6c-0.4,0.1-0.7,0.3-1,0.4l0.2,0.5l0.3,0.4c0.3-0.1,0.5-0.2,0.8-0.3c0.3-0.1,0.4-0.4,0.3-0.6
		S-160.8,386.5-161.1,386.6z"/>
	<path class="st1" d="M-164.4,387.5l-0.3,0c-0.3,0-0.5,0.2-0.5,0.5c0,0.3,0.2,0.5,0.5,0.5l0.4,0c0.3,0,0.5,0,0.7,0
		c0.3,0,0.5-0.3,0.5-0.5c0-0.3-0.3-0.5-0.5-0.5C-164,387.5-164.2,387.5-164.4,387.5z"/>
	<path class="st1" d="M-113.7,394.5c0.2,0,0.4-0.2,0.5-0.4c0.1-0.3-0.1-0.5-0.4-0.6c-0.3-0.1-0.6-0.1-1-0.2
		c-0.3-0.1-0.5,0.1-0.6,0.4c-0.1,0.3,0.1,0.5,0.4,0.6C-114.5,394.3-114.1,394.4-113.7,394.5C-113.8,394.5-113.8,394.5-113.7,394.5z"
		/>
	<path class="st1" d="M-107.6,394.4c-0.4-0.1-0.7-0.2-1-0.3c-0.3-0.1-0.5,0.1-0.6,0.4c-0.1,0.3,0.1,0.5,0.4,0.6
		c0.3,0.1,0.6,0.2,0.9,0.3c0.1,0,0.1,0,0.2,0c0.2,0,0.4-0.1,0.5-0.3C-107.3,394.8-107.4,394.5-107.6,394.4z"/>
	<path class="st1" d="M-116.6,393.8c0.2,0,0.4-0.1,0.5-0.4c0.1-0.3-0.1-0.5-0.3-0.6c-0.3-0.1-0.6-0.2-1-0.3
		c-0.3-0.1-0.5,0.1-0.6,0.4c-0.1,0.3,0.1,0.5,0.4,0.6c0.3,0.1,0.6,0.2,1,0.3C-116.7,393.8-116.7,393.8-116.6,393.8z"/>
	<path class="st1" d="M-234.9,398.8c0,0,0.1,0,0.1,0c0,0,0.4-0.1,1-0.2c0.3,0,0.5-0.3,0.4-0.6c0-0.3-0.3-0.5-0.6-0.4
		c-0.6,0.1-1,0.2-1,0.2c-0.3,0.1-0.4,0.3-0.4,0.6C-235.4,398.7-235.2,398.8-234.9,398.8z"/>
	<path class="st1" d="M-128.3,391.3c0.2,0,0.4-0.1,0.5-0.3c0.1-0.3-0.1-0.5-0.3-0.6c-0.3-0.1-0.6-0.2-1-0.3
		c-0.3-0.1-0.5,0.1-0.6,0.4c-0.1,0.3,0.1,0.5,0.4,0.6c0.4,0.1,0.7,0.2,0.9,0.3C-128.4,391.3-128.4,391.3-128.3,391.3z"/>
	<path class="st1" d="M-191.4,387.8l0.5,0c0.2,0,0.3,0,0.5,0c0,0,0,0,0,0c0.3,0,0.5-0.2,0.5-0.5c0-0.3-0.2-0.5-0.5-0.5
		c-0.2,0-0.3,0-0.5,0l-0.5,0c-0.3,0-0.5,0.2-0.5,0.5C-191.9,387.6-191.7,387.8-191.4,387.8z"/>
	<path class="st1" d="M-188.4,388c0.3,0,0.7,0.1,1,0.1c0,0,0.1,0,0.1,0c0.2,0,0.5-0.2,0.5-0.4c0-0.3-0.1-0.5-0.4-0.6
		c-0.3,0-0.7-0.1-1-0.1c-0.3,0-0.5,0.2-0.6,0.4C-188.9,387.7-188.7,388-188.4,388z"/>
	<path class="st1" d="M-197.3,387.4c0.1,0,0.3,0,0.4,0c0.2,0,0.4,0,0.6,0c0.3,0,0.5-0.3,0.5-0.5c0-0.3-0.3-0.5-0.5-0.5
		c-0.2,0-0.3,0-0.5,0c-0.1,0-0.3,0-0.4,0l0,0.5v-0.5c-0.3,0-0.5,0.2-0.5,0.5C-197.8,387.2-197.5,387.4-197.3,387.4z"/>
	<path class="st1" d="M-194.4,387.3c0.1,0,0.2,0,0.3,0.1c0.3,0.1,0.4,0.1,0.6,0.2c0.1,0,0.1,0,0.2,0c0.2,0,0.4-0.1,0.5-0.3
		c0.1-0.3,0-0.5-0.3-0.6c-0.2-0.1-0.4-0.1-0.7-0.2c-0.1,0-0.3-0.1-0.4-0.1c-0.3,0-0.5,0.1-0.6,0.4
		C-194.8,387-194.6,387.2-194.4,387.3z"/>
	<path class="st1" d="M-185.4,388.4c0.3,0,0.7,0,1,0c0,0,0,0,0,0c0.3,0,0.5-0.2,0.5-0.5c0-0.3-0.2-0.5-0.5-0.5c-0.3,0-0.7,0-1,0
		c-0.3,0-0.5,0.2-0.5,0.5S-185.7,388.4-185.4,388.4z"/>
	<path class="st1" d="M-176.7,387.5c0.2,0,0.4,0,0.7,0l0.3,0c0,0,0,0,0,0c0.3,0,0.5-0.2,0.5-0.5c0-0.3-0.2-0.5-0.5-0.5l-0.3,0
		c-0.3,0-0.5,0-0.7,0c-0.3,0-0.5,0.2-0.5,0.5C-177.2,387.2-177,387.5-176.7,387.5z"/>
	<path class="st1" d="M-173.8,387.8c0.3,0.1,0.7,0.1,1,0.2c0,0,0.1,0,0.1,0c0.2,0,0.4-0.2,0.5-0.4c0.1-0.3-0.1-0.5-0.4-0.6
		c-0.3-0.1-0.6-0.1-1-0.2c-0.3,0-0.5,0.1-0.6,0.4C-174.2,387.5-174.1,387.7-173.8,387.8z"/>
	<path class="st1" d="M-182.5,388.8c0.2,0,0.4,0,0.6,0c0.2,0,0.3,0,0.5,0c0.3,0,0.5-0.3,0.4-0.6c0-0.3-0.3-0.5-0.6-0.4
		c-0.3,0-0.6,0-0.9,0c-0.3,0-0.5,0.2-0.6,0.4C-183,388.5-182.8,388.8-182.5,388.8z"/>
	<path class="st1" d="M-200.2,386.7c0.1,0,0.1,0,0.1,0c0.3,0.1,0.5,0.2,0.7,0.2c0.1,0,0.1,0,0.2,0c0.2,0,0.4-0.1,0.5-0.3
		c0.1-0.3,0-0.5-0.3-0.7c-0.2-0.1-0.5-0.2-0.7-0.3c-0.1,0-0.2-0.1-0.4-0.1c-0.2,0-0.5,0.2-0.5,0.5
		C-200.7,386.5-200.4,386.7-200.2,386.7z"/>
	<path class="st1" d="M-179.5,388.2c0.1,0,0.1,0,0.2,0c0.3-0.1,0.6-0.3,0.8-0.4l0.2-0.1c0.2-0.1,0.3-0.4,0.2-0.7
		c-0.1-0.2-0.4-0.3-0.7-0.2l-0.2,0.1c-0.2,0.1-0.4,0.2-0.7,0.3c-0.3,0.1-0.4,0.4-0.3,0.7C-179.9,388.1-179.7,388.2-179.5,388.2z"/>
	<path class="st1" d="M-220.3,390.8c0.1,0,0.1,0,0.2,0c0.2-0.1,0.4-0.1,0.6-0.1l0.3,0c0.3,0,0.5-0.3,0.4-0.6c0-0.3-0.3-0.5-0.6-0.4
		l-0.3,0c-0.3,0-0.5,0.1-0.8,0.2c-0.3,0.1-0.4,0.4-0.3,0.6C-220.7,390.7-220.5,390.8-220.3,390.8z"/>
	<path class="st1" d="M-222.8,392.5c0.1,0,0.3,0,0.4-0.1c0.2-0.2,0.4-0.4,0.7-0.6c0.2-0.2,0.3-0.5,0.1-0.7c-0.2-0.2-0.5-0.3-0.7-0.1
		c-0.3,0.2-0.6,0.5-0.8,0.7c-0.2,0.2-0.2,0.5,0,0.7C-223,392.5-222.9,392.5-222.8,392.5z"/>
	<path class="st1" d="M-206,387.8c0.1,0,0.2,0,0.3,0.1c0.2,0.1,0.5,0.1,0.8,0.1c0,0,0,0,0,0c0.3,0,0.5-0.2,0.5-0.5
		c0-0.3-0.3-0.5-0.5-0.5c-0.2,0-0.3,0-0.4-0.1c-0.1,0-0.3-0.1-0.4-0.1c-0.3-0.1-0.5,0.1-0.6,0.4C-206.5,387.5-206.3,387.8-206,387.8
		z"/>
	<path class="st1" d="M-231.9,398.4c0.3,0,0.6,0,0.8,0.1c0,0,0,0,0.1,0c0.3,0,0.5-0.2,0.5-0.4c0-0.3-0.2-0.5-0.4-0.5
		c-0.3,0-0.6-0.1-0.9-0.1c0,0,0,0,0,0l-0.1,0c-0.3,0-0.4,0.2-0.4,0.5C-232.4,398.2-232.1,398.4-231.9,398.4z"/>
	<path class="st1" d="M-227.4,396.3c0.1,0,0.2,0.1,0.2,0.1c0.2,0,0.4-0.1,0.4-0.3c0.2-0.3,0.3-0.5,0.5-0.7c0.2-0.2,0.2-0.5,0-0.7
		c-0.2-0.2-0.5-0.2-0.7,0c-0.2,0.2-0.5,0.5-0.7,0.9C-227.8,395.9-227.7,396.2-227.4,396.3z"/>
	<path class="st1" d="M-229,398.6C-229,398.6-228.9,398.6-229,398.6c0.6-0.1,1-0.3,1.3-0.6c0.2-0.2,0.1-0.5-0.1-0.7
		c-0.2-0.2-0.5-0.1-0.7,0.1c-0.1,0.1-0.2,0.2-0.5,0.3c-0.3,0-0.5,0.3-0.4,0.6C-229.4,398.4-229.2,398.6-229,398.6z"/>
	<path class="st1" d="M-224.9,394.6c0.1,0,0.1,0,0.2-0.1c0.3-0.2,0.7-0.3,0.9-0.5c0.2-0.2,0.3-0.5,0.1-0.7s-0.5-0.3-0.7-0.1
		c-0.2,0.2-0.5,0.3-0.8,0.4c-0.2,0.1-0.4,0.4-0.2,0.7C-225.2,394.4-225.1,394.6-224.9,394.6z"/>
	<path class="st1" d="M-208.9,388.2c0.1,0,0.1,0,0.2,0c0.3-0.1,0.6-0.2,0.9-0.3c0.3-0.1,0.4-0.3,0.4-0.6c-0.1-0.3-0.3-0.4-0.6-0.4
		c-0.3,0.1-0.7,0.2-1,0.3c-0.3,0.1-0.4,0.4-0.3,0.6C-209.3,388.1-209.1,388.2-208.9,388.2z"/>
	<path class="st1" d="M-217.4,390.3C-217.3,390.3-217.3,390.3-217.4,390.3c0.3-0.1,0.7-0.1,1.1-0.2c0.3,0,0.5-0.3,0.4-0.6
		c0-0.3-0.3-0.5-0.6-0.4c-0.4,0.1-0.7,0.1-1,0.2c-0.3,0-0.5,0.3-0.4,0.6C-217.8,390.1-217.6,390.3-217.4,390.3z"/>
	<path class="st1" d="M-211.6,389.5c0.1,0,0.2,0,0.3-0.1c0.3-0.2,0.5-0.3,0.8-0.5c0.2-0.1,0.3-0.4,0.2-0.7c-0.1-0.2-0.4-0.3-0.7-0.2
		c-0.3,0.2-0.6,0.3-0.9,0.5c0,0,0,0,0,0c-0.2,0.1-0.3,0.4-0.2,0.7C-211.9,389.4-211.7,389.5-211.6,389.5z"/>
	<path class="st1" d="M-214.4,389.9C-214.4,389.9-214.4,389.9-214.4,389.9c0.5,0,0.7,0,1,0c0.3,0,0.5-0.2,0.5-0.5
		c0-0.3-0.2-0.5-0.5-0.5c-0.3,0-0.6,0-1.1,0c-0.3,0-0.5,0.3-0.5,0.5C-214.9,389.7-214.7,389.9-214.4,389.9z"/>
</g>
</svg>
