<?xml version="1.0" encoding="utf-8"?>
<!-- Generator: Adobe Illustrator 19.1.0, SVG Export Plug-In . SVG Version: 6.00 Build 0)  -->
<svg version="1.0" xmlns="http://www.w3.org/2000/svg" xmlns:xlink="http://www.w3.org/1999/xlink" x="0px" y="0px" width="400px"
	 height="94px" viewBox="0 0 400 94" style="enable-background:new 0 0 400 94;" xml:space="preserve">
<style type="text/css">
	.st0{fill:#DEDDDD;}
	.st1{fill:#EFEFEF;}
	.st2{fill:url(#SVGID_1_);}
</style>
<g id="Layer_2">
</g>
<g id="Layer_1">
	<g id="Layer_3">
	</g>
	<g>
		<g>
			<g>
				<path class="st0" d="M160.7,41.3v25.8c-5.8,7.8-15,12.6-24.6,12.6c-16.8,0-30.4-13.7-30.4-30.5c0-16.8,13.7-30.4,30.4-30.4
					c8.3,0,16,3.3,21.6,9l-5.4,4.7c-4.3-4.3-10.1-6.5-16.2-6.5c-12.8,0-23.2,10.4-23.2,23.2c0,12.9,10.4,23.3,23.2,23.3
					c6.8,0,13-2.9,17.5-7.9V48.5h-17.1v-7.2H160.7z"/>
				<path class="st0" d="M177.9,45.2c2.4-2.6,9.3-4.7,13.7-4.7l-1.7,7c-6.5,0-11.9,5-11.9,11.3v20h-7V41.3h7V45.2z"/>
				<path class="st0" d="M226.4,41.3h7v37.5h-7v-4.3c-3.5,2.9-7.9,5.2-12.6,5.2c-5.2,0-10.1-2-13.9-5.6c-3.7-3.8-5.7-8.7-5.7-13.9
					s2-10.1,5.7-13.9c3.8-3.7,8.7-5.6,13.9-5.6c4.7,0,9.1,2.2,12.6,5.2V41.3z M226.4,60.1c0-7-5.6-12.7-12.6-12.7
					c-7,0-12.6,5.7-12.6,12.7c0,7,5.6,12.7,12.6,12.7C220.7,72.7,226.4,67,226.4,60.1z"/>
				<path class="st0" d="M267.2,18.7l-1.8,6.7h-6.3c-2.9,0-5.6,2.7-5.6,5.7v10.1h11.5V48h-11.5v30.8h-7V48h-5.6v-6.7h5.6V31
					c0-6.9,5.6-12.3,12.4-12.3H267.2z"/>
				<path class="st0" d="M301.1,41.3h7v37.5h-7v-4.3c-3.5,2.9-7.9,5.2-12.6,5.2c-5.2,0-10.1-2-13.9-5.6c-3.7-3.8-5.7-8.7-5.7-13.9
					s2-10.1,5.7-13.9c3.8-3.7,8.7-5.6,13.9-5.6c4.7,0,9.1,2.2,12.6,5.2V41.3z M301.1,60.1c0-7-5.6-12.7-12.6-12.7
					s-12.6,5.7-12.6,12.7c0,7,5.6,12.7,12.6,12.7S301.1,67,301.1,60.1z"/>
				<path class="st0" d="M354.3,58.7v20.1h-7V58.7c0-6.1-4.9-11.2-11-11.2c-6.1,0-11,5.1-11,11.2v20.1h-7V41.3h7v3.6
					c3.2-2.5,7-4.3,11-4.3c4.8,0,9.4,1.8,12.8,5.2C352.5,49.3,354.3,53.8,354.3,58.7z"/>
				<path class="st0" d="M393,41.3h7v37.5h-7v-4.3c-3.5,2.9-7.9,5.2-12.6,5.2c-5.2,0-10.1-2-13.9-5.6c-3.7-3.8-5.7-8.7-5.7-13.9
					s2-10.1,5.7-13.9c3.8-3.7,8.7-5.6,13.9-5.6c4.7,0,9.1,2.2,12.6,5.2V41.3z M393,60.1c0-7-5.6-12.7-12.6-12.7
					c-7,0-12.6,5.7-12.6,12.7c0,7,5.6,12.7,12.6,12.7C387.3,72.7,393,67,393,60.1z"/>
			</g>
			<g>
				<path class="st1" d="M160.7,41.3v25.8c-5.8,7.8-15,12.6-24.6,12.6c-16.8,0-30.4-13.7-30.4-30.5c0-16.8,13.7-30.4,30.4-30.4
					c8.3,0,16,3.3,21.6,9l-5.4,4.7c-4.3-4.3-10.1-6.5-16.2-6.5c-12.8,0-23.2,10.4-23.2,23.2c0,12.9,10.4,23.3,23.2,23.3
					c6.8,0,13-2.9,17.5-7.9V48.5h-17.1v-7.2H160.7z"/>
				<path class="st1" d="M177.9,45.2c2.4-2.6,9.3-4.7,13.7-4.7l-1.7,7c-6.5,0-11.9,5-11.9,11.3v20h-7V41.3h7V45.2z"/>
				<path class="st1" d="M226.4,41.3h7v37.5h-7v-4.3c-3.5,2.9-7.9,5.2-12.6,5.2c-5.2,0-10.1-2-13.9-5.6c-3.7-3.8-5.7-8.7-5.7-13.9
					s2-10.1,5.7-13.9c3.8-3.7,8.7-5.6,13.9-5.6c4.7,0,9.1,2.2,12.6,5.2V41.3z M226.4,60.1c0-7-5.6-12.7-12.6-12.7
					c-7,0-12.6,5.7-12.6,12.7c0,7,5.6,12.7,12.6,12.7C220.7,72.7,226.4,67,226.4,60.1z"/>
				<path class="st1" d="M267.2,18.7l-1.8,6.7h-6.3c-2.9,0-5.6,2.7-5.6,5.7v10.1h11.5V48h-11.5v30.8h-7V48h-5.6v-6.7h5.6V31
					c0-6.9,5.6-12.3,12.4-12.3H267.2z"/>
				<path class="st1" d="M301.1,41.3h7v37.5h-7v-4.3c-3.5,2.9-7.9,5.2-12.6,5.2c-5.2,0-10.1-2-13.9-5.6c-3.7-3.8-5.7-8.7-5.7-13.9
					s2-10.1,5.7-13.9c3.8-3.7,8.7-5.6,13.9-5.6c4.7,0,9.1,2.2,12.6,5.2V41.3z M301.1,60.1c0-7-5.6-12.7-12.6-12.7
					s-12.6,5.7-12.6,12.7c0,7,5.6,12.7,12.6,12.7S301.1,67,301.1,60.1z"/>
				<path class="st1" d="M354.3,58.7v20.1h-7V58.7c0-6.1-4.9-11.2-11-11.2c-6.1,0-11,5.1-11,11.2v20.1h-7V41.3h7v3.6
					c3.2-2.5,7-4.3,11-4.3c4.8,0,9.4,1.8,12.8,5.2C352.5,49.3,354.3,53.8,354.3,58.7z"/>
				<path class="st1" d="M393,41.3h7v37.5h-7v-4.3c-3.5,2.9-7.9,5.2-12.6,5.2c-5.2,0-10.1-2-13.9-5.6c-3.7-3.8-5.7-8.7-5.7-13.9
					s2-10.1,5.7-13.9c3.8-3.7,8.7-5.6,13.9-5.6c4.7,0,9.1,2.2,12.6,5.2V41.3z M393,60.1c0-7-5.6-12.7-12.6-12.7
					c-7,0-12.6,5.7-12.6,12.7c0,7,5.6,12.7,12.6,12.7C387.3,72.7,393,67,393,60.1z"/>
			</g>
		</g>
		<linearGradient id="SVGID_1_" gradientUnits="userSpaceOnUse" x1="43.0771" y1="113.457" x2="43.0771" y2="27.3028">
			<stop  offset="0" style="stop-color:#FFF200"/>
			<stop  offset="1" style="stop-color:#F15A29"/>
		</linearGradient>
		<path class="st2" d="M58,61.8c-0.3-0.4-0.8-0.5-1.2-0.2c-0.1,0.1-0.2,0.1-0.3,0.2c-0.4,0.2-0.7,0.3-1.1,0.5
			c-0.4,0.1-0.8,0.2-1.2,0.3c-0.2,0-0.4,0.1-0.6,0.1c-0.1,0-0.2,0-0.3,0c-0.1,0-0.2,0-0.3,0c-0.1,0-0.2,0-0.3,0c-0.1,0-0.3,0-0.4,0
			c0,0-0.1,0,0,0l0,0l-0.1,0c-0.1,0-0.1,0-0.2,0c-0.1,0-0.2,0-0.4,0c-0.9-0.1-1.9-0.4-2.8-0.8c-0.9-0.4-1.8-1-2.6-1.7
			c-0.8-0.7-1.5-1.6-2-2.6c-0.5-1-0.9-2.1-1.1-3.2c-0.1-0.6-0.1-1.2-0.1-1.7c0-0.2,0-0.3,0-0.5c0,0,0,0,0,0l0-0.1l0-0.1
			c0-0.1,0-0.2,0-0.2c0-0.3,0.1-0.6,0.1-0.9c0.4-2.5,1.7-4.9,3.6-6.7c0.5-0.5,1-0.9,1.5-1.3c0.6-0.4,1.1-0.7,1.7-1
			c0.6-0.3,1.2-0.5,1.9-0.7c0.7-0.2,1.3-0.3,2-0.4c0.3,0,0.7,0,1,0c0.1,0,0.2,0,0.2,0l0.3,0l0.2,0c0.1,0,0,0,0,0l0.1,0l0.3,0
			c0.7,0.1,1.5,0.2,2.2,0.3c1.4,0.3,2.9,0.9,4.2,1.6c2.6,1.5,4.9,3.7,6.2,6.5c0.7,1.4,1.2,2.8,1.4,4.4c0.1,0.4,0.1,0.8,0.1,1.1
			l0,0.3l0,0.3c0,0.1,0,0.2,0,0.3c0,0.1,0,0.2,0,0.3l0,0.3l0,0.3c0,0.2,0,0.5,0,0.7c0,0.4-0.1,0.8-0.1,1.3c0,0.4-0.1,0.8-0.2,1.2
			c-0.1,0.4-0.2,0.8-0.3,1.2c-0.2,0.8-0.5,1.6-0.8,2.4c-0.6,1.6-1.4,3-2.4,4.4c-2,2.7-4.7,5-7.8,6.4c-1.5,0.7-3.2,1.2-4.8,1.5
			c-0.8,0.1-1.7,0.2-2.5,0.3l-0.2,0l-0.1,0l-0.3,0l-0.4,0l-0.2,0c0.1,0,0,0,0,0l-0.1,0c-0.5,0-0.9,0-1.4-0.1c-1.8-0.1-3.6-0.5-5.3-1
			c-1.7-0.5-3.4-1.2-5-2c-3.2-1.7-6-4-8.3-6.8c-1.1-1.4-2.1-2.9-2.9-4.5c-0.8-1.6-1.4-3.2-1.9-4.9c-0.5-1.7-0.8-3.4-0.9-5.2l0-0.3
			l0-0.1l0-0.1l0-0.1l0-0.3l0-0.1l0-0.1l0-0.2l0-0.4l0-0.1c0,0,0,0,0,0l0-0.2c0-0.2,0-0.4,0-0.6c0-0.9,0.1-1.8,0.2-2.6
			c0.1-0.9,0.3-1.8,0.4-2.7c0.2-0.9,0.4-1.8,0.6-2.6c0.5-1.7,1.1-3.4,1.8-5c1.5-3.2,3.4-5.9,5.7-8.2c0.6-0.6,1.2-1.1,1.8-1.6
			c0.6-0.5,1.3-1,1.9-1.4c0.7-0.4,1.3-0.8,2-1.2c0.3-0.2,0.7-0.4,1.1-0.5c0.2-0.1,0.4-0.2,0.5-0.2c0.2-0.1,0.4-0.2,0.5-0.2
			c0.7-0.3,1.5-0.6,2.2-0.8c0.2-0.1,0.4-0.1,0.6-0.2c0.2-0.1,0.4-0.1,0.6-0.2c0.4-0.1,0.8-0.2,1.2-0.3c0.2-0.1,0.4-0.1,0.6-0.1
			c0.2,0,0.4-0.1,0.6-0.1c0.2,0,0.4-0.1,0.6-0.1l0.3-0.1l0.3,0c0.2,0,0.4-0.1,0.6-0.1c0.2,0,0.4-0.1,0.7-0.1c0.2,0,0.5-0.1,0.7-0.1
			c0.1,0,0.3,0,0.4,0l0.3,0l0.1,0l0.2,0c0.2,0,0.4,0,0.7,0l0.3,0c0,0,0.1,0,0,0l0.1,0l0.1,0c0.2,0,0.4,0,0.6,0c0.8,0,1.5,0,2.3,0
			c1.5,0.1,3,0.2,4.4,0.5c2.9,0.5,5.6,1.5,8,2.7c2.4,1.2,4.6,2.7,6.5,4.3c0.1,0.1,0.2,0.2,0.4,0.3c0.1,0.1,0.2,0.2,0.3,0.3
			c0.2,0.2,0.4,0.4,0.7,0.6c0.2,0.2,0.4,0.4,0.6,0.6c0.2,0.2,0.4,0.4,0.6,0.6c0.8,0.9,1.5,1.7,2.2,2.6c1.3,1.7,2.4,3.5,3.3,5.1
			c0.1,0.1,0.1,0.2,0.2,0.3c0.1,0.1,0.1,0.2,0.2,0.3c0.1,0.2,0.2,0.4,0.3,0.6c0.1,0.2,0.2,0.4,0.3,0.6c0.1,0.2,0.2,0.4,0.3,0.6
			c0.3,0.8,0.6,1.5,0.9,2.2c0.4,1.1,0.7,2.1,0.9,3c0.1,0.4,0.4,0.6,0.8,0.6h0c0.4,0,0.7-0.3,0.7-0.7c0-0.9,0-2.1-0.1-3.3
			c-0.1-1.6-0.4-3.4-0.9-5.4c-0.5-2-1.3-4.2-2.4-6.5c-1.1-2.3-2.6-4.6-4.5-6.9c-0.7-0.9-1.6-1.8-2.4-2.6c1.3-5.2-1.6-9.8-1.6-9.8
			c-5-0.3-8.2,1.6-9.4,2.4c-0.2-0.1-0.4-0.2-0.6-0.3c-0.9-0.3-1.7-0.7-2.6-1c-0.9-0.3-1.8-0.5-2.8-0.8c-0.9-0.2-1.9-0.4-2.9-0.6
			c-0.2,0-0.3,0-0.5-0.1c-2.2-7-8.5-10-8.5-10c-7,4.5-8.4,10.7-8.4,10.7c0.1,0.1,0.1,0.2,0.2,0.3c-0.5,0.1-1,0.3-1.4,0.4
			c-0.5,0.2-1.1,0.4-1.6,0.6c-0.5,0.2-1.1,0.4-1.6,0.6c-1.1,0.5-2.1,1-3.1,1.5c-1,0.6-2,1.2-3,1.9c0,0-0.1,0-0.1,0.1
			c0-0.2-0.1-0.2-0.1-0.2c-9.7-3.7-18.4,0.8-18.4,0.8C8.4,27.2,13.1,33.7,14,34.9c-0.2,0.6-0.4,1.3-0.6,1.9
			c-0.7,2.3-1.3,4.8-1.6,7.2c0,0.4-0.1,0.7-0.1,1.1C2.7,49.6,0,58.7,0,58.7c7.5,8.6,16.3,9.2,16.3,9.2c0,0,0,0,0,0
			c1.1,2,2.4,3.9,3.9,5.6c0.6,0.7,1.2,1.5,1.9,2.1C19.3,83.5,22.4,90,22.4,90c8.4,0.3,13.9-3.7,15-4.6c0.8,0.3,1.7,0.5,2.5,0.8
			c2.6,0.7,5.2,1.1,7.8,1.2c0.7,0,1.3,0,2,0l0.3,0l0.2,0l0.4,0l0.4,0c0,0,0,0,0,0C55.1,93,62,93.8,62,93.8
			c5.6-5.9,5.2-11.7,5.2-11.7c-0.1,0-0.1-0.1-0.2-0.1c1.1-0.8,2.1-1.6,3.1-2.5c2-1.8,3.7-3.8,5.1-6c0.1-0.2,0.3-0.4,0.4-0.6
			c5.6,0.3,9.5-3.5,9.5-3.5c-1-6.5-5.1-9.3-5.1-9.3c0,0-0.1,0-0.1,0c0-0.4,0.1-0.8,0.1-1.2c0-0.6,0.1-1.3,0.1-1.9l0-0.5l0-0.2l0-0.1
			c0-0.2,0-0.1,0-0.2l0-0.4l0-0.5c0-0.2,0-0.3,0-0.5c0-0.2,0-0.3,0-0.5l-0.1-0.5l-0.1-0.5c-0.1-0.6-0.2-1.3-0.4-1.9
			c-0.6-2.5-1.6-4.9-2.9-7c-1.3-2.1-2.9-4-4.7-5.6c-1.8-1.6-3.8-2.9-6-3.8c-2.1-1-4.4-1.6-6.6-1.9c-1.1-0.1-2.2-0.2-3.3-0.2l-0.4,0
			l-0.1,0c0,0-0.2,0-0.1,0l-0.2,0l-0.4,0c-0.2,0-0.3,0-0.5,0c-0.6,0.1-1.1,0.1-1.7,0.2c-2.2,0.4-4.3,1.2-6.1,2.3
			c-1.8,1.1-3.4,2.5-4.7,4c-1.3,1.6-2.3,3.3-3,5.1c-0.7,1.8-1.1,3.6-1.2,5.4c0,0.4,0,0.9,0,1.3c0,0.1,0,0.2,0,0.3l0,0.4
			c0,0.2,0,0.4,0,0.6c0.1,0.9,0.3,1.8,0.5,2.6c0.5,1.7,1.3,3.2,2.2,4.5c1,1.3,2.1,2.4,3.3,3.2c1.2,0.8,2.5,1.4,3.8,1.8
			c1.3,0.4,2.6,0.5,3.8,0.5c0.2,0,0.3,0,0.4,0c0.1,0,0.2,0,0.2,0c0.1,0,0.2,0,0.2,0c0.1,0,0.3,0,0.4,0c0,0,0.1,0,0.1,0l0.1,0
			c0.1,0,0.2,0,0.2,0c0.2,0,0.3-0.1,0.4-0.1c0.1,0,0.3-0.1,0.4-0.1c0.3-0.1,0.5-0.1,0.8-0.2c0.5-0.2,1-0.4,1.5-0.6
			c0.5-0.2,0.9-0.5,1.3-0.8c0.1-0.1,0.2-0.2,0.3-0.2C58.3,62.8,58.3,62.2,58,61.8L58,61.8z"/>
	</g>
</g>
</svg>
