<?xml version="1.0" encoding="utf-8"?>
<!-- Generator: Adobe Illustrator 20.1.0, SVG Export Plug-In . SVG Version: 6.00 Build 0)  -->
<svg version="1.1" id="Layer_1" xmlns="http://www.w3.org/2000/svg" xmlns:xlink="http://www.w3.org/1999/xlink" x="0px" y="0px"
	 width="200px" height="48.4px" viewBox="0 0 200 48.4" style="enable-background:new 0 0 200 48.4;" xml:space="preserve">
<style type="text/css">
	.st0{fill:#E6E7E8;}
	.st1{fill:url(#SVGID_1_);}
	.st2{fill:url(#SVGID_2_);}
	.st3{fill:url(#SVGID_3_);}
	.st4{fill:url(#SVGID_4_);}
	.st5{fill:url(#SVGID_5_);}
	.st6{fill:url(#SVGID_6_);}
	.st7{fill:url(#SVGID_7_);}
	.st8{fill:url(#SVGID_8_);}
	.st9{fill:url(#SVGID_9_);}
	.st10{fill:url(#SVGID_10_);}
	.st11{fill:url(#SVGID_11_);}
	.st12{fill:url(#SVGID_12_);}
	.st13{fill:url(#SVGID_13_);}
	.st14{fill:url(#SVGID_14_);}
	.st15{fill:url(#SVGID_15_);}
	.st16{fill:url(#SVGID_16_);}
	.st17{fill:url(#SVGID_17_);}
	.st18{fill:url(#SVGID_18_);}
	.st19{fill:url(#SVGID_19_);}
	.st20{fill:url(#SVGID_20_);}
	.st21{fill:url(#SVGID_21_);}
	.st22{fill:url(#SVGID_22_);}
	.st23{fill:url(#SVGID_23_);}
	.st24{fill:url(#SVGID_24_);}
	.st25{fill:url(#SVGID_25_);}
	.st26{fill:url(#SVGID_26_);}
	.st27{fill:url(#SVGID_27_);}
</style>
<g>
	<g>
		<path class="st0" d="M67.1,25.7c-0.2,5.9-4.9,10.5-10.7,10.5c-6.1,0-10.7-5-10.7-10.9c0-6,4.9-11,10.9-11c2.7,0,5.4,1.2,7.6,3.3
			l-1.7,2.2c-1.7-1.5-3.8-2.5-5.9-2.5c-4.4,0-8,3.6-8,8.1c0,4.5,3.4,8,7.8,8c3.9,0,7-2.9,7.6-6.5h-8.9v-2.6h12V25.7z"/>
		<path class="st0" d="M77.2,24.3h-1.6c-1.8,0-3.3,1.5-3.3,3.3v8.5h-2.9V21.5h2.4v1.2c0.8-0.8,2-1.2,3.4-1.2h3.1L77.2,24.3z"/>
		<path class="st0" d="M93.1,36.1h-2.5v-1.8c-1.9,1.9-4.9,2.8-8,1.4c-2.3-1-4-3.1-4.4-5.5c-0.9-4.7,2.8-8.9,7.4-8.9
			c2,0,3.7,0.8,5,2.1v-1.8h2.5V36.1z M90.1,29.9c0.7-3-1.6-5.7-4.5-5.7c-2.5,0-4.6,2.1-4.6,4.6c0,2.8,2.5,5,5.4,4.5
			C88.3,33,89.7,31.6,90.1,29.9z"/>
		<path class="st0" d="M99,20.7v0.8h4.6v2.6H99v12h-2.9V20.8c0-3.2,2.3-5.1,5.2-5.1h3.5l-1.2,2.7h-2.3C100,18.4,99,19.4,99,20.7z"/>
		<path class="st0" d="M119.1,36.1h-2.5v-1.8c-1.9,1.9-4.9,2.8-8,1.4c-2.3-1-4-3.1-4.4-5.5c-0.9-4.7,2.8-8.9,7.4-8.9
			c2,0,3.7,0.8,5,2.1v-1.8h2.5V36.1z M116.1,29.9c0.7-3-1.6-5.7-4.5-5.7c-2.5,0-4.6,2.1-4.6,4.6c0,2.8,2.5,5,5.4,4.5
			C114.2,33,115.7,31.6,116.1,29.9z"/>
		<path class="st0" d="M134.7,27.5v8.6h-2.9v-8.6c0-1.8-1.5-3.3-3.3-3.3c-1.8,0-3.3,1.5-3.3,3.3v8.6h-2.9V21.5h2.4v1.3
			c1-0.9,2.4-1.5,3.9-1.5C132,21.3,134.7,24.1,134.7,27.5z"/>
		<path class="st0" d="M151.8,36.1h-2.5v-1.8c-1.9,1.9-4.9,2.8-8,1.4c-2.3-1-4-3.1-4.4-5.5c-0.9-4.7,2.8-8.9,7.4-8.9
			c2,0,3.7,0.8,5,2.1v-1.8h2.5V36.1z M148.8,29.9c0.7-3-1.6-5.7-4.5-5.7c-2.5,0-4.6,2.1-4.6,4.6c0,2.8,2.5,5,5.4,4.5
			C146.9,33,148.4,31.6,148.8,29.9z"/>
		<g>
			<linearGradient id="SVGID_1_" gradientUnits="userSpaceOnUse" x1="156.1188" y1="49.3881" x2="156.1188" y2="16.0556">
				<stop  offset="0" style="stop-color:#FFF200"/>
				<stop  offset="1" style="stop-color:#F15A29"/>
			</linearGradient>
			<path class="st1" d="M157.5,34.8c0,0.7-0.6,1.4-1.6,1.3c-0.5-0.1-0.9-0.4-1.1-0.8c-0.4-1,0.4-1.9,1.2-1.9
				C156.9,33.4,157.5,34.1,157.5,34.8z"/>
			<linearGradient id="SVGID_2_" gradientUnits="userSpaceOnUse" x1="166.5067" y1="49.3881" x2="166.5067" y2="16.0555">
				<stop  offset="0" style="stop-color:#FFF200"/>
				<stop  offset="1" style="stop-color:#F15A29"/>
			</linearGradient>
			<path class="st2" d="M172.6,27.5l0,8.6h-2v-8.6c0-1.9-1.3-3.7-3.2-4.1c-2.6-0.6-4.9,1.5-4.9,4v8.7h-2V21.5h1.8v1.5
				c1.4-1.4,3.6-2.1,5.8-1.6C170.8,22.2,172.6,24.7,172.6,27.5z"/>
			<linearGradient id="SVGID_3_" gradientUnits="userSpaceOnUse" x1="182.4573" y1="49.3881" x2="182.4573" y2="16.0555">
				<stop  offset="0" style="stop-color:#FFF200"/>
				<stop  offset="1" style="stop-color:#F15A29"/>
			</linearGradient>
			<path class="st3" d="M177.3,29.5c0.4,2.9,2.7,4.8,5.3,4.8c2,0,3.8-1.1,4.8-2.3l1.3,1.5c-1.7,2-4,2.8-6.1,2.8
				c-4.4,0-7.5-3.7-7.5-7.8c0-4.2,3.2-7.3,7.3-7.3c4.2,0,7.4,3.3,7.4,8.2H177.3z M187.6,27.8c-0.4-2.6-2.6-4.5-5.2-4.5
				c-2.4,0-4.7,1.7-5.1,4.5H187.6z"/>
			<linearGradient id="SVGID_4_" gradientUnits="userSpaceOnUse" x1="196.1367" y1="49.3881" x2="196.1367" y2="16.0555">
				<stop  offset="0" style="stop-color:#FFF200"/>
				<stop  offset="1" style="stop-color:#F15A29"/>
			</linearGradient>
			<path class="st4" d="M199.4,36.1H197c-2.7,0-4.8-2-4.8-4.8V16.9h2v4.6h5.7l-0.6,1.8h-5.1v8c0,1.5,1.2,2.7,2.7,2.7h2.4V36.1z"/>
		</g>
	</g>
	<g>
		<linearGradient id="SVGID_5_" gradientUnits="userSpaceOnUse" x1="18.4053" y1="43.2273" x2="18.4053" y2="5.5752">
			<stop  offset="0" style="stop-color:#FFF200"/>
			<stop  offset="1" style="stop-color:#F15A29"/>
		</linearGradient>
		<path class="st5" d="M17.8,41l-3.1,3.1c1.2,0.3,2.5,0.5,3.7,0.6l3.8-3.8C20.7,41.1,19.2,41.1,17.8,41z"/>
		<linearGradient id="SVGID_6_" gradientUnits="userSpaceOnUse" x1="13.7338" y1="43.2273" x2="13.7338" y2="5.5752">
			<stop  offset="0" style="stop-color:#FFF200"/>
			<stop  offset="1" style="stop-color:#F15A29"/>
		</linearGradient>
		<path class="st6" d="M13.5,39.8l-2.8,2.8c1,0.5,2,0.9,3.1,1.2l3.1-3.1C15.7,40.6,14.6,40.3,13.5,39.8z"/>
		<linearGradient id="SVGID_7_" gradientUnits="userSpaceOnUse" x1="10.0408" y1="43.2273" x2="10.0408" y2="5.5752">
			<stop  offset="0" style="stop-color:#FFF200"/>
			<stop  offset="1" style="stop-color:#F15A29"/>
		</linearGradient>
		<path class="st7" d="M10.1,37.8l-2.7,2.7c0.8,0.6,1.7,1.2,2.6,1.7l2.8-2.8C11.8,39,10.9,38.5,10.1,37.8z"/>
		<linearGradient id="SVGID_8_" gradientUnits="userSpaceOnUse" x1="7.0144" y1="43.2273" x2="7.0144" y2="5.5752">
			<stop  offset="0" style="stop-color:#FFF200"/>
			<stop  offset="1" style="stop-color:#F15A29"/>
		</linearGradient>
		<path class="st8" d="M8.3,36.3c-0.4-0.4-0.7-0.8-1-1.2l-2.7,2.7C5.3,38.6,6,39.3,6.7,40l2.7-2.7C9,37,8.7,36.7,8.3,36.3z"/>
		<linearGradient id="SVGID_9_" gradientUnits="userSpaceOnUse" x1="12.2418" y1="43.2273" x2="12.2418" y2="5.5752">
			<stop  offset="0" style="stop-color:#FFF200"/>
			<stop  offset="1" style="stop-color:#F15A29"/>
		</linearGradient>
		<path class="st9" d="M11.2,17.1c-1.5,1.5-2.4,3.2-2.9,5.1l7.9-7.9C14.3,14.8,12.6,15.7,11.2,17.1z"/>
		<linearGradient id="SVGID_10_" gradientUnits="userSpaceOnUse" x1="21.4273" y1="43.2273" x2="21.4273" y2="5.5752">
			<stop  offset="0" style="stop-color:#FFF200"/>
			<stop  offset="1" style="stop-color:#F15A29"/>
		</linearGradient>
		<path class="st10" d="M28.4,19.5L13,34.8c0.9,0.6,1.9,1.1,2.9,1.4l13.9-13.9C29.5,21.4,29,20.4,28.4,19.5z"/>
		<linearGradient id="SVGID_11_" gradientUnits="userSpaceOnUse" x1="14.5665" y1="43.2273" x2="14.5665" y2="5.5752">
			<stop  offset="0" style="stop-color:#FFF200"/>
			<stop  offset="1" style="stop-color:#F15A29"/>
		</linearGradient>
		<path class="st11" d="M16.7,25.7l-6.5,6.5c0.3,0.4,0.6,0.8,1,1.2c0.4,0.4,0.7,0.7,1.1,1l6.5-6.5L16.7,25.7z"/>
		<linearGradient id="SVGID_12_" gradientUnits="userSpaceOnUse" x1="9.5374" y1="43.2273" x2="9.5374" y2="5.5752">
			<stop  offset="0" style="stop-color:#FFF200"/>
			<stop  offset="1" style="stop-color:#F15A29"/>
		</linearGradient>
		<path class="st12" d="M8.3,14.2c1.7-1.7,3.9-2.9,6.3-3.7L19.1,6c-1.7,0-3.4,0.3-5,0.7L0.7,20.1c-0.5,1.6-0.7,3.3-0.7,5l4.4-4.4
			C5.1,18.3,6.4,16,8.3,14.2z"/>
		<linearGradient id="SVGID_13_" gradientUnits="userSpaceOnUse" x1="4.597" y1="43.2273" x2="4.597" y2="5.5752">
			<stop  offset="0" style="stop-color:#FFF200"/>
			<stop  offset="1" style="stop-color:#F15A29"/>
		</linearGradient>
		<path class="st13" d="M5.2,31.8l-2.8,2.8c0.5,0.9,1.1,1.8,1.7,2.6l2.7-2.7C6.2,33.7,5.6,32.8,5.2,31.8z"/>
		<linearGradient id="SVGID_14_" gradientUnits="userSpaceOnUse" x1="2.8265" y1="43.2273" x2="2.8265" y2="5.5752">
			<stop  offset="0" style="stop-color:#FFF200"/>
			<stop  offset="1" style="stop-color:#F15A29"/>
		</linearGradient>
		<path class="st14" d="M3.9,27.7l-3.2,3.2c0.3,1.1,0.7,2.1,1.2,3.1l2.9-2.9C4.4,30,4.1,28.8,3.9,27.7z"/>
		<linearGradient id="SVGID_15_" gradientUnits="userSpaceOnUse" x1="19.8235" y1="43.2273" x2="19.8235" y2="5.5752">
			<stop  offset="0" style="stop-color:#FFF200"/>
			<stop  offset="1" style="stop-color:#F15A29"/>
		</linearGradient>
		<path class="st15" d="M9.8,31.5l21.4-21.4c-0.8-0.6-1.7-1.2-2.6-1.7L8.4,28.6C8.7,29.6,9.2,30.6,9.8,31.5z"/>
		<linearGradient id="SVGID_16_" gradientUnits="userSpaceOnUse" x1="2.0198" y1="43.2273" x2="2.0198" y2="5.5752">
			<stop  offset="0" style="stop-color:#FFF200"/>
			<stop  offset="1" style="stop-color:#F15A29"/>
		</linearGradient>
		<path class="st16" d="M4,22.2l-4,4c0.1,1.3,0.2,2.5,0.5,3.8l3.3-3.3C3.7,25.2,3.7,23.7,4,22.2z"/>
		<linearGradient id="SVGID_17_" gradientUnits="userSpaceOnUse" x1="20.012" y1="43.2273" x2="20.012" y2="5.5752">
			<stop  offset="0" style="stop-color:#FFF200"/>
			<stop  offset="1" style="stop-color:#F15A29"/>
		</linearGradient>
		<path class="st17" d="M19.3,9.8l0,1.5l4.7-4.7c-1.2-0.3-2.5-0.5-3.8-0.5l-4.1,4.1C17.1,9.9,18.2,9.8,19.3,9.8z"/>
		<linearGradient id="SVGID_18_" gradientUnits="userSpaceOnUse" x1="36.5057" y1="43.2273" x2="36.5057" y2="5.5752">
			<stop  offset="0" style="stop-color:#FFF200"/>
			<stop  offset="1" style="stop-color:#F15A29"/>
		</linearGradient>
		<path class="st18" d="M34.4,28.6l4.3-4.3c-0.1-1.3-0.3-2.5-0.6-3.7l-3.6,3.6C34.7,25.7,34.6,27.2,34.4,28.6z"/>
		<linearGradient id="SVGID_19_" gradientUnits="userSpaceOnUse" x1="35.6262" y1="43.2273" x2="35.6262" y2="5.5752">
			<stop  offset="0" style="stop-color:#FFF200"/>
			<stop  offset="1" style="stop-color:#F15A29"/>
		</linearGradient>
		<path class="st19" d="M34.4,23.2l3.5-3.5c-0.3-1.1-0.7-2.1-1.2-3.1l-3.2,3.2C33.9,21,34.2,22.1,34.4,23.2z"/>
		<linearGradient id="SVGID_20_" gradientUnits="userSpaceOnUse" x1="31.4249" y1="43.2273" x2="31.4249" y2="5.5752">
			<stop  offset="0" style="stop-color:#FFF200"/>
			<stop  offset="1" style="stop-color:#F15A29"/>
		</linearGradient>
		<path class="st20" d="M30.4,15.1c0.2,0.2,0.4,0.5,0.6,0.7l3.1-3.1c-0.7-0.8-1.4-1.5-2.1-2.1l-3,3L30.4,15.1z"/>
		<linearGradient id="SVGID_21_" gradientUnits="userSpaceOnUse" x1="33.8368" y1="43.2273" x2="33.8368" y2="5.5752">
			<stop  offset="0" style="stop-color:#FFF200"/>
			<stop  offset="1" style="stop-color:#F15A29"/>
		</linearGradient>
		<path class="st21" d="M33.1,19.1l3.2-3.2c-0.5-0.9-1.1-1.8-1.7-2.6l-3.1,3.1C32.1,17.3,32.6,18.2,33.1,19.1z"/>
		<linearGradient id="SVGID_22_" gradientUnits="userSpaceOnUse" x1="31.7753" y1="43.2273" x2="31.7753" y2="5.5752">
			<stop  offset="0" style="stop-color:#FFF200"/>
			<stop  offset="1" style="stop-color:#F15A29"/>
		</linearGradient>
		<path class="st22" d="M37.4,32.1L26.1,43.4C31.3,41.5,35.5,37.3,37.4,32.1z"/>
		<linearGradient id="SVGID_23_" gradientUnits="userSpaceOnUse" x1="17.9059" y1="43.2273" x2="17.9059" y2="5.5752">
			<stop  offset="0" style="stop-color:#FFF200"/>
			<stop  offset="1" style="stop-color:#F15A29"/>
		</linearGradient>
		<path class="st23" d="M19.3,13.8c-0.6,0-1.1,0.1-1.7,0.2L8,23.6c-0.2,1.4-0.1,2.8,0.2,4.1L27.9,8c-1-0.5-2-0.9-3.1-1.2l-5.5,5.5
			L19.3,13.8z"/>
		<linearGradient id="SVGID_24_" gradientUnits="userSpaceOnUse" x1="23.596" y1="43.2273" x2="23.596" y2="5.5752">
			<stop  offset="0" style="stop-color:#FFF200"/>
			<stop  offset="1" style="stop-color:#F15A29"/>
		</linearGradient>
		<path class="st24" d="M30.1,23.2L16.8,36.5c1.3,0.3,2.7,0.4,4,0.3l9.6-9.6C30.5,25.9,30.4,24.5,30.1,23.2z"/>
		<linearGradient id="SVGID_25_" gradientUnits="userSpaceOnUse" x1="26.1438" y1="43.2273" x2="26.1438" y2="5.5752">
			<stop  offset="0" style="stop-color:#FFF200"/>
			<stop  offset="1" style="stop-color:#F15A29"/>
		</linearGradient>
		<path class="st25" d="M30.1,28.6l-7.9,7.9c1.8-0.5,3.6-1.4,5-2.9C28.7,32.2,29.6,30.4,30.1,28.6z"/>
		<linearGradient id="SVGID_26_" gradientUnits="userSpaceOnUse" x1="29.0663" y1="43.2273" x2="29.0663" y2="5.5752">
			<stop  offset="0" style="stop-color:#FFF200"/>
			<stop  offset="1" style="stop-color:#F15A29"/>
		</linearGradient>
		<path class="st26" d="M38.7,25.5L34,30.1c-0.7,2.4-2,4.6-3.8,6.5c-1.9,1.9-4.2,3.2-6.5,3.9l-4.2,4.2c1.7,0,3.4-0.3,5-0.7L38,30.4
			C38.4,28.9,38.7,27.2,38.7,25.5z"/>
		<linearGradient id="SVGID_27_" gradientUnits="userSpaceOnUse" x1="6.8285" y1="43.2273" x2="6.8285" y2="5.5752">
			<stop  offset="0" style="stop-color:#FFF200"/>
			<stop  offset="1" style="stop-color:#F15A29"/>
		</linearGradient>
		<path class="st27" d="M1.3,18.4L12.4,7.3C7.3,9.3,3.3,13.3,1.3,18.4z"/>
	</g>
</g>
</svg>
