<?xml version="1.0" encoding="utf-8"?>
<!-- Generator: Adobe Illustrator 20.1.0, SVG Export Plug-In . SVG Version: 6.00 Build 0)  -->
<svg version="1.1" id="Layer_1" xmlns="http://www.w3.org/2000/svg" xmlns:xlink="http://www.w3.org/1999/xlink" x="0px" y="0px"
	 width="354px" height="65px" viewBox="0 0 354 65" style="enable-background:new 0 0 354 65;" xml:space="preserve">
<style type="text/css">
	.st0{fill:#E6E7E8;}
	.st1{fill:url(#SVGID_1_);}
	.st2{fill:url(#SVGID_2_);}
	.st3{fill:url(#SVGID_3_);}
	.st4{fill:url(#SVGID_4_);}
	.st5{fill:url(#SVGID_5_);}
</style>
<g>
	<g>
		<path class="st0" d="M109.1,33.1c-0.4,10.2-8.4,18.1-18.4,18.1c-10.5,0-18.3-8.5-18.3-18.8c0-10.4,8.5-18.9,18.8-18.9
			c4.7,0,9.2,2,13.1,5.6l-3,3.7c-3-2.6-6.5-4.3-10.1-4.3c-7.6,0-13.8,6.2-13.8,13.9c0,7.8,5.9,13.8,13.3,13.8c6.7,0,12-4.9,13-11.2
			H88.5v-4.5h20.6V33.1z"/>
		<path class="st0" d="M126.5,30.6h-2.8c-3.1,0-5.6,2.5-5.6,5.6v14.6h-5v-25h4.1v2.1c1.4-1.4,3.5-2.1,5.9-2.1h5.4L126.5,30.6z"/>
		<path class="st0" d="M153.8,50.8h-4.2v-3.2c-3.3,3.2-8.5,4.8-13.7,2.4c-3.9-1.7-6.8-5.3-7.6-9.4c-1.5-8.1,4.7-15.3,12.7-15.3
			c3.4,0,6.4,1.4,8.6,3.5v-3.1h4.3V50.8z M148.7,40.1c1.2-5.1-2.7-9.7-7.7-9.7c-4.4,0-7.9,3.6-7.9,7.9c0,4.9,4.3,8.6,9.2,7.8
			C145.4,45.5,148,43.1,148.7,40.1z"/>
		<path class="st0" d="M163.9,24.4v1.4h8v4.4h-8v20.6h-5V24.6c0-5.5,4-8.8,8.9-8.8h6l-2,4.7h-4C165.6,20.5,163.9,22.3,163.9,24.4z"
			/>
		<path class="st0" d="M198.3,50.8h-4.2v-3.2c-3.3,3.2-8.5,4.8-13.7,2.4c-3.9-1.7-6.8-5.3-7.6-9.4c-1.5-8.1,4.7-15.3,12.7-15.3
			c3.4,0,6.4,1.4,8.6,3.5v-3.1h4.3V50.8z M193.2,40.1c1.2-5.1-2.7-9.7-7.7-9.7c-4.4,0-7.9,3.6-7.9,7.9c0,4.9,4.3,8.6,9.2,7.8
			C190,45.5,192.5,43.1,193.2,40.1z"/>
		<path class="st0" d="M225,36v14.8h-5V36c0-3.1-2.6-5.6-5.6-5.6c-3.1,0-5.7,2.5-5.7,5.6v14.8h-5v-25h4.1V28
			c1.8-1.6,4.2-2.5,6.7-2.5C220.4,25.4,225,30.2,225,36z"/>
		<path class="st0" d="M254.4,50.8h-4.2v-3.2c-3.3,3.2-8.5,4.8-13.7,2.4c-3.9-1.7-6.8-5.3-7.6-9.4c-1.5-8.1,4.7-15.3,12.7-15.3
			c3.4,0,6.4,1.4,8.6,3.5v-3.1h4.3V50.8z M249.3,40.1c1.2-5.1-2.7-9.7-7.7-9.7c-4.4,0-7.9,3.6-7.9,7.9c0,4.9,4.3,8.6,9.2,7.8
			C246.1,45.5,248.6,43.1,249.3,40.1z"/>
	</g>
	<g>
		<linearGradient id="SVGID_1_" gradientUnits="userSpaceOnUse" x1="269.2128" y1="68.0867" x2="269.2128" y2="15.5011">
			<stop  offset="0" style="stop-color:#FFF200"/>
			<stop  offset="1" style="stop-color:#F15A29"/>
		</linearGradient>
		<path class="st1" d="M278.6,51h-18.9V13.8h5V46h13.8V51z"/>
		<linearGradient id="SVGID_2_" gradientUnits="userSpaceOnUse" x1="292.4477" y1="68.0867" x2="292.4477" y2="15.5011">
			<stop  offset="0" style="stop-color:#FFF200"/>
			<stop  offset="1" style="stop-color:#F15A29"/>
		</linearGradient>
		<path class="st2" d="M305.4,51h-4.3v-3.2c-2.2,2.2-5.3,3.6-8.7,3.6c-7.2,0-13-5.8-13-13c0-7.1,5.8-12.9,13-12.9
			c3.4,0,6.4,1.4,8.6,3.6v-3.2h4.3V51z M300.5,38.4c0-4.3-3.5-7.9-7.9-7.9c-4.4,0-7.9,3.6-7.9,7.9c0,4.4,3.5,7.9,7.9,7.9
			C296.9,46.4,300.5,42.9,300.5,38.4z"/>
		<linearGradient id="SVGID_3_" gradientUnits="userSpaceOnUse" x1="322.5727" y1="68.0867" x2="322.5727" y2="15.5011">
			<stop  offset="0" style="stop-color:#FFF200"/>
			<stop  offset="1" style="stop-color:#F15A29"/>
		</linearGradient>
		<path class="st3" d="M335.5,38.5c0,7.1-5.8,13-13,13c-3.4,0-6.5-1.4-8.7-3.6V51h-4.2V15.8h5v12.7c2.1-1.9,4.9-3,7.9-3
			C329.7,25.5,335.5,31.3,335.5,38.5z M330.4,38.5c0-4.4-3.6-7.9-7.9-7.9s-7.9,3.5-7.9,7.9c0,4.3,3.6,7.8,7.9,7.8
			S330.4,42.8,330.4,38.5z"/>
		<linearGradient id="SVGID_4_" gradientUnits="userSpaceOnUse" x1="345.456" y1="68.0867" x2="345.456" y2="15.5011">
			<stop  offset="0" style="stop-color:#FFF200"/>
			<stop  offset="1" style="stop-color:#F15A29"/>
		</linearGradient>
		<path class="st4" d="M352.7,27.7l-2.2,3.7c-1.1-0.7-2.9-1.7-4.9-1.7c-1.9,0-3.6,1-3.6,2.5c0,1.7,2,2.4,4.4,3.3
			c4,1.4,7.5,4.1,7.5,8.2c0,4.2-3.6,7.7-8.7,7.7c-3.1,0-6.2-1.3-8.3-2.6l2-4.2c1.5,0.9,4.2,1.9,6.2,1.9c2.5,0,3.6-1.5,3.6-3
			c0-1.7-1.6-2.7-5-4c-2.5-1-6.6-2.7-6.6-7.1c0-4.2,3.6-7,8.3-7C348.3,25.5,350.6,26.5,352.7,27.7z"/>
	</g>
	<linearGradient id="SVGID_5_" gradientUnits="userSpaceOnUse" x1="29.9" y1="78.5987" x2="29.9" y2="18.8368">
		<stop  offset="0" style="stop-color:#FFF200"/>
		<stop  offset="1" style="stop-color:#F15A29"/>
	</linearGradient>
	<path class="st5" d="M40.3,42.8c-0.2-0.2-0.6-0.3-0.8-0.2c-0.1,0-0.1,0.1-0.2,0.1C39,42.8,38.7,43,38.4,43
		c-0.3,0.1-0.6,0.2-0.8,0.2c-0.1,0-0.3,0-0.4,0.1c-0.1,0-0.2,0-0.2,0c-0.1,0-0.2,0-0.2,0c-0.1,0-0.1,0-0.2,0c-0.1,0-0.2,0-0.3,0
		c0,0,0,0,0,0l0,0l-0.1,0c0,0-0.1,0-0.1,0c-0.1,0-0.2,0-0.2,0c-0.7-0.1-1.3-0.3-2-0.6c-0.6-0.3-1.3-0.7-1.8-1.2
		c-0.6-0.5-1-1.1-1.4-1.8c-0.4-0.7-0.6-1.4-0.8-2.2c-0.1-0.4-0.1-0.8-0.1-1.2c0-0.1,0-0.2,0-0.3c0,0,0,0,0,0l0,0l0-0.1
		c0-0.1,0-0.1,0-0.2c0-0.2,0.1-0.4,0.1-0.6c0.3-1.7,1.2-3.4,2.5-4.7c0.3-0.3,0.7-0.6,1.1-0.9c0.4-0.3,0.8-0.5,1.2-0.7
		c0.4-0.2,0.9-0.4,1.3-0.5c0.5-0.1,0.9-0.2,1.4-0.2c0.2,0,0.5,0,0.7,0c0.1,0,0.1,0,0.2,0l0.2,0l0.1,0c0,0,0,0,0,0l0,0l0.2,0
		c0.5,0,1,0.1,1.5,0.2c1,0.2,2,0.6,2.9,1.1c1.8,1,3.4,2.6,4.3,4.5c0.5,0.9,0.8,2,1,3c0,0.3,0.1,0.5,0.1,0.8l0,0.2l0,0.2
		c0,0.1,0,0.1,0,0.2c0,0.1,0,0.1,0,0.2l0,0.2l0,0.2c0,0.1,0,0.3,0,0.5c0,0.3,0,0.6-0.1,0.9c0,0.3-0.1,0.6-0.1,0.9
		c-0.1,0.3-0.1,0.6-0.2,0.8c-0.1,0.6-0.3,1.1-0.5,1.7c-0.4,1.1-1,2.1-1.7,3.1c-1.4,1.9-3.3,3.4-5.4,4.4c-1.1,0.5-2.2,0.8-3.4,1
		c-0.6,0.1-1.2,0.2-1.8,0.2l-0.1,0l-0.1,0l-0.2,0l-0.3,0l-0.1,0c0.1,0,0,0,0,0l-0.1,0c-0.3,0-0.6,0-0.9,0c-1.3-0.1-2.5-0.3-3.7-0.7
		c-1.2-0.3-2.4-0.8-3.5-1.4c-2.2-1.2-4.2-2.8-5.7-4.7c-0.8-1-1.5-2-2-3.1c-0.6-1.1-1-2.2-1.3-3.4c-0.3-1.2-0.5-2.4-0.6-3.6l0-0.2
		l0-0.1l0-0.1l0-0.1l0-0.2l0,0l0-0.1l0-0.1l0-0.3l0-0.1c0,0,0,0,0,0l0-0.1c0-0.1,0-0.3,0-0.4c0-0.6,0.1-1.2,0.2-1.8
		c0.1-0.6,0.2-1.2,0.3-1.8c0.1-0.6,0.3-1.2,0.4-1.8c0.3-1.2,0.8-2.4,1.3-3.5c1-2.2,2.3-4.1,3.9-5.7c0.4-0.4,0.8-0.8,1.2-1.1
		c0.4-0.3,0.9-0.7,1.3-1c0.5-0.3,0.9-0.6,1.4-0.8c0.2-0.1,0.5-0.2,0.7-0.4c0.1-0.1,0.3-0.1,0.4-0.2c0.1-0.1,0.3-0.1,0.4-0.2
		c0.5-0.2,1-0.4,1.5-0.6c0.1,0,0.3-0.1,0.4-0.1c0.1,0,0.3-0.1,0.4-0.1c0.3-0.1,0.5-0.1,0.8-0.2c0.1,0,0.3-0.1,0.4-0.1
		c0.1,0,0.3-0.1,0.4-0.1c0.1,0,0.3,0,0.4-0.1l0.2,0l0.2,0c0.1,0,0.3,0,0.4-0.1c0.2,0,0.3,0,0.5-0.1c0.1,0,0.3,0,0.5-0.1
		c0.1,0,0.2,0,0.3,0l0.2,0l0.1,0l0.1,0c0.2,0,0.3,0,0.5,0l0.2,0c0,0,0.1,0,0,0l0,0l0.1,0c0.1,0,0.3,0,0.4,0c0.5,0,1.1,0,1.6,0
		c1,0,2.1,0.2,3.1,0.3c2,0.4,3.9,1,5.5,1.8c1.7,0.8,3.2,1.8,4.5,3c0.1,0.1,0.2,0.1,0.2,0.2c0.1,0.1,0.2,0.1,0.2,0.2
		c0.2,0.1,0.3,0.3,0.5,0.4c0.2,0.1,0.3,0.3,0.4,0.4c0.1,0.1,0.3,0.3,0.4,0.4c0.6,0.6,1.1,1.2,1.5,1.8c0.9,1.2,1.7,2.4,2.3,3.6
		c0,0.1,0.1,0.1,0.1,0.2c0,0.1,0.1,0.1,0.1,0.2c0.1,0.1,0.1,0.3,0.2,0.4c0.1,0.1,0.1,0.3,0.2,0.4c0.1,0.1,0.1,0.3,0.2,0.4
		c0.2,0.5,0.4,1,0.6,1.5c0.3,0.8,0.5,1.5,0.6,2.1c0.1,0.2,0.3,0.4,0.5,0.4l0,0c0.3,0,0.5-0.2,0.5-0.5c0-0.7,0-1.4-0.1-2.3
		c-0.1-1.1-0.3-2.3-0.7-3.7c-0.4-1.4-0.9-2.9-1.7-4.5c-0.8-1.6-1.8-3.2-3.1-4.8c-0.5-0.6-1.1-1.2-1.7-1.8c0.9-3.6-1.1-6.8-1.1-6.8
		c-3.5-0.2-5.7,1.1-6.5,1.7c-0.1-0.1-0.3-0.1-0.4-0.2c-0.6-0.2-1.2-0.5-1.8-0.7c-0.6-0.2-1.3-0.4-1.9-0.5c-0.7-0.2-1.3-0.3-2-0.4
		c-0.1,0-0.2,0-0.4-0.1C36.8,2.1,32.4,0,32.4,0c-4.9,3.1-5.8,7.4-5.8,7.4c0,0.1,0.1,0.1,0.1,0.2c-0.3,0.1-0.7,0.2-1,0.3
		c-0.4,0.1-0.7,0.3-1.1,0.4c-0.4,0.1-0.7,0.3-1.1,0.4c-0.7,0.3-1.5,0.7-2.2,1.1c-0.7,0.4-1.4,0.8-2.1,1.3c0,0,0,0-0.1,0
		c0-0.1,0-0.2,0-0.2c-6.8-2.6-12.8,0.5-12.8,0.5c-0.5,7.2,2.7,11.7,3.3,12.5c-0.2,0.4-0.3,0.9-0.4,1.3c-0.5,1.6-0.9,3.3-1.1,5
		c0,0.2-0.1,0.5-0.1,0.7C1.9,34.3,0,40.6,0,40.6c5.2,6,11.3,6.4,11.3,6.4c0,0,0,0,0,0c0.8,1.4,1.7,2.7,2.7,3.9
		c0.4,0.5,0.9,1,1.3,1.5c-1.9,5.4,0.3,10,0.3,10c5.8,0.2,9.6-2.5,10.4-3.2c0.6,0.2,1.2,0.4,1.8,0.5c1.8,0.5,3.6,0.7,5.4,0.8
		c0.5,0,0.9,0,1.4,0l0.2,0l0.1,0l0.3,0l0.3,0c0,0,0,0,0,0C38.2,64.4,43,65,43,65c3.9-4.1,3.6-8.1,3.6-8.1c0,0-0.1-0.1-0.1-0.1
		c0.8-0.5,1.5-1.1,2.2-1.7c1.4-1.2,2.6-2.6,3.6-4.2c0.1-0.1,0.2-0.3,0.3-0.4c3.9,0.2,6.6-2.4,6.6-2.4c-0.7-4.5-3.5-6.4-3.5-6.4
		c0,0-0.1,0-0.1,0c0-0.3,0-0.5,0.1-0.8c0-0.4,0-0.9,0-1.3l0-0.3l0-0.2l0-0.1c0-0.1,0-0.1,0-0.1l0-0.3l0-0.4c0-0.1,0-0.2,0-0.3
		c0-0.1,0-0.2,0-0.3l0-0.3l0-0.3c-0.1-0.4-0.2-0.9-0.3-1.3c-0.4-1.7-1.1-3.4-2-4.9c-0.9-1.5-2-2.8-3.3-3.9c-1.3-1.1-2.7-2-4.1-2.7
		c-1.5-0.7-3-1.1-4.6-1.3c-0.8-0.1-1.5-0.1-2.3-0.1l-0.3,0l-0.1,0c0,0-0.1,0-0.1,0l-0.1,0l-0.3,0c-0.1,0-0.2,0-0.3,0
		c-0.4,0-0.8,0.1-1.2,0.2c-1.5,0.3-3,0.8-4.3,1.6c-1.3,0.8-2.4,1.7-3.3,2.8c-0.9,1.1-1.6,2.3-2.1,3.5c-0.5,1.2-0.8,2.5-0.8,3.8
		c0,0.3,0,0.6,0,0.9c0,0.1,0,0.2,0,0.2l0,0.2c0,0.1,0,0.3,0,0.4c0.1,0.6,0.2,1.2,0.3,1.8c0.3,1.2,0.9,2.2,1.5,3.1
		c0.7,0.9,1.5,1.6,2.3,2.2c0.8,0.6,1.7,1,2.6,1.3c0.9,0.3,1.8,0.4,2.6,0.4c0.1,0,0.2,0,0.3,0c0.1,0,0.1,0,0.2,0c0.1,0,0.1,0,0.2,0
		c0.1,0,0.2,0,0.3,0c0,0,0,0,0.1,0l0.1,0c0.1,0,0.1,0,0.2,0c0.1,0,0.2,0,0.3-0.1c0.1,0,0.2,0,0.3-0.1c0.2,0,0.4-0.1,0.6-0.2
		c0.4-0.1,0.7-0.3,1-0.4c0.3-0.2,0.6-0.3,0.9-0.5c0.1-0.1,0.2-0.1,0.2-0.2C40.4,43.5,40.5,43.1,40.3,42.8L40.3,42.8z"/>
</g>
</svg>
