<?xml version="1.0" encoding="utf-8"?>
<!-- Generator: Adobe Illustrator 20.1.0, SVG Export Plug-In . SVG Version: 6.00 Build 0)  -->
<svg version="1.1" id="Layer_1" xmlns="http://www.w3.org/2000/svg" xmlns:xlink="http://www.w3.org/1999/xlink" x="0px" y="0px"
	 width="200px" height="48.4px" viewBox="0 0 200 48.4" style="enable-background:new 0 0 200 48.4;" xml:space="preserve">
<style type="text/css">
	.st0{fill:url(#SVGID_1_);}
	.st1{fill:#E6E7E8;}
</style>
<linearGradient id="SVGID_1_" gradientUnits="userSpaceOnUse" x1="22.2339" y1="58.6272" x2="22.2339" y2="14.0264">
	<stop  offset="0" style="stop-color:#FFF200"/>
	<stop  offset="1" style="stop-color:#F15A29"/>
</linearGradient>
<path class="st0" d="M30,31.9c-0.2-0.2-0.4-0.2-0.6-0.1c-0.1,0-0.1,0.1-0.2,0.1c-0.2,0.1-0.4,0.2-0.6,0.2c-0.2,0.1-0.4,0.1-0.6,0.2
	c-0.1,0-0.2,0-0.3,0c-0.1,0-0.1,0-0.2,0c-0.1,0-0.1,0-0.2,0c-0.1,0-0.1,0-0.2,0c-0.1,0-0.1,0-0.2,0c0,0,0,0,0,0l0,0l0,0
	c0,0-0.1,0-0.1,0c-0.1,0-0.1,0-0.2,0c-0.5-0.1-1-0.2-1.5-0.4c-0.5-0.2-0.9-0.5-1.3-0.9c-0.4-0.4-0.8-0.8-1.1-1.3
	c-0.3-0.5-0.5-1.1-0.6-1.7c0-0.3-0.1-0.6-0.1-0.9c0-0.1,0-0.2,0-0.2c0,0,0,0,0,0l0,0l0-0.1c0,0,0-0.1,0-0.1c0-0.2,0-0.3,0.1-0.5
	c0.2-1.3,0.9-2.5,1.9-3.5c0.2-0.2,0.5-0.5,0.8-0.7c0.3-0.2,0.6-0.4,0.9-0.5c0.3-0.1,0.6-0.3,1-0.4c0.3-0.1,0.7-0.2,1-0.2
	c0.2,0,0.4,0,0.5,0c0,0,0.1,0,0.1,0l0.1,0l0.1,0c0,0,0,0,0,0l0,0l0.1,0c0.4,0,0.8,0.1,1.1,0.2c0.8,0.2,1.5,0.4,2.2,0.8
	c1.4,0.8,2.5,1.9,3.2,3.4c0.4,0.7,0.6,1.5,0.7,2.3c0,0.2,0.1,0.4,0.1,0.6l0,0.1l0,0.2c0,0,0,0.1,0,0.2c0,0,0,0.1,0,0.1l0,0.1l0,0.1
	c0,0.1,0,0.3,0,0.4c0,0.2,0,0.4-0.1,0.7c0,0.2-0.1,0.4-0.1,0.6c0,0.2-0.1,0.4-0.1,0.6c-0.1,0.4-0.2,0.8-0.4,1.2
	c-0.3,0.8-0.7,1.6-1.3,2.3c-1,1.4-2.4,2.6-4,3.3c-0.8,0.4-1.6,0.6-2.5,0.8c-0.4,0.1-0.9,0.1-1.3,0.1l-0.1,0l-0.1,0l-0.1,0l-0.2,0
	l-0.1,0c0.1,0,0,0,0,0l0,0c-0.2,0-0.5,0-0.7,0c-0.9-0.1-1.9-0.2-2.8-0.5c-0.9-0.3-1.8-0.6-2.6-1c-1.6-0.9-3.1-2.1-4.3-3.5
	c-0.6-0.7-1.1-1.5-1.5-2.3c-0.4-0.8-0.7-1.7-1-2.6c-0.2-0.9-0.4-1.8-0.4-2.7l0-0.2l0,0l0,0l0-0.1l0-0.1l0,0l0-0.1l0-0.1l0-0.2l0,0
	c0,0,0,0,0,0l0-0.1c0-0.1,0-0.2,0-0.3c0-0.4,0.1-0.9,0.1-1.4c0.1-0.5,0.1-0.9,0.2-1.4c0.1-0.5,0.2-0.9,0.3-1.4
	c0.3-0.9,0.6-1.8,1-2.6c0.8-1.6,1.7-3.1,2.9-4.2c0.3-0.3,0.6-0.6,0.9-0.8c0.3-0.3,0.7-0.5,1-0.7c0.3-0.2,0.7-0.4,1.1-0.6
	c0.2-0.1,0.4-0.2,0.5-0.3c0.1,0,0.2-0.1,0.3-0.1c0.1,0,0.2-0.1,0.3-0.1c0.4-0.2,0.8-0.3,1.2-0.4c0.1,0,0.2-0.1,0.3-0.1
	c0.1,0,0.2-0.1,0.3-0.1c0.2-0.1,0.4-0.1,0.6-0.2c0.1,0,0.2,0,0.3-0.1c0.1,0,0.2,0,0.3-0.1c0.1,0,0.2,0,0.3-0.1l0.2,0l0.2,0
	c0.1,0,0.2,0,0.3,0c0.1,0,0.2,0,0.3,0c0.1,0,0.2,0,0.3,0c0.1,0,0.1,0,0.2,0l0.1,0l0.1,0l0.1,0c0.1,0,0.2,0,0.3,0l0.2,0
	c0,0,0.1,0,0,0l0,0l0.1,0c0.1,0,0.2,0,0.3,0c0.4,0,0.8,0,1.2,0c0.8,0,1.5,0.1,2.3,0.3c1.5,0.3,2.9,0.8,4.1,1.4
	c1.3,0.6,2.4,1.4,3.4,2.2c0.1,0.1,0.1,0.1,0.2,0.2c0.1,0.1,0.1,0.1,0.2,0.2c0.1,0.1,0.2,0.2,0.3,0.3c0.1,0.1,0.2,0.2,0.3,0.3
	c0.1,0.1,0.2,0.2,0.3,0.3c0.4,0.4,0.8,0.9,1.1,1.3c0.7,0.9,1.3,1.8,1.7,2.7c0,0.1,0.1,0.1,0.1,0.2c0,0.1,0.1,0.1,0.1,0.2
	c0.1,0.1,0.1,0.2,0.2,0.3c0,0.1,0.1,0.2,0.1,0.3c0,0.1,0.1,0.2,0.1,0.3c0.2,0.4,0.3,0.8,0.4,1.1c0.2,0.6,0.4,1.1,0.5,1.6
	c0,0.2,0.2,0.3,0.4,0.3l0,0c0.2,0,0.3-0.2,0.3-0.4c0-0.5,0-1.1-0.1-1.7c-0.1-0.8-0.2-1.8-0.5-2.8c-0.3-1-0.7-2.2-1.3-3.3
	c-0.6-1.2-1.3-2.4-2.3-3.6c-0.4-0.5-0.8-0.9-1.3-1.4c0.7-2.7-0.8-5.1-0.8-5.1c-2.6-0.2-4.3,0.8-4.9,1.3c-0.1,0-0.2-0.1-0.3-0.1
	c-0.4-0.2-0.9-0.3-1.4-0.5c-0.5-0.1-0.9-0.3-1.4-0.4c-0.5-0.1-1-0.2-1.5-0.3c-0.1,0-0.2,0-0.3,0C27.4,1.5,24.1,0,24.1,0
	c-3.6,2.3-4.3,5.5-4.3,5.5c0,0.1,0.1,0.1,0.1,0.2c-0.2,0.1-0.5,0.1-0.7,0.2c-0.3,0.1-0.6,0.2-0.8,0.3c-0.3,0.1-0.6,0.2-0.8,0.3
	c-0.5,0.2-1.1,0.5-1.6,0.8c-0.5,0.3-1.1,0.6-1.6,1c0,0,0,0,0,0c0-0.1,0-0.1,0-0.1c-5-1.9-9.5,0.4-9.5,0.4c-0.4,5.4,2,8.7,2.5,9.4
	c-0.1,0.3-0.2,0.7-0.3,1c-0.4,1.2-0.7,2.5-0.8,3.8c0,0.2,0,0.4-0.1,0.6c-4.7,2.3-6,7-6,7c3.9,4.5,8.4,4.7,8.4,4.7c0,0,0,0,0,0
	c0.6,1,1.2,2,2,2.9c0.3,0.4,0.6,0.8,1,1.1c-1.4,4.1,0.2,7.4,0.2,7.4c4.3,0.2,7.2-1.9,7.8-2.4c0.4,0.1,0.9,0.3,1.3,0.4
	c1.3,0.3,2.7,0.5,4.1,0.6c0.3,0,0.7,0,1,0l0.2,0l0.1,0l0.2,0l0.2,0c0,0,0,0,0,0c2,2.9,5.6,3.3,5.6,3.3c2.9-3,2.7-6.1,2.7-6.1
	c0,0-0.1,0-0.1-0.1c0.6-0.4,1.1-0.8,1.6-1.3c1-0.9,1.9-2,2.7-3.1c0.1-0.1,0.1-0.2,0.2-0.3c2.9,0.2,4.9-1.8,4.9-1.8
	c-0.5-3.4-2.6-4.8-2.6-4.8c0,0,0,0-0.1,0c0-0.2,0-0.4,0-0.6c0-0.3,0-0.6,0-1l0-0.2l0-0.1l0-0.1c0-0.1,0-0.1,0-0.1l0-0.2l0-0.3
	c0-0.1,0-0.2,0-0.3c0-0.1,0-0.2,0-0.3l0-0.2l0-0.2c0-0.3-0.1-0.7-0.2-1c-0.3-1.3-0.8-2.5-1.5-3.6c-0.7-1.1-1.5-2.1-2.4-2.9
	c-0.9-0.8-2-1.5-3.1-2c-1.1-0.5-2.3-0.8-3.4-1c-0.6-0.1-1.2-0.1-1.7-0.1l-0.2,0l-0.1,0c0,0-0.1,0-0.1,0l-0.1,0l-0.2,0
	c-0.1,0-0.2,0-0.2,0c-0.3,0-0.6,0.1-0.9,0.1c-1.1,0.2-2.2,0.6-3.2,1.2c-1,0.6-1.8,1.3-2.5,2.1c-0.7,0.8-1.2,1.7-1.6,2.6
	c-0.4,0.9-0.6,1.9-0.6,2.8c0,0.2,0,0.5,0,0.7c0,0.1,0,0.1,0,0.2l0,0.2c0,0.1,0,0.2,0,0.3c0,0.5,0.1,0.9,0.3,1.4
	c0.3,0.9,0.7,1.7,1.2,2.3c0.5,0.7,1.1,1.2,1.7,1.7c0.6,0.4,1.3,0.7,2,0.9c0.7,0.2,1.3,0.3,2,0.3c0.1,0,0.2,0,0.2,0c0,0,0.1,0,0.1,0
	c0,0,0.1,0,0.1,0c0.1,0,0.1,0,0.2,0c0,0,0,0,0.1,0l0.1,0c0,0,0.1,0,0.1,0c0.1,0,0.2,0,0.2,0c0.1,0,0.1,0,0.2,0
	c0.1,0,0.3-0.1,0.4-0.1c0.3-0.1,0.5-0.2,0.8-0.3c0.2-0.1,0.5-0.3,0.7-0.4c0.1,0,0.1-0.1,0.2-0.1C30.1,32.4,30.1,32.1,30,31.9
	L30,31.9z"/>
<g>
	<path class="st1" d="M84,27.8c-0.3,8.1-6.7,14.4-14.6,14.4c-8.4,0-14.6-6.8-14.6-15c0-8.3,6.7-15,15-15c3.7,0,7.3,1.6,10.4,4.5
		l-2.4,3c-2.4-2-5.2-3.4-8-3.4c-6,0-11,4.9-11,11c0,6.2,4.7,11,10.6,11c5.3,0,9.5-3.9,10.4-8.9H67.6v-3.5H84V27.8z"/>
	<path class="st1" d="M97.9,25.8h-2.2c-2.5,0-4.5,1.6-4.5,4.1v12h-4V22h3.3v1.7c1.1-1.1,2.8-1.7,4.7-1.7h4.3L97.9,25.8z"/>
	<path class="st1" d="M119.7,41.9h-3.4v-2.5c-1.8,1.7-4.2,2.8-6.9,2.8c-5.7,0-10.3-4.6-10.3-10.3c0-5.6,4.6-10.2,10.3-10.2
		c2.7,0,5.1,1.1,6.8,2.8V22h3.4V41.9z M115.8,31.9c0-3.4-2.8-6.3-6.3-6.3c-3.5,0-6.3,2.8-6.3,6.3c0,3.5,2.8,6.3,6.3,6.3
		C113,38.2,115.8,35.4,115.8,31.9z"/>
	<path class="st1" d="M127.7,20.9V22h6.3v3.5h-6.3v16.4h-3.9V21c0-4.4,3.2-7,7.1-7h4.8l-1.6,3.7h-3.2
		C129.1,17.7,127.7,19.1,127.7,20.9z"/>
	<path class="st1" d="M155.2,41.9h-3.4v-2.5c-1.8,1.7-4.2,2.8-6.9,2.8c-5.7,0-10.3-4.6-10.3-10.3c0-5.6,4.6-10.2,10.3-10.2
		c2.7,0,5.1,1.1,6.8,2.8V22h3.4V41.9z M151.3,31.9c0-3.4-2.8-6.3-6.3-6.3c-3.5,0-6.3,2.8-6.3,6.3c0,3.5,2.8,6.3,6.3,6.3
		C148.5,38.2,151.3,35.4,151.3,31.9z"/>
	<path class="st1" d="M176.5,30.1v11.8h-4V30.1c0-2.5-2-4.5-4.5-4.5c-2.5,0-4.5,2-4.5,4.5v11.8h-4V22h3.3v1.7c1.4-1.3,3.4-2,5.3-2
		C172.8,21.7,176.5,25.4,176.5,30.1z"/>
	<path class="st1" d="M199.9,41.9h-3.4v-2.5c-1.8,1.7-4.2,2.8-6.9,2.8c-5.7,0-10.3-4.6-10.3-10.3c0-5.6,4.6-10.2,10.3-10.2
		c2.7,0,5.1,1.1,6.8,2.8V22h3.4V41.9z M196,31.9c0-3.4-2.8-6.3-6.3-6.3c-3.5,0-6.3,2.8-6.3,6.3c0,3.5,2.8,6.3,6.3,6.3
		C193.2,38.2,196,35.4,196,31.9z"/>
</g>
</svg>
