<?xml version="1.0" encoding="utf-8"?>
<!-- Generator: Adobe Illustrator 20.1.0, SVG Export Plug-In . SVG Version: 6.00 Build 0)  -->
<svg version="1.1" id="Layer_1" xmlns="http://www.w3.org/2000/svg" xmlns:xlink="http://www.w3.org/1999/xlink" x="0px" y="0px"
	 width="250px" height="250px" viewBox="0 0 250 250" style="enable-background:new 0 0 250 250;" xml:space="preserve">
<style type="text/css">
	.st0{fill:#3BB0C9;}
</style>
<g>
	<circle class="st0" cx="52" cy="56.9" r="7.1"/>
	<circle class="st0" cx="70.7" cy="56.9" r="7.1"/>
	<path class="st0" d="M195.6,102.9H51c-2.8,0-5.1,2.3-5.1,5.1c0,2.8,2.3,5.1,5.1,5.1h144.6c2.8,0,5.1-2.3,5.1-5.1
		C200.7,105.2,198.4,102.9,195.6,102.9z"/>
	<path class="st0" d="M195.6,127.1h-73c-2.8,0-5.1,2.3-5.1,5.1s2.3,5.1,5.1,5.1h73c2.8,0,5.1-2.3,5.1-5.1S198.4,127.1,195.6,127.1z"
		/>
	<path class="st0" d="M195.6,188.6h-73c-2.8,0-5.1,2.3-5.1,5.1c0,2.8,2.3,5.1,5.1,5.1h73c2.8,0,5.1-2.3,5.1-5.1
		C200.7,190.8,198.4,188.6,195.6,188.6z"/>
	<path class="st0" d="M195.6,168.1h-73c-2.8,0-5.1,2.3-5.1,5.1s2.3,5.1,5.1,5.1h73c2.8,0,5.1-2.3,5.1-5.1S198.4,168.1,195.6,168.1z"
		/>
	<path class="st0" d="M195.6,147.6h-73c-2.8,0-5.1,2.3-5.1,5.1s2.3,5.1,5.1,5.1h73c2.8,0,5.1-2.3,5.1-5.1S198.4,147.6,195.6,147.6z"
		/>
	<path class="st0" d="M98.9,127.4H54.6c-3.4,0-6.1,2.7-6.1,6.1v58.1c0,3.4,2.7,6.1,6.1,6.1h44.3c3.4,0,6.1-2.7,6.1-6.1v-58.1
		C105,130.1,102.3,127.4,98.9,127.4z"/>
	<path class="st0" d="M210.5,30.3h-171c-7.6,0-13.8,6.2-13.8,13.8v171c0,7.6,6.2,13.8,13.8,13.8h171c7.6,0,13.8-6.2,13.8-13.8v-171
		C224.3,36.5,218.1,30.3,210.5,30.3z M39.5,35.8h171c4.6,0,8.3,3.7,8.3,8.3v27.5c-0.2,0-0.4,0-0.6,0H32.6c-0.4,0-0.9,0.1-1.3,0.2
		V44.1C31.3,39.5,35,35.8,39.5,35.8z M210.5,223.3h-171c-4.6,0-8.3-3.7-8.3-8.3V81.5c0.4,0.1,0.8,0.2,1.3,0.2h185.6
		c0.2,0,0.4,0,0.6,0V215C218.7,219.6,215,223.3,210.5,223.3z"/>
</g>
</svg>
