<?xml version="1.0" encoding="utf-8"?>
<!-- Generator: Adobe Illustrator 20.1.0, SVG Export Plug-In . SVG Version: 6.00 Build 0)  -->
<svg version="1.1" id="Layer_1" xmlns="http://www.w3.org/2000/svg" xmlns:xlink="http://www.w3.org/1999/xlink" x="0px" y="0px"
	 width="250px" height="250px" viewBox="0 0 250 250" style="enable-background:new 0 0 250 250;" xml:space="preserve">
<style type="text/css">
	.st0{fill:none;}
	.st1{fill:#3BB0C9;}
</style>
<g>
	<path class="st0" d="M43,88.2L71.5,100c5.9-12.3,15.7-22.2,28-28L87.7,43.5C67.8,52.5,52.1,68.3,43,88.2z"/>
	<path class="st0" d="M150.5,179l11.8,28.4c19.9-9,35.7-24.8,44.7-44.7L178.5,151C172.7,163.4,162.8,173.2,150.5,179z"/>
	<path class="st0" d="M178.6,100L207,88.2c-9-19.9-24.8-35.7-44.7-44.7l-11.8,28.4C162.9,77.8,172.7,87.6,178.6,100z"/>
	<path class="st0" d="M71.5,151L43,162.8c9,19.9,24.8,35.7,44.7,44.7l11.8-28.4C87.2,173.2,77.3,163.4,71.5,151z"/>
	<path class="st0" d="M210.8,160.6l-33.3-13.8c5.3-13.2,5.8-28.4,0-42.6l33.3-13.8c3.3,8,5.3,16.1,6.3,24.2V77.4
		c0-24.3-19.8-44-44-44h-37.5c8.4,1,16.7,3.1,24.5,6.3l-13.8,33.2c-6.6-2.7-13.9-4.1-21.3-4.1h0h0c-7.3,0-14.4,1.4-21.2,4.2
		L89.9,39.7c7.9-3.2,16.1-5.3,24.2-6.3H76.9c-24.3,0-44,19.8-44,44v37.3c1-8.4,3.1-16.6,6.3-24.3l33.3,13.8
		c-5.6,13.7-5.6,28.8,0,42.6l-33.3,13.8c-3.3-8-5.3-16.1-6.3-24.3v37.2c0,24.3,19.8,44,44,44h37.5c-8.4-1-16.7-3.1-24.5-6.3
		l13.8-33.2c6.6,2.7,13.9,4.1,21.3,4.1c7.3,0,14.4-1.4,21.2-4.2l13.8,33.3c-7.9,3.2-16.1,5.3-24.2,6.3h37.2c24.3,0,44-19.8,44-44
		v-37.3C216.1,144.6,214,152.8,210.8,160.6z M89.1,211c-21.6-9.1-39.8-26.3-49.6-49.6l33.3-13.8c5.9,13.9,16.8,24.5,30.1,30.1
		L89.1,211z M72.8,103.4L39.5,89.6C48.6,68,65.8,49.8,89.1,40l13.8,33.3C89.2,79.1,78.6,89.7,72.8,103.4z M160.9,40
		c21.6,9.1,39.8,26.3,49.6,49.6l-33.3,13.8c-5.9-13.9-16.8-24.5-30.1-30.1L160.9,40z M160.9,211l-13.8-33.3
		c14.1-6,24.5-17,30.1-30.1l33.3,13.8C201.4,183,184.2,201.2,160.9,211z"/>
	<path class="st1" d="M147.1,177.7l13.8,33.3c23.3-9.8,40.5-28,49.6-49.6l-33.3-13.8C171.6,160.7,161.2,171.7,147.1,177.7z
		 M207,162.8c-9,19.9-24.8,35.7-44.7,44.7L150.5,179c12.3-5.9,22.1-15.7,28-28L207,162.8z"/>
	<path class="st1" d="M39.5,89.6l33.3,13.8c5.8-13.7,16.4-24.3,30.1-30.1L89.1,40C65.8,49.8,48.6,68,39.5,89.6z M71.5,100L43,88.2
		c9-19.9,24.8-35.7,44.7-44.7l11.8,28.4C87.1,77.8,77.3,87.6,71.5,100z"/>
	<path class="st1" d="M72.8,147.6l-33.3,13.8c9.8,23.3,28,40.5,49.6,49.6l13.8-33.3C89.6,172.1,78.7,161.5,72.8,147.6z M87.7,207.5
		c-19.9-9-35.7-24.8-44.7-44.7L71.5,151c5.9,12.4,15.7,22.2,28,28.1L87.7,207.5z"/>
	<path class="st1" d="M177.2,103.4l33.3-13.8c-9.8-23.3-28-40.5-49.6-49.6l-13.8,33.3C160.4,78.9,171.3,89.5,177.2,103.4z
		 M162.3,43.5c19.9,9,35.7,24.8,44.7,44.7L178.6,100c-5.9-12.4-15.7-22.2-28-28.1L162.3,43.5z"/>
	<path class="st1" d="M173.1,29.4H76.9c-26.5,0-48,21.6-48,48v96.1c0,26.5,21.6,48,48,48h96.1c26.5,0,48-21.6,48-48V77.4
		C221.1,50.9,199.5,29.4,173.1,29.4z M173.1,217.6h-37.2c8.1-1,16.3-3,24.2-6.3L146.3,178c-6.8,2.8-14,4.2-21.2,4.2
		c-7.5,0-14.7-1.5-21.3-4.1l-13.8,33.2c7.8,3.2,16,5.3,24.5,6.3H76.9c-24.3,0-44-19.8-44-44v-37.2c1,8.1,3,16.3,6.3,24.3l33.3-13.8
		c-5.6-13.7-5.6-28.8,0-42.6L39.2,90.4c-3.2,7.8-5.3,16-6.3,24.3V77.4c0-24.3,19.8-44,44-44h37.2c-8.1,1-16.3,3-24.2,6.3L103.7,73
		c6.8-2.8,14-4.2,21.2-4.2h0h0c7.5,0,14.7,1.5,21.3,4.1l13.8-33.2c-7.8-3.2-16-5.3-24.5-6.3h37.5c24.3,0,44,19.8,44,44v37.2
		c-1-8.1-3-16.3-6.3-24.2l-33.3,13.8c5.7,14.2,5.3,29.4,0,42.6l33.3,13.8c3.2-7.8,5.3-15.9,6.3-24.3v37.3
		C217.1,197.8,197.3,217.6,173.1,217.6z"/>
</g>
</svg>
