<?xml version="1.0" encoding="utf-8"?>
<!-- Generator: Adobe Illustrator 20.1.0, SVG Export Plug-In . SVG Version: 6.00 Build 0)  -->
<svg version="1.1" id="Layer_1" xmlns="http://www.w3.org/2000/svg" xmlns:xlink="http://www.w3.org/1999/xlink" x="0px" y="0px"
	 width="250px" height="250px" viewBox="0 0 250 250" style="enable-background:new 0 0 250 250;" xml:space="preserve">
<style type="text/css">
	.st0{fill:#3BB0C9;}
</style>
<g>
	<path class="st0" d="M55.6,214c0.1,0.1,0.2,0.1,0.3,0.2c0.1,0,0.1,0.1,0.2,0.1c0.1,0,0.1,0.1,0.2,0.1c0.1,0,0.1,0.1,0.2,0.1
		s0.1,0,0.2,0.1c-0.4-0.2-0.9-0.3-1.3-0.5C55.5,213.9,55.6,213.9,55.6,214z"/>
	<path class="st0" d="M102.6,230.4c0,0,0.1,0,0.1,0c0,0,0.1,0,0.1,0c0,0,0.1,0,0.1,0c0,0,0.1,0,0.1,0c0.1,0,0.2,0.1,0.4,0.1
		c0.1,0,0.2,0.1,0.4,0.1c0.1,0,0.2,0,0.2,0.1C103.5,230.7,103,230.5,102.6,230.4z"/>
	<path class="st0" d="M100.6,229.5c0.1,0.1,0.2,0.1,0.4,0.2c0.1,0.1,0.2,0.1,0.4,0.2c0.1,0.1,0.3,0.1,0.4,0.2c0.1,0,0.1,0.1,0.2,0.1
		c0.1,0,0.1,0.1,0.2,0.1c0.1,0,0.1,0.1,0.2,0.1c0.1,0,0.1,0.1,0.2,0.1c-0.8-0.3-1.4-0.6-2.1-0.9
		C100.5,229.4,100.5,229.4,100.6,229.5z"/>
	<path class="st0" d="M196.7,131.1c0,0.3-0.1,0.5-0.2,0.8c0,0,0-0.1,0-0.1c0-0.1,0-0.1,0.1-0.2s0-0.1,0-0.2c0,0,0,0,0-0.1
		c0,0,0,0,0,0c0,0,0,0,0,0C196.7,131.2,196.7,131.2,196.7,131.1C196.7,131.1,196.7,131.1,196.7,131.1z"/>
	<path class="st0" d="M105.7,231c0.1,0,0.2,0,0.4,0c0.1,0,0.3,0,0.4,0c0.1,0,0.3,0,0.4,0c0.1,0,0.3,0,0.4,0c0,0,0.1,0,0.1,0
		C106.7,231.1,106.2,231.1,105.7,231z"/>
	<path class="st0" d="M196.7,131C196.7,131,196.7,131,196.7,131c0-0.2,0-0.2,0-0.3c0-0.1,0-0.1,0-0.2c0,0,0,0,0,0c0,0,0,0,0,0
		c0,0,0,0,0,0c0-0.1,0-0.1,0-0.2c0,0,0-0.1,0-0.1C196.8,130.5,196.8,130.8,196.7,131z"/>
	<path class="st0" d="M196.5,131.8c-0.1,0.3-0.2,0.5-0.3,0.8c0,0,0,0,0,0c0,0,0,0,0,0c0,0,0,0,0,0c0,0,0,0,0,0
		c0-0.1,0.1-0.1,0.1-0.2c0-0.1,0.1-0.1,0.1-0.2C196.4,132,196.4,132,196.5,131.8C196.5,131.9,196.5,131.9,196.5,131.8
		C196.5,131.9,196.5,131.9,196.5,131.8C196.5,131.9,196.5,131.9,196.5,131.8C196.5,131.9,196.5,131.8,196.5,131.8z"/>
	<path class="st0" d="M104.1,230.8C104.1,230.8,104.2,230.8,104.1,230.8c0.2,0,0.3,0.1,0.5,0.1c0.1,0,0.2,0,0.4,0.1
		c0.1,0,0.2,0,0.4,0.1c0.1,0,0.2,0,0.4,0c0,0,0,0,0,0C105.1,231,104.6,230.9,104.1,230.8z"/>
	<path class="st0" d="M196.8,130.3C196.8,130.2,196.8,130.2,196.8,130.3c0-0.1,0-0.1,0-0.2c0,0,0,0,0,0
		C196.8,130.1,196.8,130.2,196.8,130.3z"/>
	<path class="st0" d="M69.1,213.6c0.2-0.1,0.4-0.1,0.6-0.2c0.3-0.1,0.6-0.3,0.9-0.4C70,213.2,69.5,213.4,69.1,213.6z"/>
	<path class="st0" d="M107.3,231.1c0.1,0,0.2,0,0.3,0c0.1,0,0.3,0,0.4,0c0.1,0,0.3,0,0.4,0c0.1,0,0.3,0,0.4,0c0,0,0,0,0.1,0
		C108.4,231.1,107.8,231.1,107.3,231.1z"/>
	<path class="st0" d="M71.4,212.5c0.1-0.1,0.2-0.1,0.4-0.2c0.4-0.2,0.8-0.4,1.1-0.7C72.4,212,71.9,212.3,71.4,212.5z"/>
	<path class="st0" d="M98.7,228.1c-0.5-0.4-0.9-0.9-1.3-1.4c0.1,0.1,0.2,0.2,0.3,0.4c0,0,0.1,0.1,0.1,0.1c0.1,0.1,0.2,0.2,0.2,0.2
		c0.1,0.1,0.2,0.2,0.3,0.3c0,0,0.1,0.1,0.1,0.1C98.5,228,98.6,228,98.7,228.1C98.7,228.1,98.7,228.1,98.7,228.1z"/>
	<path class="st0" d="M75.7,209.8c-0.7,0.5-1.4,1-2.1,1.4c0.1,0,0.1-0.1,0.2-0.1C74.4,210.8,75,210.3,75.7,209.8L75.7,209.8z"/>
	<path class="st0" d="M100.4,229.4c-0.6-0.4-1.2-0.8-1.7-1.2c0.1,0.1,0.2,0.2,0.3,0.3c0.1,0.1,0.3,0.2,0.4,0.3
		c0.1,0.1,0.3,0.2,0.4,0.3c0.1,0.1,0.3,0.2,0.4,0.3c0,0,0,0,0,0c0,0,0,0,0,0c0,0,0,0,0,0C100.3,229.3,100.4,229.3,100.4,229.4z"/>
	<path class="st0" d="M97.2,226.5c-0.4-0.5-0.7-1-0.9-1.6c0,0,0,0.1,0.1,0.1c0,0,0,0,0,0.1c0.1,0.1,0.1,0.2,0.2,0.3
		c0.1,0.2,0.2,0.4,0.3,0.6c0,0,0.1,0.1,0.1,0.1c0,0,0,0.1,0.1,0.1C97,226.3,97.1,226.4,97.2,226.5z"/>
	<path class="st0" d="M117.9,228.1c0.1-0.1,0.2-0.1,0.3-0.2c0.1,0,0.1-0.1,0.1-0.1C118.2,227.9,118.1,228,117.9,228.1z"/>
	<path class="st0" d="M125.9,220.1C125.9,220,125.9,220,125.9,220.1c0-0.1,0.1-0.1,0.1-0.1c0,0,0,0,0-0.1c0,0,0,0,0-0.1
		c0.1-0.1,0.1-0.2,0.2-0.4c0.1-0.1,0.1-0.2,0.2-0.4c0.1-0.1,0.1-0.2,0.2-0.3C126.4,219.2,126.1,219.6,125.9,220.1z"/>
	<path class="st0" d="M125.1,221.3c0.1-0.1,0.1-0.2,0.2-0.3c0.1-0.1,0.1-0.2,0.2-0.3c0.1-0.1,0.1-0.2,0.2-0.3
		c0.1-0.1,0.1-0.2,0.2-0.3c-0.3,0.5-0.6,1-0.9,1.5C125,221.5,125.1,221.4,125.1,221.3z"/>
	<path class="st0" d="M122.8,224.2c0.1-0.1,0.2-0.2,0.3-0.3c0.1-0.2,0.3-0.3,0.4-0.5c0.1-0.1,0.2-0.3,0.4-0.4
		C123.5,223.4,123.2,223.8,122.8,224.2z"/>
	<path class="st0" d="M123.9,223C123.9,222.9,123.9,222.9,123.9,223c0.1-0.2,0.2-0.3,0.3-0.4c0.1-0.1,0.2-0.3,0.3-0.4
		c0.1-0.1,0.2-0.3,0.3-0.4c0,0,0.1-0.1,0.1-0.1C124.6,222.1,124.3,222.5,123.9,223z"/>
	<path class="st0" d="M127.8,215c-0.1,0.4-0.2,0.8-0.3,1.2c0-0.1,0.1-0.2,0.1-0.3c0-0.1,0.1-0.2,0.1-0.3c0-0.1,0.1-0.2,0.1-0.4
		C127.8,215.1,127.8,215.1,127.8,215z"/>
	<path class="st0" d="M126.6,218.8C126.6,218.8,126.6,218.8,126.6,218.8c0.1-0.1,0.1-0.3,0.2-0.4c0.1-0.1,0.1-0.2,0.2-0.3
		c0-0.1,0.1-0.2,0.1-0.3c0-0.1,0-0.1,0.1-0.2C127,217.9,126.8,218.4,126.6,218.8z"/>
	<path class="st0" d="M127.1,217.5c0,0,0-0.1,0-0.1c0-0.1,0.1-0.2,0.1-0.3c0-0.1,0.1-0.2,0.1-0.4c0-0.1,0.1-0.2,0.1-0.4
		c0,0,0,0,0-0.1C127.4,216.6,127.3,217.1,127.1,217.5z"/>
	<path class="st0" d="M195.8,133.3c0-0.1,0.1-0.1,0.1-0.2c0-0.1,0.1-0.1,0.1-0.2s0.1-0.1,0.1-0.2c0-0.1,0.1-0.1,0.1-0.2
		C196.1,132.8,195.9,133.1,195.8,133.3C195.8,133.3,195.8,133.3,195.8,133.3z"/>
	<path class="st0" d="M115.9,229.2c0.1,0,0.1-0.1,0.2-0.1c0.1-0.1,0.2-0.1,0.3-0.2C116.2,229,116,229.1,115.9,229.2z"/>
	<path class="st0" d="M112.3,230.5c0.1,0,0.1,0,0.2-0.1c0.2-0.1,0.4-0.1,0.6-0.2s0.4-0.1,0.6-0.2c0,0,0,0,0.1,0
		C113.3,230.2,112.8,230.3,112.3,230.5z"/>
	<path class="st0" d="M30.8,161.6C30.8,161.6,30.8,161.6,30.8,161.6c0.1,0,0.2,0,0.3,0c0.1,0,0.2,0,0.3,0c0.1,0,0.2,0,0.3,0
		c0.1,0,0.2,0,0.3,0c0.1,0,0.2,0,0.3,0c0.1,0,0.2,0,0.3,0c0,0,0.1,0,0.1,0C32.1,161.8,31.4,161.7,30.8,161.6z"/>
	<path class="st0" d="M110.6,230.9c0,0,0.1,0,0.1,0c0.2,0,0.3-0.1,0.5-0.1c0.2,0,0.4-0.1,0.6-0.1c0.1,0,0.2-0.1,0.3-0.1
		C111.7,230.6,111.2,230.8,110.6,230.9z"/>
	<path class="st0" d="M121.9,225.1c0.1-0.1,0.2-0.1,0.3-0.2c0.2-0.2,0.3-0.3,0.5-0.5c0,0,0,0,0.1-0.1
		C122.5,224.6,122.2,224.8,121.9,225.1z"/>
	<path class="st0" d="M120.2,226.5C120.2,226.5,120.3,226.5,120.2,226.5c0.2-0.1,0.2-0.2,0.3-0.3
		C120.4,226.4,120.3,226.4,120.2,226.5z"/>
	<path class="st0" d="M66.2,214.5C66.2,214.5,66.2,214.5,66.2,214.5c0.3-0.1,0.5-0.1,0.7-0.2c0.2-0.1,0.4-0.1,0.6-0.2
		c0.2-0.1,0.4-0.2,0.7-0.2C67.5,214.1,66.8,214.3,66.2,214.5z"/>
	<path class="st0" d="M43.4,159c0,0,0.1,0,0.1-0.1c0.6-0.3,1.2-0.6,1.7-1C44.7,158.4,44.1,158.7,43.4,159z"/>
	<path class="st0" d="M66.8,172.5C66.8,172.5,66.9,172.5,66.8,172.5c0.2,0,0.3,0.1,0.4,0.1c0,0,0,0,0,0
		C67.1,172.6,66.9,172.6,66.8,172.5z"/>
	<path class="st0" d="M62.8,170.8c-0.4-0.3-0.7-0.6-1-1c0.1,0.2,0.3,0.3,0.4,0.5c0.1,0.2,0.3,0.3,0.5,0.4
		C62.7,170.7,62.7,170.7,62.8,170.8C62.8,170.7,62.8,170.7,62.8,170.8C62.8,170.7,62.8,170.7,62.8,170.8
		C62.8,170.8,62.8,170.8,62.8,170.8z"/>
	<path class="st0" d="M46.4,157.3L46.4,157.3c-0.4,0.2-0.7,0.5-1.1,0.7c0,0,0,0,0,0C45.7,157.8,46,157.5,46.4,157.3z"/>
	<path class="st0" d="M64.1,171.6C64.1,171.6,64.2,171.6,64.1,171.6C64.2,171.6,64.2,171.6,64.1,171.6c-0.5-0.2-0.9-0.5-1.3-0.9
		c0.1,0.1,0.2,0.1,0.3,0.2c0.1,0.1,0.2,0.1,0.3,0.2c0.1,0.1,0.2,0.1,0.3,0.2c0.1,0.1,0.2,0.1,0.3,0.2
		C64.1,171.6,64.1,171.6,64.1,171.6C64.1,171.6,64.1,171.6,64.1,171.6z"/>
	<path class="st0" d="M195.3,134c0,0,0.1-0.1,0.1-0.1c0.1-0.1,0.1-0.1,0.2-0.2c0.1-0.1,0.1-0.1,0.2-0.2c0,0,0.1-0.1,0.1-0.1
		C195.6,133.6,195.5,133.8,195.3,134z"/>
	<path class="st0" d="M66.3,172.4c-0.1,0-0.3-0.1-0.4-0.1c0,0,0.1,0,0.1,0c0,0,0.1,0,0.1,0c0,0,0.1,0,0.1,0
		C66.2,172.4,66.3,172.4,66.3,172.4c0.1,0,0.2,0,0.3,0.1c0,0,0.1,0,0.1,0C66.6,172.5,66.4,172.4,66.3,172.4z"/>
	<path class="st0" d="M64.3,171.7c0.1,0,0.2,0.1,0.3,0.1c0.1,0,0.2,0.1,0.3,0.1c0.1,0,0.2,0.1,0.3,0.1c0.1,0,0.1,0,0.2,0.1
		c0.1,0,0.1,0,0.2,0.1c0.1,0,0.1,0,0.2,0.1c0.1,0,0.1,0,0.2,0.1C65.3,172.1,64.7,171.9,64.3,171.7C64.2,171.7,64.3,171.7,64.3,171.7
		z"/>
	<path class="st0" d="M61.8,169.7c-0.3-0.3-0.5-0.7-0.7-1.1c0.1,0.1,0.1,0.3,0.2,0.4c0.1,0.2,0.2,0.4,0.4,0.6
		C61.7,169.6,61.7,169.6,61.8,169.7C61.7,169.6,61.7,169.6,61.8,169.7C61.7,169.6,61.7,169.6,61.8,169.7
		C61.7,169.6,61.8,169.7,61.8,169.7z"/>
	<path class="st0" d="M32.8,161.8c0.1,0,0.1,0,0.2,0c0.1,0,0.2,0,0.3,0c0.1,0,0.2,0,0.3,0c0.1,0,0.2,0,0.3,0c0.1,0,0.2,0,0.3,0
		c0.1,0,0.3,0,0.4,0c0,0,0.1,0,0.1,0C34.1,161.7,33.4,161.8,32.8,161.8z"/>
	<path class="st0" d="M34.8,161.7c0.1,0,0.2,0,0.3,0c0.1,0,0.3,0,0.4-0.1c0.1,0,0.3,0,0.4-0.1c0.2,0,0.4-0.1,0.5-0.1
		c0.2,0,0.3-0.1,0.5-0.1C36.2,161.5,35.5,161.6,34.8,161.7z"/>
	<path class="st0" d="M199.3,97.1c0.5,0.2,1,0.4,1.6,0.6C200.3,97.5,199.8,97.3,199.3,97.1C199.3,97.1,199.3,97.1,199.3,97.1z"/>
	<path class="st0" d="M190,106.1c0,0.3,0,0.7-0.1,1c0,0,0,0,0,0c0,0,0,0,0,0c0,0,0,0,0,0c0,0,0,0,0,0c0,0,0-0.1,0-0.1
		c0-0.1,0-0.1,0-0.2c0-0.1,0-0.1,0-0.2c0,0,0-0.1,0-0.1c0,0,0,0,0,0c0,0,0,0,0,0c0,0,0,0,0,0c0-0.1,0-0.1,0-0.2c0,0,0-0.1,0-0.1
		C190,106.2,190,106.2,190,106.1z"/>
	<path class="st0" d="M41.5,159.9c0.1,0,0.2-0.1,0.3-0.1c0.3-0.1,0.7-0.3,1-0.5C42.3,159.5,41.9,159.7,41.5,159.9z"/>
	<path class="st0" d="M36.9,161.3C36.9,161.3,37,161.3,36.9,161.3c0.2,0,0.4-0.1,0.6-0.1c0.2,0,0.4-0.1,0.5-0.1
		c0.2-0.1,0.4-0.1,0.6-0.2C38.1,161,37.5,161.2,36.9,161.3z"/>
	<path class="st0" d="M63.7,215c0.1,0,0.2,0,0.4,0c0.2,0,0.3,0,0.5-0.1c0.2,0,0.3-0.1,0.5-0.1c0.2,0,0.4-0.1,0.6-0.1
		c0.2,0,0.3-0.1,0.5-0.1C65.3,214.7,64.5,214.9,63.7,215z"/>
	<path class="st0" d="M39.4,160.6c0.2,0,0.3-0.1,0.5-0.1c0.3-0.1,0.5-0.2,0.8-0.3C40.3,160.4,39.9,160.5,39.4,160.6z"/>
	<path class="st0" d="M188.6,109.3c0.1-0.1,0.1-0.1,0.1-0.2c0-0.1,0.1-0.1,0.1-0.2c0-0.1,0.1-0.1,0.1-0.2c0,0,0.1-0.1,0.1-0.1
		c0,0,0.1-0.1,0.1-0.1c0,0,0.1-0.1,0.1-0.1c0,0,0.1-0.1,0.1-0.1C189.1,108.6,188.9,109,188.6,109.3
		C188.6,109.3,188.6,109.3,188.6,109.3z"/>
	<path class="st0" d="M55.5,213.9c-0.4-0.2-0.7-0.4-1.1-0.6c0.1,0.1,0.2,0.1,0.3,0.2c0.1,0.1,0.2,0.1,0.3,0.2c0,0,0.1,0,0.1,0.1
		c0,0,0,0,0,0c0,0,0,0,0,0c0.1,0,0.1,0.1,0.2,0.1C55.3,213.8,55.4,213.8,55.5,213.9z"/>
	<path class="st0" d="M56.8,214.4c0,0,0.1,0,0.1,0c0,0,0.1,0,0.1,0c0,0,0.1,0,0.1,0c0,0,0.1,0,0.1,0c0.1,0,0.2,0.1,0.3,0.1
		c0.1,0,0.2,0.1,0.3,0.1c0.1,0,0.2,0.1,0.3,0.1c0.1,0,0.2,0,0.3,0.1c0.1,0,0.2,0,0.3,0.1C58.2,214.8,57.4,214.7,56.8,214.4z"/>
	<path class="st0" d="M187.5,110.3c0.1-0.1,0.2-0.1,0.2-0.2c0.1-0.1,0.2-0.1,0.2-0.2c0.1-0.1,0.1-0.1,0.2-0.2
		c0.1-0.1,0.1-0.1,0.2-0.2c0,0,0.1-0.1,0.1-0.1C188.3,109.7,187.9,110,187.5,110.3z"/>
	<path class="st0" d="M61.3,215.1c0.1,0,0.1,0,0.2,0c0.1,0,0.3,0,0.4,0c0.1,0,0.3,0,0.4,0c0.1,0,0.3,0,0.4,0c0.1,0,0.3,0,0.4,0
		c0.2,0,0.3,0,0.5-0.1c0,0,0.1,0,0.1,0C62.8,215.1,62,215.1,61.3,215.1z"/>
	<path class="st0" d="M58.9,215C58.9,215,58.9,215,58.9,215c0.1,0,0.2,0,0.4,0.1c0.1,0,0.2,0,0.3,0c0.1,0,0.2,0,0.4,0
		c0.1,0,0.2,0,0.4,0c0.1,0,0.2,0,0.4,0c0.1,0,0.2,0,0.4,0c0,0,0.1,0,0.1,0C60.4,215.1,59.7,215.1,58.9,215z"/>
	<path class="st0" d="M186.3,111.2c0.2-0.1,0.4-0.3,0.7-0.4c0.2-0.1,0.4-0.3,0.6-0.4c0,0,0,0,0,0
		C187.1,110.6,186.7,110.9,186.3,111.2z"/>
	<path class="st0" d="M52.6,211.6C52.6,211.6,52.6,211.6,52.6,211.6C52.6,211.6,52.6,211.6,52.6,211.6
		C52.6,211.6,52.6,211.6,52.6,211.6z"/>
	<path class="st0" d="M189.3,108.3C189.3,108.3,189.4,108.3,189.3,108.3C189.4,108.2,189.4,108.2,189.3,108.3
		C189.4,108.2,189.4,108.2,189.3,108.3c0.1-0.1,0.1-0.1,0.1-0.1c0-0.1,0.1-0.1,0.1-0.2c0-0.1,0.1-0.1,0.1-0.2c0-0.1,0-0.1,0.1-0.2
		c0,0,0,0,0,0c0,0,0,0,0,0c0,0,0,0,0,0c0,0,0-0.1,0-0.1c0-0.1,0-0.1,0.1-0.2c0-0.1,0-0.1,0-0.2c0,0,0-0.1,0-0.1
		C189.7,107.5,189.6,107.9,189.3,108.3z"/>
	<path class="st0" d="M67,188.8C67,188.8,67,188.8,67,188.8C67,188.8,67,188.8,67,188.8L67,188.8z"/>
	<path class="st0" d="M67.6,172.7C67.6,172.7,67.6,172.7,67.6,172.7c0.1,0,0.1,0,0.1,0c-0.1,0-0.3,0-0.4-0.1c0.1,0,0.1,0,0.2,0
		C67.5,172.7,67.5,172.7,67.6,172.7C67.5,172.7,67.6,172.7,67.6,172.7z"/>
	<path class="st0" d="M52.7,211.6c0.1,0.1,0.1,0.2,0.2,0.3c0.1,0.2,0.3,0.3,0.5,0.5c0,0,0,0,0,0C53.1,212.2,52.9,211.9,52.7,211.6z"
		/>
	<path class="st0" d="M53.4,212.5c0.1,0.1,0.1,0.1,0.2,0.2c0,0,0,0,0.1,0c0,0,0,0,0,0c0,0,0,0,0,0c0.1,0.1,0.2,0.1,0.2,0.2
		c0.1,0.1,0.2,0.2,0.3,0.3c0,0,0,0,0,0C54,213,53.7,212.7,53.4,212.5z"/>
	<path class="st0" d="M52,210.7c0,0.1,0.1,0.1,0.1,0.2c0.1,0.2,0.2,0.4,0.4,0.5c0,0,0.1,0.1,0.1,0.1C52.3,211.2,52.2,211,52,210.7z"
		/>
	<path class="st0" d="M70.2,172.8L70.2,172.8c-0.9,0-1.7,0-2.6-0.1c0,0,0,0,0,0C68.5,172.8,69.4,172.9,70.2,172.8z"/>
	<path class="st0" d="M109,231.1c0.1,0,0.2,0,0.3,0c0.2,0,0.3,0,0.5-0.1c0.2,0,0.3,0,0.5-0.1c0.1,0,0.2,0,0.3-0.1
		C110,231,109.5,231,109,231.1z"/>
	<path class="st0" d="M164.5,194.3c0.5-0.4,1-0.8,1.5-1.2c-0.5,0.5-1,0.9-1.6,1.3C164.4,194.4,164.5,194.3,164.5,194.3z"/>
	<path class="st0" d="M166,193.1C166,193,166,193,166,193.1c0.1-0.1,0.1-0.1,0.2-0.2c0,0,0.1-0.1,0.1-0.1c0,0,0.1-0.1,0.1-0.1
		c0.1-0.1,0.2-0.2,0.4-0.4c0.1-0.1,0.1-0.1,0.2-0.2C166.6,192.5,166.3,192.8,166,193.1z"/>
	<path class="st0" d="M176.2,112.8C176.2,112.9,176.2,112.9,176.2,112.8c0.2,0,0.3,0,0.3,0c0.1,0,0.2,0,0.2,0c0,0,0,0,0,0
		c0,0,0,0,0,0c0,0,0,0,0,0c0,0,0,0,0,0c-0.1,0-0.3,0-0.4,0C176.4,112.9,176.3,112.9,176.2,112.8z"/>
	<path class="st0" d="M171.2,110.9c-0.2-0.2-0.4-0.3-0.6-0.5c0,0,0.1,0.1,0.1,0.1c0.1,0.1,0.2,0.1,0.2,0.2c0,0,0.1,0.1,0.1,0.1
		C171,110.9,171.1,110.9,171.2,110.9z"/>
	<path class="st0" d="M169.2,108.8c0,0.1,0.1,0.1,0.1,0.2c0.1,0.1,0.1,0.2,0.2,0.3C169.4,109.1,169.3,108.9,169.2,108.8z"/>
	<path class="st0" d="M169.9,109.7c0.1,0.1,0.2,0.2,0.3,0.3c-0.1-0.1-0.3-0.3-0.4-0.5c0,0,0,0,0,0
		C169.8,109.7,169.8,109.7,169.9,109.7C169.9,109.7,169.9,109.7,169.9,109.7z"/>
	<path class="st0" d="M166.9,192.1C166.9,192,167,192,166.9,192.1c0.2-0.2,0.3-0.4,0.4-0.5c0.1-0.1,0.2-0.3,0.3-0.4
		c0,0,0-0.1,0.1-0.1C167.5,191.4,167.2,191.8,166.9,192.1z"/>
	<path class="st0" d="M173.9,112.3C173.9,112.3,173.9,112.3,173.9,112.3c0.2,0.1,0.3,0.1,0.3,0.1c0.1,0,0.2,0.1,0.3,0.1
		c0.1,0,0.2,0,0.3,0.1c0.1,0,0.1,0,0.2,0c0.1,0,0.1,0,0.2,0c0.1,0,0.1,0,0.2,0c0.1,0,0.1,0,0.2,0
		C174.9,112.6,174.4,112.5,173.9,112.3z"/>
	<path class="st0" d="M167.7,191.1c0-0.1,0.1-0.1,0.1-0.2c0.1-0.1,0.2-0.2,0.2-0.3s0.1-0.2,0.2-0.3c0-0.1,0.1-0.1,0.1-0.2
		C168.2,190.4,168,190.7,167.7,191.1z"/>
	<path class="st0" d="M160.7,196.4c0.2-0.1,0.3-0.1,0.5-0.2c0.3-0.1,0.5-0.3,0.7-0.4C161.5,196.1,161.1,196.3,160.7,196.4z"/>
	<path class="st0" d="M156,197.7c0.1,0,0.2,0,0.3,0c0.1,0,0.3,0,0.4-0.1c0.1,0,0.3-0.1,0.4-0.1c0.2,0,0.4-0.1,0.6-0.1
		c0.2,0,0.3-0.1,0.5-0.1C157.4,197.5,156.7,197.7,156,197.7z"/>
	<path class="st0" d="M158.2,197.3C158.2,197.3,158.2,197.3,158.2,197.3c0.2-0.1,0.4-0.1,0.6-0.2c0.2-0.1,0.4-0.1,0.5-0.2
		c0.2-0.1,0.4-0.2,0.6-0.2C159.3,197,158.8,197.2,158.2,197.3z"/>
	<path class="st0" d="M175.4,112.7C175.4,112.7,175.5,112.7,175.4,112.7c0.1,0,0.2,0,0.2,0c0,0,0.1,0,0.1,0c0,0,0.1,0,0.1,0
		C175.6,112.8,175.5,112.7,175.4,112.7z"/>
	<path class="st0" d="M175.8,112.8C175.8,112.8,175.8,112.8,175.8,112.8c0.1,0,0.2,0,0.3,0c0,0,0.1,0,0.1,0
		C176,112.8,175.9,112.8,175.8,112.8z"/>
	<path class="st0" d="M162.6,195.5c0.1-0.1,0.2-0.1,0.3-0.1c0.3-0.2,0.6-0.4,0.9-0.6C163.4,195,163,195.3,162.6,195.5z"/>
	<path class="st0" d="M172.5,111.7C172.5,111.7,172.5,111.7,172.5,111.7c0.1,0,0.1,0,0.2,0.1c0,0,0,0,0,0c0,0,0,0,0,0
		c0,0,0.1,0,0.1,0c0.1,0,0.2,0.1,0.3,0.1c0.1,0,0.2,0.1,0.3,0.1c0.1,0,0.2,0.1,0.3,0.1c0,0,0.1,0,0.2,0.1
		C173.4,112.1,172.9,111.9,172.5,111.7z"/>
	<path class="st0" d="M163.1,154.3c0.1-0.1,0.1-0.2,0.2-0.3c0.1-0.1,0.1-0.2,0.2-0.3c0.1-0.1,0.1-0.2,0.2-0.3c0-0.1,0.1-0.1,0.1-0.2
		s0.1-0.1,0.1-0.2c0-0.1,0.1-0.1,0.1-0.2c0-0.1,0.1-0.1,0.1-0.2C163.8,153.3,163.4,153.8,163.1,154.3
		C163,154.3,163,154.3,163.1,154.3z"/>
	<path class="st0" d="M164.1,152.7C164.1,152.7,164.1,152.7,164.1,152.7C164.2,152.7,164.2,152.6,164.1,152.7
		c0.1-0.1,0.1-0.1,0.1-0.1c0,0,0,0,0,0c0-0.1,0.1-0.2,0.1-0.2c0-0.1,0.1-0.2,0.1-0.2c0-0.1,0.1-0.2,0.1-0.2c0-0.1,0.1-0.2,0.1-0.2
		c0,0,0-0.1,0-0.1c0,0,0,0,0,0c0,0,0,0,0,0c0,0,0-0.1,0-0.1c0-0.1,0.1-0.1,0.1-0.2c0,0,0-0.1,0-0.1
		C164.7,151.6,164.4,152.2,164.1,152.7z"/>
	<path class="st0" d="M169.1,108.4c0,0,0,0.1,0,0.1c0,0,0,0,0,0C169.1,108.5,169.1,108.4,169.1,108.4z"/>
	<path class="st0" d="M169.6,187.7c0-0.1,0-0.1,0.1-0.2c0-0.1,0.1-0.2,0.1-0.3c0-0.1,0.1-0.2,0.1-0.3c0-0.1,0.1-0.2,0.1-0.3
		c0,0,0,0,0-0.1C169.8,186.9,169.7,187.3,169.6,187.7z"/>
	<path class="st0" d="M158.1,158c0.3-0.2,0.6-0.3,1-0.5c0.3-0.2,0.6-0.3,0.9-0.5C159.4,157.3,158.7,157.7,158.1,158z"/>
	<path class="st0" d="M170,186.3c0-0.1,0-0.2,0.1-0.3c0-0.1,0-0.2,0.1-0.3c0-0.1,0-0.2,0-0.3c0,0,0,0,0-0.1
		c-0.1,0.4-0.1,0.7-0.2,1.1C169.9,186.5,170,186.4,170,186.3z"/>
	<path class="st0" d="M161.6,155.7C161.6,155.7,161.6,155.7,161.6,155.7c0.1-0.1,0.2-0.2,0.3-0.3c0.1-0.1,0.2-0.2,0.3-0.3
		c0.1-0.1,0.2-0.2,0.3-0.3c0.1-0.1,0.2-0.2,0.3-0.3c0.1-0.1,0.1-0.1,0.2-0.2C162.6,154.8,162.1,155.3,161.6,155.7z"/>
	<path class="st0" d="M164.9,151.1C164.9,151,164.9,151,164.9,151.1c0-0.2,0.1-0.2,0.1-0.3c0-0.1,0-0.1,0.1-0.2c0-0.1,0-0.1,0-0.2
		c0,0,0,0,0,0c0,0,0,0,0,0c0,0,0,0,0,0c0-0.1,0-0.1,0-0.2c0-0.1,0-0.1,0-0.2c0-0.1,0-0.2,0-0.2c0-0.1,0-0.1,0-0.2
		C165.1,150,165,150.5,164.9,151.1z"/>
	<path class="st0" d="M168.9,107.8c0,0.2,0.1,0.3,0.2,0.5C169,108.2,168.9,108,168.9,107.8z"/>
	<path class="st0" d="M171.5,111.1c0.2,0.1,0.4,0.3,0.7,0.4C171.9,111.4,171.7,111.3,171.5,111.1z"/>
	<path class="st0" d="M195.3,92.7C195.3,92.7,195.3,92.7,195.3,92.7C195.3,92.7,195.3,92.7,195.3,92.7c0,0.1,0,0.2,0,0.3
		c0,0.2,0.1,0.3,0.1,0.5c0,0,0,0,0,0C195.4,93.2,195.3,93,195.3,92.7z"/>
	<path class="st0" d="M168.5,189.9c0-0.1,0.1-0.2,0.1-0.2c0-0.1,0.1-0.2,0.1-0.3c0-0.1,0.1-0.2,0.1-0.3c0-0.1,0.1-0.2,0.1-0.3
		c-0.2,0.4-0.4,0.8-0.6,1.1C168.5,189.9,168.5,189.9,168.5,189.9z"/>
	<path class="st0" d="M195.6,94c0.1,0.2,0.2,0.3,0.3,0.5c-0.2-0.3-0.3-0.6-0.4-0.9C195.5,93.7,195.6,93.9,195.6,94z"/>
	<path class="st0" d="M169.1,188.9C169.1,188.8,169.1,188.8,169.1,188.9c0-0.1,0-0.1,0-0.1c0,0,0,0,0-0.1c0,0,0,0,0-0.1
		c0-0.1,0.1-0.2,0.1-0.3c0-0.1,0.1-0.2,0.1-0.3s0.1-0.2,0.1-0.3c0,0,0,0,0-0.1C169.4,188.1,169.3,188.5,169.1,188.9z"/>
	<path class="st0" d="M198,96.4c0.3,0.2,0.6,0.4,1,0.5c0,0,0,0,0,0C198.6,96.8,198.3,96.6,198,96.4C198,96.4,198,96.4,198,96.4z"/>
	<path class="st0" d="M179.2,137.6c0.1,0,0.1,0.1,0.2,0.1c0,0,0.1,0,0.1,0C179.4,137.7,179.3,137.7,179.2,137.6z"/>
	<path class="st0" d="M147.4,196.6C147.4,196.6,147.4,196.6,147.4,196.6c-0.1-0.1-0.3-0.1-0.4-0.2
		C147.1,196.4,147.3,196.5,147.4,196.6z"/>
	<path class="st0" d="M186.3,138.4c0.1,0,0.1,0,0.2,0c0.1,0,0.2,0,0.3,0c0.1,0,0.2,0,0.3-0.1c0.1,0,0.3,0,0.4-0.1
		c0.1,0,0.3-0.1,0.4-0.1C187.5,138.3,186.9,138.3,186.3,138.4z"/>
	<path class="st0" d="M188,138.1c0.1,0,0.3-0.1,0.4-0.1c0.1,0,0.3-0.1,0.4-0.1c0.2,0,0.3-0.1,0.5-0.2
		C188.9,137.9,188.5,138,188,138.1z"/>
	<path class="st0" d="M147.4,196.6c0.1,0,0.2,0.1,0.2,0.1c0.1,0,0.1,0,0.2,0.1C147.7,196.7,147.5,196.6,147.4,196.6z"/>
	<path class="st0" d="M182.6,138.4c0.1,0,0.2,0,0.3,0c0.1,0,0.2,0,0.3,0c0.1,0,0.2,0,0.3,0c0.1,0,0.2,0,0.3,0c0.1,0,0.2,0,0.3,0
		s0.2,0,0.3,0c0,0,0.1,0,0.1,0C183.8,138.5,183.2,138.5,182.6,138.4z"/>
	<path class="st0" d="M184.5,138.5c0,0,0.1,0,0.1,0c0.1,0,0.2,0,0.3,0c0.1,0,0.2,0,0.3,0c0.1,0,0.2,0,0.3,0c0.1,0,0.2,0,0.3,0
		c0.1,0,0.2,0,0.3,0c0,0,0.1,0,0.1,0C185.7,138.5,185.1,138.5,184.5,138.5z"/>
	<path class="st0" d="M147.8,196.8C147.9,196.8,147.9,196.8,147.8,196.8c0.1,0,0.2,0.1,0.3,0.1c0,0,0.1,0,0.1,0
		C148.1,196.9,148,196.8,147.8,196.8z"/>
	<path class="st0" d="M128,210.4C127.9,210.4,127.9,210.4,128,210.4c0-0.1,0-0.1,0-0.2v0c0.1,0.7,0.2,1.5,0.2,2.3c0,0,0,0,0,0
		c0-0.2,0-0.3,0-0.5c0-0.2,0-0.3,0-0.5c0-0.2,0-0.3,0-0.5c0-0.2,0-0.3-0.1-0.5C128,210.6,128,210.5,128,210.4
		C128,210.5,128,210.4,128,210.4z"/>
	<path class="st0" d="M127.8,214.9C127.9,214.9,127.9,214.9,127.8,214.9c0-0.2,0.1-0.3,0.1-0.5c0-0.1,0-0.2,0.1-0.4
		c0-0.1,0-0.2,0-0.4C128,214.1,127.9,214.5,127.8,214.9z"/>
	<path class="st0" d="M190,137.6c0.1,0,0.2-0.1,0.3-0.1c0.2-0.1,0.4-0.2,0.6-0.3C190.6,137.3,190.3,137.4,190,137.6z"/>
	<path class="st0" d="M192.9,136.1c0.4-0.3,0.8-0.5,1.1-0.8C193.6,135.6,193.2,135.9,192.9,136.1
		C192.9,136.2,192.9,136.2,192.9,136.1z"/>
	<path class="st0" d="M194,135.3C194,135.3,194.1,135.3,194,135.3c0.1-0.1,0.1-0.1,0.1-0.1c0,0,0,0,0.1,0c0,0,0,0,0,0
		c0.1-0.1,0.2-0.2,0.3-0.2c0.1-0.1,0.1-0.1,0.2-0.2C194.5,134.9,194.2,135.1,194,135.3z"/>
	<path class="st0" d="M128.1,212.9c0-0.1,0-0.2,0-0.4c0,0.4,0,0.8-0.1,1.2c0,0,0,0,0,0c0-0.1,0-0.3,0-0.4
		C128.1,213.2,128.1,213,128.1,212.9z"/>
	<path class="st0" d="M148.3,196.9C148.3,197,148.4,197,148.3,196.9c0.1,0.1,0.2,0.1,0.3,0.1c0,0,0.1,0,0.1,0
		C148.6,197,148.4,197,148.3,196.9z"/>
	<path class="st0" d="M191.5,136.9c0.1,0,0.1-0.1,0.2-0.1c0.2-0.1,0.5-0.3,0.7-0.4C192.1,136.6,191.8,136.8,191.5,136.9z"/>
	<path class="st0" d="M151.4,197.7C151.4,197.7,151.4,197.7,151.4,197.7c0.1,0,0.2,0,0.3,0c0.1,0,0.2,0,0.3,0c0.1,0,0.2,0,0.3,0
		c0.1,0,0.2,0,0.4,0s0.2,0,0.4,0c0.1,0,0.2,0,0.4,0c0.1,0,0.1,0,0.2,0C152.9,197.9,152.2,197.8,151.4,197.7z"/>
	<path class="st0" d="M160,156.9C160,156.9,160,156.9,160,156.9c0.3-0.2,0.6-0.4,0.9-0.6c0.3-0.2,0.5-0.4,0.8-0.6
		C161.1,156.2,160.6,156.6,160,156.9z"/>
	<path class="st0" d="M174.5,134.3c-0.3-0.4-0.6-0.8-0.7-1.3C173.9,133.5,174.2,133.9,174.5,134.3
		C174.5,134.3,174.5,134.3,174.5,134.3z"/>
	<path class="st0" d="M174.8,134.7c0.2,0.3,0.5,0.6,0.8,0.8c0,0,0,0,0,0C175.3,135.2,175,134.9,174.8,134.7
		C174.8,134.7,174.8,134.7,174.8,134.7z"/>
	<path class="st0" d="M153.7,197.9c0.1,0,0.1,0,0.2,0c0.1,0,0.3,0,0.4,0c0.1,0,0.3,0,0.4,0c0.1,0,0.3,0,0.4,0c0.1,0,0.3,0,0.4,0
		c0.1,0,0.3,0,0.4,0c0,0,0.1,0,0.1,0C155.2,197.8,154.4,197.9,153.7,197.9z"/>
	<path class="st0" d="M176,135.8c0.3,0.3,0.7,0.5,1,0.7c0,0,0,0,0,0C176.6,136.3,176.3,136.1,176,135.8
		C176,135.8,176,135.8,176,135.8z"/>
	<path class="st0" d="M179,113c-0.7,0-1.4,0-2.1-0.1C177.6,113,178.3,113,179,113L179,113z"/>
	<path class="st0" d="M180.8,138.1c0,0,0.1,0,0.1,0c0,0,0.1,0,0.1,0c0,0,0.1,0,0.1,0c0,0,0.1,0,0.1,0c0.1,0,0.2,0,0.3,0.1
		c0.1,0,0.2,0,0.3,0c0.1,0,0.2,0,0.3,0c0.1,0,0.2,0,0.3,0c0.1,0,0.2,0,0.3,0C182,138.3,181.4,138.2,180.8,138.1z"/>
	<path class="st0" d="M149.2,197.3c0,0,0.1,0,0.1,0c0,0,0.1,0,0.1,0c0,0,0.1,0,0.1,0c0,0,0.1,0,0.1,0c0.1,0,0.2,0.1,0.3,0.1
		c0.1,0,0.2,0.1,0.3,0.1c0.1,0,0.2,0,0.3,0.1c0.1,0,0.2,0,0.3,0.1c0.1,0,0.2,0,0.3,0C150.7,197.6,149.9,197.5,149.2,197.3z"/>
	<path class="st0" d="M180,137.9C180,137.9,180.1,137.9,180,137.9c0.1,0,0.2,0.1,0.2,0.1c0,0,0.1,0,0.1,0
		C180.2,138,180.1,137.9,180,137.9z"/>
	<path class="st0" d="M177.4,136.8c0.5,0.3,1.1,0.6,1.8,0.8C178.6,137.4,178,137.1,177.4,136.8C177.4,136.8,177.4,136.8,177.4,136.8
		z"/>
	<path class="st0" d="M179.6,137.8C179.6,137.8,179.6,137.8,179.6,137.8c0.1,0,0.2,0.1,0.3,0.1c0,0,0.1,0,0.1,0
		C179.8,137.8,179.7,137.8,179.6,137.8z"/>
	<path class="st0" d="M180.4,138c0.1,0,0.1,0,0.2,0c0.1,0,0.1,0,0.2,0C180.6,138.1,180.5,138,180.4,138
		C180.4,138,180.4,138,180.4,138z"/>
	<path class="st0" d="M194.7,134.7C194.7,134.7,194.7,134.7,194.7,134.7c0.1-0.1,0.2-0.2,0.3-0.3c0.1-0.1,0.2-0.2,0.2-0.3
		c0,0,0,0,0.1-0.1C195.1,134.3,194.9,134.5,194.7,134.7z"/>
	<path class="st0" d="M148.8,197.1c0.1,0,0.1,0,0.2,0.1c0.1,0,0.1,0,0.2,0.1C149.1,197.2,148.9,197.2,148.8,197.1
		C148.8,197.1,148.8,197.1,148.8,197.1z"/>
	<path class="st0" d="M173.4,132.1c0,0.2,0.1,0.3,0.1,0.5c0.1,0.2,0.1,0.3,0.2,0.5c-0.2-0.4-0.3-0.8-0.4-1.3
		C173.4,131.9,173.4,132,173.4,132.1z"/>
	<path class="st0" d="M61.8,161.7C61.7,161.7,61.7,161.7,61.8,161.7C61.7,161.7,61.7,161.7,61.8,161.7
		C61.7,161.7,61.7,161.7,61.8,161.7C61.8,161.7,61.8,161.7,61.8,161.7C61.8,161.7,61.8,161.7,61.8,161.7
		C61.8,161.7,61.8,161.7,61.8,161.7z"/>
	<path class="st0" d="M202.2,98C202.2,98,202.2,98,202.2,98c0.1,0,0.2,0,0.2,0c0,0,0.1,0,0.1,0c0,0,0.1,0,0.1,0c0.1,0,0.2,0,0.2,0
		c0.1,0,0.2,0,0.2,0c0.1,0,0.2,0,0.2,0c0.1,0,0.2,0,0.2,0c0.1,0,0.1,0,0.2,0C203.2,98.2,202.7,98.1,202.2,98z"/>
	<path class="st0" d="M62.3,160.7C62.3,160.7,62.3,160.7,62.3,160.7C62.3,160.7,62.3,160.7,62.3,160.7L62.3,160.7z"/>
	<path class="st0" d="M146.6,159.2c0,0,0.1,0,0.1,0c0,0,0.1,0,0.1,0c0,0,0.1,0,0.1,0c0,0,0.1,0,0.1,0
		C146.9,159.2,146.8,159.2,146.6,159.2z"/>
	<path class="st0" d="M144.9,158.6C144.9,158.6,144.9,158.6,144.9,158.6c0.2,0.1,0.2,0.1,0.3,0.1c0,0,0,0,0,0c0,0,0,0,0.1,0
		c0.1,0,0.2,0.1,0.3,0.1c0.1,0,0.2,0.1,0.3,0.1c0.1,0,0.1,0,0.2,0.1c0.1,0,0.1,0,0.2,0.1c0.1,0,0.1,0,0.2,0.1c0.1,0,0.1,0,0.2,0.1
		C146,159,145.4,158.8,144.9,158.6z"/>
	<path class="st0" d="M88.8,157.4c0-0.1,0-0.1,0-0.2c0,0,0-0.1,0-0.1C88.7,157.3,88.8,157.4,88.8,157.4z"/>
	<path class="st0" d="M147.5,159.4c0,0,0.1,0,0.1,0c0.1,0,0.2,0,0.2,0C147.8,159.4,147.7,159.4,147.5,159.4z"/>
	<path class="st0" d="M88.4,161.7c-0.2,0.6-0.5,1.2-0.9,1.7c0,0,0-0.1,0.1-0.1c0-0.1,0.1-0.2,0.1-0.2c0-0.1,0.1-0.2,0.1-0.2
		c0-0.1,0.1-0.2,0.1-0.2c0-0.1,0.1-0.2,0.1-0.2c0-0.1,0.1-0.2,0.1-0.2c0-0.1,0.1-0.2,0.1-0.3C88.3,161.8,88.3,161.7,88.4,161.7z"/>
	<path class="st0" d="M147,159.3C147.1,159.3,147.1,159.3,147,159.3c0.1,0,0.2,0,0.3,0.1c0,0,0.1,0,0.1,0
		C147.3,159.3,147.2,159.3,147,159.3z"/>
	<path class="st0" d="M88.8,159.9c0-0.1,0-0.2,0-0.3c0-0.1,0-0.2,0-0.3c0-0.1,0-0.2,0-0.3c0-0.1,0-0.2,0-0.3c0,0,0,0,0-0.1
		c0,0,0,0,0-0.1c0,0,0,0,0-0.1c0,0,0,0,0-0.1C88.9,158.9,88.9,159.4,88.8,159.9C88.8,159.9,88.8,159.9,88.8,159.9z"/>
	<path class="st0" d="M88.8,157.5c0.1,0.3,0.1,0.6,0.1,0.8c0-0.1,0-0.3,0-0.4C88.9,157.8,88.8,157.7,88.8,157.5
		C88.8,157.6,88.8,157.5,88.8,157.5z"/>
	<path class="st0" d="M53,148.4C53,148.4,53,148.4,53,148.4c0,0.4-0.1,0.8-0.2,1.2c0-0.1,0-0.1,0-0.2c0-0.1,0.1-0.2,0.1-0.3
		c0-0.1,0-0.2,0.1-0.3s0-0.2,0-0.3C53,148.6,53,148.5,53,148.4C53,148.5,53,148.5,53,148.4z"/>
	<path class="st0" d="M142,156.8c-0.3-0.3-0.7-0.6-0.9-1c0.2,0.3,0.5,0.6,0.7,0.8c0,0,0,0,0.1,0.1
		C141.9,156.7,141.9,156.7,142,156.8C141.9,156.7,142,156.7,142,156.8z"/>
	<path class="st0" d="M143.3,157.8c0.1,0.1,0.2,0.1,0.3,0.2c0.1,0,0.2,0.1,0.2,0.1c0,0,0,0,0,0c0,0,0,0,0,0c0,0,0,0,0.1,0
		c0.1,0.1,0.2,0.1,0.3,0.2c0.1,0.1,0.2,0.1,0.4,0.2c0.1,0,0.1,0.1,0.2,0.1C144.3,158.3,143.8,158.1,143.3,157.8z"/>
	<path class="st0" d="M46.5,157.2c0.4-0.2,0.7-0.5,1-0.8c0,0,0,0,0,0C47.2,156.7,46.8,157,46.5,157.2
		C46.5,157.2,46.5,157.2,46.5,157.2z"/>
	<path class="st0" d="M140.2,154.3c-0.1-0.3-0.2-0.6-0.3-0.9c0.1,0.2,0.1,0.4,0.2,0.5c0,0.1,0,0.1,0,0.2
		C140.1,154.2,140.1,154.2,140.2,154.3z"/>
	<path class="st0" d="M140.9,155.6c0,0.1,0.1,0.1,0.1,0.2c-0.3-0.4-0.5-0.7-0.7-1.1c0,0,0,0.1,0.1,0.1c0.1,0.2,0.2,0.3,0.3,0.5
		C140.7,155.3,140.8,155.4,140.9,155.6C140.8,155.5,140.9,155.5,140.9,155.6z"/>
	<path class="st0" d="M52.7,149.7C52.7,149.7,52.7,149.7,52.7,149.7C52.8,149.7,52.8,149.7,52.7,149.7c-0.1,0.4-0.3,0.9-0.5,1.4
		c0,0,0,0,0-0.1c0,0,0,0,0-0.1c0,0,0,0,0-0.1c0,0,0,0,0-0.1c0-0.1,0.1-0.2,0.1-0.3c0-0.1,0.1-0.2,0.1-0.3c0-0.1,0.1-0.2,0.1-0.3
		C52.7,150,52.7,149.9,52.7,149.7C52.7,149.8,52.7,149.8,52.7,149.7C52.7,149.8,52.7,149.8,52.7,149.7z"/>
	<path class="st0" d="M65.6,157.2c-0.3,0.2-0.6,0.5-0.8,0.7c-0.3,0.3-0.6,0.6-0.9,0.9c0.3-0.3,0.6-0.6,0.9-0.9c0,0,0,0,0,0
		c0,0,0,0,0,0C65.1,157.6,65.3,157.4,65.6,157.2z"/>
	<path class="st0" d="M143.3,157.7C143.3,157.8,143.3,157.8,143.3,157.7C143.3,157.8,143.3,157.8,143.3,157.7
		C143.3,157.8,143.3,157.8,143.3,157.7z"/>
	<path class="st0" d="M142.3,157c0.3,0.2,0.5,0.4,0.8,0.6C142.8,157.4,142.5,157.2,142.3,157z"/>
	<path class="st0" d="M65.7,157.1L65.7,157.1C65.7,157.1,65.8,157,65.7,157.1C65.8,157,65.7,157.1,65.7,157.1z"/>
	<path class="st0" d="M47.6,156.4c0.3-0.3,0.7-0.5,1-0.8l0,0C48.2,155.9,47.9,156.2,47.6,156.4C47.6,156.4,47.6,156.4,47.6,156.4z"
		/>
	<path class="st0" d="M88.4,161.6C88.4,161.6,88.4,161.6,88.4,161.6c0.1-0.2,0.1-0.2,0.1-0.3c0-0.1,0.1-0.2,0.1-0.3
		c0-0.1,0.1-0.2,0.1-0.3c0-0.1,0-0.2,0.1-0.3c0-0.1,0-0.2,0.1-0.3c0-0.1,0-0.2,0-0.3C88.7,160.5,88.6,161.1,88.4,161.6z"/>
	<path class="st0" d="M100,208.4c-0.4,0.4-0.7,0.8-1,1.2c-0.2,0.3-0.5,0.6-0.7,1c0.2-0.3,0.4-0.6,0.7-0.9c0,0,0,0,0,0c0,0,0,0,0,0
		c0,0,0,0,0,0c0,0,0,0,0,0c0.3-0.3,0.5-0.6,0.8-1C99.9,208.6,100,208.5,100,208.4z"/>
	<path class="st0" d="M83.6,196.1c0-0.2,0-0.3,0-0.5c0-0.2-0.1-0.5-0.1-0.7c0,0,0,0,0,0c0,0,0,0,0,0c0,0,0,0,0,0
		c0-0.1-0.1-0.2-0.1-0.4C83.5,195,83.6,195.5,83.6,196.1z"/>
	<path class="st0" d="M83.6,196.2c0,0.6,0,1.2-0.1,1.8c0-0.1,0-0.2,0-0.3c0-0.1,0-0.3,0-0.4c0-0.1,0-0.3,0-0.4c0-0.1,0-0.2,0-0.3
		c0,0,0,0,0,0c0,0,0,0,0,0c0,0,0-0.1,0-0.1C83.6,196.4,83.6,196.3,83.6,196.2z"/>
	<polygon class="st0" points="69.8,188.1 69.8,188.1 69.8,188.1 69.8,188.1 69.8,188.1 69.8,188.1 	"/>
	<polygon class="st0" points="98.1,210.9 98.1,210.9 98.1,210.9 	"/>
	<path class="st0" d="M83.5,198.1c-0.1,0.6-0.3,1.3-0.5,2c0,0,0-0.1,0-0.1c0,0,0-0.1,0-0.1c0,0,0-0.1,0-0.1c0,0,0-0.1,0-0.1
		c0-0.1,0.1-0.2,0.1-0.4c0-0.1,0.1-0.2,0.1-0.4c0-0.1,0.1-0.2,0.1-0.4c0-0.1,0-0.2,0-0.3c0,0,0,0,0,0c0,0,0,0,0,0
		C83.5,198.2,83.5,198.2,83.5,198.1C83.5,198.1,83.5,198.1,83.5,198.1z"/>
	<path class="st0" d="M71.2,187.9C71.2,187.9,71.2,187.9,71.2,187.9C71.3,187.9,71.3,187.8,71.2,187.9L71.2,187.9
		C71.3,187.8,71.3,187.9,71.2,187.9z"/>
	<circle class="st0" cx="98.1" cy="210.9" r="0"/>
	<polygon class="st0" points="72.7,187.8 72.7,187.8 72.7,187.8 	"/>
	<polygon class="st0" points="98.1,210.9 98.1,210.9 98.1,210.9 	"/>
	<path class="st0" d="M75.6,171.9C75.6,171.9,75.6,171.9,75.6,171.9c-0.7,0.2-1.4,0.4-2.2,0.5C74.2,172.3,74.9,172.2,75.6,171.9z"/>
	<path class="st0" d="M78.4,170.9c0.4-0.2,0.8-0.3,1.1-0.5c0.4-0.2,0.7-0.4,1.1-0.6c0,0,0,0,0,0C79.9,170.2,79.1,170.6,78.4,170.9z"
		/>
	<path class="st0" d="M82.7,168.4c0.1-0.1,0.3-0.2,0.4-0.3c0.1-0.1,0.3-0.2,0.4-0.3s0.3-0.2,0.4-0.3c0.1-0.1,0.3-0.2,0.4-0.3
		c0.1-0.1,0.2-0.2,0.3-0.2C84,167.5,83.4,168,82.7,168.4z"/>
	<path class="st0" d="M84.6,166.9c0.1-0.1,0.2-0.2,0.3-0.3c0.1-0.1,0.2-0.2,0.3-0.3c0.1-0.1,0.2-0.2,0.3-0.3
		c0.1-0.1,0.1-0.1,0.2-0.2c0.1-0.1,0.1-0.1,0.2-0.2c0.1-0.1,0.1-0.1,0.2-0.2c0.1-0.1,0.1-0.1,0.2-0.2
		C85.7,165.8,85.2,166.4,84.6,166.9C84.6,166.9,84.6,166.9,84.6,166.9z"/>
	<path class="st0" d="M145.3,195.4c0.1,0.1,0.2,0.1,0.3,0.2C145.5,195.5,145.4,195.4,145.3,195.4
		C145.3,195.4,145.3,195.4,145.3,195.4z"/>
	<path class="st0" d="M142,191.4c-0.1-0.1-0.1-0.2-0.1-0.3c0,0,0,0,0,0C141.9,191.2,141.9,191.3,142,191.4
		C142,191.4,142,191.4,142,191.4z"/>
	<path class="st0" d="M150.9,159.7C150.9,159.7,150.9,159.7,150.9,159.7c-0.8,0-1.7,0-2.5-0.1l0,0
		C149.2,159.6,150,159.7,150.9,159.7z"/>
	<path class="st0" d="M86.2,165.2C86.2,165.2,86.3,165.2,86.2,165.2C86.3,165.1,86.3,165.1,86.2,165.2c0.1-0.1,0.1-0.1,0.1-0.1
		c0,0,0,0,0,0c0.1-0.1,0.1-0.2,0.2-0.2c0.1-0.1,0.1-0.2,0.2-0.2c0.1-0.1,0.1-0.2,0.2-0.2c0.1-0.1,0.1-0.2,0.2-0.2
		c0.1-0.1,0.1-0.2,0.2-0.2c0.1-0.1,0.1-0.2,0.2-0.2c0,0,0.1-0.1,0.1-0.1C87.1,164,86.7,164.6,86.2,165.2z"/>
	<path class="st0" d="M143.8,194c0.1,0.1,0.2,0.2,0.2,0.3c0,0,0,0,0,0C144,194.2,143.9,194.1,143.8,194
		C143.8,194,143.8,194,143.8,194z"/>
	<path class="st0" d="M142.8,192.7c0,0.1,0.1,0.1,0.1,0.2c0,0,0,0,0,0C142.8,192.8,142.8,192.8,142.8,192.7
		C142.8,192.7,142.8,192.7,142.8,192.7z"/>
	<path class="st0" d="M75.7,171.9c0.9-0.3,1.8-0.6,2.6-1C77.5,171.3,76.6,171.6,75.7,171.9C75.7,171.9,75.7,171.9,75.7,171.9z"/>
	<path class="st0" d="M147.9,159.5C147.9,159.5,147.9,159.5,147.9,159.5c0.1,0,0.2,0,0.3,0c0,0,0,0,0,0c0,0,0,0,0,0c0,0,0,0,0,0
		c0,0,0,0,0,0C148.2,159.5,148.1,159.5,147.9,159.5z"/>
	<path class="st0" d="M80.6,169.8c0.3-0.2,0.7-0.4,1-0.6c0.3-0.2,0.7-0.5,1-0.7c0,0,0,0,0,0C82.1,168.9,81.4,169.4,80.6,169.8z"/>
	<path class="st0" d="M139.6,152.7C139.6,152.7,139.6,152.7,139.6,152.7C139.7,152.7,139.7,152.7,139.6,152.7c0,0.1,0,0.1,0,0.1
		c0,0.1,0,0.1,0,0.2c0-0.1,0-0.3-0.1-0.4C139.6,152.6,139.6,152.6,139.6,152.7C139.6,152.7,139.6,152.7,139.6,152.7z"/>
	<path class="st0" d="M211,97.2c0.1,0,0.1,0,0.2-0.1c0.2-0.1,0.4-0.2,0.5-0.3C211.5,97,211.2,97.1,211,97.2z"/>
	<path class="st0" d="M209.8,97.6c0.1,0,0.2-0.1,0.3-0.1c0.2,0,0.3-0.1,0.4-0.2C210.3,97.5,210.1,97.6,209.8,97.6z"/>
	<path class="st0" d="M28,160.9c-0.3-0.1-0.6-0.3-0.9-0.4c0.1,0,0.1,0.1,0.2,0.1c0.1,0,0.2,0.1,0.2,0.1c0,0,0.1,0,0.1,0c0,0,0,0,0,0
		s0,0,0,0c0,0,0.1,0,0.1,0.1C27.9,160.8,28,160.9,28,160.9z"/>
	<path class="st0" d="M212.1,96.7c0.3-0.2,0.6-0.4,0.9-0.6C212.7,96.3,212.4,96.5,212.1,96.7C212.1,96.7,212.1,96.7,212.1,96.7z"/>
	<path class="st0" d="M28.1,160.9c0.1,0,0.2,0.1,0.3,0.1c0.1,0,0.1,0,0.2,0.1c0.1,0,0.1,0,0.2,0.1c0.1,0,0.1,0,0.2,0.1
		c0.1,0,0.1,0,0.2,0.1C28.7,161.2,28.4,161,28.1,160.9C28.1,160.9,28.1,160.9,28.1,160.9z"/>
	<path class="st0" d="M141.3,189.3c0,0,0,0.1,0,0.1c0,0,0,0.1,0,0.1c0,0,0,0.1,0,0.1c-0.1-0.3-0.1-0.7-0.1-1c0,0.1,0,0.2,0,0.3
		C141.2,189,141.3,189.1,141.3,189.3z"/>
	<path class="st0" d="M29,161.3c0,0,0.1,0,0.1,0c0,0,0.1,0,0.1,0c0,0,0.1,0,0.1,0c0,0,0.1,0,0.1,0c0.1,0,0.2,0,0.3,0.1
		c0.1,0,0.2,0,0.3,0.1c0.1,0,0.2,0,0.3,0.1s0.2,0,0.3,0c0.1,0,0.2,0,0.3,0C30.2,161.6,29.6,161.4,29,161.3z"/>
	<path class="st0" d="M208.2,98C208.2,98,208.2,98,208.2,98c0.2,0,0.3-0.1,0.4-0.1c0.1,0,0.2-0.1,0.3-0.1c0.1,0,0.2-0.1,0.3-0.1
		C208.9,97.9,208.6,98,208.2,98z"/>
	<path class="st0" d="M201.2,97.8C201.2,97.8,201.2,97.8,201.2,97.8c0.1,0,0.1,0,0.2,0c0,0,0.1,0,0.1,0
		C201.4,97.8,201.3,97.8,201.2,97.8z"/>
	<polygon class="st0" points="141,146.9 141,146.9 141,146.9 	"/>
	<path class="st0" d="M152,174.1L152,174.1C152,174.1,152,174.1,152,174.1C152,174.1,152,174.1,152,174.1z"/>
	<path class="st0" d="M214.9,93.6c0,0,0-0.1,0-0.1c0,0,0-0.1,0-0.1c0,0,0,0,0,0c0,0,0,0,0,0c0,0,0,0,0,0c0,0,0-0.1,0-0.1
		c0,0,0-0.1,0-0.1c0,0,0,0,0,0C215,93.2,215,93.4,214.9,93.6z"/>
	<path class="st0" d="M215.1,93.1C215.1,93.1,215.1,93.1,215.1,93.1C215.1,93,215.1,93,215.1,93.1C215.1,93,215.1,93,215.1,93.1
		c0-0.1,0-0.1,0-0.1c0,0,0,0,0,0c0,0,0,0,0-0.1c0,0,0,0,0,0C215.1,92.9,215.1,93,215.1,93.1z"/>
	<path class="st0" d="M214.7,94.1C214.7,94.1,214.7,94.1,214.7,94.1C214.7,94.1,214.7,94.1,214.7,94.1
		C214.7,94.1,214.7,94.1,214.7,94.1C214.8,94,214.8,94,214.7,94.1c0.1-0.1,0.1-0.2,0.1-0.2c0,0,0-0.1,0-0.1c0,0,0,0,0,0c0,0,0,0,0,0
		c0,0,0,0,0,0c0,0,0-0.1,0-0.1c0,0,0,0,0,0C214.9,93.8,214.8,94,214.7,94.1z"/>
	<path class="st0" d="M83,193.4c0.1,0.3,0.2,0.6,0.3,0.9c0-0.1,0-0.2-0.1-0.2c0-0.1-0.1-0.2-0.1-0.4C83.1,193.6,83.1,193.5,83,193.4
		z"/>
	<path class="st0" d="M213.6,95.6C213.6,95.6,213.6,95.6,213.6,95.6c0.1-0.1,0.2-0.2,0.3-0.3c0.1-0.1,0.1-0.1,0.2-0.2c0,0,0,0,0,0
		C213.9,95.3,213.7,95.5,213.6,95.6z"/>
	<path class="st0" d="M213,96.1C213,96.1,213,96.1,213,96.1c0.1-0.1,0.1-0.1,0.1-0.1c0,0,0,0,0.1,0c0,0,0,0,0.1,0
		c0.1-0.1,0.1-0.1,0.2-0.2c0,0,0.1,0,0.1-0.1C213.4,95.8,213.2,96,213,96.1z"/>
	<path class="st0" d="M214.5,94.6c0,0,0-0.1,0.1-0.1c0,0,0-0.1,0.1-0.1s0-0.1,0.1-0.1c0,0,0-0.1,0.1-0.1
		C214.6,94.3,214.5,94.5,214.5,94.6C214.4,94.6,214.4,94.6,214.5,94.6z"/>
	<path class="st0" d="M214,95.2c0,0,0.1-0.1,0.1-0.1c0,0,0.1-0.1,0.1-0.2c0-0.1,0.1-0.1,0.1-0.2c0,0,0,0,0-0.1
		C214.3,94.8,214.2,95,214,95.2z"/>
	<path class="st0" d="M200.9,97.7c0.1,0,0.1,0,0.2,0c0,0,0.1,0,0.1,0C201.1,97.7,201,97.7,200.9,97.7z"/>
	<path class="st0" d="M26.4,159.9c0.1,0,0.1,0.1,0.2,0.1c0,0,0,0,0.1,0c0,0,0,0,0,0c0,0,0,0,0,0c0.1,0,0.1,0.1,0.2,0.1
		c0.1,0.1,0.2,0.1,0.3,0.2c0,0,0,0,0,0C26.9,160.3,26.6,160.1,26.4,159.9z"/>
	<path class="st0" d="M186.3,111.2C186.3,111.2,186.3,111.2,186.3,111.2c-0.5,0.3-0.9,0.5-1.5,0.7c0.3-0.1,0.5-0.2,0.7-0.3
		C185.8,111.4,186,111.3,186.3,111.2z"/>
	<polygon class="st0" points="184.8,111.9 184.8,111.9 184.8,111.9 	"/>
	<path class="st0" d="M25.3,158.6c0,0,0,0.1,0.1,0.1c0.1,0.1,0.2,0.3,0.3,0.4c0,0,0,0.1,0.1,0.1C25.6,159,25.4,158.8,25.3,158.6z"/>
	<path class="st0" d="M25.8,159.3C25.8,159.3,25.8,159.3,25.8,159.3C25.8,159.3,25.8,159.3,25.8,159.3c0.1,0.1,0.1,0.2,0.2,0.2
		c0.1,0.1,0.2,0.2,0.4,0.3c0,0,0,0,0,0C26.1,159.7,26,159.5,25.8,159.3z"/>
	<path class="st0" d="M205.2,98.3c0,0,0.1,0,0.1,0c0.1,0,0.2,0,0.3,0c0.1,0,0.2,0,0.3,0c0.1,0,0.2,0,0.3,0c0.1,0,0.2,0,0.3,0
		c0.1,0,0.2,0,0.3,0c0,0,0,0,0,0C206.2,98.3,205.7,98.3,205.2,98.3z"/>
	<path class="st0" d="M201.9,97.9c0,0,0.1,0,0.1,0c0.1,0,0.1,0,0.2,0C202.1,98,202,98,201.9,97.9C201.9,97.9,201.9,97.9,201.9,97.9z
		"/>
	<path class="st0" d="M170.2,183c0,0.4,0.1,0.8,0.1,1.3c0,0,0,0,0-0.1c0,0,0,0,0-0.1c0,0,0,0,0-0.1c0,0,0,0,0-0.1c0,0,0,0,0,0
		c0,0,0,0,0,0c0,0,0,0,0,0c0-0.1,0-0.1,0-0.2c0,0,0,0,0-0.1c0,0,0,0,0,0c0,0,0,0,0,0c0,0,0-0.1,0-0.1c0,0,0,0,0-0.1
		C170.2,183.3,170.2,183.1,170.2,183z"/>
	<path class="st0" d="M150.9,159.7c0.8,0,1.7-0.1,2.5-0.2l0,0C152.5,159.6,151.7,159.6,150.9,159.7
		C150.9,159.7,150.9,159.7,150.9,159.7z"/>
	<path class="st0" d="M53,148.3c0-0.1,0-0.2,0-0.3c0-0.2,0-0.4,0-0.6c0,0,0,0,0,0c0,0,0,0,0,0c0,0,0,0,0-0.1c0,0,0,0,0,0
		C53,147.5,53,147.9,53,148.3z"/>
	<path class="st0" d="M203.7,98.2C203.7,98.2,203.7,98.2,203.7,98.2c0.1,0,0.2,0,0.3,0c0.1,0,0.2,0,0.2,0c0.1,0,0.2,0,0.2,0
		c0.1,0,0.2,0,0.2,0c0.1,0,0.2,0,0.2,0c0.1,0,0.2,0,0.2,0c0,0,0.1,0,0.1,0C204.7,98.3,204.2,98.3,203.7,98.2z"/>
	<path class="st0" d="M165.2,148.1c0,0.4,0.1,0.9,0,1.3c0,0,0,0,0,0c0-0.1,0-0.1,0-0.2c0,0,0,0,0,0c0,0,0,0,0,0c0,0,0,0,0,0
		c0-0.1,0-0.2,0-0.2c0-0.1,0-0.1,0-0.2c0-0.1,0-0.1,0-0.2c0,0,0-0.1,0-0.1c0-0.1,0-0.1,0-0.2C165.2,148.2,165.2,148.2,165.2,148.1z"
		/>
	<path class="st0" d="M201.5,97.9C201.5,97.9,201.6,97.9,201.5,97.9c0.1,0,0.1,0,0.2,0c0,0,0.1,0,0.1,0
		C201.7,97.9,201.6,97.9,201.5,97.9z"/>
	<path class="st0" d="M52.7,146.3c0.1,0.2,0.2,0.5,0.2,0.8c0-0.1,0-0.2-0.1-0.3c0-0.1-0.1-0.2-0.1-0.3
		C52.7,146.4,52.7,146.3,52.7,146.3z"/>
	<path class="st0" d="M206.8,98.2c0.1,0,0.1,0,0.2,0c0.1,0,0.2,0,0.3,0c0.1,0,0.2,0,0.3,0c0.1,0,0.2,0,0.4-0.1c0.1,0,0.2,0,0.3,0
		C207.7,98.1,207.2,98.2,206.8,98.2z"/>
	<path class="st0" d="M170.2,185.2c0-0.1,0-0.2,0-0.2c0-0.1,0-0.2,0-0.2c0-0.1,0-0.2,0-0.2s0-0.2,0-0.2c0,0.4,0,0.7-0.1,1.1
		C170.2,185.3,170.2,185.2,170.2,185.2z"/>
	<path class="st0" d="M195.8,90.6c-0.1,0.2-0.2,0.3-0.2,0.5c0,0,0,0,0,0c-0.1,0.2-0.1,0.3-0.2,0.5c0,0,0,0,0,0c0,0,0,0,0,0
		C195.5,91.2,195.6,90.9,195.8,90.6z"/>
	<path class="st0" d="M195.3,92.7C195.3,92.7,195.3,92.6,195.3,92.7C195.3,92.6,195.3,92.7,195.3,92.7
		C195.3,92.7,195.3,92.7,195.3,92.7C195.3,92.7,195.3,92.7,195.3,92.7z"/>
	<path class="st0" d="M195.4,91.6c0,0.1-0.1,0.3-0.1,0.4c0,0,0,0,0,0c0,0.2,0,0.3,0,0.5v0c0,0,0,0,0,0
		C195.3,92.2,195.3,91.9,195.4,91.6z"/>
	<path class="st0" d="M215.1,92.5C215.1,92.5,215.1,92.5,215.1,92.5c0-0.1,0-0.1,0-0.2c0-0.1,0-0.1,0-0.2c0-0.1,0-0.1,0-0.2
		c-0.1-0.6-0.3-1.1-0.7-1.7c-0.4-0.5-0.9-1-1.5-1.5c-0.6-0.4-1.3-0.8-2.1-1.2c-0.8-0.3-1.7-0.6-2.7-0.8c-0.1,0-0.2,0-0.3-0.1
		c-0.1,0-0.2,0-0.3-0.1c-0.1,0-0.2,0-0.3,0c-0.1,0-0.2,0-0.3,0c-0.6-0.1-1.2-0.1-1.8-0.1c-0.6,0-1.2,0.1-1.8,0.1
		c-0.6,0.1-1.2,0.2-1.7,0.3c-0.5,0.1-1.1,0.3-1.6,0.5c-0.4,0.2-0.9,0.4-1.3,0.6c-0.4,0.2-0.8,0.4-1.1,0.7c-0.3,0.2-0.6,0.5-0.9,0.8
		c-0.3,0.3-0.5,0.6-0.7,0.9c-0.2,0.3-0.3,0.6-0.4,1c0,0,0,0,0,0c0,0,0,0,0,0c-0.1,0.3-0.1,0.6-0.1,0.9c0,0,0,0,0,0l0,0l0,0.5
		c0,0.2,0,0.3,0,0.5c0,0.2,0.1,0.3,0.1,0.5c0.1,0.2,0.1,0.3,0.2,0.5c0,0,0,0,0,0.1l-11.2,5.9c-0.1,0-0.2-0.1-0.3-0.1
		c-0.1,0-0.2-0.1-0.3-0.1c-0.1,0-0.2-0.1-0.3-0.1c-0.1,0-0.2,0-0.3-0.1c-1-0.2-2-0.3-3.1-0.3c-1,0-2,0.1-3,0.3
		c-1,0.2-1.9,0.4-2.8,0.8c-0.9,0.3-1.7,0.8-2.4,1.2c-0.2,0.2-0.4,0.3-0.6,0.5c0,0,0,0,0,0l0,0c-0.2,0.2-0.4,0.3-0.6,0.5c0,0,0,0,0,0
		c0,0,0,0,0,0c0,0,0,0,0,0c0,0,0,0,0,0c-0.2,0.2-0.3,0.3-0.5,0.5c0,0,0,0,0,0c0,0,0,0,0,0c0,0,0,0,0,0c0,0,0,0,0,0
		c-0.2,0.2-0.3,0.4-0.4,0.6c0,0,0,0,0,0c0,0,0,0,0,0l0,0v0v0c-0.1,0.2-0.2,0.4-0.3,0.6l0,0c0,0,0,0,0,0c-0.1,0.2-0.2,0.4-0.3,0.6
		c-0.1,0.2-0.1,0.4-0.2,0.6c0,0,0,0,0,0v0c0,0.2-0.1,0.4-0.1,0.6c0,0,0,0,0,0c0,0.3,0,0.5,0.1,0.8c0-0.1,0-0.2,0-0.2l0,0.6
		c0,0.4,0.1,0.8,0.3,1.2c0,0.1,0.1,0.2,0.1,0.3c0.2,0.3,0.4,0.7,0.6,1c0,0,0,0.1,0.1,0.1c0.3,0.3,0.6,0.7,1,1
		c0.1,0.1,0.2,0.2,0.3,0.2c0.4,0.3,0.7,0.5,1.2,0.7c0.1,0.1,0.2,0.1,0.3,0.2c0,0,0,0,0,0c0.4,0.2,0.8,0.3,1.3,0.5c0,0,0,0,0,0
		c0.4,0.1,0.9,0.3,1.4,0.4c0.1,0,0.2,0,0.4,0.1c0,0,0,0,0,0c0.1,0,0.2,0,0.3,0.1c0,0,0,0,0.1,0c0.1,0,0.2,0,0.3,0.1
		c0.1,0,0.3,0,0.4,0l2.2,10c-0.5,0.2-1,0.5-1.5,0.7c-0.5,0.3-1,0.6-1.4,1c-0.4,0.3-0.8,0.7-1.2,1.1c-0.4,0.4-0.7,0.8-0.9,1.3
		c-0.3,0.5-0.5,0.9-0.6,1.4c-0.1,0.5-0.2,0.9-0.3,1.4c0,0.5,0,0.9,0.1,1.3c0,0,0,0,0-0.1c0-0.2,0-0.3-0.1-0.5l0,0.6
		c0,0.2,0,0.3,0.1,0.5c0,0.2,0.1,0.3,0.1,0.5c0,0.1,0.1,0.3,0.1,0.4l-14.1,8.4c-0.1,0-0.3-0.1-0.4-0.1c-0.1,0-0.3-0.1-0.4-0.1
		c-0.1,0-0.3-0.1-0.4-0.1c-0.1,0-0.3-0.1-0.4-0.1c-1.2-0.3-2.4-0.4-3.7-0.4c-1.2,0-2.5,0.1-3.7,0.4c-1.2,0.3-2.4,0.6-3.5,1.1
		c-1.1,0.5-2.2,1.1-3.1,1.8v0v0c-0.3,0.2-0.5,0.4-0.8,0.6c0,0,0,0,0,0c0,0,0,0,0,0c-0.3,0.2-0.5,0.5-0.8,0.7
		c-0.2,0.2-0.5,0.5-0.7,0.8c-0.2,0.3-0.4,0.5-0.6,0.8v0v0c-0.2,0.3-0.4,0.6-0.5,0.9c0,0,0,0,0,0c0,0,0,0,0,0c0,0,0,0,0,0
		c0,0,0,0,0,0c-0.2,0.3-0.3,0.6-0.4,0.9l0,0c0,0,0,0,0,0c-0.1,0.3-0.2,0.6-0.3,0.9c0,0,0,0,0,0l0,0c-0.1,0.3-0.1,0.6-0.2,0.9v0
		c0,0,0,0,0,0c-0.1,0.5-0.1,0.9-0.1,1.4c0,0,0,0.1,0,0.1c0,0.2,0.1,0.4,0.1,0.7c0,0.1,0,0.3,0.1,0.4c0-0.1,0-0.1,0-0.2
		c0-0.1,0-0.1,0-0.2l0.1,0.6c0.1,0.5,0.2,0.9,0.4,1.3c0,0.1,0.1,0.2,0.2,0.4c0.2,0.3,0.3,0.6,0.5,1c0.1,0.1,0.1,0.2,0.2,0.3
		c0.3,0.4,0.6,0.8,1,1.1c0.1,0.1,0.1,0.1,0.2,0.2c0.3,0.3,0.7,0.5,1,0.8c0.2,0.2,0.5,0.3,0.8,0.5c0,0,0,0,0,0
		c0.4,0.2,0.8,0.4,1.3,0.6c0,0,0,0,0,0c0.5,0.2,0.9,0.3,1.4,0.5c0.1,0,0.3,0.1,0.4,0.1c0,0,0,0,0,0c0.1,0,0.3,0.1,0.4,0.1
		c0,0,0.1,0,0.1,0c0.1,0,0.2,0,0.3,0.1c0,0,0,0,0.1,0c0.1,0,0.3,0,0.4,0.1l1.2,15v0c-0.7,0.3-1.4,0.7-2,1.2
		c-0.7,0.4-1.3,0.9-1.9,1.4c-0.6,0.5-1.1,1.1-1.6,1.7c-0.5,0.6-1,1.2-1.3,1.9c-0.4,0.6-0.6,1.2-0.9,1.8c0,0.1,0,0.1-0.1,0.2
		c0,0,0,0.1,0,0.1c-0.1,0.2-0.1,0.4-0.2,0.6c-0.1,0.4-0.3,0.9-0.4,1.3c0,0,0,0.1,0,0.1c0,0.2,0,0.4,0,0.7c0,0.4-0.1,0.8-0.1,1.2
		c0,0.1,0,0.1,0,0.2c0,0.2,0.1,0.4,0.1,0.6c0,0.1,0,0.2,0,0.3c0,0.3,0.1,0.7,0.1,1c0,0,0-0.1,0-0.1c0,0,0-0.1,0-0.1c0,0,0,0,0-0.1
		c0,0,0-0.1,0-0.1c0,0,0-0.1,0-0.1c0,0,0,0,0,0l0.1,0.5l-19.1,13c-0.2-0.1-0.3-0.1-0.5-0.2c-0.2-0.1-0.3-0.1-0.5-0.2
		c-0.2-0.1-0.3-0.1-0.5-0.2c-0.2-0.1-0.3-0.1-0.5-0.2c-1.4-0.4-2.9-0.7-4.5-0.7c-1.5,0-3.1,0.2-4.7,0.6c-1.6,0.4-3.1,1-4.6,1.8
		c-1.5,0.8-2.9,1.7-4.3,2.8l-18.9-6.1c0.1-0.4,0.2-0.9,0.3-1.3c0,0,0,0,0,0c0.1-0.6,0.1-1.1,0.1-1.7c0,0,0,0,0,0
		c0-0.5,0-1.1-0.1-1.6c0,0,0,0,0-0.1c-0.1-0.5-0.2-1-0.4-1.5c0,0,0,0,0,0c0,0,0,0,0,0c0,0,0,0,0,0c0,0,0,0,0,0c0,0,0,0,0,0
		c0,0,0,0,0-0.1c0,0,0,0,0-0.1c0,0,0,0,0,0c0,0,0,0,0,0l0-0.1c0,0,0,0,0,0c0,0,0,0,0,0c0,0,0,0,0-0.1c0,0,0,0,0,0c0,0,0,0,0,0l0-0.1
		c0,0,0,0,0,0c0,0,0,0,0,0c0,0,0,0,0-0.1c0,0.1,0.1,0.2,0.1,0.4c0,0.1,0.1,0.2,0.1,0.4c0,0.1,0,0.2,0.1,0.2
		c-0.1-0.3-0.2-0.6-0.3-0.9c0-0.1-0.1-0.2-0.1-0.3c0-0.1-0.1-0.2-0.1-0.3c-0.1-0.2-0.2-0.4-0.4-0.6c-0.1-0.2-0.2-0.4-0.4-0.6
		c-0.2-0.3-0.5-0.6-0.7-0.8c-0.2-0.2-0.3-0.4-0.5-0.5c0,0-0.1-0.1-0.1-0.1c-0.3-0.2-0.6-0.4-0.9-0.6c-0.2-0.1-0.3-0.2-0.5-0.3
		c-0.6-0.3-1.2-0.6-1.9-0.8c-0.2-0.1-0.3-0.1-0.5-0.1c-0.2,0-0.3-0.1-0.5-0.1c-0.2,0-0.3-0.1-0.5-0.1c-0.1,0-0.1,0-0.2,0l2.8-16.4
		c0.8-0.3,1.5-0.7,2.2-1.1c0,0,0,0,0,0c0.7-0.4,1.4-0.9,2.1-1.3c0,0,0,0,0,0c0.7-0.5,1.3-1,1.9-1.5c0,0,0,0,0,0
		c0.6-0.5,1.1-1.1,1.6-1.7c0.5-0.6,0.9-1.2,1.3-1.8c0,0,0,0,0,0c0.3-0.6,0.6-1.2,0.8-1.7c0,0,0,0,0,0c0.2-0.6,0.4-1.1,0.5-1.7
		c0,0,0,0,0,0c0.1-0.6,0.1-1.1,0.1-1.6c0-0.1,0-0.3,0-0.4c0-0.1,0-0.3-0.1-0.4c0-0.1,0-0.2-0.1-0.4c0-0.1-0.1-0.2-0.1-0.4l0,0
		c0,0,0,0,0,0c-0.1-0.2-0.1-0.4-0.2-0.6c0,0,0,0,0-0.1c0,0,0-0.1,0-0.1c-0.2-0.5-0.5-1-0.8-1.5c-0.1-0.1-0.1-0.1-0.2-0.2
		c-0.1-0.1-0.1-0.1-0.2-0.2c-0.1-0.1-0.1-0.2-0.2-0.3c-0.1-0.1-0.3-0.3-0.5-0.4c-0.1-0.1-0.1-0.2-0.2-0.2c0,0-0.1,0-0.1-0.1
		c-0.1,0-0.1-0.1-0.2-0.1c0,0,0,0,0,0c-0.4-0.3-0.8-0.5-1.3-0.7c0,0,0,0,0,0l0,0c0,0,0,0,0,0c-0.1-0.1-0.2-0.1-0.4-0.2
		c-0.1,0-0.2-0.1-0.4-0.1c-0.1,0-0.3-0.1-0.4-0.1c-0.1,0-0.3-0.1-0.4-0.1c-1.2-0.3-2.4-0.5-3.7-0.5c-1.3,0-2.6,0.1-4,0.4
		c-1.3,0.3-2.7,0.7-4,1.2c-1.3,0.5-2.6,1.2-3.8,2l-15.2-4.3c0.1-0.3,0.3-0.6,0.3-0.9c0,0,0,0,0,0c0.1-0.4,0.2-0.8,0.2-1.2
		c0,0,0-0.1,0-0.1c0-0.4,0-0.8,0-1.1c0,0,0,0,0-0.1c-0.1-0.4-0.1-0.7-0.3-1.1l-0.2-0.6c0,0.1,0.1,0.2,0.1,0.3c0,0.1,0.1,0.2,0.1,0.3
		c0,0.1,0,0.2,0.1,0.3c0-0.3-0.1-0.5-0.2-0.8c0-0.1,0-0.2-0.1-0.2c0,0,0-0.1,0-0.1c-0.1-0.2-0.2-0.4-0.3-0.5
		c-0.1-0.1-0.2-0.3-0.3-0.4c-0.2-0.2-0.4-0.4-0.5-0.5c-0.1-0.1-0.2-0.2-0.4-0.4c0,0,0,0,0,0c-0.2-0.2-0.5-0.3-0.8-0.5
		c-0.1-0.1-0.3-0.2-0.4-0.2c-0.4-0.2-0.9-0.4-1.5-0.5c-0.1,0-0.3-0.1-0.4-0.1s-0.3-0.1-0.4-0.1c-0.1,0-0.3-0.1-0.4-0.1
		s-0.3,0-0.4-0.1c-0.7-0.1-1.5-0.1-2.3-0.1c0,0,0,0,0,0h0c-0.8,0-1.6,0.1-2.4,0.2c0,0,0,0,0,0c0,0,0,0,0,0c0,0,0,0,0,0c0,0,0,0,0,0
		c-0.8,0.1-1.6,0.3-2.5,0.5l0,0c0,0,0,0-0.1,0c0,0,0,0,0,0l0,0c-0.8,0.2-1.7,0.5-2.5,0.8l0,0c-0.7,0.3-1.5,0.6-2.2,0.9
		c-0.7,0.3-1.4,0.7-2.1,1.1c-0.7,0.4-1.4,0.8-2,1.3c-0.6,0.5-1.3,1-1.8,1.5c-1.4,1.2-2.4,2.5-3.1,3.8c-0.7,1.3-1.1,2.5-1.1,3.6
		c0,0.8,0.2,1.6,0.6,2.3c0-0.1-0.1-0.1-0.1-0.2l0.3,0.6c0.2,0.3,0.4,0.6,0.6,0.9c0,0,0,0,0.1,0.1c0.2,0.3,0.5,0.5,0.8,0.8
		c0,0,0,0,0,0c0.3,0.2,0.7,0.5,1.1,0.6c0,0,0,0,0,0c0.4,0.2,0.8,0.4,1.3,0.5c0.6,0.2,1.2,0.3,1.8,0.4c0,0,0,0,0,0
		c0.6,0.1,1.3,0.1,1.9,0.1c0,0,0,0,0,0c0.7,0,1.3,0,2-0.1c0,0,0,0,0,0c0.7-0.1,1.4-0.2,2.1-0.3c0,0,0,0,0,0c0.6-0.1,1.1-0.3,1.7-0.4
		c0.3-0.1,0.5-0.2,0.8-0.2c0.4-0.1,0.8-0.3,1.2-0.4c0.3-0.1,0.5-0.2,0.8-0.3c0.4-0.2,0.9-0.4,1.3-0.6c0.2-0.1,0.4-0.2,0.6-0.3
		c0.6-0.3,1.3-0.7,1.9-1l15.6,4.5c-0.3,0.9-0.5,1.7-0.6,2.6c0,1,0.1,1.9,0.5,2.7c0,0,0-0.1,0-0.1c0.1,0.2,0.2,0.4,0.2,0.6
		c0.2,0.4,0.4,0.8,0.7,1.2c0,0,0,0,0,0c0.3,0.4,0.6,0.7,1,1c0,0,0,0,0.1,0.1c0.4,0.3,0.8,0.6,1.3,0.9c0,0,0,0,0,0
		c0.5,0.3,1.1,0.5,1.7,0.7c0.1,0,0.3,0.1,0.4,0.1c0,0,0,0,0,0c0.1,0,0.3,0.1,0.4,0.1c0,0,0.1,0,0.1,0c0.1,0,0.3,0.1,0.4,0.1
		c0,0,0,0,0,0c0,0,0.1,0,0.1,0L64,189.9c-0.8,0.4-1.7,0.8-2.5,1.3c-0.8,0.5-1.6,1-2.4,1.6c-0.8,0.6-1.5,1.2-2.2,1.8
		c-0.7,0.7-1.4,1.4-2,2.1c-1.5,1.8-2.6,3.6-3.2,5.3c-0.7,1.8-1,3.5-0.8,5.2c0.1,1.2,0.4,2.3,1,3.3c0-0.1-0.1-0.2-0.1-0.2l0.3,0.6
		c0.2,0.4,0.5,0.9,0.8,1.3c0,0,0.1,0.1,0.1,0.1c0.3,0.4,0.7,0.7,1,1.1c0,0,0,0,0,0c0.4,0.3,0.9,0.7,1.4,0.9c0,0,0,0,0,0
		c0.5,0.3,1.1,0.5,1.6,0.7c0.7,0.2,1.4,0.4,2.2,0.5c0,0,0,0,0,0c0.7,0.1,1.5,0.2,2.3,0.2c0,0,0,0,0,0c0.8,0,1.6,0,2.4-0.2
		c0,0,0,0,0,0c0.8-0.1,1.6-0.3,2.4-0.5c0,0,0,0,0,0c0.7-0.2,1.3-0.4,2-0.6c0.3-0.1,0.6-0.2,0.9-0.3c0.5-0.2,1-0.4,1.4-0.6
		c0.3-0.1,0.6-0.3,0.9-0.4c0.5-0.3,1-0.5,1.5-0.8c0.2-0.1,0.5-0.3,0.7-0.4c0.7-0.5,1.4-0.9,2.1-1.4l19.5,6.6
		c-0.3,1.3-0.4,2.6-0.3,3.9c0.1,1.4,0.5,2.7,1,3.9c-0.1-0.3-0.2-0.5-0.3-0.8l0.2,0.6c0.1,0.4,0.3,0.7,0.5,1.1
		c0.1,0.1,0.1,0.2,0.2,0.3c0.1,0.2,0.3,0.4,0.4,0.7c0.4,0.6,0.8,1.1,1.3,1.6c0.1,0.1,0.2,0.2,0.2,0.2c0.5,0.5,1.1,1,1.8,1.4
		c0.7,0.4,1.5,0.8,2.3,1.1c0.5,0.2,1,0.3,1.5,0.4c0,0,0,0,0,0c0.5,0.1,1,0.2,1.6,0.3c0,0,0,0,0,0c0.5,0.1,1.1,0.1,1.6,0.1
		c0,0,0,0,0,0c0.5,0,1.1,0,1.6-0.1c0,0,0,0,0,0c0.5,0,1.1-0.1,1.6-0.2c0,0,0,0,0.1,0c0.5-0.1,1-0.2,1.6-0.3c0,0,0.1,0,0.1,0
		c0.5-0.1,1-0.3,1.5-0.5c0.7-0.2,1.4-0.5,2-0.8c0.2-0.1,0.3-0.2,0.5-0.3c0.5-0.3,1-0.5,1.5-0.8c0.2-0.1,0.3-0.2,0.5-0.3
		c0.6-0.4,1.2-0.8,1.8-1.3c0.1-0.1,0.2-0.2,0.3-0.3c0.5-0.4,0.9-0.8,1.4-1.2c0.3-0.2,0.5-0.5,0.8-0.8c0,0,0,0,0.1-0.1
		c0.4-0.4,0.8-0.8,1.1-1.3c0,0,0,0,0,0c0.4-0.4,0.7-0.9,1-1.4c0,0,0,0,0-0.1c0.3-0.5,0.6-1,0.9-1.5c0.2-0.4,0.5-0.9,0.7-1.3
		c0,0,0,0,0,0c0.2-0.4,0.4-0.8,0.5-1.3c0,0,0,0,0,0c0.2-0.4,0.3-0.8,0.4-1.2c0,0,0,0,0,0c0.1-0.4,0.2-0.8,0.3-1.2c0,0,0,0,0,0
		c0.1-0.4,0.1-0.8,0.2-1.2c0,0,0,0,0,0c0-0.4,0.1-0.8,0.1-1.2c0,0,0,0,0,0c0-0.8,0-1.6-0.2-2.3l19.4-13.7c0.1,0.1,0.3,0.1,0.4,0.2
		c0,0,0,0,0,0c0.1,0.1,0.3,0.1,0.4,0.2c0,0,0,0,0.1,0c0.1,0,0.3,0.1,0.4,0.1c0,0,0,0,0,0c0.2,0.1,0.3,0.1,0.5,0.1
		c0.7,0.2,1.5,0.4,2.2,0.5c0,0,0,0,0,0c0.7,0.1,1.5,0.2,2.2,0.2c0,0,0,0,0,0c0.7,0,1.5,0,2.2-0.1c0,0,0,0,0,0
		c0.7-0.1,1.5-0.2,2.2-0.4c0,0,0,0,0,0c0.6-0.2,1.1-0.4,1.7-0.6c0.3-0.1,0.5-0.2,0.8-0.3c0.4-0.2,0.8-0.4,1.2-0.6
		c0.2-0.1,0.5-0.2,0.7-0.4c0.4-0.2,0.8-0.5,1.2-0.8c0.2-0.1,0.4-0.2,0.6-0.4c0.6-0.4,1.1-0.8,1.6-1.3c0.3-0.3,0.6-0.6,0.9-0.9
		c0,0,0,0,0.1-0.1c0.3-0.3,0.5-0.6,0.8-1c0,0,0,0,0,0c0.2-0.3,0.5-0.7,0.7-1c0,0,0,0,0-0.1c0.2-0.4,0.4-0.7,0.6-1.1
		c0.2-0.4,0.3-0.8,0.5-1.1c0,0,0,0,0,0c0.1-0.4,0.3-0.8,0.3-1.1c0,0,0,0,0,0c0.1-0.4,0.2-0.7,0.2-1.1c0,0,0,0,0,0
		c0.1-0.4,0.1-0.7,0.1-1.1c0-0.1,0-0.2,0-0.3c0,0,0-0.1,0-0.1c0-0.1,0-0.2,0-0.2c0,0,0-0.1,0-0.1c0-0.1,0-0.1,0-0.2c0,0,0-0.1,0-0.1
		c0-0.1,0-0.2,0-0.3c0-0.2,0-0.4-0.1-0.6c0,0,0,0,0,0c0,0.1,0,0.2,0,0.2c0,0,0,0,0,0c0,0,0,0,0,0c0,0,0,0,0,0.1c0,0,0,0,0,0.1
		c0,0,0,0,0,0.1c0,0,0,0.1,0,0.1c0,0,0,0,0,0c0,0,0,0,0,0c0,0,0,0,0,0.1c0,0.1,0,0.1,0,0.2c0,0,0,0,0,0c0,0,0,0,0,0c0,0,0,0,0,0
		c0,0,0,0,0,0.1c0,0,0,0,0,0.1c0,0,0,0,0,0.1c0,0,0,0,0,0.1c0,0.1,0,0.2,0,0.2s0,0.2,0,0.2c0,0.1,0,0.2,0,0.2c0,0.1,0,0.2,0,0.2
		c0,0.1,0,0.1,0,0.2c0.1-0.4,0.1-0.7,0.1-1.1c0-0.4,0-0.8-0.1-1.3c0-0.1,0-0.2,0-0.3c0-0.2-0.1-0.5-0.1-0.7c-0.1-0.3-0.1-0.6-0.2-1
		c0-0.1,0-0.2-0.1-0.3c0-0.1-0.1-0.3-0.2-0.4c-0.1-0.3-0.2-0.6-0.4-0.9c-0.1-0.2-0.2-0.4-0.3-0.6c-0.2-0.3-0.3-0.5-0.5-0.8
		c-0.1-0.1-0.1-0.2-0.2-0.4c-0.1-0.1-0.1-0.1-0.2-0.2c-0.2-0.2-0.4-0.5-0.7-0.7c-0.5-0.5-1.1-1-1.8-1.5c0,0-0.1,0-0.1-0.1
		c-0.3-0.2-0.7-0.4-1.1-0.6c-0.2-0.1-0.4-0.2-0.5-0.3c-0.6-0.2-1.2-0.5-1.8-0.6c-0.2,0-0.3-0.1-0.5-0.1c-0.2,0-0.3-0.1-0.5-0.1
		c-0.2,0-0.3-0.1-0.5-0.1c-0.2,0-0.3-0.1-0.5-0.1l-1.7-14.8l0,0c0.6-0.3,1.3-0.7,1.9-1c0,0,0,0,0,0c0.6-0.4,1.1-0.8,1.6-1.2
		c0,0,0,0,0,0c0.5-0.4,1-0.9,1.4-1.4c0,0,0,0,0,0c0.4-0.5,0.8-1,1.1-1.6c0.2-0.4,0.4-0.8,0.6-1.2c0,0,0,0,0,0
		c0.2-0.4,0.3-0.8,0.4-1.2c0,0,0,0,0,0c0.1-0.4,0.1-0.8,0.2-1.1c0,0,0,0,0,0c0-0.4,0-0.8,0-1.1l-0.1-0.6c0,0,0,0,0,0
		c0,0.1,0,0.1,0,0.2c0,0,0,0.1,0,0.1c0,0,0,0.1,0,0.1c0,0.1,0,0.1,0,0.2c0,0.1,0,0.1,0,0.2c0,0.1,0,0.2,0,0.2c0,0,0,0,0,0
		c0,0,0,0,0,0c0,0,0,0,0,0c0,0.1,0,0.1,0,0.2c0,0,0,0,0,0c0-0.4,0-0.9,0-1.3c0-0.1,0-0.1,0-0.2c0,0,0,0,0,0c0,0,0,0,0,0
		c-0.1-0.5-0.2-1-0.4-1.4c0,0.1,0.1,0.3,0.1,0.4c0,0,0,0.1,0,0.1l14.3-8.7v0l0,0c0.1,0,0.2,0.1,0.3,0.1c0,0,0,0,0.1,0
		c0.1,0,0.2,0.1,0.3,0.1c0,0,0,0,0.1,0c0.1,0,0.2,0.1,0.3,0.1c0,0,0,0,0,0c0.1,0,0.3,0.1,0.4,0.1c1.2,0.3,2.4,0.4,3.7,0.4
		c0,0,0,0,0,0c0.6,0,1.2,0,1.8-0.1c0,0,0,0,0,0c0.6-0.1,1.2-0.2,1.8-0.3l0,0l0,0c0.5-0.1,0.9-0.2,1.3-0.4c0.2-0.1,0.4-0.1,0.6-0.2
		c0.3-0.1,0.6-0.2,0.9-0.4c0.2-0.1,0.4-0.2,0.6-0.2c0.3-0.2,0.6-0.3,0.9-0.5c0.1-0.1,0.3-0.2,0.4-0.3c0.4-0.3,0.8-0.6,1.2-0.9
		c0.2-0.2,0.4-0.4,0.6-0.6c0,0,0,0,0,0c0.2-0.2,0.4-0.4,0.6-0.6c0,0,0,0,0,0c0.2-0.2,0.3-0.4,0.5-0.7c0,0,0,0,0,0
		c0.1-0.2,0.3-0.5,0.4-0.7c0.1-0.2,0.2-0.4,0.3-0.7c0,0,0,0,0,0c0.1-0.2,0.1-0.4,0.2-0.7c0,0,0,0,0,0c0-0.2,0.1-0.4,0.1-0.7
		c0,0,0,0,0,0c0-0.2,0-0.4,0-0.7c0,0,0,0,0,0c0,0,0,0,0,0c0-0.2,0-0.4,0-0.6c0,0,0-0.1,0-0.1s0-0.1,0-0.1c0,0,0-0.1,0-0.1
		c0,0,0-0.1,0-0.1l0,0c0,0,0,0,0,0c-0.1-0.8-0.3-1.6-0.7-2.3c-0.4-0.7-0.9-1.4-1.6-2c-0.7-0.6-1.5-1.1-2.4-1.6
		c-0.9-0.4-1.9-0.8-3.1-1c-0.1,0-0.3-0.1-0.4-0.1c-0.1,0-0.3,0-0.4-0.1c-0.1,0-0.3,0-0.4-0.1c-0.1,0-0.3,0-0.4,0l-2.7-10.5v0l0,0
		l0,0l0,0c0.5-0.2,1-0.4,1.5-0.7c0,0,0,0,0,0c-0.2,0.1-0.5,0.3-0.7,0.4c-0.2,0.1-0.5,0.2-0.7,0.3l0.1,0.5c0.5-0.2,0.9-0.4,1.3-0.7
		c0,0,0,0,0,0c0.5-0.3,0.9-0.5,1.3-0.8c0,0,0,0,0,0c0.4-0.3,0.7-0.6,1-1c0,0,0,0,0,0c0.3-0.3,0.6-0.7,0.8-1.1
		c0.1-0.2,0.2-0.4,0.3-0.6c0,0,0,0,0,0c0.1-0.2,0.1-0.4,0.2-0.6c0,0,0,0,0,0c0.1-0.2,0.1-0.4,0.1-0.6c0,0,0,0,0,0c0-0.2,0-0.4,0-0.6
		l0-0.6c0,0,0,0,0,0c0,0,0,0.1,0,0.1c0,0,0,0,0,0c0-0.4-0.1-0.7-0.1-1c0,0,0,0,0,0c0,0,0,0,0,0c-0.1-0.3-0.2-0.7-0.4-1
		c0.1,0.1,0.2,0.3,0.2,0.4l11.3-6.1c0.1,0,0.2,0.1,0.3,0.1c0,0,0,0,0,0c0.1,0,0.2,0,0.3,0.1c0,0,0,0,0,0c0.1,0,0.2,0,0.3,0.1
		c0,0,0,0,0,0c0.1,0,0.2,0,0.3,0.1c0.5,0.1,1,0.2,1.5,0.2c0,0,0,0,0,0c0.5,0,1,0.1,1.5,0.1c0,0,0,0,0,0c0.5,0,1,0,1.5-0.1
		c0,0,0,0,0,0c0.5,0,1-0.1,1.4-0.2c0,0,0,0,0,0c0.4-0.1,0.7-0.2,1.1-0.3c0.2,0,0.3-0.1,0.5-0.1c0.3-0.1,0.5-0.2,0.7-0.3
		c0.1-0.1,0.3-0.1,0.4-0.2c0.3-0.1,0.5-0.2,0.7-0.3c0.1-0.1,0.2-0.1,0.3-0.2c0.3-0.2,0.6-0.4,0.9-0.6c0.2-0.1,0.4-0.3,0.5-0.4
		c0,0,0,0,0,0c0.2-0.1,0.3-0.3,0.4-0.5c0,0,0,0,0,0c0.1-0.2,0.3-0.3,0.4-0.5c0,0,0,0,0,0c0.1-0.2,0.2-0.3,0.3-0.5
		c0.1-0.1,0.1-0.2,0.2-0.4c0,0,0,0,0,0c0-0.1,0.1-0.2,0.1-0.4c0,0,0,0,0,0c0-0.1,0.1-0.2,0.1-0.3c0,0,0,0,0,0c0-0.1,0-0.2,0-0.3
		c0-0.2,0-0.4,0-0.5C215.1,92.6,215.1,92.6,215.1,92.5C215.1,92.6,215.1,92.5,215.1,92.5C215.1,92.5,215.1,92.5,215.1,92.5z
		 M153.3,159.4c-0.8,0.1-1.6,0.2-2.5,0.2c0,0,0,0,0,0C151.7,159.6,152.5,159.6,153.3,159.4L153.3,159.4z M152,174.1
		C152,174.1,152,174.1,152,174.1C152,174.1,152,174.1,152,174.1L152,174.1z M139.8,153.4c0.1,0.3,0.2,0.6,0.3,0.9
		c0-0.1-0.1-0.1-0.1-0.2c0,0,0-0.1,0-0.2C139.9,153.8,139.9,153.6,139.8,153.4z M140.4,154.7c0,0,0-0.1-0.1-0.1
		c0.2,0.4,0.4,0.8,0.7,1.1c0,0-0.1-0.1-0.1-0.2c0,0-0.1-0.1-0.1-0.1c0-0.1-0.1-0.1-0.1-0.2C140.6,155.1,140.5,154.9,140.4,154.7z
		 M141.8,156.6c-0.3-0.3-0.5-0.5-0.7-0.8c0.3,0.3,0.6,0.7,0.9,1c0,0,0,0-0.1,0C141.9,156.7,141.9,156.7,141.8,156.6
		C141.8,156.6,141.8,156.6,141.8,156.6z M143.1,157.6c-0.3-0.2-0.6-0.4-0.8-0.6C142.5,157.2,142.8,157.4,143.1,157.6z M143.3,157.7
		C143.3,157.8,143.3,157.8,143.3,157.7C143.3,157.8,143.3,157.8,143.3,157.7C143.3,157.8,143.3,157.8,143.3,157.7z M144.3,158.3
		c-0.1-0.1-0.2-0.1-0.3-0.2c0,0,0,0-0.1,0c0,0,0,0,0,0c0,0,0,0,0,0c-0.1,0-0.2-0.1-0.2-0.1c-0.1-0.1-0.2-0.1-0.3-0.2
		c0.5,0.3,1,0.6,1.5,0.8c-0.1,0-0.1-0.1-0.2-0.1C144.5,158.4,144.4,158.4,144.3,158.3z M146.8,159.2c0,0-0.1,0-0.1,0
		c0,0-0.1,0-0.1,0c-0.1,0-0.1,0-0.2-0.1c-0.1,0-0.1,0-0.2-0.1c-0.1,0-0.1,0-0.2-0.1c-0.1,0-0.1,0-0.2-0.1c-0.1,0-0.2-0.1-0.3-0.1
		c-0.1,0-0.2-0.1-0.3-0.1c0,0,0,0-0.1,0c0,0,0,0,0,0c-0.1,0-0.1-0.1-0.2-0.1c0,0-0.1,0-0.1,0c0.5,0.2,1.1,0.4,1.8,0.6
		c0.1,0,0.3,0.1,0.4,0.1c0,0-0.1,0-0.1,0C146.9,159.2,146.9,159.2,146.8,159.2z M147.1,159.3C147.1,159.3,147.1,159.3,147.1,159.3
		c0.1,0,0.2,0.1,0.4,0.1c0,0-0.1,0-0.1,0C147.3,159.3,147.2,159.3,147.1,159.3z M147.5,159.4c0.1,0,0.2,0,0.3,0.1
		c-0.1,0-0.2,0-0.2,0C147.6,159.4,147.6,159.4,147.5,159.4z M148.3,159.5C148.3,159.5,148.3,159.5,148.3,159.5
		C148.3,159.5,148.3,159.5,148.3,159.5c-0.2,0-0.3,0-0.4-0.1c0,0,0,0,0,0C148.1,159.5,148.2,159.5,148.3,159.5
		c0.9,0.1,1.7,0.2,2.5,0.1c0,0,0,0,0,0C150,159.7,149.2,159.6,148.3,159.5L148.3,159.5L148.3,159.5L148.3,159.5L148.3,159.5
		C148.4,159.5,148.4,159.5,148.3,159.5C148.3,159.5,148.3,159.5,148.3,159.5z M145.3,195.4C145.3,195.4,145.3,195.4,145.3,195.4
		c0.1,0.1,0.2,0.1,0.3,0.2C145.5,195.5,145.4,195.4,145.3,195.4z M144.1,194.3c-0.1-0.1-0.2-0.2-0.2-0.3c0,0,0,0,0,0
		C143.9,194.1,144,194.2,144.1,194.3C144.1,194.3,144.1,194.3,144.1,194.3z M142.9,192.9c0-0.1-0.1-0.1-0.1-0.2c0,0,0,0,0,0
		C142.8,192.8,142.8,192.8,142.9,192.9C142.9,192.9,142.9,192.9,142.9,192.9z M141.9,191c0,0.1,0.1,0.2,0.1,0.3c0,0,0,0,0,0
		C141.9,191.3,141.9,191.2,141.9,191C141.9,191,141.9,191,141.9,191z M69.8,188.1C69.8,188.1,69.8,188.1,69.8,188.1
		C69.8,188.1,69.8,188.1,69.8,188.1C69.8,188.1,69.8,188.1,69.8,188.1C69.8,188.1,69.8,188.1,69.8,188.1L69.8,188.1
		C69.8,188.1,69.8,188.1,69.8,188.1z M71.2,187.9C71.2,187.9,71.2,187.9,71.2,187.9C71.3,187.9,71.3,187.8,71.2,187.9L71.2,187.9
		C71.3,187.8,71.3,187.9,71.2,187.9z M72.7,187.8C72.7,187.8,72.7,187.8,72.7,187.8C72.7,187.8,72.7,187.8,72.7,187.8L72.7,187.8z
		 M75.6,171.9c-0.7,0.2-1.4,0.4-2.2,0.5C74.2,172.3,74.9,172.2,75.6,171.9C75.6,171.9,75.6,171.9,75.6,171.9z M98.1,210.9
		L98.1,210.9L98.1,210.9L98.1,210.9L98.1,210.9L98.1,210.9L98.1,210.9C98.1,210.9,98.1,210.9,98.1,210.9z M98.1,210.9L98.1,210.9
		L98.1,210.9L98.1,210.9z M99,209.6C99,209.6,99,209.6,99,209.6C99,209.6,99,209.6,99,209.6C99,209.6,99,209.6,99,209.6
		c-0.3,0.4-0.5,0.7-0.7,1C98.5,210.3,98.8,209.9,99,209.6c0.3-0.4,0.6-0.8,1-1.2c-0.1,0.1-0.1,0.1-0.2,0.2
		C99.6,209,99.3,209.3,99,209.6C99,209.6,99,209.6,99,209.6z M83.5,198.3C83.5,198.3,83.5,198.3,83.5,198.3c0,0.1,0,0.2-0.1,0.3
		c0,0.1,0,0.2-0.1,0.4c0,0.1-0.1,0.2-0.1,0.4c0,0.1-0.1,0.2-0.1,0.4c0,0,0,0.1,0,0.1c0,0,0,0.1,0,0.1c0,0,0,0.1,0,0.1
		c0,0,0,0.1,0,0.1c0.2-0.7,0.4-1.3,0.5-2C83.5,198.1,83.5,198.1,83.5,198.3C83.5,198.2,83.5,198.2,83.5,198.3
		C83.5,198.2,83.5,198.2,83.5,198.3z M83.6,196.5C83.6,196.5,83.6,196.5,83.6,196.5c0,0.1,0,0.2,0,0.3c0,0.1,0,0.3,0,0.4
		c0,0.1,0,0.3,0,0.4c0,0.1,0,0.2,0,0.3c0.1-0.6,0.1-1.2,0.1-1.8c0,0.1,0,0.1,0,0.2C83.6,196.4,83.6,196.5,83.6,196.5
		C83.6,196.5,83.6,196.5,83.6,196.5z M83.4,194.5c0,0.1,0.1,0.2,0.1,0.4c0,0,0,0,0,0c0,0,0,0,0,0c0,0,0,0,0,0c0,0.2,0.1,0.5,0.1,0.7
		c0,0.1,0,0.3,0,0.5C83.6,195.5,83.5,195,83.4,194.5z M79.5,170.4c-0.4,0.2-0.8,0.4-1.1,0.5c-0.9,0.4-1.7,0.7-2.6,1c0,0,0,0,0,0
		c0.9-0.3,1.8-0.6,2.6-1c0.8-0.3,1.5-0.7,2.3-1.1c0,0,0,0,0,0C80.2,170,79.9,170.2,79.5,170.4z M81.7,169.2c-0.3,0.2-0.7,0.4-1,0.6
		c0.7-0.4,1.4-0.9,2.1-1.3c0,0,0,0,0,0C82.4,168.7,82,168.9,81.7,169.2z M83.9,167.5c-0.1,0.1-0.3,0.2-0.4,0.3s-0.3,0.2-0.4,0.3
		c-0.1,0.1-0.3,0.2-0.4,0.3c0.7-0.5,1.3-1,1.9-1.5c-0.1,0.1-0.2,0.2-0.3,0.2C84.2,167.3,84.1,167.4,83.9,167.5z M87.3,163.8
		c-0.1,0.1-0.1,0.2-0.2,0.2c-0.1,0.1-0.1,0.2-0.2,0.2c-0.1,0.1-0.1,0.2-0.2,0.2c-0.1,0.1-0.1,0.2-0.2,0.2c-0.1,0.1-0.1,0.2-0.2,0.2
		c0,0,0,0,0,0c0,0,0,0,0,0c0,0,0,0,0,0c0,0,0,0,0,0c-0.1,0.1-0.1,0.1-0.2,0.2c-0.1,0.1-0.1,0.1-0.2,0.2c-0.1,0.1-0.1,0.1-0.2,0.2
		c-0.1,0.1-0.1,0.1-0.2,0.2c-0.1,0.1-0.2,0.2-0.3,0.3c-0.1,0.1-0.2,0.2-0.3,0.3c-0.1,0.1-0.2,0.2-0.3,0.3c0,0,0,0,0,0
		c0.6-0.5,1.1-1.1,1.6-1.7c0.5-0.6,0.9-1.2,1.3-1.8c0,0-0.1,0.1-0.1,0.1C87.4,163.6,87.3,163.7,87.3,163.8z M88.1,162.3
		c0,0.1-0.1,0.2-0.1,0.2c0,0.1-0.1,0.2-0.1,0.2c0,0.1-0.1,0.2-0.1,0.2c0,0.1-0.1,0.2-0.1,0.2c0,0,0,0.1-0.1,0.1
		c0.3-0.6,0.6-1.2,0.9-1.7c0,0.1,0,0.1-0.1,0.2c0,0.1-0.1,0.2-0.1,0.3C88.2,162.2,88.1,162.2,88.1,162.3z M88.7,160.5
		c0,0.1,0,0.2-0.1,0.3c0,0.1-0.1,0.2-0.1,0.3c0,0.1-0.1,0.2-0.1,0.3c0,0.1-0.1,0.2-0.1,0.3c0,0,0,0,0,0.1c0.2-0.6,0.4-1.1,0.5-1.7
		c0,0.1,0,0.2,0,0.3C88.8,160.3,88.7,160.4,88.7,160.5z M88.9,158c0,0.1,0,0.3,0,0.4c0,0,0,0,0,0.1c0,0,0,0,0,0.1c0,0,0,0,0,0.1
		c0,0,0,0,0,0.1c0,0.1,0,0.2,0,0.3c0,0.1,0,0.2,0,0.3c0,0.1,0,0.2,0,0.3c0,0.1,0,0.2,0,0.3c0,0,0,0,0,0c0.1-0.6,0.1-1.1,0.1-1.6
		c0-0.3-0.1-0.6-0.1-0.8c0,0,0,0,0,0.1C88.8,157.7,88.9,157.8,88.9,158z M88.8,157.3c0,0.1,0,0.1,0,0.2
		C88.8,157.4,88.7,157.3,88.8,157.3C88.7,157.2,88.7,157.2,88.8,157.3z M61.8,161.7C61.7,161.7,61.7,161.7,61.8,161.7
		C61.7,161.7,61.7,161.7,61.8,161.7C61.7,161.7,61.7,161.7,61.8,161.7C61.8,161.7,61.8,161.7,61.8,161.7
		C61.8,161.7,61.8,161.7,61.8,161.7C61.8,161.7,61.8,161.7,61.8,161.7z M62.3,160.7L62.3,160.7C62.3,160.7,62.3,160.7,62.3,160.7
		C62.3,160.7,62.3,160.7,62.3,160.7z M64.8,157.9c-0.3,0.3-0.6,0.6-0.9,0.9C64.2,158.5,64.5,158.2,64.8,157.9
		c0.3-0.3,0.6-0.5,0.8-0.7C65.3,157.4,65.1,157.6,64.8,157.9C64.8,157.9,64.8,157.9,64.8,157.9C64.8,157.9,64.8,157.9,64.8,157.9z
		 M65.7,157.1C65.7,157.1,65.8,157,65.7,157.1C65.8,157,65.7,157.1,65.7,157.1L65.7,157.1z M48.6,155.6L48.6,155.6
		c-0.3,0.3-0.6,0.5-1,0.8c0,0,0,0,0,0C47.9,156.2,48.2,155.9,48.6,155.6z M47.5,156.5c-0.3,0.3-0.7,0.5-1,0.8c0,0,0,0,0,0
		C46.8,157,47.2,156.7,47.5,156.5C47.5,156.5,47.5,156.5,47.5,156.5z M52.6,150.1c0,0.1-0.1,0.2-0.1,0.3c0,0.1-0.1,0.2-0.1,0.3
		c0,0.1-0.1,0.2-0.1,0.3c0,0,0,0,0,0.1c0,0,0,0,0,0.1c0,0,0,0,0,0.1c0,0,0,0,0,0.1c0.2-0.5,0.4-0.9,0.5-1.4c0,0,0,0,0,0c0,0,0,0,0,0
		c0,0,0,0,0,0c0,0,0,0.1,0,0.1C52.7,149.9,52.7,150,52.6,150.1z M52.9,148.9c0,0.1,0,0.2-0.1,0.3c0,0.1,0,0.2-0.1,0.3
		c0,0.1,0,0.1,0,0.2c0.1-0.4,0.2-0.9,0.2-1.3c0,0,0,0,0,0c0,0,0,0,0,0c0,0,0,0.1,0,0.1C53,148.7,53,148.8,52.9,148.9z M53,147.2
		C53,147.2,53,147.2,53,147.2C53,147.2,53,147.2,53,147.2C53,147.2,53,147.2,53,147.2c0,0.1,0,0.1,0,0.1c0,0.2,0,0.4,0,0.6
		c0,0.1,0,0.2,0,0.3C53,147.9,53,147.5,53,147.2z M25.4,158.8c0,0,0-0.1-0.1-0.1c0.1,0.2,0.3,0.4,0.4,0.6c0,0,0-0.1-0.1-0.1
		C25.6,159,25.5,158.9,25.4,158.8z M26,159.5c-0.1-0.1-0.1-0.1-0.2-0.2c0,0,0,0,0,0c0,0,0,0,0,0c0.2,0.2,0.4,0.4,0.6,0.6
		c0,0,0,0,0,0C26.2,159.7,26.1,159.6,26,159.5z M26.8,160.2c-0.1,0-0.1-0.1-0.2-0.1c0,0,0,0,0,0c0,0,0,0,0,0c0,0,0,0-0.1,0
		c-0.1,0-0.1-0.1-0.2-0.1c0.2,0.2,0.5,0.4,0.7,0.5c0,0,0,0,0,0C27,160.4,26.9,160.3,26.8,160.2z M27.7,160.8
		C27.7,160.8,27.7,160.8,27.7,160.8C27.7,160.7,27.6,160.7,27.7,160.8c-0.2-0.1-0.3-0.1-0.3-0.2c-0.1,0-0.2-0.1-0.2-0.1
		c0.3,0.2,0.5,0.3,0.9,0.4c0,0-0.1,0-0.1-0.1C27.8,160.8,27.8,160.8,27.7,160.8C27.7,160.8,27.7,160.8,27.7,160.8z M30.3,161.6
		c-0.1,0-0.2,0-0.3-0.1c-0.1,0-0.2,0-0.3-0.1c-0.1,0-0.2,0-0.3-0.1c0,0-0.1,0-0.1,0c0,0-0.1,0-0.1,0c0,0-0.1,0-0.1,0
		c0,0-0.1,0-0.1,0c-0.1,0-0.1,0-0.2-0.1c-0.1,0-0.1,0-0.2-0.1c-0.1,0-0.1,0-0.2-0.1c-0.1,0-0.1,0-0.2-0.1c-0.1,0-0.2-0.1-0.3-0.1
		c0,0-0.1,0-0.1,0c0.3,0.1,0.6,0.3,1,0.4c0.6,0.2,1.2,0.3,1.8,0.4c-0.1,0-0.2,0-0.3,0C30.5,161.6,30.4,161.6,30.3,161.6z
		 M32.3,161.8c-0.1,0-0.2,0-0.3,0c-0.1,0-0.2,0-0.3,0c-0.1,0-0.2,0-0.3,0c-0.1,0-0.2,0-0.3,0c-0.1,0-0.2,0-0.3,0c0,0,0,0,0,0
		c0.6,0.1,1.3,0.1,1.9,0.1c0,0-0.1,0-0.1,0C32.5,161.8,32.4,161.8,32.3,161.8z M34.3,161.7c-0.1,0-0.2,0-0.3,0c-0.1,0-0.2,0-0.3,0
		c-0.1,0-0.2,0-0.3,0c-0.1,0-0.2,0-0.3,0c-0.1,0-0.1,0-0.2,0c0.7,0,1.3,0,2-0.1c0,0-0.1,0-0.1,0C34.6,161.7,34.4,161.7,34.3,161.7z
		 M35.9,161.5c-0.1,0-0.3,0-0.4,0.1c-0.1,0-0.3,0-0.4,0.1c-0.1,0-0.2,0-0.3,0c0.7-0.1,1.4-0.2,2.1-0.3c-0.2,0-0.3,0.1-0.5,0.1
		C36.3,161.5,36.1,161.5,35.9,161.5z M37.5,161.2c-0.2,0-0.4,0.1-0.5,0.1c0,0,0,0,0,0c0.6-0.1,1.1-0.3,1.7-0.4
		c-0.2,0.1-0.4,0.1-0.6,0.2C37.9,161.1,37.7,161.2,37.5,161.2z M39.4,160.6c0.4-0.1,0.8-0.3,1.3-0.4c-0.3,0.1-0.5,0.2-0.8,0.3
		C39.8,160.6,39.6,160.6,39.4,160.6z M41.5,159.9c0.4-0.2,0.9-0.4,1.3-0.6c-0.3,0.2-0.7,0.3-1,0.5C41.7,159.8,41.6,159.9,41.5,159.9
		z M43.4,159c0.6-0.3,1.3-0.7,1.9-1c0.4-0.2,0.8-0.5,1.1-0.7v0c-0.4,0.2-0.7,0.5-1.1,0.7c0,0,0,0,0,0c-0.6,0.3-1.1,0.7-1.7,1
		C43.5,159,43.5,159,43.4,159z M61.7,169.6C61.7,169.6,61.7,169.6,61.7,169.6c-0.2-0.2-0.3-0.4-0.4-0.6c-0.1-0.1-0.1-0.3-0.2-0.4
		C61.3,169,61.5,169.3,61.7,169.6C61.8,169.7,61.7,169.6,61.7,169.6C61.7,169.6,61.7,169.6,61.7,169.6
		C61.7,169.6,61.7,169.6,61.7,169.6z M62.8,170.7C62.7,170.7,62.7,170.7,62.8,170.7c-0.2-0.2-0.4-0.3-0.5-0.5
		c-0.1-0.1-0.3-0.3-0.4-0.5C62.1,170.1,62.4,170.4,62.8,170.7C62.8,170.8,62.8,170.8,62.8,170.7C62.8,170.7,62.8,170.7,62.8,170.7
		C62.8,170.7,62.8,170.7,62.8,170.7z M63.7,171.4c-0.1-0.1-0.2-0.1-0.3-0.2c-0.1-0.1-0.2-0.1-0.3-0.2c-0.1-0.1-0.2-0.1-0.3-0.2
		c0.4,0.3,0.8,0.6,1.3,0.9c0,0,0,0,0,0c0,0,0,0,0,0c0,0,0,0,0,0c0,0-0.1,0-0.1-0.1C63.9,171.5,63.8,171.4,63.7,171.4z M66.3,172.4
		c0,0-0.1,0-0.1,0c0,0-0.1,0-0.1,0c0,0-0.1,0-0.1,0c0,0-0.1,0-0.1,0c-0.1,0-0.1,0-0.2-0.1c-0.1,0-0.1,0-0.2-0.1
		c-0.1,0-0.1,0-0.2-0.1c-0.1,0-0.1,0-0.2-0.1c-0.1,0-0.2-0.1-0.3-0.1c-0.1,0-0.2-0.1-0.3-0.1c-0.1,0-0.2-0.1-0.3-0.1
		c0,0-0.1,0-0.1,0c0.5,0.3,1.1,0.5,1.7,0.7C66,172.3,66.1,172.4,66.3,172.4c0.1,0,0.3,0.1,0.4,0.1c0,0-0.1,0-0.1,0
		C66.5,172.5,66.4,172.4,66.3,172.4z M66.9,172.5C66.9,172.5,66.8,172.5,66.9,172.5c0,0,0.2,0,0.3,0.1c0,0,0,0,0,0
		C67.1,172.6,67,172.6,66.9,172.5z M67.3,172.6c0.1,0,0.3,0,0.4,0.1c0.8,0.1,1.7,0.2,2.6,0.1l0,0c-0.9,0-1.7,0-2.6-0.1c0,0,0,0,0,0
		c0,0,0,0-0.1,0c0,0,0,0-0.1,0c0,0,0,0-0.1,0c0,0,0,0-0.1,0C67.4,172.6,67.3,172.6,67.3,172.6z M67,188.8L67,188.8
		C67,188.8,67,188.8,67,188.8C67,188.8,67,188.8,67,188.8z M52.1,210.8c0-0.1-0.1-0.1-0.1-0.2c0.2,0.3,0.4,0.6,0.6,0.8
		c0,0-0.1-0.1-0.1-0.1C52.3,211.2,52.2,211,52.1,210.8z M52.6,211.6C52.6,211.6,52.6,211.6,52.6,211.6
		C52.6,211.6,52.6,211.6,52.6,211.6C52.6,211.6,52.6,211.6,52.6,211.6z M52.9,211.9c-0.1-0.1-0.1-0.2-0.2-0.3
		c0.2,0.3,0.5,0.5,0.7,0.8c0,0,0,0,0,0C53.2,212.2,53,212.1,52.9,211.9z M54,212.9c-0.1-0.1-0.2-0.1-0.2-0.2c0,0,0,0,0,0
		c0,0,0,0,0,0c0,0,0,0-0.1,0c-0.1-0.1-0.1-0.1-0.2-0.2c0.3,0.3,0.6,0.5,0.9,0.7c0,0,0,0,0,0C54.2,213.1,54.1,213,54,212.9z
		 M55.1,213.7C55.1,213.7,55.1,213.7,55.1,213.7c0,0-0.1,0-0.1-0.1c-0.1-0.1-0.2-0.1-0.3-0.2c-0.1-0.1-0.2-0.1-0.3-0.2
		c0.3,0.2,0.7,0.4,1.1,0.6c-0.1,0-0.1-0.1-0.2-0.1C55.2,213.8,55.2,213.7,55.1,213.7C55.1,213.7,55.1,213.7,55.1,213.7z M58.3,214.8
		c-0.1,0-0.2,0-0.3-0.1c-0.1,0-0.2-0.1-0.3-0.1c-0.1,0-0.2-0.1-0.3-0.1c0,0-0.1,0-0.1,0c0,0-0.1,0-0.1,0c0,0-0.1,0-0.1,0
		c0,0-0.1,0-0.1,0c-0.1,0-0.1,0-0.2-0.1s-0.1-0.1-0.2-0.1c-0.1,0-0.1-0.1-0.2-0.1c-0.1,0-0.1-0.1-0.2-0.1c-0.1-0.1-0.2-0.1-0.3-0.2
		c0,0-0.1,0-0.1-0.1c0.4,0.2,0.8,0.4,1.3,0.5c0.7,0.2,1.4,0.4,2.2,0.5c-0.1,0-0.2,0-0.3-0.1C58.5,214.9,58.4,214.9,58.3,214.8z
		 M60.7,215.1c-0.1,0-0.2,0-0.4,0c-0.1,0-0.2,0-0.4,0c-0.1,0-0.2,0-0.4,0c-0.1,0-0.2,0-0.3,0c-0.1,0-0.2,0-0.3,0c0,0,0,0,0,0
		c0.7,0.1,1.5,0.2,2.3,0.2c0,0-0.1,0-0.1,0C61,215.1,60.8,215.1,60.7,215.1z M63.1,215.1c-0.1,0-0.3,0-0.4,0c-0.1,0-0.3,0-0.4,0
		c-0.1,0-0.3,0-0.4,0c-0.1,0-0.3,0-0.4,0c-0.1,0-0.1,0-0.2,0c0.8,0,1.6,0,2.4-0.2c0,0-0.1,0-0.1,0C63.4,215,63.2,215,63.1,215.1z
		 M65,214.8c-0.2,0-0.3,0.1-0.5,0.1c-0.2,0-0.3,0.1-0.5,0.1c-0.1,0-0.2,0-0.4,0c0.8-0.1,1.6-0.3,2.4-0.5c-0.2,0-0.3,0.1-0.5,0.1
		C65.4,214.7,65.2,214.7,65,214.8z M66.9,214.3c-0.2,0.1-0.4,0.1-0.6,0.2c0,0-0.1,0-0.1,0c0.7-0.2,1.3-0.4,2-0.6
		c-0.2,0.1-0.4,0.2-0.7,0.2C67.3,214.2,67.1,214.3,66.9,214.3z M69.1,213.6c0.5-0.2,1-0.4,1.4-0.6c-0.3,0.1-0.6,0.3-0.9,0.4
		C69.4,213.4,69.3,213.5,69.1,213.6z M71.4,212.5c0.5-0.3,1-0.5,1.5-0.8c-0.4,0.2-0.7,0.5-1.1,0.7C71.6,212.4,71.5,212.5,71.4,212.5
		z M73.6,211.3c0.7-0.5,1.4-0.9,2.1-1.4l0,0c-0.6,0.5-1.3,0.9-1.9,1.3C73.7,211.2,73.6,211.2,73.6,211.3z M96.8,226
		c-0.1-0.2-0.2-0.4-0.3-0.6c-0.1-0.1-0.1-0.2-0.2-0.3c0,0,0,0,0-0.1c0,0,0-0.1-0.1-0.1c0.3,0.5,0.6,1.1,0.9,1.6
		c-0.1-0.1-0.1-0.2-0.2-0.3c0,0,0-0.1-0.1-0.1C96.9,226.1,96.9,226,96.8,226z M98.3,227.8c-0.1-0.1-0.2-0.2-0.3-0.3
		c-0.1-0.1-0.2-0.2-0.2-0.2c0,0-0.1-0.1-0.1-0.1c-0.1-0.1-0.2-0.2-0.3-0.4c0.4,0.5,0.8,1,1.3,1.4c0,0,0,0,0,0
		c-0.1-0.1-0.2-0.2-0.2-0.2C98.4,227.8,98.3,227.8,98.3,227.8z M100.2,229.3C100.2,229.3,100.2,229.3,100.2,229.3
		c-0.1-0.1-0.3-0.2-0.4-0.3c-0.1-0.1-0.3-0.2-0.4-0.3c-0.1-0.1-0.3-0.2-0.4-0.3c-0.1-0.1-0.2-0.2-0.3-0.3c0.5,0.5,1.1,0.9,1.7,1.2
		C100.4,229.3,100.3,229.3,100.2,229.3C100.2,229.3,100.2,229.3,100.2,229.3C100.2,229.3,100.2,229.3,100.2,229.3z M103.5,230.6
		c-0.1,0-0.2-0.1-0.4-0.1c0,0-0.1,0-0.1,0c0,0-0.1,0-0.1,0c0,0-0.1,0-0.1,0c0,0-0.1,0-0.1,0c-0.1,0-0.2-0.1-0.2-0.1
		c-0.1,0-0.1-0.1-0.2-0.1c-0.1,0-0.1-0.1-0.2-0.1c-0.1,0-0.1-0.1-0.2-0.1c-0.1-0.1-0.3-0.1-0.4-0.2c-0.1-0.1-0.2-0.1-0.4-0.2
		c-0.1-0.1-0.2-0.1-0.4-0.2c0,0-0.1,0-0.1-0.1c0.6,0.4,1.3,0.7,2.1,0.9c0.5,0.2,1,0.3,1.5,0.4c-0.1,0-0.2,0-0.2-0.1
		C103.7,230.7,103.6,230.7,103.5,230.6z M105.3,231c-0.1,0-0.2,0-0.4-0.1c-0.1,0-0.2,0-0.4-0.1c-0.1,0-0.2,0-0.4-0.1
		c0,0-0.1,0-0.1,0c0.5,0.1,1,0.2,1.6,0.3c0,0,0,0,0,0C105.5,231,105.4,231,105.3,231z M106.8,231.1c-0.1,0-0.3,0-0.4,0
		c-0.1,0-0.3,0-0.4,0c-0.1,0-0.2,0-0.4,0c0.5,0.1,1.1,0.1,1.6,0.1c0,0-0.1,0-0.1,0C107.1,231.1,106.9,231.1,106.8,231.1z
		 M108.4,231.1c-0.1,0-0.3,0-0.4,0c-0.1,0-0.3,0-0.4,0c-0.1,0-0.2,0-0.3,0c0.5,0,1.1,0,1.6-0.1c0,0,0,0-0.1,0
		C108.7,231.1,108.6,231.1,108.4,231.1z M109.8,231c-0.2,0-0.3,0-0.5,0.1c-0.1,0-0.2,0-0.3,0c0.5,0,1.1-0.1,1.6-0.2
		c-0.1,0-0.2,0-0.3,0.1C110.1,230.9,109.9,231,109.8,231z M111.3,230.7c-0.2,0-0.3,0.1-0.5,0.1c0,0-0.1,0-0.1,0
		c0.5-0.1,1-0.2,1.6-0.3c-0.1,0-0.2,0.1-0.3,0.1C111.7,230.6,111.5,230.7,111.3,230.7z M113.2,230.2c-0.2,0.1-0.4,0.1-0.6,0.2
		c-0.1,0-0.1,0-0.2,0.1c0.5-0.1,1-0.3,1.5-0.5c0,0,0,0-0.1,0C113.6,230.1,113.4,230.2,113.2,230.2z M115.9,229.2
		c0.2-0.1,0.3-0.2,0.5-0.3c-0.1,0.1-0.2,0.1-0.3,0.2C116,229.1,115.9,229.1,115.9,229.2z M117.9,228.1c0.2-0.1,0.3-0.2,0.5-0.3
		c-0.1,0-0.1,0.1-0.1,0.1C118.1,228,118,228,117.9,228.1z M120.2,226.5c0.1-0.1,0.2-0.2,0.3-0.3
		C120.5,226.3,120.4,226.4,120.2,226.5C120.3,226.5,120.2,226.5,120.2,226.5z M122.2,224.8c-0.1,0.1-0.2,0.1-0.3,0.2
		c0.3-0.2,0.5-0.5,0.8-0.8c0,0,0,0-0.1,0.1C122.5,224.5,122.3,224.7,122.2,224.8z M123.1,223.9c-0.1,0.1-0.2,0.2-0.3,0.3
		c0.4-0.4,0.8-0.8,1.1-1.3c-0.1,0.1-0.2,0.3-0.4,0.4C123.4,223.6,123.2,223.7,123.1,223.9z M124.6,222.1c-0.1,0.1-0.2,0.3-0.3,0.4
		c-0.1,0.1-0.2,0.3-0.3,0.4c0,0,0,0,0,0c0.4-0.4,0.7-0.9,1-1.4c0,0-0.1,0.1-0.1,0.1C124.8,221.9,124.7,222,124.6,222.1z
		 M126.2,219.5c-0.1,0.1-0.1,0.2-0.2,0.4c0,0,0,0,0,0.1c0,0,0,0,0,0.1c0,0,0,0,0,0.1c0,0,0,0,0,0.1c-0.1,0.1-0.1,0.2-0.2,0.3
		c-0.1,0.1-0.1,0.2-0.2,0.3c-0.1,0.1-0.1,0.2-0.2,0.3c-0.1,0.1-0.1,0.2-0.2,0.3c0,0.1-0.1,0.1-0.2,0.2c0.3-0.5,0.6-1,0.9-1.5
		c0.2-0.4,0.5-0.9,0.7-1.3c0,0.1-0.1,0.2-0.2,0.3C126.4,219.2,126.3,219.3,126.2,219.5z M126.9,218c0,0.1-0.1,0.2-0.2,0.3
		c-0.1,0.1-0.1,0.2-0.2,0.4c0,0,0,0,0,0c0.2-0.4,0.4-0.8,0.5-1.3c0,0.1,0,0.1-0.1,0.2C127,217.8,127,217.9,126.9,218z M127.4,216.6
		c0,0.1-0.1,0.2-0.1,0.4c0,0.1-0.1,0.2-0.1,0.3c0,0,0,0.1,0,0.1c0.2-0.4,0.3-0.8,0.4-1.2c0,0,0,0,0,0.1
		C127.5,216.4,127.5,216.5,127.4,216.6z M127.6,215.9c0,0.1,0,0.2-0.1,0.3c0.1-0.4,0.2-0.8,0.3-1.2c0,0.1,0,0.2,0,0.2
		c0,0.1-0.1,0.2-0.1,0.4C127.7,215.7,127.6,215.8,127.6,215.9z M127.9,214.5c0,0.1,0,0.2-0.1,0.4c0,0,0,0.1,0,0.1
		c0.1-0.4,0.1-0.8,0.2-1.2c0,0.1,0,0.2,0,0.4C128,214.2,127.9,214.4,127.9,214.5z M128,213.7c0-0.4,0.1-0.8,0.1-1.2
		c0,0.1,0,0.2,0,0.4c0,0.1,0,0.3,0,0.4C128.1,213.4,128,213.6,128,213.7C128,213.7,128,213.7,128,213.7z M128,211.1
		c0,0.2,0,0.3,0,0.5c0,0.2,0,0.3,0,0.5c0,0.2,0,0.3,0,0.5c0,0,0,0,0,0c0-0.8,0-1.6-0.2-2.3v0c0,0,0,0.1,0,0.1c0,0,0,0.1,0,0.1
		c0,0,0,0.1,0,0.1c0,0,0,0.1,0,0.1C128,210.7,128,210.9,128,211.1z M147.4,196.6C147.4,196.6,147.4,196.6,147.4,196.6
		c-0.1-0.1-0.3-0.1-0.4-0.2C147.1,196.4,147.3,196.5,147.4,196.6c0.1,0.1,0.3,0.1,0.4,0.2c-0.1,0-0.1,0-0.2-0.1
		C147.6,196.6,147.5,196.6,147.4,196.6z M147.9,196.8C147.9,196.8,147.9,196.8,147.9,196.8c0.1,0,0.2,0.1,0.4,0.1c0,0-0.1,0-0.1,0
		C148,196.8,148,196.8,147.9,196.8z M148.4,197C148.4,197,148.3,197,148.4,197c0.1,0,0.2,0.1,0.3,0.1c0,0-0.1,0-0.1,0
		C148.5,197,148.4,197,148.4,197z M150.7,197.6c-0.1,0-0.2,0-0.3-0.1c-0.1,0-0.2,0-0.3-0.1c-0.1,0-0.2-0.1-0.3-0.1c0,0-0.1,0-0.1,0
		c0,0-0.1,0-0.1,0c0,0-0.1,0-0.1,0c0,0-0.1,0-0.1,0c-0.1,0-0.1,0-0.2-0.1c-0.1,0-0.1,0-0.2-0.1c0,0,0,0,0,0c0.2,0.1,0.3,0.1,0.5,0.1
		c0.7,0.2,1.5,0.4,2.2,0.5c-0.1,0-0.2,0-0.3,0C151,197.7,150.9,197.6,150.7,197.6z M153.2,197.9c-0.1,0-0.2,0-0.4,0s-0.2,0-0.4,0
		c-0.1,0-0.2,0-0.3,0c-0.1,0-0.2,0-0.3,0c-0.1,0-0.2,0-0.3,0c0,0,0,0,0,0c0.7,0.1,1.5,0.2,2.2,0.2c-0.1,0-0.1,0-0.2,0
		C153.4,197.9,153.3,197.9,153.2,197.9z M155.4,197.8c-0.1,0-0.3,0-0.4,0c-0.1,0-0.3,0-0.4,0c-0.1,0-0.3,0-0.4,0c-0.1,0-0.3,0-0.4,0
		c-0.1,0-0.1,0-0.2,0c0.7,0,1.5,0,2.2-0.1c0,0-0.1,0-0.1,0C155.7,197.8,155.5,197.8,155.4,197.8z M157.1,197.6
		c-0.1,0-0.3,0.1-0.4,0.1c-0.1,0-0.3,0-0.4,0.1c-0.1,0-0.2,0-0.3,0c0.7-0.1,1.5-0.2,2.2-0.4c-0.2,0-0.3,0.1-0.5,0.1
		C157.5,197.5,157.3,197.5,157.1,197.6z M158.8,197.2c-0.2,0.1-0.4,0.1-0.5,0.2c0,0,0,0,0,0c0.6-0.2,1.1-0.4,1.7-0.6
		c-0.2,0.1-0.4,0.2-0.6,0.2C159.1,197,158.9,197.1,158.8,197.2z M160.7,196.4c0.4-0.2,0.8-0.4,1.2-0.6c-0.2,0.1-0.5,0.3-0.7,0.4
		C161,196.3,160.8,196.4,160.7,196.4z M162.6,195.5c0.4-0.2,0.8-0.5,1.2-0.8c-0.3,0.2-0.6,0.4-0.9,0.6
		C162.8,195.4,162.7,195.5,162.6,195.5z M166.3,192.7C166.3,192.8,166.2,192.8,166.3,192.7c-0.1,0.1-0.1,0.1-0.2,0.2
		c0,0-0.1,0.1-0.1,0.1c0,0-0.1,0.1-0.1,0.1c-0.5,0.4-0.9,0.8-1.5,1.2c0,0-0.1,0.1-0.1,0.1c0.6-0.4,1.1-0.8,1.6-1.3
		c0.3-0.3,0.6-0.6,0.9-0.9c-0.1,0.1-0.1,0.1-0.2,0.2C166.5,192.5,166.4,192.6,166.3,192.7z M167.3,191.6c-0.1,0.1-0.2,0.3-0.3,0.4
		c0,0-0.1,0.1-0.1,0.1c0.3-0.3,0.5-0.6,0.8-1c0,0,0,0.1-0.1,0.1C167.5,191.3,167.4,191.4,167.3,191.6z M168.1,190.5
		c-0.1,0.1-0.1,0.2-0.2,0.3c0,0.1-0.1,0.1-0.1,0.2c0.2-0.3,0.5-0.7,0.7-1c0,0.1-0.1,0.1-0.1,0.2
		C168.3,190.3,168.2,190.4,168.1,190.5z M169.4,188.1c0,0.1-0.1,0.2-0.1,0.3c0,0.1-0.1,0.2-0.1,0.3c0,0,0,0,0,0.1c0,0,0,0,0,0.1
		c0,0,0,0,0,0.1c0,0,0,0,0,0.1c0,0.1-0.1,0.2-0.1,0.3c0,0.1-0.1,0.2-0.1,0.3c0,0.1-0.1,0.2-0.1,0.3c0,0.1-0.1,0.2-0.1,0.2
		c0,0,0,0.1-0.1,0.1c0.2-0.4,0.4-0.7,0.6-1.1c0.2-0.4,0.3-0.8,0.5-1.1c0,0,0,0,0,0.1C169.5,187.9,169.5,188,169.4,188.1z
		 M169.8,186.9c0,0.1-0.1,0.2-0.1,0.3c0,0.1-0.1,0.2-0.1,0.3c0,0.1,0,0.1-0.1,0.2c0.1-0.4,0.3-0.8,0.3-1.1c0,0,0,0,0,0.1
		C169.9,186.7,169.8,186.8,169.8,186.9z M170.1,185.5c0,0.1,0,0.2,0,0.3c0,0.1,0,0.2-0.1,0.3c0,0.1,0,0.2-0.1,0.3c0,0.1,0,0.1,0,0.2
		C170,186.1,170.1,185.8,170.1,185.5C170.1,185.4,170.1,185.4,170.1,185.5z M158.1,158c0.7-0.3,1.3-0.6,1.9-1
		c-0.3,0.2-0.6,0.4-0.9,0.5C158.7,157.7,158.4,157.8,158.1,158z M160,156.9C160,156.9,160,156.9,160,156.9c0.6-0.4,1.1-0.8,1.6-1.2
		c-0.3,0.2-0.5,0.4-0.8,0.6C160.6,156.6,160.3,156.8,160,156.9z M162.6,154.8c-0.1,0.1-0.2,0.2-0.3,0.3c-0.1,0.1-0.2,0.2-0.3,0.3
		c-0.1,0.1-0.2,0.2-0.3,0.3c0,0,0,0,0,0c0.5-0.4,1-0.9,1.4-1.4c-0.1,0.1-0.1,0.1-0.2,0.2C162.8,154.6,162.7,154.7,162.6,154.8z
		 M164.7,151.4C164.7,151.5,164.7,151.5,164.7,151.4c0,0.1,0,0.1,0,0.1c0,0,0,0,0,0c0,0,0,0.1,0,0.1c0,0.1-0.1,0.2-0.1,0.2
		c0,0.1-0.1,0.2-0.1,0.2c0,0.1-0.1,0.2-0.1,0.2c0,0.1-0.1,0.2-0.1,0.2c0,0,0,0,0,0c0,0,0,0,0,0c0,0,0,0,0,0c0,0,0,0,0,0
		c0,0.1-0.1,0.1-0.1,0.2c0,0.1-0.1,0.1-0.1,0.2c0,0.1-0.1,0.1-0.1,0.2s-0.1,0.1-0.1,0.2c-0.1,0.1-0.1,0.2-0.2,0.3
		c-0.1,0.1-0.1,0.2-0.2,0.3c-0.1,0.1-0.1,0.2-0.2,0.3c0,0,0,0,0,0c0.4-0.5,0.8-1,1.1-1.6c0.3-0.5,0.6-1.1,0.7-1.6c0,0,0,0.1,0,0.1
		C164.8,151.3,164.8,151.4,164.7,151.4z M165.2,149.5c0,0.1,0,0.1,0,0.2c0,0.1,0,0.2,0,0.2c0,0.1,0,0.1,0,0.2c0,0.1,0,0.1,0,0.2
		c0,0,0,0,0,0c0,0,0,0,0,0c0,0,0,0,0,0c0,0.1,0,0.1,0,0.2c0,0.1,0,0.1-0.1,0.2c0,0.1,0,0.1-0.1,0.2c0,0,0,0.1,0,0.1
		C165,150.5,165.1,150,165.2,149.5z M195.3,93c0-0.1,0-0.2,0-0.3c0,0,0-0.1,0-0.1c0,0,0,0.1,0,0.1c0,0.3,0.1,0.6,0.2,0.8
		c0,0,0,0,0,0C195.4,93.3,195.4,93.2,195.3,93z M195.6,94c-0.1-0.1-0.1-0.3-0.2-0.4c0.1,0.3,0.2,0.6,0.4,0.9
		C195.8,94.3,195.7,94.2,195.6,94z M199,97c-0.3-0.2-0.7-0.3-1-0.5c0,0,0,0,0,0C198.3,96.6,198.6,96.8,199,97C199,97,199,97,199,97z
		 M172.1,111.5c-0.2-0.1-0.5-0.2-0.7-0.4C171.7,111.3,171.9,111.4,172.1,111.5z M169.1,108.4c-0.1-0.2-0.1-0.3-0.2-0.5
		C168.9,108,169,108.2,169.1,108.4z M169.1,108.4c0,0.1,0,0.1,0.1,0.2c0,0,0,0,0,0C169.1,108.5,169.1,108.4,169.1,108.4z
		 M169.2,108.8c0.1,0.2,0.2,0.3,0.3,0.5c-0.1-0.1-0.1-0.2-0.2-0.3C169.3,108.9,169.3,108.8,169.2,108.8z M169.8,109.6
		c0.1,0.2,0.3,0.3,0.4,0.5c-0.1-0.1-0.2-0.2-0.3-0.3c0,0,0,0,0,0C169.8,109.7,169.8,109.7,169.8,109.6
		C169.8,109.6,169.8,109.6,169.8,109.6z M170.7,110.5c0,0-0.1-0.1-0.1-0.1c0.2,0.2,0.4,0.3,0.6,0.5c0,0-0.1-0.1-0.2-0.1
		c0,0-0.1-0.1-0.1-0.1C170.8,110.7,170.7,110.6,170.7,110.5z M173.4,112.1c-0.1,0-0.2-0.1-0.3-0.1c-0.1,0-0.2-0.1-0.3-0.1
		c0,0-0.1,0-0.1,0c0,0,0,0,0,0c0,0,0,0,0,0c-0.1,0-0.1,0-0.2-0.1c0,0,0,0,0,0c0.4,0.2,0.9,0.4,1.3,0.5c-0.1,0-0.1,0-0.2-0.1
		C173.6,112.2,173.5,112.2,173.4,112.1z M175.6,112.7C175.5,112.7,175.5,112.7,175.6,112.7c-0.1,0-0.2,0-0.2,0c-0.1,0-0.1,0-0.2,0
		c-0.1,0-0.1,0-0.2,0c-0.1,0-0.1,0-0.2,0c-0.1,0-0.1,0-0.2,0c-0.1,0-0.2,0-0.3-0.1c-0.1,0-0.2-0.1-0.3-0.1c-0.1,0-0.2-0.1-0.3-0.1
		c0,0-0.1,0-0.1,0c0.5,0.2,1,0.3,1.5,0.4c0.1,0,0.2,0.1,0.4,0.1C175.7,112.8,175.7,112.8,175.6,112.7
		C175.6,112.8,175.6,112.7,175.6,112.7z M175.8,112.8C175.8,112.8,175.8,112.8,175.8,112.8c0.1,0,0.2,0,0.3,0.1c0,0-0.1,0-0.1,0
		C175.9,112.8,175.9,112.8,175.8,112.8z M176.9,112.9C176.9,112.9,176.8,112.9,176.9,112.9C176.8,112.9,176.8,112.9,176.9,112.9
		C176.8,112.9,176.8,112.9,176.9,112.9c-0.2,0-0.3,0-0.3,0c-0.1,0-0.2,0-0.2,0c0,0-0.1,0-0.1,0c0.1,0,0.2,0,0.3,0
		C176.6,112.9,176.8,112.9,176.9,112.9c0.7,0.1,1.4,0.1,2.1,0.1l0,0C178.3,113,177.6,113,176.9,112.9
		C176.9,112.9,176.9,112.9,176.9,112.9z M177,136.6c-0.4-0.2-0.7-0.5-1-0.7c0,0,0,0,0,0C176.3,136.1,176.6,136.3,177,136.6
		C177,136.6,177,136.6,177,136.6z M175.6,135.5C175.6,135.5,175.6,135.5,175.6,135.5c-0.3-0.3-0.5-0.5-0.8-0.8c0,0,0,0,0,0
		C175,134.9,175.3,135.2,175.6,135.5z M173.6,132.6c-0.1-0.2-0.1-0.3-0.1-0.5c0-0.1-0.1-0.2-0.1-0.4c0.1,0.4,0.2,0.9,0.4,1.3
		c0.2,0.4,0.4,0.9,0.7,1.3c0,0,0,0,0,0c-0.3-0.4-0.6-0.8-0.7-1.3C173.7,132.9,173.6,132.7,173.6,132.6z M179.2,137.6
		c-0.6-0.2-1.2-0.5-1.8-0.8c0,0,0,0,0,0C178,137.1,178.6,137.4,179.2,137.6c0.1,0,0.2,0.1,0.3,0.1c0,0-0.1,0-0.1,0
		C179.3,137.7,179.3,137.7,179.2,137.6z M179.6,137.8C179.6,137.8,179.6,137.8,179.6,137.8c0.1,0,0.2,0.1,0.3,0.1c0,0-0.1,0-0.1,0
		C179.8,137.8,179.7,137.8,179.6,137.8z M180.1,137.9C180.1,137.9,180,137.9,180.1,137.9c0,0,0.2,0,0.3,0.1c0,0-0.1,0-0.1,0
		C180.2,137.9,180.1,137.9,180.1,137.9z M182,138.3c-0.1,0-0.2,0-0.3,0c-0.1,0-0.2,0-0.3,0c-0.1,0-0.2,0-0.3-0.1c0,0-0.1,0-0.1,0
		c0,0-0.1,0-0.1,0c0,0-0.1,0-0.1,0c0,0-0.1,0-0.1,0c-0.1,0-0.1,0-0.2,0c-0.1,0-0.1,0-0.2,0c0,0,0,0,0,0c0.1,0,0.3,0.1,0.4,0.1
		c0.6,0.1,1.2,0.2,1.8,0.3c-0.1,0-0.2,0-0.3,0C182.2,138.4,182.1,138.3,182,138.3z M184,138.5c-0.1,0-0.2,0-0.3,0
		c-0.1,0-0.2,0-0.3,0c-0.1,0-0.2,0-0.3,0c-0.1,0-0.2,0-0.3,0c-0.1,0-0.2,0-0.3,0c0.6,0.1,1.2,0.1,1.8,0.1c0,0-0.1,0-0.1,0
		C184.2,138.5,184.1,138.5,184,138.5z M185.8,138.5c-0.1,0-0.2,0-0.3,0c-0.1,0-0.2,0-0.3,0c-0.1,0-0.2,0-0.3,0c-0.1,0-0.2,0-0.3,0
		c0,0-0.1,0-0.1,0c0.6,0,1.2,0,1.8-0.1c0,0-0.1,0-0.1,0C186,138.4,185.9,138.4,185.8,138.5z M187.2,138.3c-0.1,0-0.2,0-0.3,0.1
		c-0.1,0-0.2,0-0.3,0c-0.1,0-0.1,0-0.2,0c0.6-0.1,1.2-0.2,1.8-0.3c-0.1,0-0.3,0.1-0.4,0.1C187.5,138.2,187.3,138.3,187.2,138.3z
		 M188.5,138c-0.1,0-0.3,0.1-0.4,0.1c0.5-0.1,0.9-0.2,1.3-0.4c-0.2,0-0.3,0.1-0.5,0.2C188.8,138,188.6,138,188.5,138z M190,137.6
		c0.3-0.1,0.6-0.2,0.9-0.4c-0.2,0.1-0.4,0.2-0.6,0.3C190.2,137.5,190.1,137.5,190,137.6z M191.5,136.9c0.3-0.2,0.6-0.3,0.9-0.5
		c-0.2,0.1-0.5,0.3-0.7,0.4C191.6,136.9,191.5,136.9,191.5,136.9z M194.2,135.1C194.2,135.2,194.2,135.2,194.2,135.1
		c-0.1,0.1-0.1,0.1-0.1,0.1c0,0,0,0-0.1,0c0,0,0,0-0.1,0c-0.3,0.3-0.7,0.6-1.1,0.8c0,0-0.1,0-0.1,0.1c0.4-0.3,0.8-0.6,1.2-0.9
		c0.2-0.2,0.4-0.4,0.6-0.6c-0.1,0.1-0.1,0.1-0.2,0.2C194.4,135,194.3,135.1,194.2,135.1z M195,134.4c-0.1,0.1-0.2,0.2-0.2,0.3
		c0,0,0,0,0,0c0.2-0.2,0.4-0.4,0.6-0.6c0,0,0,0-0.1,0.1C195.1,134.2,195.1,134.3,195,134.4z M195.5,133.7c-0.1,0.1-0.1,0.1-0.2,0.2
		c0,0-0.1,0.1-0.1,0.1c0.2-0.2,0.3-0.4,0.5-0.7c0,0-0.1,0.1-0.1,0.1C195.6,133.6,195.6,133.6,195.5,133.7z M196.5,131.9
		C196.5,131.9,196.5,131.9,196.5,131.9c0,0.1,0,0.1-0.1,0.2c0,0.1,0,0.1-0.1,0.2c0,0.1-0.1,0.1-0.1,0.2c0,0,0,0,0,0c0,0,0,0,0,0
		c0,0,0,0,0,0c0,0,0,0,0,0c0,0.1-0.1,0.1-0.1,0.2c0,0.1-0.1,0.1-0.1,0.2s-0.1,0.1-0.1,0.2c0,0.1-0.1,0.1-0.1,0.2c0,0,0,0,0,0.1
		c0.1-0.2,0.3-0.5,0.4-0.7C196.3,132.3,196.4,132.1,196.5,131.9C196.5,131.8,196.5,131.9,196.5,131.9
		C196.5,131.9,196.5,131.9,196.5,131.9C196.5,131.9,196.5,131.9,196.5,131.9z M196.7,131.2C196.7,131.2,196.7,131.2,196.7,131.2
		C196.7,131.3,196.6,131.3,196.7,131.2c0,0.1,0,0.2-0.1,0.3s0,0.1-0.1,0.2c0,0,0,0.1,0,0.1c0.1-0.3,0.1-0.5,0.2-0.8c0,0,0,0,0,0.1
		C196.7,131.2,196.7,131.2,196.7,131.2C196.7,131.2,196.7,131.2,196.7,131.2z M196.8,130.6C196.8,130.6,196.8,130.6,196.8,130.6
		C196.8,130.6,196.8,130.6,196.8,130.6C196.8,130.6,196.8,130.6,196.8,130.6c0,0.1,0,0.1,0,0.2c0,0.1,0,0.1,0,0.2c0,0,0,0.1,0,0.1
		c0-0.2,0.1-0.5,0.1-0.7c0,0,0,0.1,0,0.1C196.8,130.4,196.8,130.5,196.8,130.6z M196.8,130.1C196.8,130.1,196.8,130.2,196.8,130.1
		c0,0.1,0,0.1,0,0.2C196.8,130.2,196.8,130.1,196.8,130.1c0-0.1,0-0.2,0-0.3L196.8,130.1z M186.9,110.8c-0.2,0.1-0.4,0.3-0.7,0.4
		c0.5-0.3,0.9-0.5,1.3-0.8c0,0,0,0,0,0C187.3,110.5,187.1,110.6,186.9,110.8z M188.2,109.7c-0.1,0.1-0.1,0.1-0.2,0.2
		c-0.1,0.1-0.2,0.1-0.2,0.2c-0.1,0.1-0.2,0.1-0.2,0.2c0.4-0.3,0.7-0.6,1-1c0,0-0.1,0.1-0.1,0.1C188.4,109.6,188.3,109.6,188.2,109.7
		z M189.7,107.4c0,0.1,0,0.1-0.1,0.2c0,0,0,0.1,0,0.1c0,0,0,0,0,0c0,0,0,0,0,0c0,0,0,0,0,0c0,0.1,0,0.1-0.1,0.2c0,0.1,0,0.1-0.1,0.2
		c0,0.1-0.1,0.1-0.1,0.2c0,0,0,0,0,0c0,0,0,0,0,0c0,0,0,0,0,0c0,0,0,0,0,0c0,0-0.1,0.1-0.1,0.1c0,0-0.1,0.1-0.1,0.1
		c0,0-0.1,0.1-0.1,0.1c0,0-0.1,0.1-0.1,0.1c0,0.1-0.1,0.1-0.1,0.2c0,0.1-0.1,0.1-0.1,0.2c0,0.1-0.1,0.1-0.1,0.2c0,0,0,0,0,0
		c0.3-0.3,0.6-0.7,0.8-1.1c0.2-0.4,0.4-0.8,0.5-1.1c0,0,0,0.1,0,0.1C189.8,107.3,189.8,107.3,189.7,107.4z M190,106
		C190,106,190,106.1,190,106c0,0.1,0,0.2,0,0.2c0,0,0,0,0,0c0,0,0,0.1,0,0.1c0,0.1,0,0.1,0,0.2c0,0,0,0,0,0c0,0,0,0,0,0c0,0,0,0,0,0
		c0,0,0,0.1,0,0.1c0,0.1,0,0.1,0,0.2c0,0.1,0,0.1,0,0.2c0,0,0,0.1,0,0.1c0,0,0,0,0,0c0,0,0,0,0,0c0,0,0,0,0,0c0,0,0,0,0,0
		c0.1-0.3,0.1-0.7,0.1-1C190,106.1,190,106.1,190,106z M200.9,97.7c-0.6-0.2-1.1-0.4-1.6-0.6c0,0,0,0,0,0
		C199.8,97.3,200.3,97.5,200.9,97.7c0.1,0,0.2,0.1,0.3,0.1c0,0-0.1,0-0.1,0C201,97.7,200.9,97.7,200.9,97.7z M201.2,97.8
		C201.2,97.8,201.2,97.8,201.2,97.8c0.1,0,0.2,0,0.3,0.1c0,0-0.1,0-0.1,0C201.3,97.8,201.3,97.8,201.2,97.8z M201.6,97.9
		C201.6,97.9,201.5,97.9,201.6,97.9c0,0,0.1,0,0.2,0.1c0,0-0.1,0-0.1,0C201.7,97.9,201.6,97.9,201.6,97.9z M203.3,98.2
		c-0.1,0-0.2,0-0.2,0c-0.1,0-0.2,0-0.2,0c-0.1,0-0.2,0-0.2,0c0,0-0.1,0-0.1,0c0,0-0.1,0-0.1,0c0,0-0.1,0-0.1,0c0,0-0.1,0-0.1,0
		c-0.1,0-0.1,0-0.2,0c-0.1,0-0.1,0-0.1,0c0,0,0,0,0,0c0.1,0,0.2,0,0.3,0.1c0.5,0.1,1,0.2,1.5,0.2c-0.1,0-0.1,0-0.2,0
		C203.4,98.2,203.3,98.2,203.3,98.2z M204.9,98.3c-0.1,0-0.2,0-0.2,0c-0.1,0-0.2,0-0.2,0c-0.1,0-0.2,0-0.2,0c-0.1,0-0.2,0-0.2,0
		c-0.1,0-0.2,0-0.2,0c0,0,0,0,0,0c0.5,0,1,0.1,1.5,0.1c0,0-0.1,0-0.1,0C205.1,98.3,205,98.3,204.9,98.3z M206.4,98.2
		c-0.1,0-0.2,0-0.3,0c-0.1,0-0.2,0-0.3,0c-0.1,0-0.2,0-0.3,0c-0.1,0-0.2,0-0.3,0c0,0-0.1,0-0.1,0c0.5,0,1,0,1.5-0.1c0,0,0,0,0,0
		C206.6,98.2,206.5,98.2,206.4,98.2z M207.5,98.1c-0.1,0-0.2,0-0.3,0c-0.1,0-0.2,0-0.3,0c-0.1,0-0.1,0-0.2,0c0.5,0,1-0.1,1.4-0.2
		c-0.1,0-0.2,0-0.3,0C207.8,98.1,207.7,98.1,207.5,98.1z M208.6,97.9c-0.1,0-0.2,0-0.4,0.1c0,0,0,0-0.1,0c0.4-0.1,0.7-0.2,1.1-0.3
		c-0.1,0-0.2,0.1-0.3,0.1C208.8,97.9,208.7,97.9,208.6,97.9z M209.8,97.6c0.3-0.1,0.5-0.2,0.7-0.3c-0.1,0.1-0.3,0.1-0.4,0.2
		C210,97.6,209.9,97.6,209.8,97.6z M211,97.2c0.3-0.1,0.5-0.2,0.7-0.3c-0.2,0.1-0.3,0.2-0.5,0.3C211.1,97.2,211,97.2,211,97.2z
		 M213.2,95.9C213.2,95.9,213.2,96,213.2,95.9c-0.1,0.1-0.1,0.1-0.1,0.1c0,0,0,0-0.1,0c0,0,0,0-0.1,0c-0.3,0.2-0.6,0.4-0.9,0.6
		c0,0-0.1,0-0.1,0c0.3-0.2,0.7-0.4,0.9-0.6c0.2-0.1,0.4-0.3,0.5-0.4c0,0-0.1,0-0.1,0.1C213.4,95.8,213.3,95.9,213.2,95.9z
		 M213.8,95.4c-0.1,0.1-0.1,0.1-0.2,0.2c0,0-0.1,0-0.1,0.1c0.2-0.1,0.3-0.3,0.5-0.5c0,0,0,0,0,0C213.9,95.3,213.9,95.3,213.8,95.4z
		 M214.2,94.9c0,0.1-0.1,0.1-0.1,0.2c0,0-0.1,0.1-0.1,0.1c0.1-0.2,0.3-0.3,0.4-0.5c0,0,0,0,0,0.1C214.3,94.8,214.3,94.9,214.2,94.9z
		 M214.9,93.8C214.9,93.8,214.9,93.8,214.9,93.8C214.9,93.8,214.9,93.8,214.9,93.8C214.9,93.8,214.9,93.8,214.9,93.8
		c0,0.1,0,0.1-0.1,0.1c0,0,0,0.1-0.1,0.1c0,0,0,0,0,0s0,0,0,0c0,0,0,0,0,0c0,0,0,0,0,0c0,0,0,0.1-0.1,0.1c0,0,0,0.1-0.1,0.1
		s0,0.1-0.1,0.1c0,0,0,0.1-0.1,0.1c0,0,0,0,0,0.1c0.1-0.2,0.2-0.3,0.3-0.5c0.1-0.2,0.2-0.4,0.2-0.5c0,0,0,0,0,0
		C214.9,93.7,214.9,93.7,214.9,93.8z M215,93.2c0,0,0,0.1,0,0.1c0,0,0,0,0,0c0,0,0,0,0,0c0,0,0,0,0,0c0,0,0,0.1,0,0.1
		c0,0,0,0.1,0,0.1c0.1-0.2,0.1-0.3,0.1-0.5c0,0,0,0,0,0C215,93.1,215,93.2,215,93.2z M215.1,92.9C215.1,92.9,215.1,92.9,215.1,92.9
		C215.1,92.9,215.1,93,215.1,92.9c0,0.1,0,0.1,0,0.1c0,0,0,0,0,0c0,0,0,0,0,0c0,0,0,0,0,0C215.1,93,215.1,92.9,215.1,92.9
		C215.1,92.9,215.1,92.9,215.1,92.9z"/>
	<path class="st0" d="M190,106C190,106,190,106,190,106c0,0,0-0.1,0-0.1c0,0,0,0,0,0c0-0.2,0-0.3,0-0.5c0-0.1-0.1-0.3-0.1-0.4
		C189.9,105.3,190,105.7,190,106z"/>
	<path class="st0" d="M190,106.2C190,106.2,190,106.2,190,106.2c0-0.1,0-0.1,0-0.1c0,0,0-0.1,0-0.1c0,0,0,0.1,0,0.1
		C190,106.2,190,106.2,190,106.2z"/>
	<path class="st0" d="M189.8,104.9C189.8,104.9,189.8,104.9,189.8,104.9c-0.1-0.2-0.1-0.4-0.2-0.5c0,0,0,0,0,0
		c-0.1-0.1-0.1-0.3-0.2-0.4C189.6,104.2,189.7,104.6,189.8,104.9z"/>
	<polygon class="st0" points="169.6,104.2 169.6,104.2 169.6,104.2 	"/>
	<polygon class="st0" points="184.8,111.9 187.5,122.3 184.9,112.4 184.8,111.9 	"/>
	<path class="st0" d="M196.8,130.1l0-0.3C196.8,129.9,196.8,130,196.8,130.1C196.8,130.1,196.8,130.1,196.8,130.1z"/>
	<polygon class="st0" points="196.8,129.5 196.8,129.5 196.8,129.5 	"/>
	<path class="st0" d="M51.2,144.2C51.2,144.2,51.1,144.1,51.2,144.2C51.1,144.1,51.1,144.1,51.2,144.2c0.1,0,0.2,0.2,0.3,0.3
		C51.4,144.4,51.3,144.3,51.2,144.2z"/>
	<path class="st0" d="M52.1,145.1C52.1,145.1,52.1,145,52.1,145.1C52,145,52,145,52.1,145.1c0,0.1,0.1,0.2,0.2,0.4
		C52.2,145.3,52.2,145.2,52.1,145.1z"/>
	<path class="st0" d="M52.8,146.4c0-0.1-0.1-0.2-0.1-0.3c0,0,0,0,0,0c0,0,0,0,0-0.1c0,0.1,0,0.2,0.1,0.2
		C52.7,146.3,52.7,146.4,52.8,146.4z"/>
	<path class="st0" d="M50.3,143.6c-0.1-0.1-0.2-0.2-0.4-0.2c0,0,0,0,0,0c0,0,0,0,0,0C50,143.4,50.2,143.5,50.3,143.6z"/>
	<path class="st0" d="M165.2,148.2c0,0.1,0,0.1,0,0.2C165.2,148.4,165.2,148.3,165.2,148.2c0,0,0-0.1,0-0.2c0,0,0,0,0,0
		c0-0.1,0-0.1,0-0.2c0,0.1,0,0.1,0,0.2C165.2,148.2,165.2,148.2,165.2,148.2z"/>
	<path class="st0" d="M164.8,146.4c0.2,0.5,0.3,1,0.4,1.4c0-0.1,0-0.1,0-0.2c0-0.1-0.1-0.3-0.1-0.4c0-0.1,0-0.2-0.1-0.3
		c0,0,0-0.1,0-0.1C164.9,146.7,164.9,146.6,164.8,146.4z"/>
	<polygon class="st0" points="141,146.9 141,146.9 141,146.9 	"/>
	<path class="st0" d="M139.6,150.4C139.6,150.4,139.6,150.4,139.6,150.4c0,0.2,0,0.4-0.1,0.5c0,0,0,0,0,0.1c0,0.2,0,0.3,0,0.5
		c0,0,0,0,0,0.1c0,0.1,0,0.1,0,0.2C139.5,151.3,139.5,150.9,139.6,150.4z"/>
	<path class="st0" d="M139.7,152.7C139.7,152.7,139.7,152.7,139.7,152.7C139.6,152.7,139.6,152.7,139.7,152.7
		C139.6,152.7,139.6,152.7,139.7,152.7c0-0.1,0-0.2,0-0.2c0-0.2-0.1-0.4-0.1-0.7c0,0.1,0,0.1,0,0.2c0,0,0,0,0,0c0,0.2,0,0.4,0.1,0.5
		c0,0,0,0,0,0C139.6,152.7,139.6,152.7,139.7,152.7C139.7,152.8,139.7,152.8,139.7,152.7z"/>
	<polygon class="st0" points="148.4,159.5 148.4,159.5 148.4,159.5 	"/>
	<path class="st0" d="M167.8,177.4c-0.1-0.1-0.2-0.2-0.3-0.3c-0.1-0.1-0.2-0.2-0.3-0.3C167.4,177,167.6,177.3,167.8,177.4
		C167.8,177.5,167.8,177.5,167.8,177.4z"/>
	<path class="st0" d="M169.5,180.1c0-0.1-0.1-0.2-0.1-0.3c0-0.1-0.1-0.2-0.2-0.3c0.1,0.3,0.3,0.6,0.4,0.9
		C169.5,180.3,169.5,180.2,169.5,180.1z"/>
	<path class="st0" d="M169.9,181.6c0-0.1-0.1-0.3-0.1-0.4c0,0,0-0.1,0-0.1c0.1,0.3,0.2,0.6,0.2,1C170,181.9,170,181.7,169.9,181.6z"
		/>
	<path class="st0" d="M168.7,178.6c0-0.1-0.1-0.1-0.2-0.2c-0.1-0.1-0.1-0.2-0.2-0.3c0.2,0.3,0.4,0.5,0.5,0.8
		C168.8,178.8,168.7,178.7,168.7,178.6z"/>
	<path class="st0" d="M170.2,183.4C170.2,183.4,170.2,183.4,170.2,183.4c0-0.1,0-0.1,0-0.1c0,0,0,0,0,0c0,0,0,0,0,0
		c0-0.1,0-0.2,0-0.2v0c0-0.1,0-0.2,0-0.3c0,0.1,0,0.2,0,0.3C170.2,183.1,170.2,183.3,170.2,183.4z"/>
	<path class="st0" d="M165.1,175.2C165.1,175.2,165.1,175.2,165.1,175.2c-0.3-0.2-0.6-0.3-1-0.5c0.4,0.2,0.7,0.4,1.1,0.6
		C165.2,175.2,165.1,175.2,165.1,175.2z"/>
	<path class="st0" d="M163.6,174.4C163.6,174.4,163.5,174.4,163.6,174.4C163.5,174.4,163.5,174.4,163.6,174.4
		c-0.6-0.3-1.2-0.5-1.8-0.6C162.4,173.9,163,174.2,163.6,174.4z"/>
	<path class="st0" d="M141.8,183.2C141.8,183.3,141.8,183.3,141.8,183.2C141.8,183.3,141.8,183.3,141.8,183.2
		C141.8,183.3,141.8,183.2,141.8,183.2C141.8,183.2,141.8,183.2,141.8,183.2z"/>
	<path class="st0" d="M141.6,184c-0.1,0.4-0.3,0.8-0.3,1.2c0,0,0,0.1,0,0.1C141.3,184.9,141.4,184.5,141.6,184z"/>
	<path class="st0" d="M141.1,186.2c0,0.3-0.1,0.7-0.1,1c0,0,0,0,0,0c0,0.1,0,0.1,0,0.2C141.1,187,141.1,186.6,141.1,186.2z"/>
	<path class="st0" d="M141.3,189.3C141.3,189.3,141.3,189.3,141.3,189.3C141.3,189.3,141.3,189.3,141.3,189.3c0-0.2,0-0.3-0.1-0.4
		c0-0.1,0-0.2,0-0.3c0-0.1,0-0.2,0-0.3c0,0.3,0,0.6,0.1,0.8l0,0c0,0,0,0.1,0,0.1C141.3,189.2,141.3,189.3,141.3,189.3z"/>
	<path class="st0" d="M81.1,190.4c-0.1-0.1-0.1-0.1-0.2-0.2c0,0,0,0,0,0c0.2,0.2,0.3,0.3,0.5,0.5C81.3,190.6,81.2,190.5,81.1,190.4z
		"/>
	<path class="st0" d="M83.2,193.7c0-0.1-0.1-0.2-0.1-0.4c0-0.1-0.1-0.2-0.1-0.3c0,0.1,0.1,0.2,0.1,0.3
		C83.1,193.5,83.1,193.6,83.2,193.7z"/>
	<path class="st0" d="M83.1,193.5L83.1,193.5C83.1,193.4,83.1,193.4,83.1,193.5C83.1,193.4,83.1,193.4,83.1,193.5z"/>
	<path class="st0" d="M83.2,193.6L83.2,193.6C83.1,193.6,83.1,193.6,83.2,193.6C83.2,193.6,83.2,193.6,83.2,193.6z"/>
	<path class="st0" d="M82.3,191.8c0-0.1-0.1-0.1-0.1-0.2c0,0-0.1-0.1-0.1-0.1c0.1,0.2,0.3,0.4,0.4,0.6
		C82.4,192.1,82.3,192,82.3,191.8z"/>
	<path class="st0" d="M83.3,193.9L83.3,193.9C83.3,193.9,83.3,193.9,83.3,193.9C83.3,193.9,83.3,193.9,83.3,193.9z"/>
	<path class="st0" d="M83.3,193.9l0-0.1C83.2,193.8,83.2,193.8,83.3,193.9C83.2,193.9,83.3,193.9,83.3,193.9z"/>
	<path class="st0" d="M79.8,189.5c-0.2-0.1-0.3-0.2-0.4-0.3c0,0,0,0,0,0c0,0-0.1,0-0.1,0C79.5,189.3,79.6,189.4,79.8,189.5z"/>
	<path class="st0" d="M227,51.2c0-12.4-9.6-22.5-21.4-22.5c-11.8,0-21.4,10.1-21.4,22.5c0,6.2,2.4,11.8,6.3,15.9h0l0.1,0.1L205.6,83
		l15.1-15.8l0.1-0.1h0C224.6,63,227,57.4,227,51.2z M205.6,58.7c-4.7,0-8.6-3.8-8.6-8.6s3.8-8.6,8.6-8.6s8.6,3.8,8.6,8.6
		S210.4,58.7,205.6,58.7z"/>
</g>
</svg>
