<?xml version="1.0" encoding="utf-8"?>
<!-- Generator: Adobe Illustrator 19.1.0, SVG Export Plug-In . SVG Version: 6.00 Build 0)  -->
<svg version="1.1" id="Layer_1" xmlns="http://www.w3.org/2000/svg" xmlns:xlink="http://www.w3.org/1999/xlink" x="0px" y="0px"
	 width="100px" height="100px" viewBox="0 0 100 100" style="enable-background:new 0 0 100 100;" xml:space="preserve">
<style type="text/css">
	.st0{fill:#FFFFFF;}
</style>
<g>
	<path class="st0" d="M85.5,21.6c-0.1-0.1-0.1-0.2-0.2-0.2c-0.1-0.1-0.2-0.1-0.2-0.2C76.1,12.2,63.7,6.7,50,6.7
		c-13.7,0-26.1,5.5-35.1,14.5c-0.1,0.1-0.2,0.1-0.2,0.2c-0.1,0.1-0.1,0.2-0.2,0.2C5.5,30.6,0,43,0,56.7c0,13.4,5.2,25.9,14.6,35.4
		l0,0c0,0,0,0,0,0c0.8,0.8,1.9,1.2,3,1.2s2.2-0.4,3-1.2l5.7-5.7c1.7-1.7,1.7-4.3,0-6c-1.7-1.7-4.4-1.7-6,0l-2.6,2.6
		C12.7,76.6,9.5,69,8.7,60.9h2.8c2.3,0,4.2-1.9,4.2-4.2s-1.9-4.2-4.2-4.2H8.7c0.8-8.3,4.1-15.8,9.1-21.9l1.4,1.4
		c0.8,0.8,1.9,1.2,3,1.2c1.1,0,2.2-0.4,3-1.2c1.7-1.7,1.7-4.3,0-6l-1.4-1.4c6.1-5,13.7-8.3,21.9-9.1v1.7c0,2.3,1.9,4.2,4.2,4.2
		s4.2-1.9,4.2-4.2v-1.7c8.3,0.8,15.8,4.1,21.9,9.1l-1.4,1.4c-1.7,1.7-1.7,4.3,0,6c0.8,0.8,1.9,1.2,3,1.2s2.2-0.4,3-1.2l1.4-1.4
		c5,6.1,8.3,13.7,9.1,21.9h-2.8c-2.3,0-4.2,1.9-4.2,4.2s1.9,4.2,4.2,4.2h2.8c-0.8,8.1-4,15.7-9.1,21.9l-2.5-2.5
		c-1.7-1.7-4.4-1.7-6,0c-1.7,1.7-1.7,4.3,0,6l5.7,5.7c0.8,0.8,1.9,1.2,3,1.2s2.2-0.4,3-1.2c9.4-9.4,14.6-22,14.6-35.4
		C100,43,94.5,30.6,85.5,21.6z"/>
	<path class="st0" d="M72.6,33L59.3,43.4l-6.1,4.7c-3.3-1.3-7.2-0.5-9.8,2.2c-3.5,3.7-3.3,9.4,0.3,12.9c3.7,3.5,9.4,3.3,12.9-0.3
		c2.6-2.7,3.2-6.7,1.8-9.9l4.4-6.3L72.6,33z"/>
</g>
</svg>
