<?xml version="1.0" encoding="utf-8"?>
<!-- Generator: Adobe Illustrator 20.1.0, SVG Export Plug-In . SVG Version: 6.00 Build 0)  -->
<svg version="1.1" id="Layer_1" xmlns="http://www.w3.org/2000/svg" xmlns:xlink="http://www.w3.org/1999/xlink" x="0px" y="0px"
	 width="250px" height="250px" viewBox="0 0 250 250" style="enable-background:new 0 0 250 250;" xml:space="preserve">
<style type="text/css">
	.st0{fill:#3BB0C9;}
</style>
<g>
	<g>
		<path class="st0" d="M167.3,153.5c0.2-0.8,0.2-1.7,0.2-2.6c0-13.9-21.1-24.8-48.1-24.8c-27,0-48.1,10.9-48.1,24.8
			c0,0.9,0.1,1.7,0.2,2.6c-0.2,0.8-0.2,1.7-0.2,2.6c0,2.5,0.7,4.9,1.9,7.1c-1.3,2.2-1.9,4.6-1.9,7.1c0,0.9,0.1,1.7,0.2,2.6
			c-0.2,0.8-0.2,1.7-0.2,2.6c0,2.5,0.7,4.9,1.9,7.1c-1.3,2.2-1.9,4.6-1.9,7.1c0,0.9,0.1,1.7,0.2,2.6c-0.2,0.8-0.2,1.7-0.2,2.6
			c0,13.9,21.1,24.8,48.1,24.8c27,0,48.1-10.9,48.1-24.8c0-0.9-0.1-1.7-0.2-2.6c0.2-0.8,0.2-1.7,0.2-2.6c0-2.5-0.7-4.9-1.9-7.1
			c1.3-2.2,1.9-4.6,1.9-7.1c0-0.9-0.1-1.7-0.2-2.6c0.2-0.8,0.2-1.7,0.2-2.6c0-2.5-0.7-4.9-1.9-7.1c1.3-2.2,1.9-4.6,1.9-7.1
			C167.5,155.2,167.4,154.4,167.3,153.5z M119.4,216.7c-21.1,0-38.8-7-43.7-16.5c7.5,8.5,24.1,14.3,43.7,14.3
			c19.7,0,36.2-5.8,43.7-14.3C158.3,209.7,140.5,216.7,119.4,216.7z M164.5,189.7c0,12-20.2,21.8-45.1,21.8
			c-24.9,0-45.1-9.8-45.1-21.8c0-1.5,0.3-2.9,0.9-4.3c7.3,8.8,24.1,14.9,44.2,14.9c20.1,0,36.9-6,44.2-14.9
			C164.2,186.8,164.5,188.3,164.5,189.7z M119.4,197.3c-21.1,0-38.8-7-43.7-16.5c7.5,8.5,24.1,14.3,43.7,14.3
			c19.7,0,36.2-5.8,43.7-14.3C158.3,190.3,140.5,197.3,119.4,197.3z M164.5,170.3c0,12-20.2,21.8-45.1,21.8
			c-24.9,0-45.1-9.8-45.1-21.8c0-1.5,0.3-2.9,0.9-4.3c7.3,8.8,24.1,14.9,44.2,14.9c20.1,0,36.9-6,44.2-14.9
			C164.2,167.4,164.5,168.9,164.5,170.3z M164.5,150.9c0,12-20.2,21.8-45.1,21.8c-24.9,0-45.1-9.8-45.1-21.8s20.2-21.8,45.1-21.8
			C144.3,129.1,164.5,138.9,164.5,150.9z M119.4,175.7c19.7,0,36.2-5.8,43.7-14.3c-4.9,9.5-22.6,16.5-43.7,16.5
			c-21.1,0-38.8-7-43.7-16.5C83.2,169.9,99.8,175.7,119.4,175.7z"/>
	</g>
	<g>
		<path class="st0" d="M194.3,75.2c-2.3,0-4.5,0.2-6.7,0.4c-12.4-27-39.6-45.7-71.2-45.7C73.1,29.9,38,65,38,108.3
			c0,1.4,0,2.7,0.1,4.1c-0.3,0-0.7,0-1,0C16.6,112.4,0,129,0,149.5c0,20.5,16.6,37.1,37.1,37.1c0,0,0,0,0.1,0v0h29.4
			c0.2-1.4,0.6-2.7,1.1-4c-0.5-1.3-0.9-2.7-1.1-4H45.2v0h-8c0,0-0.1,0-0.1,0c-16,0-29-13.1-29-29.1c0-16.1,13.1-29.1,29.1-29.1
			c0.1,0,0.3,0,0.4,0l0.4,0l8.7,0.2l-0.4-8.6c-0.1-1.2-0.1-2.5-0.1-3.7c0-38.8,31.6-70.4,70.4-70.4c27.4,0,52.5,16.1,64,41l2.4,5.3
			l5.8-0.7c2-0.2,3.9-0.4,5.7-0.4c26.3,0,47.7,21.4,47.7,47.7c0,26.3-21.4,47.7-47.7,47.7h-22.1c-0.2,1.4-0.6,2.7-1.1,4
			c0.5,1.3,0.9,2.6,1.1,4h22.1v0c30.8,0,55.7-25,55.7-55.7C250,100.2,225.1,75.2,194.3,75.2z"/>
	</g>
</g>
</svg>
