<svg xmlns="http://www.w3.org/2000/svg" width="25" height="25" viewBox="0 0 25 25"><defs><linearGradient id="a" x1="17.478" y1="25" x2="17.478" gradientTransform="translate(-4.978)" gradientUnits="userSpaceOnUse"><stop offset="0" stop-color="#ffcc0d"/><stop offset="1" stop-color="#f1592a"/></linearGradient></defs><title>icon_grafana</title><path d="M16.548 16.422c-.187-.224-.556.065-.767.123a2.922 2.922 0 0 1-.804.072 2.234 2.234 0 0 1-.928-.24 2.864 2.864 0 0 1-.69-.45 2.445 2.445 0 0 1-.537-.687 2.418 2.418 0 0 1-.3-.853 3.115 3.115 0 0 1-.03-.584 2.192 2.192 0 0 1 .03-.36 3.36 3.36 0 0 1 .96-1.8 3.323 3.323 0 0 1 2.247-.883 3.948 3.948 0 0 1 1.928.51 4.047 4.047 0 0 1 1.662 1.736 3.947 3.947 0 0 1 .374 1.168 4.952 4.952 0 0 1-.343 2.545 6.04 6.04 0 0 1-.647 1.18 5.214 5.214 0 0 1-2.08 1.692 4.748 4.748 0 0 1-1.287.39 5.01 5.01 0 0 1-.988.074 6.9 6.9 0 0 1-3.144-.81 7.23 7.23 0 0 1-2.98-3.023 6.972 6.972 0 0 1-.732-3.16A8.392 8.392 0 0 1 9.84 7.217a6.384 6.384 0 0 1 2.572-1.53 7.446 7.446 0 0 1 1.107-.277c.317-.052.648-.084.96-.154.1 0 .294-.015.345-.015a9.96 9.96 0 0 1 1.976.136 8.21 8.21 0 0 1 3.656 1.67 9.464 9.464 0 0 1 1.322 1.274 11.207 11.207 0 0 1 1.09 1.65 7.515 7.515 0 0 1 .746 1.962.225.225 0 0 0 .21.15c.22-.032.176-.282.176-.442 0-.233-.01-.465-.036-.7a8.43 8.43 0 0 0-.248-1.377A8.92 8.92 0 0 0 21.2 5.3a3.657 3.657 0 0 0-.434-2.6 3.843 3.843 0 0 0-2.515.643 7.17 7.17 0 0 0-1.235-.425 5.076 5.076 0 0 0-1.293-.264A4.652 4.652 0 0 0 13.464 0a4.975 4.975 0 0 0-2.23 2.86c.014.03.03.045.044.075a7.65 7.65 0 0 0-1.5.565 7.978 7.978 0 0 0-.763.412c-.115.07-.233.142-.346.216a1.1 1.1 0 0 1-.31.2.236.236 0 0 1-.016-.06 6.527 6.527 0 0 0-4.91.195 7.04 7.04 0 0 0 1.287 4.82 11.216 11.216 0 0 0-.38 1.33 6.6 6.6 0 0 0-.233 1.408 6.456 6.456 0 0 0-3.113 3.624 6.818 6.818 0 0 0 4.34 2.44 9.83 9.83 0 0 0 1.543 2.08A5.38 5.38 0 0 0 6.982 24a6.163 6.163 0 0 0 4.012-1.227 11.475 11.475 0 0 0 3.668.524A4.48 4.48 0 0 0 17.566 25a4.553 4.553 0 0 0 1.392-3.114.08.08 0 0 0-.045-.03 6.9 6.9 0 0 0 .823-.658 8.525 8.525 0 0 0 .805-.842 5.126 5.126 0 0 0 .663-.924 3.635 3.635 0 0 0 2.53-.928 3.736 3.736 0 0 0-1.347-2.47c-.015 0-.03 0-.03.015a7.307 7.307 0 0 0-.12-2.35 6.41 6.41 0 0 0-5.36-4.88 5.32 5.32 0 0 0-1.766.03 4.978 4.978 0 0 0-1.63.612 4.85 4.85 0 0 0-2.23 5.285 3.8 3.8 0 0 0 1.605 2.132 3.707 3.707 0 0 0 1.3.494 3.966 3.966 0 0 0 .69.053c.1 0 .21-.023.313-.015a1.918 1.918 0 0 0 .643-.17c.253-.1.453-.265.69-.384a.334.334 0 0 0 .06-.434z" fill="url(#a)"/></svg>