<?xml version="1.0" encoding="iso-8859-1"?>
<!-- Generator: Adobe Illustrator 19.1.0, SVG Export Plug-In . SVG Version: 6.00 Build 0)  -->
<svg version="1.1" id="Layer_1" xmlns="http://www.w3.org/2000/svg" xmlns:xlink="http://www.w3.org/1999/xlink" x="0px" y="0px"
	 width="100px" height="100px" viewBox="0 0 100 100" style="enable-background:new 0 0 100 100;" xml:space="preserve">
<g>
	<g>
		<linearGradient id="SVGID_1_" gradientUnits="userSpaceOnUse" x1="47.6052" y1="96.2878" x2="47.6052" y2="-1.0993">
			<stop  offset="0" style="stop-color:#FFF200"/>
			<stop  offset="1" style="stop-color:#F15A29"/>
		</linearGradient>
		<path style="fill:url(#SVGID_1_);" d="M45.945,90.401l-8.111,8.111c3.113,0.778,6.34,1.27,9.653,1.434l9.89-9.891
			C53.6,90.735,49.75,90.845,45.945,90.401z"/>
		<linearGradient id="SVGID_2_" gradientUnits="userSpaceOnUse" x1="35.5223" y1="96.2878" x2="35.5223" y2="-1.0993">
			<stop  offset="0" style="stop-color:#FFF200"/>
			<stop  offset="1" style="stop-color:#F15A29"/>
		</linearGradient>
		<path style="fill:url(#SVGID_2_);" d="M34.873,87.46l-7.259,7.259c2.528,1.268,5.175,2.33,7.926,3.16l7.891-7.891
			C40.518,89.457,37.645,88.636,34.873,87.46z"/>
		<linearGradient id="SVGID_3_" gradientUnits="userSpaceOnUse" x1="25.9706" y1="96.2878" x2="25.9706" y2="-1.0993">
			<stop  offset="0" style="stop-color:#FFF200"/>
			<stop  offset="1" style="stop-color:#F15A29"/>
		</linearGradient>
		<path style="fill:url(#SVGID_3_);" d="M26.029,82.29l-6.98,6.98c2.089,1.648,4.308,3.136,6.647,4.439l7.195-7.195
			C30.504,85.348,28.209,83.939,26.029,82.29z"/>
		<linearGradient id="SVGID_4_" gradientUnits="userSpaceOnUse" x1="18.1429" y1="96.2878" x2="18.1429" y2="-1.0993">
			<stop  offset="0" style="stop-color:#FFF200"/>
			<stop  offset="1" style="stop-color:#F15A29"/>
		</linearGradient>
		<path style="fill:url(#SVGID_4_);" d="M21.551,78.449c-0.961-0.961-1.858-1.961-2.703-2.992l-6.937,6.937
			c1.697,1.993,3.547,3.849,5.533,5.554l6.931-6.931C23.407,80.207,22.46,79.358,21.551,78.449z"/>
		<linearGradient id="SVGID_5_" gradientUnits="userSpaceOnUse" x1="31.6633" y1="96.2878" x2="31.6633" y2="-1.0993">
			<stop  offset="0" style="stop-color:#FFF200"/>
			<stop  offset="1" style="stop-color:#F15A29"/>
		</linearGradient>
		<path style="fill:url(#SVGID_5_);" d="M29.026,28.719c-3.771,3.771-6.283,8.341-7.579,13.185L41.88,21.471
			C36.939,22.819,32.61,25.135,29.026,28.719z"/>
		<linearGradient id="SVGID_6_" gradientUnits="userSpaceOnUse" x1="55.4216" y1="96.2878" x2="55.4216" y2="-1.0993">
			<stop  offset="0" style="stop-color:#FFF200"/>
			<stop  offset="1" style="stop-color:#F15A29"/>
		</linearGradient>
		<path style="fill:url(#SVGID_6_);" d="M73.401,34.918L33.724,74.595c2.339,1.604,4.827,2.826,7.389,3.697l36.005-36.006
			C76.239,39.71,75.005,37.226,73.401,34.918z"/>
		<linearGradient id="SVGID_7_" gradientUnits="userSpaceOnUse" x1="37.6762" y1="96.2878" x2="37.6762" y2="-1.0993">
			<stop  offset="0" style="stop-color:#FFF200"/>
			<stop  offset="1" style="stop-color:#F15A29"/>
		</linearGradient>
		<path style="fill:url(#SVGID_7_);" d="M43.264,51.041L26.545,67.761c0.808,1.059,1.665,2.093,2.633,3.061
			c0.918,0.918,1.885,1.741,2.872,2.52l16.756-16.756L43.264,51.041z"/>
		<linearGradient id="SVGID_8_" gradientUnits="userSpaceOnUse" x1="24.6686" y1="96.2878" x2="24.6686" y2="-1.0993">
			<stop  offset="0" style="stop-color:#FFF200"/>
			<stop  offset="1" style="stop-color:#F15A29"/>
		</linearGradient>
		<path style="fill:url(#SVGID_8_);" d="M21.398,21.091c4.432-4.432,9.995-7.613,16.317-9.47L49.337,0
			c-4.489,0.058-8.833,0.71-12.962,1.877L1.877,36.375C0.71,40.504,0.058,44.848,0,49.337l11.36-11.36
			C13.202,31.778,16.541,25.948,21.398,21.091z"/>
		<linearGradient id="SVGID_9_" gradientUnits="userSpaceOnUse" x1="11.8901" y1="96.2878" x2="11.8901" y2="-1.0993">
			<stop  offset="0" style="stop-color:#FFF200"/>
			<stop  offset="1" style="stop-color:#F15A29"/>
		</linearGradient>
		<path style="fill:url(#SVGID_9_);" d="M13.48,66.812l-7.301,7.301c1.294,2.346,2.777,4.572,4.417,6.669l7.005-7.005
			C15.977,71.57,14.603,69.239,13.48,66.812z"/>
		<linearGradient id="SVGID_10_" gradientUnits="userSpaceOnUse" x1="7.3109" y1="96.2878" x2="7.3109" y2="-1.0993">
			<stop  offset="0" style="stop-color:#FFF200"/>
			<stop  offset="1" style="stop-color:#F15A29"/>
		</linearGradient>
		<path style="fill:url(#SVGID_10_);" d="M10.212,56.067L2.05,64.228c0.818,2.761,1.867,5.421,3.126,7.96l7.395-7.396
			C11.447,61.967,10.682,59.037,10.212,56.067z"/>
		<linearGradient id="SVGID_11_" gradientUnits="userSpaceOnUse" x1="51.2735" y1="96.2878" x2="51.2735" y2="-1.0993">
			<stop  offset="0" style="stop-color:#FFF200"/>
			<stop  offset="1" style="stop-color:#F15A29"/>
		</linearGradient>
		<path style="fill:url(#SVGID_11_);" d="M25.31,66.068l55.472-55.472c-2.097-1.641-4.323-3.123-6.669-4.418L21.765,58.527
			C22.58,61.156,23.754,63.699,25.31,66.068z"/>
		<linearGradient id="SVGID_12_" gradientUnits="userSpaceOnUse" x1="5.2243" y1="96.2878" x2="5.2243" y2="-1.0993">
			<stop  offset="0" style="stop-color:#FFF200"/>
			<stop  offset="1" style="stop-color:#F15A29"/>
		</linearGradient>
		<path style="fill:url(#SVGID_12_);" d="M10.409,41.856L0.04,52.225c0.146,3.329,0.621,6.571,1.386,9.7l8.424-8.424
			C9.484,49.616,9.669,45.69,10.409,41.856z"/>
		<linearGradient id="SVGID_13_" gradientUnits="userSpaceOnUse" x1="51.7609" y1="96.2878" x2="51.7609" y2="-1.0993">
			<stop  offset="0" style="stop-color:#FFF200"/>
			<stop  offset="1" style="stop-color:#F15A29"/>
		</linearGradient>
		<path style="fill:url(#SVGID_13_);" d="M49.848,9.726l0.025,3.752L61.925,1.426c-3.129-0.766-6.371-1.24-9.7-1.386L41.597,10.667
			C44.245,10.137,47.004,9.821,49.848,9.726z"/>
		<linearGradient id="SVGID_14_" gradientUnits="userSpaceOnUse" x1="94.4217" y1="96.2878" x2="94.4217" y2="-1.0993">
			<stop  offset="0" style="stop-color:#FFF200"/>
			<stop  offset="1" style="stop-color:#F15A29"/>
		</linearGradient>
		<path style="fill:url(#SVGID_14_);" d="M88.898,58.535l11.048-11.048c-0.164-3.314-0.655-6.54-1.433-9.653l-9.215,9.215
			C89.719,50.888,89.592,54.754,88.898,58.535z"/>
		<linearGradient id="SVGID_15_" gradientUnits="userSpaceOnUse" x1="92.1469" y1="96.2878" x2="92.1469" y2="-1.0993">
			<stop  offset="0" style="stop-color:#FFF200"/>
			<stop  offset="1" style="stop-color:#F15A29"/>
		</linearGradient>
		<path style="fill:url(#SVGID_15_);" d="M88.951,44.468l8.928-8.928c-0.829-2.75-1.892-5.398-3.16-7.926l-8.304,8.304
			C87.575,38.699,88.438,41.561,88.951,44.468z"/>
		<linearGradient id="SVGID_16_" gradientUnits="userSpaceOnUse" x1="81.2803" y1="96.2878" x2="81.2803" y2="-1.0993">
			<stop  offset="0" style="stop-color:#FFF200"/>
			<stop  offset="1" style="stop-color:#F15A29"/>
		</linearGradient>
		<path style="fill:url(#SVGID_16_);" d="M78.528,23.608c0.529,0.572,0.996,1.177,1.487,1.769l7.933-7.934
			c-1.705-1.986-3.561-3.836-5.553-5.533l-7.782,7.782L78.528,23.608z"/>
		<linearGradient id="SVGID_17_" gradientUnits="userSpaceOnUse" x1="87.5185" y1="96.2878" x2="87.5185" y2="-1.0993">
			<stop  offset="0" style="stop-color:#FFF200"/>
			<stop  offset="1" style="stop-color:#F15A29"/>
		</linearGradient>
		<path style="fill:url(#SVGID_17_);" d="M85.52,33.885l8.188-8.189c-1.303-2.339-2.791-4.558-4.439-6.647l-7.94,7.94
			C82.975,29.186,84.368,31.496,85.52,33.885z"/>
		<linearGradient id="SVGID_18_" gradientUnits="userSpaceOnUse" x1="82.1865" y1="96.2878" x2="82.1865" y2="-1.0993">
			<stop  offset="0" style="stop-color:#FFF200"/>
			<stop  offset="1" style="stop-color:#F15A29"/>
		</linearGradient>
		<path style="fill:url(#SVGID_18_);" d="M96.84,67.534L67.533,96.84C81.044,91.779,91.779,81.045,96.84,67.534z"/>
		<linearGradient id="SVGID_19_" gradientUnits="userSpaceOnUse" x1="46.3135" y1="96.2878" x2="46.3135" y2="-1.0993">
			<stop  offset="0" style="stop-color:#FFF200"/>
			<stop  offset="1" style="stop-color:#F15A29"/>
		</linearGradient>
		<path style="fill:url(#SVGID_19_);" d="M49.916,20.124c-1.478,0.107-2.9,0.3-4.296,0.534L20.719,45.559
			c-0.485,3.537-0.343,7.141,0.441,10.645L72.188,5.176c-2.539-1.26-5.199-2.308-7.96-3.126L49.892,16.387L49.916,20.124z"/>
		<linearGradient id="SVGID_20_" gradientUnits="userSpaceOnUse" x1="61.0308" y1="96.2878" x2="61.0308" y2="-1.0993">
			<stop  offset="0" style="stop-color:#FFF200"/>
			<stop  offset="1" style="stop-color:#F15A29"/>
		</linearGradient>
		<path style="fill:url(#SVGID_20_);" d="M77.791,44.542L43.38,78.952c3.434,0.866,6.954,1.092,10.408,0.678l24.703-24.703
			C78.895,51.465,78.655,47.948,77.791,44.542z"/>
		<linearGradient id="SVGID_21_" gradientUnits="userSpaceOnUse" x1="67.6208" y1="96.2878" x2="67.6208" y2="-1.0993">
			<stop  offset="0" style="stop-color:#FFF200"/>
			<stop  offset="1" style="stop-color:#F15A29"/>
		</linearGradient>
		<path style="fill:url(#SVGID_21_);" d="M77.858,58.488L57.384,78.962c4.774-1.219,9.289-3.684,13.059-7.454
			C74.223,67.728,76.67,63.226,77.858,58.488z"/>
		<linearGradient id="SVGID_22_" gradientUnits="userSpaceOnUse" x1="75.1798" y1="96.2878" x2="75.1798" y2="-1.0993">
			<stop  offset="0" style="stop-color:#FFF200"/>
			<stop  offset="1" style="stop-color:#F15A29"/>
		</linearGradient>
		<path style="fill:url(#SVGID_22_);" d="M100,50.36L88.001,62.359c-1.781,6.143-5.08,11.925-9.931,16.776
			C73.115,84.09,67.312,87.4,61.2,89.16L50.36,100c4.448-0.032,8.756-0.648,12.856-1.77L98.23,63.216
			C99.351,59.116,99.968,54.808,100,50.36z"/>
		<linearGradient id="SVGID_23_" gradientUnits="userSpaceOnUse" x1="17.662" y1="96.2878" x2="17.662" y2="-1.0993">
			<stop  offset="0" style="stop-color:#FFF200"/>
			<stop  offset="1" style="stop-color:#F15A29"/>
		</linearGradient>
		<path style="fill:url(#SVGID_23_);" d="M3.34,31.984L31.984,3.34C18.857,8.412,8.412,18.857,3.34,31.984z"/>
	</g>
</g>
</svg>
