<?xml version="1.0" encoding="utf-8"?>
<!-- Generator: Adobe Illustrator 19.0.1, SVG Export Plug-In . SVG Version: 6.00 Build 0)  -->
<!DOCTYPE svg PUBLIC "-//W3C//DTD SVG 1.1//EN" "http://www.w3.org/Graphics/SVG/1.1/DTD/svg11.dtd">
<svg version="1.1" id="Layer_1" xmlns="http://www.w3.org/2000/svg" xmlns:xlink="http://www.w3.org/1999/xlink" x="0px" y="0px"
	 width="264.2px" height="81.8px" viewBox="0 0 264.2 81.8" style="enable-background:new 0 0 264.2 81.8;" xml:space="preserve">
<style type="text/css">
	.st0{fill:#11B2D3;}
</style>
<g>
	<path class="st0" d="M1.1,24.8c0.6,0,1.1-0.5,1.1-1.1c0-0.3-0.1-0.6-0.3-0.8L2.2,16L2.5,27c0,0.3,0.2,0.5,0.5,0.5c0,0,0,0,0,0
		c0.3,0,0.5-0.2,0.5-0.5L4,18.8l0.3,6.7c0,0.3,0.2,0.5,0.5,0.5c0,0,0,0,0,0c0.3,0,0.5-0.2,0.5-0.5l0.2-6.4l0.3,5.2L6.2,28
		c0,0.3,0.3,0.5,0.5,0.4c0.3,0,0.5-0.2,0.5-0.5l0.3-8.3l0.4,9c0,0.3,0.2,0.5,0.5,0.5c0,0,0,0,0,0c0.3,0,0.5-0.2,0.5-0.5l0.4-10.8
		l0.8,15.4c0,0.3,0.2,0.5,0.5,0.5c0.3,0,0.5-0.2,0.5-0.5l0.1-10l0.3,3.7c0,0.3,0.3,0.5,0.5,0.5c0.3,0,0.5-0.2,0.5-0.5v-0.6
		c0.1,0.2,0.3,0.3,0.5,0.3c0.3,0,0.5-0.2,0.5-0.5l0.5-7.8l0.5,7.8c0,0.3,0.2,0.5,0.5,0.5c0.3,0,0.5-0.2,0.5-0.5l0.2-8.2l0.7,10.6
		c0,0.3,0.2,0.5,0.5,0.5c0.3,0,0.5-0.2,0.5-0.5l0.1-8.8l0.6,8.8c0,0.3,0.2,0.5,0.5,0.5c0.3,0,0.5-0.2,0.5-0.5l0.2-6.9l0.3,5.7
		c0,0.3,0.2,0.5,0.5,0.5c0,0,0,0,0,0c0.3,0,0.5-0.2,0.5-0.5l0.2-3.9c0.2,3.6,0.4,3.6,0.7,3.7c0.3,0,0.5-0.2,0.6-0.4
		c0.1-0.4,0.2-3.2,0.3-6.6l0.4,6.7c0,0.3,0.2,0.5,0.5,0.5c0.3,0,0.5-0.2,0.5-0.5l0.1-4.3l0.3,7.4c0,0.3,0.2,0.5,0.5,0.5
		c0.3,0,0.5-0.2,0.5-0.5l0.1-5.8l0.1,2.4c0,0.3,0.2,0.5,0.5,0.5c0.2,0,0.5-0.2,0.5-0.5l0.5-6.3v8c0,0.3,0.2,0.5,0.5,0.5
		c0.2,0,0.5-0.2,0.5-0.5l0.8-12.3l0.9,13c0,0.3,0.3,0.5,0.5,0.5c0.3,0,0.5-0.2,0.5-0.5l0.1-4.6l0.2,3.2c0,0.3,0.2,0.5,0.5,0.5
		c0.3,0,0.5-0.2,0.5-0.5l0.2-6.8l0.2,7.1c0,0.3,0.2,0.5,0.5,0.5c0,0,0,0,0,0c0.3,0,0.5-0.2,0.5-0.5l0.4-9.2l0.3,8.9
		c0,0.3,0.2,0.5,0.5,0.5c0,0,0,0,0,0c0.3,0,0.5-0.2,0.5-0.5l0.5-9.8L36,27.9c0,0.3,0.2,0.5,0.5,0.5c0.3,0,0.5-0.2,0.5-0.5l0-3.2
		l0.2,3.2c0,0.3,0.2,0.5,0.5,0.5c0,0,0,0,0,0c0.3,0,0.5-0.2,0.5-0.5l0.3-8.4l0.4,9.3c0,0.3,0.2,0.5,0.5,0.5c0,0,0,0,0,0
		c0.3,0,0.5-0.2,0.5-0.5l0.3-11.2l0.4,7.6c0,0.3,0.2,0.5,0.5,0.5c0,0,0,0,0,0c0.3,0,0.5-0.2,0.5-0.5l0.2-5.3l0.2,6.8
		c0,0.3,0.3,0.5,0.5,0.5c0.3,0,0.5-0.2,0.5-0.5l0.1-4.8c0.1,0.1,0.2,0.1,0.3,0.1c0.2,0,0.5-0.2,0.5-0.4l0.6-5.3l0.1,8.9
		c0,0.3,0.2,0.5,0.5,0.5c0.3,0,0.5-0.2,0.5-0.5l0.7-11.8l0.8,15.9c0,0.3,0.2,0.5,0.5,0.5c0,0,0,0,0,0c0.3,0,0.5-0.2,0.5-0.5l0.4-9.9
		l0.3,8c0,0.3,0.2,0.5,0.5,0.5c0,0,0,0,0,0c0.3,0,0.5-0.2,0.5-0.5l0.2-6l0.3,5.3c0,0.3,0.2,0.5,0.5,0.5c0,0,0,0,0,0
		c0.3,0,0.5-0.2,0.5-0.5l0.3-7l0.4,7c0,0.3,0.2,0.5,0.5,0.5c0,0,0,0,0,0c0.3,0,0.5-0.2,0.5-0.5l0.2-4.7l0.3,6.6
		c0,0.3,0.2,0.5,0.5,0.5c0,0,0,0,0,0c0.3,0,0.5-0.2,0.5-0.5l0.3-6.4l0.1,5.4c0,0.3,0.2,0.5,0.5,0.5c0.3,0,0.5-0.2,0.5-0.5l0.4-8.6
		l0.3,8.6c0,0.3,0.2,0.5,0.5,0.5s0.5-0.2,0.5-0.5l0.3-8.1l0.4,9.3c0,0.3,0.2,0.5,0.5,0.5c0,0,0,0,0,0c0.3,0,0.5-0.2,0.5-0.5
		c0.1-1.6,0.1-3.9,0.2-6.3c0.1,3,0.2,5.4,0.2,5.6c0,0.3,0.2,0.5,0.5,0.5h0c0.3,0,0.5-0.2,0.5-0.5l0.4-9.9L62,28.7
		c0,0.3,0.3,0.5,0.5,0.5c0.3,0,0.5-0.2,0.5-0.5l0.1-8.7c0.1,1,0.1,1.9,0.2,2.8c0.1,1.6,0.1,2.5,0.2,3.1c0,0.1,0,0.2,0,0.2l0,0
		c0.1,0.5,0.2,0.5,0.5,0.5c0.3,0,0.5-0.3,0.5-0.5c0-0.3,0.1-2.2,0.2-4.7c0.1,1.4,0.1,2.8,0.1,3.9c0.1,1.4,0.1,2.2,0.1,2.7
		c0,0.1,0,0.2,0,0.3l0,0c0.1,0.5,0.2,0.5,0.5,0.5c0.3,0,0.5-0.3,0.5-0.6c0-0.4,0.1-4.1,0.3-8.8c0.1,4.7,0.2,8.6,0.2,9
		c0,0.3,0.2,0.5,0.5,0.5c0.3,0,0.5-0.2,0.5-0.5l0.5-10.5l0.5,9.5c0,0.3,0.2,0.4,0.5,0.5c0.3,0,0.5-0.2,0.5-0.5l0.2-6.3
		c0.3,7,0.5,7,0.9,7.1c0.2,0,0.5-0.2,0.6-0.4c0.1-0.3,0.2-2.2,0.3-4.6l0.1,5c0,0.3,0.2,0.5,0.5,0.5c0,0,0,0,0,0
		c0.3,0,0.5-0.2,0.5-0.5l0.4-7.7l0.3,8.6c0,0.3,0.2,0.5,0.5,0.5c0,0,0,0,0,0c0.3,0,0.5-0.2,0.5-0.5l0.3-6.6l0.1,5.6
		c0,0.3,0.2,0.5,0.5,0.5c0,0,0,0,0,0c0.3,0,0.5-0.2,0.5-0.5l0.4-9.6l0.3,8.6c0,0.3,0.2,0.5,0.5,0.5c0,0,0,0,0,0
		c0.3,0,0.5-0.2,0.5-0.5l0.4-7.9l0.3,7.9c0,0.3,0.2,0.5,0.5,0.5c0.3,0,0.5-0.2,0.5-0.5l0.5-6.8l0.2,7.5c0,0.3,0.2,0.5,0.5,0.5
		c0.3,0,0.5-0.2,0.5-0.5l0.4-8.9l0.3,9.2c0,0.3,0.2,0.5,0.5,0.5c0,0,0,0,0,0c0.3,0,0.5-0.2,0.5-0.5l0.4-9.1l0.3,9.1
		c0,0.3,0.2,0.5,0.5,0.5c0,0,0,0,0,0c0.3,0,0.5-0.2,0.5-0.5l0.2-6.7l0.3,5.7c0,0.3,0.2,0.5,0.5,0.5h0c0.3,0,0.5-0.2,0.5-0.5l0.4-7.7
		l0.3,6.5c0,0.3,0.2,0.5,0.5,0.5c0,0,0,0,0,0c0.3,0,0.5-0.2,0.5-0.5l0.3-6.9l0.4,8.7c0,0.3,0.2,0.5,0.5,0.5c0,0,0,0,0,0
		c0.3,0,0.5-0.2,0.5-0.5l0.4-11.1l0.5,7.7c0,0.3,0.2,0.5,0.5,0.5c0,0,0,0,0,0c0.2,0,0.4-0.1,0.4-0.3l0,1.3c0,0.3,0.2,0.5,0.5,0.5
		c0.3,0,0.5-0.2,0.5-0.5l0.5-9l0.2,9c0,0.3,0.2,0.5,0.5,0.5c0.3,0,0.5-0.2,0.5-0.5l0.6-8.4l0.4,8.7c0,0.3,0.2,0.5,0.5,0.5
		c0,0,0,0,0,0c0.3,0,0.5-0.2,0.5-0.5l0.4-12.8l0.6,12.3c0,0.3,0.2,0.5,0.5,0.5c0.3,0,0.5-0.2,0.5-0.5l0.3-10.3L98.7,27
		c0,0.3,0.3,0.5,0.5,0.5c0.3,0,0.5-0.2,0.5-0.5l0-4.1l0.2,3.7c0,0.3,0.2,0.5,0.5,0.5c0,0,0,0,0,0c0.3,0,0.5-0.2,0.5-0.5l0.1-3.8
		l0.1,3.6c0,0.3,0.2,0.5,0.5,0.5c0.3,0,0.5-0.2,0.5-0.5l0.3-4.9l0.2,5.4c0,0.3,0.2,0.5,0.5,0.5c0,0,0,0,0,0c0.3,0,0.5-0.2,0.5-0.5
		l0.4-9.6l0.3,9.6c0,0.3,0.2,0.5,0.5,0.5c0,0,0,0,0,0c0.3,0,0.5-0.2,0.5-0.5l0.5-9.5l0.5,8c0,0.3,0.2,0.5,0.5,0.5
		c0.3,0,0.5-0.2,0.5-0.5l0.1-2.6l0.1,3.6c0,0.3,0.2,0.5,0.5,0.5c0,0,0,0,0,0c0.3,0,0.5-0.2,0.5-0.5l0.6-11.6l0.9,12.8
		c0,0.3,0.2,0.5,0.5,0.5c0.3,0,0.5-0.2,0.5-0.5l0.2-9.2l0.7,8.9c0,0.3,0.2,0.4,0.5,0.5c0.3,0,0.5-0.2,0.5-0.5l0.6-11.7l0.9,13.4
		c0,0.3,0.2,0.5,0.5,0.5c0.3,0,0.5-0.2,0.5-0.5l0.3-11.3l0.4,10.6c0,0.3,0.2,0.5,0.5,0.5c0,0,0,0,0,0c0.3,0,0.5-0.2,0.5-0.5l0.2-4.1
		l0,1.6c0,0.3,0.2,0.5,0.5,0.5c0.3,0,0.5-0.2,0.5-0.5c0.1-1.9,0.4-5,0.6-8.1c0.1,5,0.1,9.8,0.1,10.3c0,0.3,0.2,0.5,0.5,0.5
		c0.3,0,0.5-0.2,0.5-0.5l0.4-6.8l0.1,7.3c0,0.3,0.2,0.5,0.5,0.5c0.3,0,0.5-0.2,0.5-0.5l0.5-8.7l0.2,10.8c0,0.3,0.2,0.5,0.5,0.5
		c0.3,0,0.5-0.2,0.5-0.4l0.3-2.6l0.4,9.9c0,0.3,0.2,0.5,0.5,0.5c0.3,0,0.5-0.2,0.5-0.4l0.1-0.9l0.1,1.4c0,0.2,0.2,0.4,0.4,0.5
		c0.2,0,0.5-0.1,0.5-0.4l0.3-1.2l1.1,7.4c0,0.3,0.3,0.5,0.5,0.4c0.3,0,0.5-0.2,0.5-0.5l0.1-1.7c0.1,0.8,0.3,0.8,0.5,0.8
		c0.2,0,0.5-0.2,0.6-0.4c0.1-0.4,0.4-2.4,0.6-4.5l0.6,5.2c0,0.2,0.2,0.4,0.5,0.4c0.3,0,0.5-0.2,0.5-0.4l0.2-0.9l0.3,5.6
		c0,0.3,0.2,0.5,0.5,0.5c0.2,0,0.4-0.1,0.5-0.3v0.8c0,0.2,0.2,0.5,0.4,0.5c0.2,0,0.5-0.1,0.6-0.3l0.9-2.4c0,1.7,0.1,1.7,0.5,1.8
		c0.2,0,0.5-0.2,0.6-0.4c0.1-0.3,0.4-1.2,0.6-2.2l0.1,1.6c0,0.2,0.2,0.4,0.5,0.5c0.2,0,0.5-0.1,0.5-0.4l0.4-1.8l0.1,0.9
		c0,0.2,0.2,0.4,0.5,0.5c0.2,0,0.5-0.1,0.5-0.4l0.4-1.6l0.3,1.8c0,0.2,0.2,0.4,0.5,0.4c0,0,0,0,0,0c0.2,0,0.5-0.2,0.5-0.4l0-0.3
		c0.1,0.1,0.2,0.2,0.4,0.3c0.2,0,0.4-0.1,0.5-0.4l0.3-1l0.4,3.3c0,0.3,0.2,0.4,0.5,0.4c0.3,0,0.5-0.2,0.5-0.5l0.1-1.4
		c0.1,0.1,0.2,0.1,0.3,0.1c0.2,0,0.4-0.1,0.5-0.3l0.5-1.5l0.2,2.4c0,0.3,0.2,0.4,0.5,0.5c0.3,0,0.5-0.2,0.5-0.4l0.3-2.6l0.4,3.1
		c0,0.2,0.2,0.4,0.5,0.4c0,0,0,0,0,0c0.3,0,0.5-0.2,0.5-0.5l0.3-3.3l0.4,2.6c0,0.2,0.2,0.4,0.5,0.4c0,0,0,0,0,0
		c0.2,0,0.4-0.2,0.5-0.4l0.4-2l0.1,0.7c0,0.2,0.2,0.4,0.5,0.4c0.2,0,0.5-0.2,0.5-0.4l0-0.2l0.2,2.1c0,0.2,0.2,0.4,0.5,0.5
		c0.3,0,0.5-0.2,0.5-0.4l0.5-2.6l0.7,4.1c0,0.2,0.3,0.4,0.5,0.4c0,0,0,0,0,0c0.2,0,0.5-0.2,0.5-0.5l0.4-4.8l0.5,2.2
		c0.1,0.2,0.3,0.4,0.5,0.4c0.2,0,0.4-0.2,0.5-0.4l0.2-1.4l0.3,1.4c0.1,0.2,0.3,0.4,0.5,0.4c0,0,0,0,0,0c0.2,0,0.4-0.2,0.5-0.4
		l0.3-1.6l0.2,1.5c0,0.2,0.2,0.4,0.4,0.4c0.2,0,0.5-0.1,0.5-0.3l0.6-1.8l0.7,1.3c0.1,0.2,0.3,0.3,0.5,0.3c0.2,0,0.4-0.2,0.4-0.4
		c0-0.4,0.1-0.9,0.2-1.4c0,0.4,0.1,0.6,0.1,0.7c0,0.3,0.2,0.4,0.5,0.4c0,0,0,0,0,0c0.3,0,0.5-0.2,0.5-0.4c0.1-0.8,0.2-1.7,0.4-2.4
		c0.2,0.9,0.4,2.3,0.6,3.6c0,0.3,0.2,0.4,0.5,0.4c0.3,0,0.5-0.2,0.5-0.5l0.2-2.2l0.3,1.1c0.1,0.2,0.3,0.4,0.5,0.4
		c0.2,0,0.4-0.2,0.5-0.4l0.3-1.6l0.1,1.3c0,0.2,0.2,0.4,0.5,0.4c0.2,0,0.5-0.1,0.5-0.4l0.5-2l0.4,3.7c0,0.2,0.2,0.4,0.5,0.4
		c0.2,0,0.5-0.2,0.5-0.4l0.3-1.6l0.2,0.9c0.1,0.2,0.2,0.4,0.5,0.4c0.2,0,0.4-0.2,0.5-0.4l0.2-1.9l0.8,2.5c0.1,0.2,0.3,0.4,0.5,0.4
		c0.2,0,0.4-0.2,0.5-0.4l0.2-1.6l0.3,1c0.1,0.2,0.3,0.4,0.5,0.4c0.2,0,0.4-0.2,0.5-0.4l0.1-0.8l0.1,0.8c0,0.2,0.2,0.4,0.5,0.4
		c0.2,0,0.5-0.2,0.5-0.4l0.4-1.9l0.8,2c0.1,0.2,0.3,0.3,0.5,0.3c0.2,0,0.4-0.2,0.5-0.4l0.3-1.1l0.2,1c0,0.2,0.2,0.4,0.5,0.4
		c0,0,0,0,0,0c0.2,0,0.4-0.2,0.5-0.4l0.2-1.2l0.7,3.4c0.1,0.2,0.3,0.4,0.5,0.4c0.2,0,0.4-0.2,0.5-0.5l0.2-2.9l0.3,1.3
		c0,0.2,0.3,0.4,0.5,0.4c0.2,0,0.4-0.2,0.5-0.4l0.2-1.3l0.2,1.3c0,0.2,0.2,0.4,0.5,0.4c0.2,0,0.4-0.1,0.5-0.3l0.3-1l0.4,2.4
		c0,0.2,0.2,0.4,0.5,0.4c0,0,0,0,0,0c0.2,0,0.5-0.2,0.5-0.4l0.5-3.7l0.4,2c0,0.2,0.2,0.4,0.5,0.4c0.3,0,0.4-0.1,0.5-0.4l0.3-0.9
		l0.2,2c0,0.2,0.2,0.4,0.5,0.4c0,0,0,0,0,0c0.2,0,0.5-0.2,0.5-0.4l0.4-2.4l0.3,2.1c0,0.2,0.2,0.4,0.5,0.4c0.3,0,0.5-0.2,0.5-0.4
		l0.4-1.8l0.4,0.9c0.1,0.2,0.3,0.3,0.5,0.3c0.2,0,0.4-0.2,0.4-0.4l0.3-1.4l0.2,2c0,0.2,0.2,0.4,0.5,0.5c0.2,0,0.5-0.1,0.5-0.4
		l0.5-1.7l0.8,3.2c0.1,0.2,0.3,0.4,0.5,0.4c0.2,0,0.4-0.2,0.5-0.5l0.1-1.2c0.1,0.1,0.2,0.2,0.4,0.2c0.2,0,0.5-0.2,0.5-0.4l0.3-2.6
		l0.4,1.9c0,0.2,0.2,0.4,0.5,0.4c0.2,0,0.4-0.2,0.5-0.4l0.3-1.3l0.2,1.2c0,0.2,0.2,0.4,0.5,0.4c0.3,0,0.5-0.1,0.5-0.4l0.7-2.4
		l0.3,2.8c0,0.2,0.2,0.4,0.5,0.5c0.2,0,0.5-0.1,0.5-0.4l0.5-2.1l0.4,1.4c0.1,0.2,0.3,0.4,0.5,0.4c0.2,0,0.4-0.2,0.5-0.4l0-0.3
		l0.2,1.3c0,0.2,0.2,0.4,0.5,0.4c0,0,0,0,0,0c0.3,0,0.5-0.2,0.5-0.5l0.2-1.9l0.5,2.2c0.1,0.2,0.3,0.4,0.5,0.4c0.2,0,0.4-0.2,0.5-0.5
		l0.2-3.5l0.3,0.8c0.1,0.2,0.3,0.3,0.5,0.3c0.2,0,0.4-0.1,0.4-0.3l0.3-0.8l0.4,3.4c0,0.2,0.2,0.4,0.5,0.4h0c0.3,0,0.5-0.2,0.5-0.4
		l0.3-2.6l0.6,3.4c0,0.2,0.2,0.4,0.5,0.4c0.2,0,0.5-0.2,0.5-0.5l0.2-1.8l0.3,1.8c0,0.2,0.2,0.4,0.5,0.4c0.2,0,0.4-0.2,0.5-0.4
		l0.5-2.2l0,0c0,0.2,0.2,0.4,0.5,0.4c0.2,0,0.4-0.1,0.5-0.3l0.4-1.2l0.6,2.4c0.1,0.2,0.3,0.4,0.5,0.4c0.2,0,0.4-0.2,0.5-0.5l0.1-2
		l0.3,2.3c0,0.3,0.2,0.4,0.5,0.4c0.3,0,0.5-0.2,0.5-0.5l0.1-2.2l0.6,2.1c0.1,0.2,0.3,0.4,0.5,0.4c0.2,0,0.4-0.2,0.5-0.4l0.2-1.8
		l0.3,0.9c0.1,0.2,0.2,0.3,0.5,0.4c0.2,0,0.4-0.1,0.5-0.3l0.5-1.3l0.3,0.8c0.1,0.2,0.3,0.3,0.5,0.3c0.2,0,0.4-0.2,0.5-0.4l0.2-0.6
		l0.6,2.8c0,0.2,0.3,0.4,0.5,0.4c0.3,0,0.5-0.2,0.5-0.5l0.1-3l0.4,1.1c0.1,0.2,0.3,0.4,0.5,0.3c0.2,0,0.4-0.2,0.5-0.4l0.3-2.1
		l0.9,4.1c0.1,0.2,0.3,0.4,0.5,0.4c0.2,0,0.4-0.2,0.5-0.5l0.1-1.6l0.1,0.6c0,0.2,0.2,0.4,0.5,0.4c0.2,0,0.5-0.2,0.5-0.4l0.5-3.5
		l0.7,4.5c0,0.2,0.3,0.4,0.5,0.4c0.3,0,0.5-0.2,0.5-0.5l0.2-2l0.1,0.3c0,0.2,0.2,0.4,0.5,0.4c0,0,0,0,0,0c0.2,0,0.5-0.2,0.5-0.4
		l0.2-1.2l1,2.5c0.1,0.2,0.3,0.3,0.5,0.3c0.2,0,0.4-0.2,0.4-0.5l0.1-1.5l0.6,2.3c0.1,0.2,0.3,0.4,0.5,0.4c0.2,0,0.4-0.2,0.5-0.4
		l0.5-3L238,47c0.1,0.2,0.3,0.3,0.5,0.3c0.2,0,0.4-0.2,0.4-0.4l0-0.1l0.2,1.3c0,0.2,0.2,0.4,0.5,0.4c0.2,0,0.4-0.1,0.5-0.3l0.7-2.3
		l0.5,1.8c0.1,0.2,0.2,0.4,0.5,0.4c0.2,0,0.4-0.1,0.5-0.3l0.5-1.6l1,2.6c0.1,0.2,0.3,0.3,0.5,0.3c0.2,0,0.4-0.2,0.4-0.5l0.2-2.3
		l0.5,3.1c0,0.2,0.3,0.4,0.5,0.4c0.2,0,0.5-0.2,0.5-0.5l0.2-2l0.3,1.4c0,0.2,0.3,0.4,0.5,0.4c0,0,0,0,0,0c0.2,0,0.4-0.2,0.5-0.4
		l0.3-1.7l0.2,1c0,0.2,0.2,0.4,0.5,0.4c0,0,0,0,0,0c0.2,0,0.4-0.2,0.5-0.4l0.5-2.1l0.5,2.3c0,0.2,0.3,0.4,0.5,0.4c0,0,0,0,0,0
		c0.2,0,0.4-0.2,0.5-0.4l0.3-1.7l0.7,2.7c0.1,0.2,0.3,0.4,0.5,0.4c0.2,0,0.4-0.2,0.5-0.4l0.2-1.9l0.3,1.2c0.1,0.2,0.3,0.4,0.5,0.4
		c0.2,0,0.4-0.2,0.5-0.5l0.1-1.7l0.6,2.5c0.1,0.2,0.3,0.4,0.5,0.4c0.2,0,0.4-0.2,0.5-0.5l0.1-1.5l0.1,0.5c0,0.2,0.2,0.4,0.5,0.4
		c0,0,0,0,0,0c0.2,0,0.5-0.2,0.5-0.4l0.3-2l0.4,2.2c0,0.2,0.3,0.4,0.5,0.4c0.3,0,0.5-0.2,0.5-0.5c0.1-1.2,0.2-2.4,0.2-3.5
		c0.3,1.8,0.7,3.7,0.7,3.8c0,0.2,0.2,0.4,0.5,0.4c0.3,0,0.5-0.2,0.5-0.5l0.1-1.7l0.1,0.6c0.1,0.2,0.3,0.4,0.5,0.4
		c0.2,0,0.4-0.2,0.5-0.4l0.7-2.9c0.6,0,1.1-0.5,1.1-1.1c0-0.6-0.5-1.1-1.1-1.1s-1.1,0.5-1.1,1.1c0,0.3,0.1,0.5,0.2,0.7l-0.3,1.2
		l-0.5-1.7c-0.1-0.2-0.3-0.4-0.5-0.4c-0.2,0-0.4,0.2-0.4,0.5l0,0.6c-0.2-1-0.4-2-0.4-2.6c-0.1-0.5-0.2-0.7-0.6-0.7
		c-0.4,0-0.6,0-0.9,3.3l-0.2-1.3c0-0.2-0.3-0.4-0.5-0.4c-0.2,0-0.4,0.2-0.5,0.4l-0.3,1.7l-0.2-1.3c0-0.2-0.3-0.4-0.5-0.4
		c-0.3,0-0.5,0.2-0.5,0.5l-0.2,2.4l-0.7-3c-0.1-0.2-0.3-0.4-0.5-0.4c-0.2,0-0.4,0.2-0.5,0.5l-0.1,1.5l-0.2-0.7
		c-0.1-0.2-0.3-0.4-0.5-0.4c-0.2,0-0.4,0.2-0.5,0.4l-0.2,1.9l-0.5-2.2c-0.1-0.2-0.3-0.4-0.5-0.4c-0.2,0-0.4,0.2-0.5,0.4l-0.3,1.6
		l-0.4-2.1c0-0.2-0.3-0.4-0.5-0.4c0,0,0,0,0,0c-0.2,0-0.4,0.2-0.5,0.4l-0.5,2.1l-0.3-1.3c0-0.2-0.2-0.4-0.5-0.4
		c-0.2,0-0.4,0.2-0.5,0.4l-0.3,1.8l-0.4-2c-0.1-0.2-0.3-0.4-0.5-0.4c-0.2,0-0.4,0.2-0.5,0.5l-0.1,1.6l-0.6-3.3
		c0-0.2-0.3-0.4-0.5-0.4c-0.3,0-0.5,0.2-0.5,0.5l-0.3,4.1l-0.7-1.8c-0.1-0.2-0.3-0.3-0.5-0.3c-0.2,0-0.4,0.1-0.5,0.3l-0.5,1.4
		l-0.5-1.8c-0.1-0.2-0.3-0.4-0.5-0.4c-0.2,0-0.4,0.1-0.5,0.4l-0.6,1.9l-0.4-2.3c0-0.2-0.2-0.4-0.5-0.4c0,0,0,0,0,0
		c-0.2,0-0.5,0.2-0.5,0.4l-0.2,1.3l-0.3-0.7c-0.1-0.2-0.3-0.3-0.5-0.3c-0.2,0-0.4,0.2-0.4,0.4l-0.4,2.5l-0.8-3
		c-0.1-0.2-0.3-0.4-0.5-0.4c-0.2,0-0.4,0.2-0.4,0.5l-0.1,2.4l-0.9-2.1c-0.1-0.2-0.3-0.3-0.5-0.3c-0.2,0-0.4,0.2-0.4,0.4l0,0
		l-0.2-1.3c0-0.2-0.3-0.4-0.5-0.4c-0.3,0-0.5,0.2-0.5,0.5l-0.1,1.7l-0.6-3.6c0-0.2-0.2-0.4-0.5-0.4c0,0,0,0,0,0
		c-0.2,0-0.5,0.2-0.5,0.4l-0.5,3.4l-0.2-1.5c0-0.2-0.2-0.4-0.5-0.4c0,0,0,0,0,0c-0.3,0-0.5,0.2-0.5,0.5l-0.2,2.5l-0.7-3.5
		c-0.1-0.2-0.3-0.4-0.5-0.4c-0.2,0-0.4,0.2-0.5,0.4l-0.4,2.7l-0.6-1.8c-0.1-0.2-0.3-0.4-0.5-0.3c-0.2,0-0.4,0.2-0.4,0.5l-0.1,1.7
		l-0.2-0.8c0-0.2-0.2-0.4-0.5-0.4c-0.2,0-0.4,0.1-0.5,0.4l-0.3,1.1l-0.2-0.6c-0.1-0.2-0.3-0.3-0.5-0.3c-0.2,0-0.4,0.1-0.5,0.3
		l-0.5,1.3l-0.5-1.7c-0.1-0.2-0.3-0.4-0.5-0.4c-0.2,0-0.4,0.2-0.5,0.4l-0.2,1.7l-0.8-2.5c-0.1-0.2-0.3-0.4-0.5-0.4
		c-0.2,0-0.3,0.1-0.4,0.3l-0.3-1.8c0-0.2-0.2-0.4-0.5-0.4c0,0,0,0,0,0c-0.3,0-0.5,0.2-0.5,0.5l-0.3,3.5l-0.2-0.9
		c-0.1-0.2-0.2-0.4-0.5-0.4c-0.2,0-0.4,0.1-0.5,0.3l-0.4,1.1l-0.1-0.6c0-0.2-0.2-0.4-0.5-0.4c0,0,0,0,0,0c-0.2,0-0.4,0.2-0.5,0.4
		l-0.4,2.1l-0.5-3c0-0.2-0.2-0.4-0.5-0.4c-0.3,0-0.5,0.2-0.5,0.5l-0.2,1.9l-0.5-2.9c0-0.2-0.3-0.4-0.5-0.4c-0.2,0-0.5,0.2-0.5,0.4
		l-0.2,1.9l-0.2-1.7c0-0.2-0.2-0.4-0.4-0.4c-0.2,0-0.4,0.1-0.5,0.3l-0.6,1.7l-0.7-1.5c-0.1-0.2-0.3-0.3-0.5-0.3
		c-0.2,0-0.4,0.2-0.4,0.5l-0.1,2l-0.4-1.6c-0.1-0.2-0.3-0.4-0.5-0.4c-0.2,0-0.4,0.2-0.5,0.4l-0.1,0.8l-0.1-1c0-0.2-0.2-0.4-0.5-0.4
		c-0.3,0-0.5,0.2-0.5,0.4l-0.2,1.8l-0.3-0.9c-0.1-0.2-0.2-0.4-0.5-0.4c-0.2,0-0.4,0.2-0.5,0.4l-0.3,1l-0.2-2.4
		c0-0.2-0.2-0.4-0.4-0.5c-0.2,0-0.5,0.1-0.5,0.4l-0.8,2.6l-0.2-1.5c0-0.2-0.2-0.4-0.5-0.4c-0.3,0-0.5,0.1-0.5,0.4l-0.4,1.7l-0.5-2.7
		c0-0.2-0.3-0.4-0.5-0.4c-0.2,0-0.4,0.2-0.5,0.4l-0.1,1.1l-0.1-0.8c0-0.3-0.3-0.5-0.5-0.5c-0.3,0-0.5,0.2-0.5,0.5l-0.3,3.6l-0.5-1.9
		c-0.1-0.2-0.3-0.4-0.5-0.4c-0.2,0-0.4,0.2-0.5,0.4l-0.2,0.9l-0.2-2.5c0-0.2-0.2-0.4-0.5-0.5c-0.3,0-0.5,0.2-0.5,0.4l-0.6,3
		l-0.4-0.9c-0.1-0.2-0.3-0.3-0.5-0.3c-0.2,0-0.4,0.2-0.4,0.4l-0.1,0.6l-0.3-2.5c0-0.2-0.2-0.4-0.5-0.4c-0.3,0-0.5,0.2-0.5,0.4
		l-0.4,2.1l-0.1-0.9c0-0.2-0.2-0.4-0.5-0.4c-0.2,0-0.5,0.1-0.5,0.4l-0.4,1.3l-0.6-2.9c0-0.2-0.3-0.4-0.5-0.4c-0.2,0-0.4,0.2-0.5,0.4
		l-0.5,3.4l-0.2-1.2c0-0.2-0.2-0.4-0.5-0.4c-0.2,0-0.4,0.1-0.5,0.3l-0.3,1l-0.4-2.2c0-0.2-0.2-0.4-0.5-0.4c-0.2,0-0.5,0.2-0.5,0.4
		l-0.3,1.5l-0.4-2.2c0-0.2-0.3-0.4-0.5-0.4c-0.2,0-0.4,0.2-0.5,0.5l-0.2,3l-0.5-2.3c0-0.2-0.3-0.4-0.5-0.4c0,0,0,0,0,0
		c-0.2,0-0.4,0.2-0.5,0.4l-0.2,0.9l-0.1-0.4c0-0.2-0.2-0.4-0.5-0.4c-0.2,0-0.4,0.1-0.5,0.4l-0.6,1.9l-0.9-2.1
		c-0.1-0.2-0.3-0.3-0.5-0.3c-0.2,0-0.4,0.2-0.4,0.4l-0.2,0.8l-0.3-1.8c0-0.2-0.2-0.4-0.5-0.4c0,0,0,0,0,0c-0.2,0-0.5,0.2-0.5,0.4
		l-0.2,1.8l-0.3-1c-0.1-0.2-0.3-0.4-0.5-0.4c-0.2,0-0.4,0.2-0.5,0.4l-0.2,1.7l-0.8-2.5c-0.1-0.2-0.3-0.4-0.5-0.4
		c-0.2,0-0.4,0.2-0.5,0.4l-0.1,1.3l-0.1-0.4c-0.1-0.2-0.3-0.4-0.5-0.4c-0.2,0-0.4,0.2-0.5,0.4l-0.1,0.7l-0.3-2.9
		c0-0.2-0.2-0.4-0.5-0.4c-0.2,0-0.5,0.1-0.5,0.4l-0.5,2l-0.2-1.9c0-0.2-0.2-0.4-0.5-0.4c-0.2,0-0.5,0.2-0.5,0.4l-0.5,2.7l-0.4-1.7
		c-0.1-0.2-0.3-0.4-0.5-0.4c-0.2,0-0.4,0.2-0.5,0.5l-0.1,1.2c-0.1-0.5-0.3-1-0.4-1.2c-0.2-0.3-0.5-0.3-0.7-0.3
		c-0.2,0-0.4,0.1-0.6,0.6c-0.1-0.8-0.1-1.5-0.1-1.8c0-0.3-0.2-0.5-0.5-0.6c-0.2,0-0.4,0-0.5,0.6l0,0c0,0,0,0,0,0.1
		c-0.1,0.6-0.3,1.8-0.5,4.3l-0.5-0.9c-0.1-0.2-0.3-0.3-0.5-0.3c-0.2,0-0.4,0.1-0.4,0.3l-0.2,0.7l-0.3-2.5c0-0.2-0.2-0.4-0.5-0.4
		c-0.3,0-0.5,0.2-0.5,0.4l-0.5,2.5l-0.5-2.1c-0.1-0.2-0.2-0.4-0.5-0.4c-0.2,0-0.4,0.2-0.5,0.4l-0.2,1.5l-0.5-2.3
		c-0.1-0.2-0.3-0.4-0.5-0.4c-0.2,0-0.4,0.2-0.5,0.5l-0.4,4.1l-0.6-3.2c0-0.2-0.2-0.4-0.5-0.4h0c-0.2,0-0.4,0.2-0.5,0.4l-0.3,1.7
		l-0.2-1.7c0-0.2-0.2-0.4-0.5-0.5c-0.3,0-0.5,0.2-0.5,0.4l-0.1,0.5l-0.1-1c0-0.2-0.2-0.4-0.5-0.4c-0.3,0-0.5,0.2-0.5,0.4l-0.4,2.2
		l-0.5-3.6c0-0.2-0.2-0.4-0.5-0.4c-0.3,0-0.5,0.2-0.5,0.5l-0.3,3.1l-0.4-2.9c0-0.2-0.2-0.4-0.5-0.4c0,0,0,0,0,0
		c-0.3,0-0.5,0.2-0.5,0.4l-0.2,1.8l0-0.1c0-0.2-0.2-0.4-0.4-0.4c-0.2,0-0.5,0.1-0.5,0.3l-0.6,1.8l-0.2-1.2c0-0.2-0.2-0.4-0.5-0.4
		c-0.3,0-0.5,0.2-0.5,0.5l-0.1,0.7l-0.2-1.2c0-0.2-0.2-0.4-0.5-0.4c-0.2,0-0.5,0.1-0.5,0.4l-0.3,1.1l-0.2-1c0-0.2-0.3-0.5-0.5-0.4
		c-0.2,0-0.5,0.2-0.5,0.4l-0.1,0.4l-0.2-0.9c0-0.2-0.2-0.4-0.5-0.4c-0.2,0-0.4,0.1-0.5,0.4l-0.2,0.7l-0.1-1.1c0-0.2-0.2-0.4-0.5-0.5
		c-0.3,0-0.5,0.1-0.5,0.4l-0.4,1.7l-0.1-1.1c0-0.2-0.2-0.4-0.4-0.5c-0.3,0-0.5,0.1-0.5,0.4c0,0-0.2,0.9-0.5,1.8c0-0.3,0-0.6,0-1
		c0-0.2-0.2-0.5-0.4-0.5c-0.2,0-0.5,0.1-0.6,0.3l-1,2.7v-2.7c0-0.3-0.2-0.5-0.4-0.5c-0.3,0-0.5,0.1-0.5,0.4l-0.2,0.8l-0.3-5.6
		c0-0.3-0.2-0.5-0.5-0.5c-0.3,0-0.5,0.1-0.5,0.4l-0.4,1.7l-0.8-6.7c0-0.3-0.2-0.4-0.5-0.4c0,0,0,0,0,0c-0.3,0-0.5,0.2-0.5,0.5
		c-0.1,1.4-0.3,3.3-0.5,4.9c-0.1-1.2-0.2-2.6-0.2-3.7c0-0.3-0.2-0.5-0.5-0.5c0,0,0,0,0,0c-0.3,0-0.5,0.2-0.5,0.5l-0.2,4.3l-0.7-4.8
		c0-0.2-0.2-0.4-0.5-0.4c-0.2,0-0.4,0.1-0.5,0.4l-0.2,0.7l-0.3-3.5c0-0.3-0.2-0.5-0.5-0.5c-0.2,0-0.4,0.2-0.5,0.4l-0.5-10.8
		c0-0.3-0.2-0.5-0.5-0.5c-0.3,0-0.5,0.2-0.5,0.4l-0.1,1.4l-0.3-15.9c0-0.3-0.2-0.5-0.5-0.5c-0.3,0-0.5,0.2-0.5,0.5l-0.4,6.8L121,6.1
		c0-0.3-0.2-0.5-0.5-0.5c0,0,0,0,0,0c-0.3,0-0.5,0.2-0.5,0.5l-0.4,6.9c0-3.7-0.1-6.6-0.1-6.9c0-0.3-0.2-0.5-0.5-0.5
		c-0.3,0-0.4,0-0.5,0.5h0c0,0,0,0.1,0,0.2c-0.1,0.5-0.1,1.4-0.2,2.8c-0.1,1.4-0.2,3.1-0.4,4.9l-0.1-6.5c0-0.3-0.2-0.5-0.5-0.5
		c-0.3,0-0.5,0.2-0.5,0.5l-0.4,8.8l-0.5-14.3c0-0.3-0.2-0.5-0.5-0.5c-0.3,0-0.5,0.2-0.5,0.5L114.5,18l-0.8-11.5
		c0-0.3-0.2-0.5-0.5-0.5c0,0,0,0,0,0c-0.3,0-0.5,0.2-0.5,0.5l-0.6,12.7l-0.8-10.5c0-0.3-0.3-0.5-0.5-0.5c-0.3,0-0.5,0.2-0.5,0.5
		l-0.2,8.1L109.4,6c0-0.3-0.2-0.5-0.5-0.5c0,0,0,0,0,0c-0.3,0-0.5,0.2-0.5,0.5l-0.4,8.7l-0.3-7c0-0.3-0.2-0.5-0.5-0.5c0,0,0,0,0,0
		c-0.3,0-0.5,0.2-0.5,0.5l-0.2,5.6L106.2,8c0-0.3-0.2-0.5-0.5-0.5c0,0,0,0,0,0c-0.3,0-0.5,0.2-0.5,0.5l-0.3,6.7l-0.4-11.3
		c0-0.3-0.2-0.5-0.5-0.5c0,0,0,0,0,0c-0.3,0-0.5,0.2-0.5,0.5l-0.4,9.2l-0.1-2.4c0-0.3-0.2-0.5-0.5-0.5c0,0,0,0,0,0
		c-0.3,0-0.5,0.2-0.5,0.5l-0.2,4.1l-0.2-8.9c0-0.3-0.2-0.5-0.5-0.5c0,0,0,0,0,0c-0.3,0-0.5,0.2-0.5,0.5l-0.3,8.7l-0.4-8.7
		c0-0.3-0.2-0.5-0.5-0.5c-0.3,0-0.5,0.2-0.5,0.5l-0.1,10.6L98,5.5c0-0.3-0.3-0.5-0.5-0.5c-0.3,0-0.5,0.2-0.5,0.5l-0.1,6L96.3,0
		c0-0.3-0.2-0.5-0.5-0.5c-0.3,0-0.5,0.2-0.5,0.5l-0.3,11.5l-0.1-3.3c0-0.3-0.2-0.5-0.5-0.5c-0.2,0-0.5,0.2-0.5,0.5l-0.5,6.6
		L93.1,3.9c0-0.3-0.2-0.5-0.5-0.5c-0.3,0-0.5,0.2-0.5,0.5l-0.4,7.3l0-3.7c0-0.3-0.2-0.5-0.5-0.5c-0.2,0-0.5,0.2-0.5,0.5l-0.4,8.1
		l-0.6-8.3c0-0.3-0.2-0.4-0.5-0.5c-0.3,0-0.5,0.2-0.5,0.5l-0.3,8.6L88,7.7c0-0.3-0.2-0.5-0.5-0.5c0,0,0,0,0,0
		c-0.3,0-0.5,0.2-0.5,0.5L86.8,14l-0.2-4.8c0-0.3-0.2-0.5-0.5-0.5c0,0,0,0,0,0c-0.3,0-0.5,0.2-0.5,0.5l-0.5,8.5l-0.5-9.4
		c0-0.3-0.2-0.5-0.5-0.5c0,0,0,0,0,0c-0.3,0-0.5,0.2-0.5,0.5l-0.1,2.5l-0.2-4.7c0-0.3-0.2-0.5-0.5-0.5c-0.3,0-0.5,0.2-0.5,0.5
		L82,15.1l-0.3-9.1c0-0.3-0.2-0.5-0.5-0.5c0,0,0,0,0,0c-0.3,0-0.5,0.2-0.5,0.5l-0.4,8l-0.1-3.6c0-0.3-0.2-0.5-0.5-0.5
		c-0.3,0-0.5,0.2-0.5,0.5l-0.6,7.7L78.3,8c0-0.3-0.2-0.5-0.5-0.5c0,0,0,0,0,0c-0.3,0-0.5,0.2-0.5,0.5l-0.4,7.3l-0.3-9.8
		c0-0.3-0.2-0.5-0.5-0.5c0,0,0,0,0,0c-0.3,0-0.5,0.2-0.5,0.5l-0.3,7.9l-0.1-4.7c0-0.3-0.2-0.5-0.5-0.5c-0.3,0-0.5,0.2-0.5,0.5
		l-0.4,8.5L73.4,9c0-0.3-0.2-0.5-0.5-0.5c0,0,0,0,0,0c-0.3,0-0.5,0.2-0.5,0.5l-0.3,6.1L72,9.5C72,9.2,71.8,9,71.5,9
		C71.2,9,71,9.2,71,9.4c-0.1,3.1-0.3,7-0.5,10.4c-0.2-3.8-0.3-8.4-0.5-12.1c0-0.3-0.2-0.5-0.5-0.5h0c-0.3,0-0.5,0.2-0.5,0.5
		l-0.3,7.9l-0.4-8.4c0-0.3-0.2-0.5-0.5-0.5h0c-0.3,0-0.5,0.2-0.5,0.5l-0.3,5.6C67,6.9,66.9,1.5,66.9,1.2c0-0.3-0.2-0.5-0.5-0.5
		c-0.2,0-0.4,0-0.4,0.5l-0.1,0c0,0,0,0.2,0,0.4c-0.1,0.6-0.1,1.7-0.2,3.6c-0.1,2.4-0.2,5.7-0.3,9c0,0,0,0.1,0,0.1
		c-0.1-2.2-0.1-4.2-0.2-5.6c0-0.3-0.2-0.5-0.5-0.5c0,0,0,0,0,0c-0.3,0-0.5,0.2-0.5,0.5c0,0.3-0.2,3.6-0.3,7.2
		c-0.2-4.2-0.5-8.7-0.6-11.3c0-0.3-0.2-0.5-0.5-0.5c-0.3,0-0.5,0.2-0.5,0.5l-0.1,12.5l-0.6-7.5c0-0.3-0.2-0.4-0.5-0.5
		c-0.3,0-0.5,0.2-0.5,0.5l-0.2,6c-0.1-3.1-0.2-5.8-0.2-6.2c0-0.3-0.2-0.5-0.5-0.6c-0.3,0-0.4,0-0.5,0.5l0,0c0,0.1,0,0.1,0,0.2
		c-0.1,0.5-0.1,1.4-0.1,2.7c0,1.1-0.1,2.5-0.1,4L58.4,7c0-0.3-0.2-0.5-0.5-0.5c0,0,0,0,0,0c-0.3,0-0.5,0.2-0.5,0.5l-0.2,6.4
		l-0.2-6.6c0-0.3-0.2-0.5-0.5-0.5c0,0,0,0,0,0c-0.3,0-0.5,0.2-0.5,0.5l-0.3,7.1L55.5,9c0-0.3-0.2-0.5-0.5-0.5
		c-0.3,0-0.5,0.2-0.5,0.5l-0.4,8.3l-0.3-7.6c0-0.3-0.2-0.5-0.5-0.5c-0.3,0-0.5,0.2-0.5,0.5l-0.3,7l-0.4-7c0-0.3-0.2-0.5-0.5-0.5
		c-0.3,0-0.5,0.2-0.5,0.5l-0.3,6.9l-0.4-7.2c0-0.3-0.2-0.5-0.5-0.5c-0.3,0-0.5,0.2-0.5,0.5l0,1.8l-0.2-4.7c0-0.3-0.2-0.5-0.5-0.5
		c0,0,0,0,0,0c-0.3,0-0.5,0.2-0.5,0.5l-0.5,11.7L47,3.9c0-0.3-0.2-0.5-0.5-0.5c0,0,0,0,0,0c-0.3,0-0.5,0.2-0.5,0.5l-0.4,7.3l0-2.9
		c0-0.3-0.2-0.5-0.5-0.5c-0.2,0-0.5,0.2-0.5,0.4l-0.7,6.4l-0.2-6.9c0-0.3-0.2-0.5-0.5-0.5c0,0,0,0,0,0c-0.3,0-0.5,0.2-0.5,0.5
		l-0.1,2.9l-0.1-3.8c0-0.3-0.2-0.5-0.5-0.5h0c-0.3,0-0.5,0.2-0.5,0.5l-0.3,7l-0.4-8.9c0-0.3-0.2-0.5-0.5-0.5c0,0,0,0,0,0
		c-0.3,0-0.5,0.2-0.5,0.5l-0.3,10.6L39,6.8c0-0.3-0.3-0.5-0.5-0.5c-0.3,0-0.5,0.2-0.5,0.5l-0.3,9.7l-0.4-6.8c0-0.3-0.2-0.5-0.5-0.5
		c-0.3,0-0.5,0.2-0.5,0.5l-0.1,5.6l-0.4-5.8c0-0.3-0.2-0.5-0.5-0.5c0,0,0,0,0,0c-0.3,0-0.5,0.2-0.5,0.5l-0.4,6.7L34.1,5.8
		c0-0.3-0.2-0.5-0.5-0.5c0,0,0,0,0,0c-0.3,0-0.5,0.2-0.5,0.5l-0.4,9l-0.3-9.3c0-0.3-0.2-0.5-0.5-0.5c-0.3,0-0.5,0.2-0.5,0.5l-0.3,10
		l-0.4-7.4c0-0.3-0.2-0.5-0.5-0.5c-0.3,0-0.5,0.2-0.5,0.5l-0.1,8.7L29,8.5C29,8.2,28.8,8,28.5,8c0,0,0,0,0,0c-0.3,0-0.5,0.2-0.5,0.5
		L27.8,12V6.6c0-0.3-0.2-0.5-0.5-0.5c-0.3,0-0.5,0.2-0.5,0.5L26,17.6L25.6,7.5c0-0.3-0.2-0.5-0.5-0.5c0,0,0,0,0,0
		c-0.3,0-0.5,0.2-0.5,0.5l-0.2,7.8L24.2,9c0-0.3-0.2-0.5-0.5-0.5c0,0,0,0,0,0c-0.3,0-0.5,0.2-0.5,0.5L23,16.1l-0.5-7.8
		c0-0.3-0.2-0.5-0.5-0.5c-0.3,0-0.5,0.2-0.5,0.5c0,1.9-0.1,4-0.1,6.2c0-1.3-0.1-2.6-0.1-3.8c0-0.3-0.2-0.5-0.5-0.5c0,0,0,0,0,0
		c-0.3,0-0.5,0.2-0.5,0.5L20,16.9l-0.4-8.4c0-0.3-0.2-0.5-0.5-0.5c0,0,0,0,0,0c-0.3,0-0.5,0.2-0.5,0.5l-0.2,9.3L17.6,7.2
		c0-0.3-0.2-0.5-0.5-0.5c0,0,0,0,0,0c-0.3,0-0.5,0.2-0.5,0.5l-0.1,8.9l-0.6-8.7c0-0.3-0.2-0.5-0.5-0.5c-0.3,0-0.5,0.2-0.5,0.5
		l-0.2,7.1l-0.3-4.5c0-0.3-0.2-0.5-0.5-0.5c-0.3,0-0.5,0.2-0.5,0.5l-0.4,6.3L12.5,3.1c0-0.3-0.2-0.5-0.5-0.5c0,0,0,0,0,0
		c-0.3,0-0.5,0.2-0.5,0.5v12.8l-0.2-2.4c0-0.3-0.2-0.5-0.5-0.5c-0.3,0-0.5,0.2-0.5,0.5l-0.1,4.6L9.6,6.3c0-0.3-0.2-0.5-0.5-0.5
		c0,0,0,0,0,0C8.8,5.8,8.6,6,8.6,6.3l-0.3,9.5L7.9,7.3c0-0.3-0.2-0.5-0.5-0.5c0,0,0,0,0,0C7.1,6.8,6.9,7,6.9,7.3L6.5,20L5.7,7
		c0-0.3-0.2-0.4-0.5-0.5C5,6.5,4.7,6.8,4.7,7l-0.1,3.7L4.5,8c0-0.3-0.2-0.5-0.5-0.5C3.8,7.5,3.5,7.7,3.5,8l-0.3,6.7L2.8,3.1
		c0-0.3-0.2-0.5-0.5-0.5c0,0,0,0,0,0c-0.3,0-0.5,0.2-0.5,0.5L0.9,22.6C0.4,22.7,0,23.2,0,23.7C0,24.3,0.5,24.8,1.1,24.8z"/>
	<path class="st0" d="M263.1,56.6c-0.4,0-0.7,0.2-0.9,0.5l-0.2-0.8c-0.1-0.2-0.3-0.4-0.5-0.4c-0.2,0-0.4,0.2-0.5,0.4l-0.2,1.3
		c-0.1-0.1-0.2-0.2-0.3-0.2c-0.2,0-0.3,0-0.4,0.1l-0.9,0.8l-0.3-0.6c-0.1-0.2-0.3-0.3-0.5-0.3c-0.2,0-0.4,0.2-0.4,0.4l-0.6,2.3l-1-3
		c-0.1-0.2-0.3-0.4-0.5-0.3c-0.2,0-0.4,0.2-0.4,0.4l-0.3,2.3L255,59c-0.1-0.2-0.2-0.3-0.5-0.3c-0.2,0-0.4,0.2-0.5,0.4l-0.1,0.4
		l-0.9-2.5c-0.1-0.2-0.2-0.3-0.4-0.3c-0.2,0-0.4,0.1-0.5,0.3l-0.7,1.4l-1.7-0.1l-0.9-0.2c-0.2,0-0.5,0.1-0.6,0.3
		c-0.1,0.3-0.3,0.6-0.5,0.9c-0.1-0.5-0.1-1.2-0.1-2c-0.2-1.1-0.5-2.9-0.5-3.2c0-0.3-0.2-0.5-0.5-0.5c-0.4-0.1-0.5-0.1-1.1,2.3
		l-0.2-0.5c-0.1-0.2-0.3-0.3-0.5-0.3c-0.2,0-0.4,0.2-0.4,0.4l-0.2,0.8l-0.9,2.4l-0.7,1.6l-0.5-0.5l-0.8-1.8
		c-0.1-0.2-0.2-0.3-0.4-0.3c-0.2,0-0.4,0.1-0.5,0.3l-0.6,1.1l-0.2-0.8c-0.1-0.2-0.2-0.4-0.5-0.4c-0.3,0-0.4,0.1-0.5,0.3l-0.6,1.7
		l-0.7-2.2c-0.1-0.2-0.3-0.3-0.5-0.3c-0.2,0-0.4,0.2-0.5,0.4l-0.5,1.9l-0.8-3.3c-0.1-0.2-0.3-0.4-0.5-0.4c0,0,0,0,0,0
		c-0.2,0-0.4,0.2-0.5,0.4l-0.5,2l-0.9,0.3l-0.7-1.5c-0.1-0.2-0.3-0.3-0.5-0.3c-0.2,0-0.4,0.1-0.5,0.3l-0.7,1.9c0,0,0,0-0.1,0h-0.9
		c-0.1-0.3-0.4-0.8-0.5-1.5c-0.1-0.6-0.4-0.6-0.6-0.6c-0.4,0-0.6,1-0.7,2.2c-0.1-0.5-0.2-1-0.2-1.4c0-0.3-0.2-0.4-0.5-0.4
		c-0.3,0-0.5,0.2-0.5,0.5c0,0.1,0,0.5-0.1,1.2c0,0,0,0,0,0c0-0.1-0.1-0.3-0.3-0.3c-0.1-0.1-0.3-0.1-0.4,0l-0.6,0.3l-0.3-1.8
		c0-0.2-0.2-0.4-0.5-0.4h0c-0.2,0-0.5,0.2-0.5,0.4c0,0.1-0.2,1.1-0.3,2.3c0-0.3-0.1-0.5-0.1-0.8c0-0.2-0.2-0.4-0.4-0.4
		c-0.2,0-0.4,0.1-0.5,0.2l-0.6,1l0-0.5c0-0.2-0.2-0.4-0.4-0.4c-0.2,0-0.4,0.1-0.5,0.2l-0.3,0.5l-0.4-1.2c-0.1-0.2-0.2-0.4-0.5-0.4
		c-0.1,0-0.2,0-0.2,0.1l0.1-1.8c0-0.3-0.2-0.5-0.4-0.5c-0.3,0-0.5,0.1-0.6,0.4l-0.8,3l-0.7-2.7c-0.1-0.2-0.3-0.4-0.5-0.4
		c-0.2,0-0.4,0.1-0.5,0.4l-0.4,1.4l-0.2-0.7c0-0.2-0.2-0.3-0.3-0.3c-0.2-0.1-0.3,0-0.5,0.1l-0.7,0.5c-0.1,0.1-0.2,0.2-0.2,0.3
		l-0.2,1.3l-0.4-1.7c0-0.2-0.2-0.4-0.5-0.4c-0.2,0-0.4,0.2-0.5,0.4l-0.6,2.8h-0.1l-0.9-3.1c-0.1-0.2-0.3-0.4-0.5-0.4
		c-0.2,0-0.4,0.2-0.5,0.4l-0.2,1.2c-0.1-0.1-0.3-0.2-0.4-0.2c-0.1,0-0.2,0.1-0.3,0.1l-0.2-1.3c0-0.2-0.2-0.4-0.4-0.4
		c-0.2,0-0.4,0-0.5,0.2l-1,1.6c0,0-0.1,0.1-0.1,0.1l-0.2,0.6l-0.3-1.2c0-0.2-0.2-0.3-0.3-0.4c-0.2-0.1-0.3,0-0.5,0.1l-0.3,0.2
		l-0.4-0.6c-0.1-0.2-0.3-0.2-0.5-0.2c-0.2,0-0.4,0.2-0.4,0.4l-0.3,1.2l-0.5-3.2c0-0.3-0.3-0.4-0.5-0.4c-0.3,0-0.5,0.2-0.5,0.5v2.6
		l-0.5,0.2l-0.6-3.1c0-0.2-0.2-0.4-0.5-0.4c-0.2,0-0.4,0.1-0.5,0.3l-0.5,1.6l-0.3,1.5c0-1.4,0-2.8,0.1-4c0-0.2-0.1-0.4-0.3-0.5
		c-0.2-0.1-0.4,0-0.6,0.2l-1.2,1.7c0,0,0,0.1,0,0.1c-0.2-0.8-0.3-1.5-0.3-1.7c0-0.3-0.2-0.5-0.5-0.5c-0.2,0-0.4,0-0.5,0.5
		c0,0,0,0,0,0c-0.2,0.6-0.5,2-1.1,4.8c0-0.2-0.2-0.4-0.4-0.4c-0.2,0-0.5,0.1-0.5,0.3l-0.4,1.1l-0.3-1c-0.1-0.2-0.2-0.4-0.4-0.4
		c-0.2,0-0.4,0.1-0.5,0.3l-0.3,0.7l-0.3-1.1c-0.1-0.2-0.3-0.4-0.5-0.4c-0.2,0-0.4,0.2-0.4,0.5l-0.1,1.1l-0.5-0.4
		c-0.1-0.1-0.3-0.2-0.5-0.1c-0.2,0.1-0.3,0.2-0.3,0.4l-0.3,1.3l-0.3-2c0-0.2-0.2-0.4-0.4-0.4c-0.2,0-0.4,0.1-0.5,0.3l-0.3,0.8
		l-0.5-0.9c-0.1-0.2-0.3-0.3-0.5-0.2c-0.2,0-0.4,0.2-0.4,0.4l-0.1,0.7l-0.3-1.3c-0.1-0.2-0.3-0.4-0.5-0.4c-0.2,0-0.4,0.2-0.5,0.4
		l-0.1,0.4c-0.1-0.3-0.4-0.4-0.4-0.4c-0.3,0-0.5,0-1,1.3l-0.4-1c-0.1-0.2-0.2-0.3-0.5-0.3c-0.1,0-0.3,0.1-0.4,0.2l-0.5-3.1
		c0-0.3-0.2-0.4-0.5-0.4c-0.3,0-0.5,0.2-0.5,0.5l-0.2,3.2l-0.8,1.1c0,0,0,0.1-0.1,0.1l-0.1,0.4l-0.1-1c0-0.3-0.2-0.4-0.5-0.4
		c0,0,0,0,0,0c-0.2,0-0.4,0.1-0.5,0.3l-0.3-0.6c-0.1-0.2-0.3-0.3-0.5-0.3c-0.2,0-0.4,0.2-0.4,0.4l-0.2,1.1c-0.1-0.3-0.2-0.5-0.2-0.7
		c0-0.5-0.3-0.7-0.5-0.7c-0.4-0.1-0.6,0.2-0.8,0.7l-0.8-0.3c-0.2-0.1-0.5,0-0.6,0.2l-0.2,0.3l-0.1-0.7c0-0.2-0.2-0.4-0.5-0.4
		c-0.3,0-0.5,0.2-0.5,0.4l-0.3,1.5l-0.5-1.7c-0.1-0.2-0.2-0.3-0.4-0.4c-0.2,0-0.4,0.1-0.5,0.3l-0.9,1.7l-0.1,0.2l-0.2-1
		c0-0.2-0.2-0.4-0.4-0.4c-0.1,0-0.2,0-0.3,0.1l-0.1-0.7c0-0.2-0.2-0.4-0.4-0.4c-0.2,0-0.4,0-0.5,0.2l-0.5,0.8l-0.4-0.6
		c-0.1-0.1-0.2-0.2-0.4-0.2c-0.2,0-0.3,0.1-0.4,0.2l-0.4,0.6l-0.3-1.1c0-0.2-0.2-0.3-0.4-0.4c-0.2,0-0.4,0-0.5,0.2l-0.8,1.2l-0.8-1
		c-0.1-0.1-0.3-0.2-0.4-0.2c-0.2,0-0.3,0.1-0.4,0.3l-0.6,1.2l-0.4-0.7c-0.1-0.2-0.3-0.3-0.5-0.2c-0.2,0-0.4,0.2-0.4,0.4l-0.1,0.7
		c-0.1-0.1-0.2-0.2-0.3-0.2c-0.2-0.1-0.4,0-0.5,0.2l-0.4,0.5l-0.1-0.8c0-0.2-0.2-0.4-0.4-0.4c-0.2,0-0.4,0.1-0.5,0.2l-0.6,0.9
		l-0.6-0.5c0,0-0.1-0.1-0.1-0.1l-1.6-0.7c-0.2-0.1-0.3-0.1-0.5,0s-0.2,0.2-0.2,0.4v0.5l-0.3-0.4c-0.1-0.1-0.2-0.2-0.4-0.2h-0.9
		c-0.2,0-0.4,0.1-0.4,0.3l-0.4,0.8l-0.6-2.4c-0.1-0.2-0.2-0.4-0.5-0.4c-0.2,0-0.4,0.1-0.5,0.4l-0.8,2.9l-0.3-1.8
		c0-0.2-0.2-0.4-0.5-0.4c-0.2,0-0.4,0.1-0.5,0.2l-0.3-2.9c0-0.2-0.2-0.4-0.5-0.4c-0.3,0-0.5,0.1-0.5,0.4l-0.9,3.3c0,0,0,0,0,0
		c-0.2-0.1-0.4,0-0.5,0.2l-0.8,1.2l-0.1-0.2c-0.1-0.2-0.2-0.3-0.4-0.4c-0.2,0-0.4,0.1-0.5,0.3l-0.4,0.7l-0.1-1.6
		c0-0.2-0.2-0.4-0.4-0.5c-0.2,0-0.5,0.1-0.5,0.4l-0.2,0.6c0-0.1-0.1-0.1-0.2-0.2c-0.1-0.1-0.3-0.1-0.4,0l-1,0.5
		c-0.1,0.1-0.2,0.1-0.2,0.2l-0.4,0.8l-0.3-1.5c0-0.2-0.2-0.4-0.4-0.4c-0.2,0-0.4,0.1-0.5,0.3l-0.4,0.9l-0.3-0.9
		c-0.1-0.2-0.2-0.3-0.4-0.3c-0.2,0-0.4,0.1-0.5,0.2l-0.4,0.7l-0.1-0.8c0-0.2-0.1-0.4-0.3-0.4c-0.2-0.1-0.4,0-0.5,0.1l-1.5,1.5
		l-0.8,0.5l-0.6-0.4c-0.2-0.1-0.5-0.1-0.7,0.1l-0.4,0.6l-0.4-1.6c-0.1-0.2-0.3-0.4-0.5-0.4c-0.2,0-0.4,0.2-0.5,0.4l-0.3,1.9
		l-0.2-0.9c0-0.2-0.2-0.4-0.5-0.4c-0.2,0-0.4,0.2-0.5,0.4l-0.6,3.9l-0.6-6c0-0.3-0.2-0.4-0.5-0.5c0,0,0,0,0,0
		c-0.3,0-0.5,0.2-0.5,0.4l-0.8,6.3l-0.4-2.2c0-0.2-0.3-0.4-0.5-0.4c-0.2,0-0.5,0.2-0.5,0.4c0,0.1-0.1,0.9-0.3,2
		c-0.1-2-0.1-4-0.2-5.8l-0.2-13.3c0-0.3-0.2-0.5-0.5-0.5c-0.3,0-0.5,0.2-0.5,0.4l-0.8,6.2l-0.9-4.3c0-0.2-0.3-0.4-0.5-0.4
		c-0.3,0-0.5,0.2-0.5,0.5l0,0.4l-0.2-2.1c0-0.3-0.2-0.5-0.5-0.5c-0.3,0-0.5,0.2-0.5,0.4l-0.5,4.7l-0.4-3.1c0-0.3-0.3-0.4-0.5-0.4
		c-0.3,0-0.5,0.2-0.5,0.4l-0.4,3.9l-0.1-0.3c-0.1-0.2-0.3-0.4-0.5-0.4c-0.3,0-0.4,0.2-0.4,0.5v0.4l-1-3.7c-0.1-0.2-0.3-0.4-0.5-0.4
		c-0.2,0-0.4,0.2-0.5,0.4l-0.3,2.1l-0.4-3.7c0-0.3-0.3-0.5-0.5-0.5c-0.3,0-0.5,0.2-0.5,0.5l-0.1,3.2l-0.6-3.6c0-0.3-0.3-0.4-0.5-0.4
		c-0.3,0-0.5,0.2-0.5,0.5v4l-0.5-3.1c0-0.3-0.3-0.4-0.5-0.4c-0.3,0-0.5,0.2-0.5,0.5l-0.2,2.7l-0.3-2c0-0.2-0.2-0.4-0.5-0.4
		c0,0,0,0,0,0c-0.2,0-0.5,0.2-0.5,0.4l-0.3,1.8l-0.4-2.5c0-0.3-0.3-0.4-0.5-0.4c-0.3,0-0.5,0.2-0.5,0.5l-0.1,2.6l-0.4-2.6
		c0-0.3-0.3-0.4-0.5-0.4c-0.3,0-0.5,0.2-0.5,0.5l-0.2,3.8l-0.5-2.4c0-0.2-0.3-0.4-0.5-0.4c-0.2,0-0.5,0.2-0.5,0.5l-0.1,0.8l-0.4-3.2
		c0-0.3-0.2-0.5-0.5-0.4c-0.3,0-0.5,0.2-0.5,0.5l-0.1,5.1l-0.8-3.3c-0.1-0.2-0.3-0.4-0.5-0.4c-0.3,0-0.4,0.2-0.4,0.5v3.8l-0.7-2.8
		c-0.1-0.2-0.3-0.4-0.5-0.4c-0.2,0-0.4,0.2-0.5,0.5l0,0.7c-0.1-0.1-0.2-0.2-0.4-0.2c0,0,0,0,0,0c-0.2,0-0.4,0.2-0.5,0.4l-0.4,1.8
		L95,48c0-0.2-0.2-0.4-0.5-0.4c0,0,0,0,0,0c-0.2,0-0.4,0.2-0.5,0.4l-0.6,3.2L92.9,47c0-0.2-0.2-0.4-0.5-0.4c0,0,0,0,0,0
		c-0.3,0-0.5,0.2-0.5,0.4l-0.3,2.3l-0.2-1.5c0-0.2-0.2-0.4-0.5-0.4c-0.3,0-0.5,0.2-0.5,0.4l-0.3,1.5L90,47.5c0-0.3-0.2-0.5-0.5-0.5
		S89,47.3,89,47.5l-0.4,3.5L88,47.5c0-0.2-0.3-0.5-0.5-0.4c-0.3,0-0.5,0.2-0.5,0.5l0,0.7l-0.2-1.9c0-0.2-0.2-0.4-0.5-0.5
		c-0.2,0-0.5,0.2-0.5,0.4l-0.7,3.1l0-0.6c0-0.3-0.2-0.5-0.5-0.5c-0.2,0-0.5,0.2-0.5,0.4l-0.3,1.6l-0.4-3.5c0-0.3-0.2-0.4-0.5-0.4
		c0,0,0,0,0,0c-0.3,0-0.5,0.2-0.5,0.4L82.1,50l-0.6-4c0-0.2-0.2-0.4-0.5-0.4c-0.3,0-0.5,0.2-0.5,0.5l-0.3,3.6l-0.4-2.5
		c0-0.3-0.2-0.4-0.5-0.4c-0.3,0-0.5,0.2-0.5,0.5l-0.3,3.1L78.3,48c0-0.2-0.2-0.4-0.5-0.5c-0.3,0-0.5,0.1-0.5,0.4l-0.4,1.6l-0.1-2
		c0-0.3-0.2-0.5-0.5-0.5c-0.3,0-0.5,0.2-0.5,0.4l-0.4,2.9l-0.5-4.3c0-0.2-0.2-0.4-0.5-0.4c-0.3,0-0.5,0.2-0.5,0.4l-0.3,2.3L73.4,47
		c0-0.3-0.2-0.4-0.5-0.5c-0.3,0-0.5,0.2-0.5,0.4L72,50.1l-0.3-1c-0.1-0.2-0.3-0.4-0.5-0.4c-0.2,0-0.4,0.2-0.5,0.4l-0.3,1.4l-0.2-3
		c0-0.3-0.2-0.5-0.5-0.5c0,0,0,0,0,0c-0.3,0-0.5,0.2-0.5,0.5l-0.2,3l-0.5-4.3c0-0.3-0.3-0.4-0.5-0.4c-0.3,0-0.5,0.2-0.5,0.5
		l-0.4,5.4L66.8,51c-0.1-0.2-0.3-0.3-0.5-0.3c-0.2,0-0.4,0.1-0.4,0.3l-0.2,0.4l0.2-5.3c0-0.3-0.2-0.5-0.4-0.5
		c-0.3,0-0.5,0.1-0.5,0.4L64,50.8l-0.5-3.3c0,0,0,0,0,0l0,0c0,0,0,0,0,0c0-0.3-0.3-0.5-0.6-0.4c-0.3,0-0.5,0.3-0.4,0.6l0,0
		c0,0.1,0.2,1.5,0,3.2c-0.1,0.6-0.2,1.2-0.4,1.7L61.6,47c0-0.3-0.2-0.5-0.5-0.5c0,0,0,0,0,0c-0.3,0-0.5,0.2-0.5,0.4l-0.2,2.3
		l-0.2-2.1c0-0.3-0.2-0.4-0.5-0.4c0,0,0,0,0,0c-0.3,0-0.5,0.2-0.5,0.4l-0.3,2.5l-0.2-1.3c0-0.3-0.2-0.4-0.5-0.4
		c-0.3,0-0.5,0.2-0.5,0.5l-0.2,2.7l-0.5-2.3c-0.1-0.2-0.2-0.4-0.5-0.4c-0.2,0-0.4,0.2-0.5,0.4c0,0.2-0.2,1.2-0.4,2.3
		c-0.1-0.8-0.2-1.6-0.3-2.3c0-0.2-0.2-0.4-0.5-0.4c-0.2,0-0.5,0.2-0.5,0.4l-0.3,1.7l-0.4-3.2c0-0.2-0.2-0.4-0.5-0.4
		c-0.2,0-0.5,0.2-0.5,0.4l-0.2,1.3l-0.2-3.4c0-0.3-0.2-0.5-0.5-0.5c0,0,0,0,0,0c-0.3,0-0.5,0.2-0.5,0.5l-0.4,4.3L50.4,47
		c0-0.3-0.2-0.4-0.5-0.4c-0.3,0-0.5,0.2-0.5,0.5l-0.1,1.6l-0.1-1.8c0-0.3-0.2-0.5-0.5-0.5c-0.3,0-0.5,0.2-0.5,0.4
		c-0.1,0.4-0.3,2.3-0.6,4.3c-0.1-1.4-0.2-3-0.3-4.3c0-0.3-0.2-0.5-0.5-0.5c-0.3,0-0.5,0.2-0.5,0.4l-0.5,4.5L45.5,49
		c0-0.3-0.2-0.4-0.5-0.4c0,0,0,0,0,0c-0.3,0-0.5,0.2-0.5,0.5l-0.1,0.6l-0.2-3.5c0-0.3-0.2-0.5-0.5-0.5c-0.2,0-0.5,0.2-0.5,0.4
		l-0.4,3.7L42.6,47c0-0.2-0.2-0.4-0.5-0.5c-0.2,0-0.5,0.2-0.5,0.4c-0.2,1.3-0.5,2.9-0.8,4.4c-0.1-1.6-0.1-3.5-0.2-5.3
		c0-0.3-0.2-0.5-0.5-0.5c-0.3,0-0.5,0.2-0.5,0.4l-0.4,3.3l-0.8-2.9c-0.1-0.2-0.3-0.4-0.5-0.4c-0.2,0-0.4,0.2-0.4,0.5l-0.1,2.5
		l-0.6-3.3c0-0.3-0.3-0.4-0.5-0.4c-0.3,0-0.5,0.2-0.5,0.5l0,0.5c-0.1-0.2-0.2-0.3-0.4-0.3c-0.3,0-0.5,0.2-0.5,0.4L34.4,49l-0.2-1.3
		c0-0.2-0.2-0.4-0.5-0.4c-0.2,0-0.4,0.2-0.5,0.4L33,48.8l-0.5-4.5c0-0.3-0.3-0.5-0.5-0.4c-0.3,0-0.5,0.2-0.5,0.5
		c0,0.2-0.2,3.1-0.4,5.9c-0.1-1.1-0.2-2.3-0.3-3.3c0-0.3-0.2-0.4-0.5-0.5c-0.3,0-0.5,0.2-0.5,0.4l-0.3,2.5L29,47.7
		c0-0.2-0.2-0.4-0.5-0.4c-0.2,0-0.4,0.2-0.5,0.4l-0.3,2l-0.4-2.3c0-0.2-0.2-0.4-0.5-0.4c-0.2,0-0.5,0.2-0.5,0.4l-0.2,1.8l-0.2-2
		c0-0.3-0.2-0.4-0.5-0.4c0,0,0,0,0,0c-0.3,0-0.5,0.2-0.5,0.4l-0.3,2.6l-0.4-3.3c0-0.3-0.3-0.4-0.5-0.4c-0.3,0-0.5,0.2-0.5,0.5
		l-0.2,3.6l-0.1,1.3l-0.3-2.1c0-0.2-0.2-0.4-0.5-0.4c0,0,0,0,0,0c-0.2,0-0.4,0.2-0.5,0.4l-0.2,1.2v-2.8c0-0.3-0.2-0.5-0.4-0.5
		c-0.3,0-0.5,0.1-0.5,0.4l-0.6,2.6l-0.6-1.9C19,48.2,18.8,48,18.5,48c-0.2,0-0.4,0.2-0.4,0.5L17.9,51l-0.8-5.2
		c0-0.3-0.3-0.5-0.5-0.4c-0.3,0-0.5,0.2-0.5,0.5L16,49.3l-0.1-0.4c-0.1-0.2-0.3-0.4-0.5-0.4c-0.2,0-0.4,0.2-0.5,0.4l-0.2,0.8l-0.3-2
		c0-0.2-0.2-0.4-0.5-0.4c-0.2,0-0.5,0.2-0.5,0.4l-0.4,2.5l-0.4-1.3c-0.1-0.2-0.3-0.4-0.5-0.4c-0.2,0-0.3,0.1-0.4,0.3l-0.5-7.6
		c0-0.3-0.2-0.5-0.5-0.5c0,0,0,0,0,0c-0.3,0-0.5,0.2-0.5,0.5l-0.6,8.2l-0.6-3.8c0-0.3-0.3-0.4-0.5-0.4c-0.3,0-0.5,0.2-0.5,0.5
		L8,47.9l0-0.8c0-0.3-0.2-0.5-0.5-0.5c-0.3,0-0.5,0.2-0.5,0.4l-0.4,3l-1.1-5.2c-0.1-0.3-0.3-0.4-0.5-0.4c-0.3,0-0.4,0.2-0.4,0.5v1.8
		c-0.1-0.2-0.3-0.4-0.5-0.3c-0.2,0-0.4,0.2-0.5,0.5l-0.2,2.1l-0.3-2.2c0-0.2-0.2-0.4-0.5-0.4c0,0,0,0,0,0c-0.3,0-0.5,0.2-0.5,0.4
		l-0.9,7.6c0,0,0,0-0.1,0c-0.6,0-1.1,0.5-1.1,1.1c0,0.6,0.5,1.1,1.1,1.1s1.1-0.5,1.1-1.1c0-0.2-0.1-0.3-0.1-0.5l0.5-4.3l0.4,3
		c0,0.3,0.3,0.4,0.5,0.4c0.3,0,0.5-0.2,0.5-0.5l0.2-3.2l0.2,1.1C4.6,51.8,4.8,52,5,52c0.3,0,0.4-0.2,0.4-0.5v-1.6l0.7,3.4
		c0,0.2,0.3,0.4,0.5,0.4c0.2,0,0.4-0.2,0.5-0.4l0.1-0.5l0.2,2.7c0,0.3,0.2,0.5,0.5,0.5c0.2,0,0.5-0.2,0.5-0.5l0.4-5.2L9.4,54
		c0,0.3,0.3,0.4,0.5,0.4c0.3,0,0.5-0.2,0.5-0.5l0.4-5.7l0.5,7.4c0,0.3,0.2,0.5,0.5,0.5c0,0,0,0,0,0c0.3,0,0.5-0.2,0.5-0.5l0.3-3.6
		l0.2,0.8c0.1,0.2,0.3,0.4,0.5,0.4c0.2,0,0.4-0.2,0.5-0.4l0.2-1.6l0.2,1.4c0,0.2,0.2,0.4,0.5,0.4c0.3,0,0.5-0.2,0.5-0.4l0.3-1.4
		l0.4,1.6c0.1,0.2,0.3,0.4,0.5,0.4c0.2,0,0.4-0.2,0.4-0.5l0.1-1.4l0.7,4.4c0,0.3,0.2,0.4,0.5,0.4c0.3,0,0.5-0.2,0.5-0.5l0.3-4.5
		l0.4,1.2c0.1,0.2,0.3,0.4,0.5,0.3c0.2,0,0.4-0.1,0.4-0.3v3.5c0,0.3,0.2,0.5,0.5,0.5c0.3,0,0.5-0.2,0.5-0.4l0.7-3.6l0.5,3.1
		c0,0.2,0.2,0.4,0.5,0.4c0.3,0,0.5-0.2,0.5-0.5l0.4-3.8l0.3,2.6c0,0.3,0.3,0.4,0.5,0.4c0.3,0,0.5-0.2,0.5-0.4l0.3-2.4l0.2,1.7
		c0,0.3,0.2,0.4,0.5,0.4c0,0,0,0,0,0c0.3,0,0.5-0.2,0.5-0.4l0.3-2.6l0.4,2.1c0,0.2,0.2,0.4,0.5,0.4c0.2,0,0.5-0.2,0.5-0.4l0.3-2.3
		l0.4,1.8c0,0.2,0.2,0.4,0.5,0.4c0.2,0,0.4-0.2,0.5-0.4l0.2-1.1c0.3,2.6,0.4,4,0.6,4.7c0,0.1,0,0.2,0,0.2l0.1,0
		c0.1,0.5,0.3,0.5,0.5,0.5c0.3,0,0.5-0.3,0.5-0.5c0-0.3,0.2-3.3,0.4-6.5l0.3,2.7c0,0.2,0.2,0.4,0.5,0.4c0.3,0,0.5-0.2,0.5-0.4
		l0.3-1.8l0.2,1c0,0.2,0.2,0.4,0.5,0.4h0c0.2,0,0.4-0.2,0.5-0.4l0.3-1.8l0.4,3.3c0,0.3,0.2,0.4,0.5,0.4c0.3,0,0.5-0.2,0.5-0.5
		l0.1-2.7l0.6,3.3c0,0.3,0.3,0.4,0.5,0.4c0.3,0,0.5-0.2,0.5-0.5l0.1-3.7l0.6,2.2c0.1,0.2,0.3,0.4,0.5,0.4c0.2,0,0.3-0.1,0.4-0.2
		c0.1,3.1,0.3,3.1,0.7,3.2c0.2,0,0.5-0.1,0.6-0.4c0.1-0.4,0.5-2.4,0.8-4.3l0.4,3.7c0,0.3,0.2,0.4,0.5,0.5c0,0,0,0,0,0
		c0.3,0,0.5-0.2,0.5-0.4l0.3-2.2l0.2,4.3c0,0.3,0.2,0.5,0.5,0.5c0.3,0,0.5-0.2,0.5-0.5l0.2-2.6l0.2,2.1c0,0.3,0.2,0.4,0.5,0.4h0
		c0.3,0,0.5-0.2,0.5-0.4l0.4-3.8c0.1,1.7,0.2,2.6,0.3,3.2c0,0.1,0,0.2,0,0.3l0.1,0c0.1,0.5,0.2,0.5,0.4,0.5c0.3,0,0.5-0.3,0.5-0.5
		c0-0.3,0.2-1.9,0.5-3.8l0.2,4.5c0,0.3,0.2,0.5,0.5,0.5c0,0,0,0,0,0c0.3,0,0.5-0.2,0.5-0.5l0.4-4.7l0.3,2.6c0,0.3,0.3,0.4,0.5,0.4
		c0.3,0,0.5-0.2,0.5-0.5l0.2-2.2l0,0.5c0,0.3,0.2,0.5,0.5,0.5c0.2,0,0.5-0.2,0.5-0.4l0.4-1.9l0.4,3.1c0,0.2,0.2,0.4,0.5,0.4
		c0.2,0,0.5-0.2,0.5-0.4l0.4-1.8c0.2,1.2,0.3,2,0.4,2.4c0,0,0,0,0,0h0c0.1,0.6,0.3,0.6,0.5,0.5c0.3,0,0.5-0.3,0.5-0.6
		c0-0.3,0.2-1.7,0.5-3.1l0.7,3.2c0.1,0.2,0.3,0.4,0.5,0.4c0.2,0,0.4-0.2,0.5-0.5l0.1-1.5l0.1,0.8c0,0.2,0.2,0.4,0.5,0.4c0,0,0,0,0,0
		c0.3,0,0.5-0.2,0.5-0.4l0.2-2l0.2,2.2c0,0.3,0.2,0.4,0.5,0.4c0,0,0,0,0,0c0.3,0,0.5-0.2,0.5-0.4l0.2-2.1l0.2,2.6
		c0,0.2,0.2,0.4,0.4,0.4c0.2,0,0.4-0.1,0.5-0.2c0-0.1,0.6-1.1,1-2.6l0.2,1.4c0,0.2,0.2,0.4,0.5,0.4c0.3,0,0.5-0.2,0.5-0.4l0.3-1.4
		l-0.1,1.8c0,0.2,0.2,0.5,0.4,0.5c0.2,0.1,0.5-0.1,0.6-0.3l0.8-2l0.7,1.3c0.1,0.2,0.3,0.3,0.5,0.2c0.2,0,0.4-0.2,0.4-0.5l0.1-1.9
		l0.6,4.6c0,0.3,0.3,0.4,0.5,0.4c0.3,0,0.5-0.2,0.5-0.5l0.1-1.2c0.1,0.1,0.2,0.2,0.4,0.2c0.3,0,0.5-0.2,0.5-0.4l0.6-3.3l0.4,1.2
		c0.1,0.2,0.3,0.4,0.5,0.4c0.2,0,0.4-0.2,0.5-0.4l0.1-1l0.1,1c0,0.3,0.2,0.4,0.5,0.5c0.2,0,0.5-0.2,0.5-0.4l0.4-2.7l0.5,4.4
		c0,0.2,0.2,0.4,0.5,0.4c0,0,0,0,0,0c0.2,0,0.5-0.2,0.5-0.4l0.2-1.4l0,0.4c0,0.2,0.2,0.5,0.5,0.5c0.2,0,0.5-0.1,0.5-0.4l0.5-2.1
		l0.5,5.2c0,0.3,0.2,0.5,0.5,0.5c0,0,0,0,0,0c0.3,0,0.5-0.2,0.5-0.5l0.4-4.6l0.3,2.2c0,0.3,0.2,0.4,0.5,0.4c0.3,0,0.5-0.2,0.5-0.5
		l0.4-3.8l0.6,3.8c0,0.2,0.3,0.4,0.5,0.4c0.3,0,0.5-0.2,0.5-0.4l0.2-2.4l0.2,1.9c0,0.2,0.2,0.4,0.5,0.4c0.2,0,0.5-0.2,0.5-0.4
		l0.2-0.9l0,0.6c0,0.2,0.2,0.5,0.5,0.5c0.2,0,0.5-0.1,0.5-0.4l0.8-3.6l0.4,4.9c0,0.3,0.3,0.5,0.5,0.5c0.3,0,0.5-0.2,0.5-0.5l0.2-2.8
		l0.5,3.1c0,0.2,0.3,0.4,0.5,0.4c0.3,0,0.5-0.2,0.5-0.5l0.2-2.3c0.1,0.2,0.2,0.4,0.5,0.4c0.2,0,0.5-0.2,0.5-0.4l0.4-1.7l0.3,2.7
		c0,0.2,0.2,0.4,0.5,0.4c0,0,0,0,0,0c0.3,0,0.5-0.2,0.5-0.4l0.3-2.4l0.4,3.1c0,0.2,0.2,0.4,0.5,0.4c0.3,0,0.5-0.2,0.5-0.4l0.7-3.6
		l0.5,2.6c0,0.2,0.2,0.4,0.5,0.4c0.2,0,0.4-0.2,0.5-0.4l0.5-2l0.2,1.1c0.1,0.2,0.3,0.4,0.5,0.4c0.2,0,0.4-0.2,0.5-0.5l0.1-1l0.9,3.5
		c0.1,0.2,0.3,0.4,0.5,0.4c0.2,0,0.4-0.2,0.4-0.5v-3.7l0.7,2.9c0.1,0.2,0.3,0.4,0.5,0.4c0.2,0,0.4-0.2,0.4-0.5l0.1-2l0.2,1.3
		c0,0.3,0.3,0.4,0.5,0.4c0.3,0,0.5-0.2,0.5-0.5l0.2-2l0.5,2.8c0,0.2,0.3,0.4,0.5,0.4c0.3,0,0.5-0.2,0.5-0.5l0.2-3l0.5,3.5
		c0,0.3,0.3,0.5,0.5,0.4c0.3,0,0.5-0.2,0.5-0.5l0.1-3.3l0.1,0.7c0,0.2,0.3,0.4,0.5,0.4c0.2,0,0.5-0.2,0.5-0.4l0.2-1.5l0.5,3.4
		c0,0.3,0.2,0.4,0.5,0.4c0.3,0,0.5-0.2,0.5-0.5l0.2-2.9l0.8,5.1c0,0.3,0.3,0.4,0.5,0.4c0.3,0,0.5-0.2,0.5-0.5v-4.8l0.5,2.7
		c0,0.3,0.3,0.4,0.5,0.4c0.3,0,0.5-0.2,0.5-0.5l0-0.5c0.1,0.2,0.2,0.3,0.4,0.3c0.3,0,0.5-0.2,0.5-0.4l0.6-3.5l1.4,5.2
		c0.1,0.2,0.3,0.4,0.5,0.4c0.2,0,0.4-0.2,0.4-0.5v-0.5c0.1,0,0.2,0.1,0.3,0.1c0.2,0,0.4-0.2,0.5-0.4l0.3-2.9l0.4,2.9
		c0,0.2,0.2,0.4,0.5,0.4c0,0,0,0,0,0c0.3,0,0.5-0.2,0.5-0.4l0.4-3.9l0.5,5.4c0,0.3,0.3,0.4,0.5,0.5c0.3,0,0.5-0.2,0.5-0.5l0.1-4.1
		l0.6,3c0,0.2,0.3,0.4,0.5,0.4c0.2,0,0.4-0.2,0.5-0.4l0.3-2.6l0.1,6.7l0.2,6.3c0.1,3.3,0.2,5,0.3,5.8c0,0.2,0,0.3,0,0.4l0.1,0
		c0.1,0.5,0.2,0.5,0.4,0.5c0,0,0,0,0.1,0c0.3,0,0.5-0.3,0.5-0.6c0-0.6,0.3-3,0.6-5.4l0.4,2.1c0,0.2,0.3,0.4,0.5,0.4
		c0.2,0,0.5-0.2,0.5-0.4l0.7-5.1l0.5,5.5c0,0.2,0.2,0.4,0.5,0.5c0.3,0,0.5-0.2,0.5-0.4l0.8-5l0.2,0.9c0,0.2,0.3,0.4,0.5,0.4
		c0.2,0,0.4-0.2,0.5-0.4l0.4-2.3l0.1,0.4c0.1,0.2,0.2,0.3,0.4,0.4c0.2,0,0.4-0.1,0.5-0.2l0.8-1.1l0.5,0.3c0.2,0.1,0.4,0.1,0.5,0
		l1.1-0.8l0.8-0.8l0.1,1.2c0,0.2,0.2,0.4,0.4,0.4c0.2,0,0.4,0,0.5-0.2l0.6-1l0.4,1.2c0.1,0.2,0.2,0.3,0.5,0.4c0.2,0,0.4-0.1,0.5-0.3
		l0.2-0.6l0.2,1.3c0,0.2,0.2,0.4,0.4,0.4c0.2,0,0.4-0.1,0.5-0.3l1-2.1l0.3-0.2l0.2,1.1c0,0.2,0.2,0.4,0.5,0.4c0.1,0,0.3,0,0.4-0.1
		l0,0.7c0,0.2,0.2,0.4,0.4,0.5c0.2,0,0.4-0.1,0.5-0.3l0.6-1.3c0.1,0.2,0.2,0.3,0.4,0.3c0.2,0,0.4-0.1,0.5-0.2l0.7-1l0,0.1
		c0,0.2,0.2,0.4,0.5,0.4c0.3,0,0.5-0.1,0.5-0.4l0.7-2.5l0.3,2.6c0,0.2,0.2,0.4,0.4,0.4c0.2,0,0.5-0.1,0.5-0.3l0.1-0.2l0.4,2.1
		c0,0.2,0.2,0.4,0.5,0.4c0.3,0,0.4-0.1,0.5-0.4l0.9-3.2l0.4,1.8c0,0.2,0.2,0.4,0.4,0.4c0.2,0,0.4-0.1,0.5-0.3l0.9-1.7h0.3l1.1,1.4
		c0.1,0.2,0.4,0.2,0.6,0.2c0.2-0.1,0.3-0.3,0.3-0.5v-1.2l0.8,0.4l1,0.8c0.1,0.1,0.3,0.1,0.4,0.1c0.1,0,0.3-0.1,0.3-0.2l0.2-0.3
		l0.1,0.7c0,0.2,0.2,0.4,0.4,0.4c0.2,0,0.4,0,0.5-0.2l0.2-0.3l0.1,2.3c0,0.3,0.2,0.5,0.5,0.5c0.3,0,0.5-0.2,0.5-0.4l0.6-3.3l0.2,0.3
		c0.1,0.2,0.3,0.2,0.4,0.2c0.2,0,0.3-0.1,0.4-0.3l0.7-1.3l0.8,1c0.1,0.1,0.2,0.2,0.4,0.2c0.2,0,0.3-0.1,0.4-0.2l0.6-0.8l0.3,1
		c0,0.2,0.2,0.3,0.4,0.4c0.2,0,0.4,0,0.5-0.2l0.6-0.9l0.5,0.7c0.1,0.1,0.3,0.2,0.4,0.2c0.2,0,0.3-0.1,0.4-0.2l0.2-0.3l0.1,0.8
		c0,0.2,0.2,0.4,0.4,0.4c0.1,0,0.2,0,0.3-0.1l0.3,1.6c0,0.2,0.2,0.4,0.5,0.4c0.2,0,0.4-0.1,0.5-0.3l0.7-2l0.3-0.5l0.7,2.5
		c0.1,0.2,0.3,0.4,0.5,0.4c0.2,0,0.4-0.2,0.5-0.4l0.2-1.1c0.1,0.1,0.2,0.1,0.2,0.1c0.2,0,0.4-0.1,0.5-0.2l0.7-1.2l0.8,0.3
		c0.1,0.1,0.3,0.1,0.4,0c0.1,0,0.1-0.1,0.1-0.1c0.3,0.6,0.7,1.2,0.8,1.3c0.1,0.2,0.3,0.2,0.5,0.2c0.2,0,0.3-0.2,0.4-0.4l0.1-1
		l0.3,0.6c0.1,0.1,0.2,0.2,0.3,0.2l0.1,1.3c0,0.2,0.2,0.4,0.4,0.4c0.2,0,0.5-0.1,0.5-0.3l0.8-2.4l0.7-1l0.3,1.6
		c0,0.2,0.2,0.4,0.5,0.4c0.3,0,0.4-0.1,0.5-0.4l0.1-0.4l0.3,0.9c0.1,0.2,0.3,0.3,0.5,0.3c0.2,0,0.4-0.2,0.5-0.4
		c0-0.1,0.1-0.3,0.1-0.4c0.1,0.5,0.1,0.8,0.1,0.9c0,0.2,0.2,0.4,0.5,0.4c0.2,0,0.5-0.2,0.5-0.4l0.3-1.3l0.5,1.8
		c0.1,0.2,0.3,0.4,0.5,0.4c0.2,0,0.4-0.2,0.5-0.4l0.2-1.8l0.3,0.5c0.1,0.2,0.3,0.3,0.5,0.2c0.2,0,0.4-0.1,0.4-0.3l0,0l0.4,2.9
		c0,0.2,0.2,0.4,0.5,0.4c0.2,0,0.5-0.2,0.5-0.4l0.7-3.2l0.6,0.5c0.1,0.1,0.3,0.2,0.5,0.1c0.1,0,0.1-0.1,0.2-0.1l0,0.1
		c0.1,0.2,0.2,0.3,0.4,0.4c0.2,0,0.4-0.1,0.5-0.3l0.3-0.6l0.3,1.3c0.1,0.2,0.2,0.4,0.5,0.4c0.2,0,0.4-0.1,0.5-0.4l0.2-0.5l0.1,0.8
		c0,0.2,0.2,0.4,0.5,0.4c0.2,0,0.5-0.2,0.5-0.4c0.3-1.6,0.8-3.9,1.2-5.6c0.1,0.7,0.3,1.3,0.3,1.6c0,0.2,0.2,0.4,0.5,0.4
		c0.2,0,0.4-0.2,0.5-0.4l0.5-2l0.2-0.3c-0.1,7.6-0.1,7.6,0.5,7.7c0.3,0,0.5-0.2,0.6-0.5l1.1-5.7l0.3,1.7c0,0.1,0.1,0.3,0.2,0.3
		c0.1,0.1,0.3,0.1,0.4,0l1.2-0.5l0.4,2.3c0,0.2,0.2,0.4,0.5,0.4c0.2,0,0.5-0.2,0.5-0.4l0.6-2.6l0.1,0.1c0.1,0.1,0.2,0.2,0.3,0.2
		c0.1,0,0.3,0,0.4-0.1l0.1-0.1l0.5,2.4c0,0.2,0.2,0.4,0.5,0.4c0.2,0,0.4-0.1,0.5-0.4l0.7-2.4l0.3-0.5l0.3,1.9c0,0.2,0.2,0.4,0.5,0.4
		c0.3,0,0.4-0.1,0.5-0.3l0.2-0.5l0.1,0.3c0.1,0.2,0.3,0.3,0.5,0.2c0.2,0,0.4-0.2,0.4-0.4l0-0.3l0.4,1.3c0.1,0.2,0.3,0.4,0.5,0.4h0.9
		c0.2,0,0.4-0.2,0.5-0.4l0.2-0.9l0.4,1.9c0,0.2,0.3,0.4,0.5,0.4c0,0,0,0,0,0c0.2,0,0.4-0.2,0.5-0.4l0.7-3.6l0.5,1.5
		c0.1,0.2,0.3,0.4,0.5,0.4c0.2,0,0.4-0.1,0.5-0.4l0.4-1.3l0.8,2.8c0.1,0.2,0.3,0.3,0.5,0.4c0.2,0,0.4-0.2,0.5-0.4l0.1-0.4l0,1.3
		c0,0.3,0.2,0.5,0.4,0.5c0.3,0,0.5-0.1,0.6-0.4l0.4-1.9l0.2,0.5c0.1,0.2,0.2,0.3,0.4,0.3c0.2,0,0.4-0.1,0.5-0.3l0.1-0.1l0,0.5
		c0,0.2,0.2,0.4,0.4,0.4c0.2,0,0.4,0,0.5-0.2l0.7-1.1c0.5,3.7,0.5,3.7,1,3.6c0.1,0,0.5-0.1,0.5-0.6c0-0.5,0.2-1.8,0.3-3.2
		c0.1,0.1,0.3,0.1,0.4,0l0.7-0.3c0.7,3.1,0.8,3.1,1.3,3c0.2,0,0.4-0.2,0.4-0.4c0.3,1.6,0.4,1.6,0.8,1.6c0.3,0,0.5-0.3,0.5-0.5
		c0-0.4,0.1-2.2,0.2-3.7c0.1,0.1,0.1,0.2,0.1,0.2c0.1,0.1,0.2,0.2,0.4,0.2h0.8l0.1,0.3c0.1,0.2,0.2,0.4,0.5,0.4
		c0.2,0,0.4-0.1,0.5-0.3l0.6-1.8l0.4,0.8c0.1,0.2,0.4,0.3,0.6,0.3l1.6-0.5c0.2-0.1,0.3-0.2,0.3-0.4l0-0.2l0.7,3.1
		c0.1,0.2,0.2,0.4,0.5,0.4c0,0,0,0,0,0c0.2,0,0.4-0.2,0.5-0.4l0.6-2.3l0.3,1l0.2,1.5c0,0.2,0.2,0.4,0.4,0.4c0.2,0,0.5-0.1,0.5-0.3
		l0.7-2l0.1,0.4c0.1,0.2,0.2,0.3,0.4,0.4c0.2,0,0.4-0.1,0.5-0.3l0.7-1.4l0.5,1c0,0.1,0.1,0.1,0.1,0.1l1,1c0.1,0.1,0.3,0.2,0.4,0.1
		c0.2,0,0.3-0.1,0.4-0.3l1.1-2.3l0.8-2.1l0.3,0.5c0.1,0.2,0.3,0.3,0.5,0.3c0.2,0,0.4-0.2,0.4-0.4c0.1-0.3,0.2-0.6,0.2-0.9
		c0.1,0.5,0.2,0.9,0.2,1c0,0.5,0,2.3,0.4,2.9c0.1,0.2,0.4,0.3,0.6,0.3c0.2,0,0.6-0.1,1.3-1.4l0.5,0.1l2.1,0.2c0.2,0,0.4-0.1,0.5-0.3
		l0.3-0.7l1,2.9c0.1,0.2,0.3,0.3,0.5,0.3c0.2,0,0.4-0.2,0.5-0.4l0.1-0.4l0.3,0.9c0.1,0.2,0.3,0.4,0.5,0.3c0.2,0,0.4-0.2,0.4-0.4
		l0.3-2.2l0.9,2.5c0.1,0.2,0.3,0.3,0.5,0.3c0.2,0,0.4-0.2,0.5-0.4l0.7-2.5c0.1,0.1,0.2,0.2,0.3,0.2c0.2,0,0.3,0,0.4-0.1l0.9-0.8
		l0.4,0.7c0.1,0.2,0.3,0.3,0.5,0.2c0.2,0,0.4-0.2,0.4-0.4l0-0.3l0.2,0.7c0.1,0.2,0.2,0.3,0.4,0.4c0.2,0,0.4-0.1,0.5-0.2l0.7-1.1
		c0.4-0.2,0.7-0.6,0.7-1C264.3,57.1,263.8,56.6,263.1,56.6z"/>
	<path class="st0" d="M263.1,66.6c-0.6,0-1.1,0.5-1.1,1.1c0,0.1,0,0.2,0.1,0.3l-0.3,0.5l-0.3-0.8c-0.1-0.2-0.2-0.3-0.5-0.3
		c-0.2,0-0.4,0.1-0.5,0.3L260,69l-0.6-1.4c-0.1-0.2-0.3-0.3-0.5-0.3c-0.2,0-0.4,0.2-0.4,0.4l-0.2-0.6c-0.1-0.2-0.2-0.4-0.5-0.3
		c-0.2,0-0.4,0.1-0.5,0.3L257,68l-0.5-1.3c-0.1-0.2-0.2-0.3-0.4-0.3c-0.2,0-0.4,0.1-0.5,0.3l-0.8,1.7l-0.3-1.8
		c0-0.2-0.2-0.4-0.5-0.4c0,0,0,0,0,0c-0.2,0-0.4,0.2-0.5,0.4l-0.3,1.5l-0.3-0.9c-0.1-0.2-0.3-0.3-0.5-0.3c-0.2,0-0.4,0.2-0.5,0.4
		l-0.1,0.4l-0.1-0.3c-0.1-0.2-0.2-0.3-0.4-0.3c-0.2,0-0.4,0-0.5,0.2l-0.9,1.2l-0.9-1.2c-0.1-0.2-0.3-0.2-0.5-0.2s-0.3,0.2-0.4,0.4
		l-0.1,0.3l-0.1-0.5c-0.1-0.2-0.3-0.3-0.5-0.4c-0.2,0-0.4,0.1-0.5,0.3l0,0.1l0-0.5c0-0.2-0.2-0.4-0.4-0.4c-0.2,0-0.4,0.1-0.5,0.3
		l-0.8,1.9l-0.5-1.5c-0.1-0.2-0.2-0.3-0.5-0.3c-0.2,0-0.4,0.2-0.5,0.4l-0.3,1.2l-0.6-1.3c-0.1-0.2-0.3-0.3-0.5-0.3
		c-0.2,0-0.4,0.2-0.4,0.4l-0.1,0.2c0,0-0.1,0-0.1-0.1c-0.2-0.1-0.4,0-0.5,0.2l-0.8,1l-0.2-0.7c0-0.2-0.2-0.4-0.4-0.4
		c-0.2,0-0.4,0.1-0.5,0.3l-0.5,1.2l-0.4-1.2c-0.1-0.2-0.2-0.3-0.5-0.3c-0.2,0-0.4,0.1-0.5,0.3l-0.2,0.5l-0.2-0.6
		c0-0.2-0.2-0.3-0.4-0.4c-0.2,0-0.4,0-0.5,0.2l-0.7,1.1l-0.2-0.8c-0.1-0.2-0.2-0.3-0.4-0.4c-0.2,0-0.4,0.1-0.5,0.3l-0.4,0.8
		l-0.8-1.3c-0.1-0.2-0.3-0.2-0.5-0.2c-0.2,0-0.3,0.1-0.4,0.3l-0.2,0.4l-0.1-0.5c0-0.2-0.2-0.4-0.5-0.4c0,0,0,0,0,0
		c-0.2,0-0.5,0.2-0.5,0.4l-0.3,1.7l-0.5-1.3c-0.1-0.2-0.3-0.3-0.5-0.3c-0.2,0-0.4,0.1-0.5,0.3l-0.4,1.1l-0.5-1.4
		c-0.1-0.2-0.3-0.3-0.5-0.3c-0.2,0-0.4,0.2-0.4,0.4l-0.4,1.8l-0.3-0.6c-0.1-0.2-0.3-0.3-0.4-0.3c-0.2,0-0.3,0.1-0.4,0.2l-0.3-0.9
		c-0.1-0.2-0.2-0.3-0.4-0.3c-0.2,0-0.4,0.1-0.5,0.2l-0.6,1l-0.1-0.4c0-0.2-0.1-0.3-0.3-0.4c-0.2-0.1-0.3-0.1-0.5,0l-1.5,0.9
		l-0.6,0.4l-0.5-1.2c-0.1-0.2-0.2-0.3-0.4-0.3c-0.2,0-0.4,0.1-0.5,0.2l-0.7,1l-0.7-1.5c-0.1-0.2-0.3-0.3-0.5-0.3
		c-0.2,0-0.4,0.2-0.4,0.4l-0.3,1l-0.1-0.3c-0.1-0.2-0.2-0.3-0.4-0.3c-0.2,0-0.4,0.1-0.5,0.3l-0.4,0.8l-0.4-0.6
		c-0.1-0.1-0.3-0.2-0.5-0.2c-0.2,0-0.3,0.1-0.4,0.3l0,0l-0.5-1.6c-0.1-0.2-0.3-0.4-0.5-0.3c-0.2,0-0.4,0.2-0.5,0.4l-0.2,1.3
		l-0.5-1.5c-0.1-0.2-0.3-0.4-0.5-0.3c-0.2,0-0.4,0.2-0.5,0.4l-0.5,2.2l-0.6-1.3c-0.1-0.2-0.3-0.3-0.5-0.3c-0.2,0-0.4,0.2-0.4,0.4
		l-0.2,1.3l-0.2-0.3c-0.1-0.1-0.2-0.2-0.4-0.2c0,0,0,0,0,0c-0.2,0-0.3,0.1-0.4,0.2l-0.2,0.3l-0.5-1.8c-0.1-0.2-0.2-0.3-0.4-0.4
		c-0.2,0-0.4,0.1-0.5,0.3l-0.4,0.7v-0.6c0-0.2-0.2-0.4-0.4-0.5c-0.2-0.1-0.5,0.1-0.6,0.3l-0.7,1.5l0-0.3c0-0.2-0.2-0.3-0.3-0.4
		c-0.2-0.1-0.4,0-0.5,0.1l-0.7,0.8l-0.3-1.1c-0.1-0.2-0.2-0.4-0.5-0.4c-0.2,0-0.4,0.1-0.5,0.3l-0.3,0.8l-0.2-0.6
		c-0.1-0.2-0.2-0.3-0.4-0.3c-0.2,0-0.4,0.1-0.5,0.3l-0.7,1.3l-0.4-0.9c-0.1-0.2-0.3-0.3-0.5-0.3c-0.2,0-0.4,0.1-0.5,0.3l-0.2,0.5
		l-0.4-2.3c0-0.2-0.2-0.4-0.5-0.4c-0.2,0-0.4,0.2-0.5,0.4l-0.3,1.2l0-0.3c0-0.2-0.2-0.4-0.5-0.4c0,0,0,0,0,0c-0.2,0-0.4,0.2-0.5,0.4
		l-0.3,1.6l-0.6-0.9c-0.1-0.1-0.3-0.2-0.5-0.2c-0.2,0-0.3,0.1-0.4,0.3l-0.3,0.8l-0.2-0.8c0-0.2-0.2-0.3-0.3-0.4
		c-0.2-0.1-0.4,0-0.5,0.1l-0.7,0.7l-0.3-1c-0.1-0.2-0.2-0.3-0.4-0.4c-0.2,0-0.4,0.1-0.5,0.3l-0.5,0.9l-0.3-1.3
		c-0.1-0.2-0.2-0.4-0.5-0.4c-0.2,0-0.4,0.2-0.5,0.4L188,68l-0.3-0.6c-0.1-0.2-0.3-0.3-0.5-0.3c-0.2,0-0.4,0.2-0.4,0.4l-0.3,1
		l-0.6-1.3c-0.1-0.2-0.3-0.3-0.5-0.3c-0.2,0-0.4,0.1-0.4,0.3l-0.4,1.2l-0.3-0.4c-0.1-0.1-0.3-0.2-0.5-0.2c-0.2,0-0.3,0.2-0.4,0.4
		l0,0.1l-0.6-1.5c-0.1-0.2-0.3-0.3-0.5-0.3c-0.2,0-0.4,0.1-0.5,0.3l-0.6,1.7l-0.2-0.7c-0.1-0.2-0.2-0.3-0.4-0.4
		c-0.2,0-0.4,0.1-0.5,0.3l-0.3,0.7l-0.2-0.8c0-0.2-0.2-0.4-0.5-0.4c-0.2,0-0.4,0.1-0.5,0.3l-0.4,1.1l-0.4-1.1
		c-0.1-0.2-0.2-0.3-0.5-0.3c-0.2,0-0.4,0.1-0.5,0.3l-0.5,1.1l-0.4-1.4c-0.1-0.2-0.2-0.4-0.5-0.4c-0.2,0-0.4,0.1-0.5,0.3l-0.5,1.4
		l-0.2-0.7c-0.1-0.2-0.3-0.3-0.5-0.4c-0.2,0-0.4,0.1-0.5,0.3l-0.1,0.4l-0.6-1.3c-0.1-0.2-0.3-0.3-0.5-0.3c-0.2,0-0.4,0.2-0.4,0.4
		l-0.1,0.4l-0.1-0.5c0-0.2-0.3-0.4-0.5-0.4c0,0,0,0,0,0c-0.2,0-0.4,0.2-0.5,0.4l-0.3,1.6l-0.8-1.1c-0.1-0.2-0.3-0.2-0.5-0.2
		c-0.2,0-0.3,0.2-0.4,0.4c-0.1,0.4-0.2,0.8-0.3,1.1c-0.1-0.4-0.2-0.9-0.3-1.3c0-0.2-0.2-0.4-0.5-0.4c-0.2,0-0.4,0.1-0.5,0.3l-0.3,1
		l-0.3-0.9c-0.1-0.2-0.2-0.3-0.4-0.3c-0.2,0-0.4,0.1-0.5,0.3l-0.4,0.8l-0.1-0.5c-0.1-0.2-0.2-0.3-0.4-0.4c-0.2,0-0.4,0.1-0.5,0.3
		l-0.4,0.7l-0.3-0.9c-0.1-0.2-0.3-0.3-0.5-0.3c-0.2,0-0.4,0.2-0.5,0.4l-0.2,0.7l-0.2-0.5c0-0.2-0.2-0.3-0.3-0.3
		c-0.2,0-0.3,0-0.5,0.1l-1,0.8l-0.4-0.8c-0.1-0.2-0.3-0.3-0.5-0.3c-0.2,0-0.4,0.1-0.4,0.3l-0.4,0.8l-0.3-1.1
		c-0.1-0.2-0.2-0.4-0.5-0.4c-0.2,0-0.4,0.1-0.5,0.3l-0.5,1.1l-0.5-1.1c-0.1-0.2-0.3-0.3-0.5-0.3c-0.2,0-0.4,0.2-0.4,0.4l-0.2,1.4
		l-1-1.6c-0.1-0.2-0.3-0.3-0.5-0.2c-0.2,0-0.4,0.2-0.4,0.4l-0.2,0.8l-0.6-0.5c-0.1-0.1-0.3-0.2-0.5-0.1c-0.2,0.1-0.3,0.2-0.3,0.4
		l0,0.5l-0.8-1.1c-0.1-0.2-0.3-0.2-0.5-0.2c-0.2,0-0.3,0.2-0.4,0.4l0,0.3c-0.1-0.1-0.2-0.2-0.4-0.2c-0.2,0-0.4,0.1-0.5,0.2l-0.4,0.7
		l-0.5-1.8c-0.1-0.2-0.2-0.4-0.5-0.4c-0.2,0-0.4,0.2-0.5,0.4l-0.4,1.6l-0.4-1c-0.1-0.2-0.3-0.3-0.5-0.3c-0.2,0-0.4,0.2-0.5,0.4
		l-0.3,1.1l-0.4-0.8c-0.1-0.2-0.3-0.3-0.5-0.3c-0.2,0-0.4,0.1-0.4,0.3l-0.1,0.3l-0.4-1.4c-0.1-0.2-0.3-0.4-0.5-0.4c0,0,0,0,0,0
		c-0.2,0-0.4,0.2-0.5,0.4l-0.3,1.4l-0.3-0.5c-0.1-0.2-0.3-0.2-0.5-0.2c-0.2,0-0.3,0.1-0.4,0.3l-0.3,0.9l-0.4-2
		c0-0.2-0.2-0.4-0.5-0.4c-0.3,0-0.4,0.2-0.5,0.4l-0.3,1.3l0-0.1c0-0.2-0.2-0.4-0.4-0.4c-0.2,0-0.4,0-0.5,0.2l-0.8,1.3l-0.6-1.4
		c-0.1-0.2-0.3-0.3-0.5-0.3c-0.2,0-0.4,0.2-0.4,0.4l-0.1,0.8l-0.6-1.5c-0.1-0.2-0.3-0.3-0.6-0.3c-0.2,0-0.4,0.3-0.4,0.5v3.1l-1,0.8
		c-0.1,0.1-0.2,0.2-0.2,0.3c-0.1,1.2-0.3,2.5-0.4,3.4c-0.1-0.3-0.2-0.7-0.3-1c-0.1-0.2-0.3-0.3-0.5-0.4c-0.2,0-0.4,0.2-0.5,0.4
		l-0.6,2.4l0-0.1c-0.1-0.2-0.3-0.2-0.5-0.2c-0.2,0-0.3,0.2-0.4,0.3l-0.3,1L129,77c-0.1-0.1-0.3-0.2-0.4-0.2c-0.2,0-0.3,0.1-0.4,0.3
		l-0.5,0.9l-0.6-0.6c-0.1-0.1-0.3-0.2-0.5-0.2c-0.2,0.1-0.3,0.2-0.4,0.4l-0.1,0.5l-0.2-1.7c0-0.2-0.2-0.4-0.5-0.4
		c-0.2,0-0.5,0.2-0.5,0.4l-0.4,2.2l-0.9-6.1c0-0.2-0.2-0.4-0.5-0.4s-0.5,0.2-0.5,0.4l-0.5,3.7l-0.3-2.6c0-0.3-0.2-0.5-0.5-0.4
		c-0.3,0-0.5,0.2-0.5,0.5l-0.2,2.8l-0.6-4.1c0-0.3-0.3-0.4-0.5-0.4c-0.3,0-0.5,0.2-0.5,0.5l-0.1,2l-0.1-0.8c0-0.3-0.2-0.4-0.5-0.4
		c0,0,0,0,0,0c-0.3,0-0.5,0.2-0.5,0.5l-0.4,3.9l-0.9-4.3c-0.1-0.2-0.3-0.4-0.5-0.4c-0.2,0-0.4,0.2-0.5,0.5l-0.2,2.8l-0.4-3.1
		c0-0.3-0.3-0.5-0.5-0.4c-0.3,0-0.5,0.2-0.5,0.5l-0.1,2.7l-0.4-1.7c-0.1-0.2-0.3-0.4-0.5-0.4c-0.2,0-0.4,0.2-0.4,0.5l0,1.2l-0.6-2.5
		c-0.1-0.2-0.3-0.4-0.5-0.4c-0.2,0-0.4,0.2-0.5,0.4l-0.3,2.9l-0.1-1.9c0-0.3-0.2-0.5-0.5-0.5c-0.3,0-0.5,0.2-0.5,0.4l-0.4,3.2
		l-0.7-4.3c0-0.3-0.3-0.4-0.5-0.4c-0.3,0-0.5,0.2-0.5,0.5c0,1,0,2,0.1,2.9c-0.2-0.6-0.4-1.3-0.5-2c-0.1-0.2-0.3-0.4-0.5-0.4
		c-0.2,0-0.4,0.2-0.5,0.5l-0.1,1.5l-0.2-2c0-0.3-0.2-0.4-0.5-0.5c-0.2,0-0.5,0.2-0.5,0.4l-0.4,2.8l-0.3-2.2c0-0.2-0.2-0.4-0.5-0.4
		c-0.3,0-0.5,0.2-0.5,0.4l-0.3,1.8c0,0,0,0,0-0.1l-0.9-2.4c-0.1-0.2-0.3-0.3-0.5-0.3c-0.2,0-0.4,0.2-0.4,0.4l-0.1,1.4l-0.1-0.4
		c0-0.2-0.3-0.4-0.5-0.4c-0.2,0-0.5,0.2-0.5,0.4c0,0.2-0.1,0.5-0.1,1c-0.1-0.5-0.1-1-0.2-1.4c0-0.2-0.2-0.4-0.5-0.4
		c-0.2,0-0.5,0.2-0.5,0.4l-0.3,1.9c-0.2-1-0.3-2-0.3-2.3c0-0.3-0.2-0.6-0.5-0.6c-0.5,0-0.6,0-1.1,3.2l-0.4-2c0-0.2-0.3-0.4-0.5-0.4
		c-0.2,0-0.4,0.2-0.5,0.4l-0.1,0.8l-0.1-0.9c0-0.2-0.2-0.4-0.5-0.4c-0.2,0-0.5,0.2-0.5,0.4L92.9,76l-0.2-2.4c0-0.2-0.2-0.4-0.5-0.5
		c-0.3,0-0.5,0.2-0.5,0.4l-0.5,2.8l-0.6-1.8c-0.1-0.2-0.3-0.4-0.5-0.3c-0.2,0-0.4,0.2-0.5,0.4l-0.2,1.5l-0.6-3.7
		c0-0.3-0.3-0.4-0.5-0.4c-0.3,0-0.5,0.2-0.5,0.5l-0.1,3.1l-0.4-1.7c0-0.2-0.3-0.4-0.5-0.4c-0.2,0-0.4,0.2-0.5,0.5l-0.1,1.1L86,73
		c0-0.2-0.2-0.4-0.5-0.4c-0.2,0-0.5,0.2-0.5,0.4l-0.6,3.1l-0.5-3c0-0.2-0.3-0.4-0.5-0.4c-0.3,0-0.5,0.2-0.5,0.4l-0.3,2.5l-0.3-2.1
		c0-0.2-0.2-0.4-0.5-0.4c-0.2,0-0.5,0.2-0.5,0.4l-0.1,1l-0.1-0.8c0-0.2-0.2-0.4-0.5-0.5c-0.2,0-0.5,0.2-0.5,0.4l-0.5,2.6l-0.3-2.9
		c0-0.2-0.2-0.4-0.5-0.4c-0.3,0-0.5,0.2-0.5,0.4l-0.5,3.4l-0.6-4c0-0.3-0.2-0.4-0.5-0.4c-0.3,0-0.5,0.2-0.5,0.5L76,75.4l-0.3-1.9
		c0-0.2-0.2-0.4-0.5-0.4c0,0,0,0,0,0c-0.3,0-0.5,0.2-0.5,0.4l-0.2,1.7l-0.3-1.8c0-0.2-0.2-0.4-0.5-0.4c-0.3,0-0.5,0.2-0.5,0.4
		L73,75.2l-0.3-1.6c0-0.2-0.3-0.4-0.5-0.4c-0.2,0-0.5,0.2-0.5,0.5l-0.2,2.4l-0.4-2.1c0-0.2-0.3-0.4-0.5-0.4c-0.2,0-0.5,0.2-0.5,0.4
		l-0.2,1.5l-0.3-2.1c0-0.2-0.2-0.4-0.5-0.4c-0.2,0-0.5,0.2-0.5,0.4l-0.5,2.4l-0.5-2.5c-0.1-0.2-0.3-0.4-0.5-0.4
		c-0.2,0-0.4,0.2-0.5,0.4l-0.2,2.5l-0.3-2.5c0-0.3-0.3-0.4-0.5-0.4c-0.3,0-0.5,0.2-0.5,0.5l-0.2,3.2l-0.4-2.5c0-0.2-0.2-0.4-0.5-0.4
		h0c-0.2,0-0.5,0.2-0.5,0.4l-0.4,2l-0.4-2.9c0-0.2-0.2-0.4-0.5-0.4c0,0,0,0,0,0c-0.3,0-0.5,0.2-0.5,0.4l-0.3,2.1l-0.2-1.6
		c0-0.2-0.2-0.4-0.5-0.4c-0.2,0-0.5,0.2-0.5,0.4L60,76.2l-0.4-3.2c0-0.3-0.2-0.4-0.5-0.4s-0.5,0.2-0.5,0.4l-0.3,2.7L58,73.3
		c0-0.3-0.2-0.4-0.5-0.4h0c-0.3,0-0.5,0.2-0.5,0.4l-0.3,2.8L56.5,74c0-0.2-0.2-0.4-0.5-0.4c-0.2,0-0.5,0.2-0.5,0.4L55,76.6l-0.3-3.1
		c0-0.3-0.2-0.5-0.5-0.5c0,0,0,0,0,0c-0.3,0-0.5,0.2-0.5,0.5l-0.2,2.3l-0.2-2.3c0-0.3-0.2-0.4-0.5-0.4c-0.3,0-0.5,0.2-0.5,0.4
		l-0.5,3.9l-0.7-4c0-0.2-0.3-0.4-0.5-0.4c-0.2,0-0.5,0.2-0.5,0.5l-0.2,2.5l-0.4-2c0-0.2-0.2-0.4-0.5-0.4c0,0,0,0,0,0
		c-0.2,0-0.4,0.2-0.5,0.4l-0.6,3.4l-1-3.7c-0.1-0.2-0.3-0.4-0.5-0.4c-0.2,0-0.4,0.2-0.4,0.5l-0.1,2l-0.5-2.4c0-0.2-0.3-0.4-0.5-0.4
		c-0.2,0-0.4,0.2-0.5,0.4l-0.5,4l-0.9-2.8c-0.1-0.2-0.3-0.4-0.5-0.3c-0.2,0-0.4,0.2-0.5,0.4l-0.3,1.6l-0.3-2.4
		c0-0.2-0.2-0.4-0.5-0.4c-0.3,0-0.5,0.2-0.5,0.4L40,75.7l-0.2-2.5c0-0.3-0.2-0.5-0.5-0.5c-0.3,0-0.5,0.2-0.5,0.4l-0.4,3.1l-0.7-3.4
		c0-0.2-0.3-0.4-0.5-0.4c-0.2,0-0.4,0.2-0.5,0.4l-0.8,4.8l-0.8-4.5c0-0.2-0.2-0.4-0.5-0.4c0,0,0,0,0,0c-0.2,0-0.5,0.2-0.5,0.4
		l-0.4,2.4l-0.5-1.7c-0.1-0.2-0.3-0.4-0.5-0.4c-0.2,0-0.4,0.2-0.5,0.5l-0.1,1.3l-0.2-1.6c0-0.2-0.2-0.4-0.5-0.4c0,0,0,0,0,0
		c-0.3,0-0.5,0.2-0.5,0.4l-0.4,3.6l-0.7-3.6c0-0.2-0.3-0.4-0.5-0.4c-0.2,0-0.5,0.2-0.5,0.5l-0.1,1.6l-0.2-1.6c0-0.2-0.2-0.4-0.5-0.4
		c-0.2,0-0.5,0.2-0.5,0.4l-0.4,1.9l-0.2-1.6c0-0.3-0.3-0.4-0.5-0.4c-0.3,0-0.5,0.2-0.5,0.5l-0.1,2.2l-0.8-3.9c0-0.2-0.3-0.4-0.5-0.4
		c-0.2,0-0.5,0.2-0.5,0.5l-0.3,3.5l-0.6-2.3c-0.1-0.2-0.3-0.4-0.6-0.4c-0.3,0-0.4,0.3-0.4,0.5l0.1,2.3l-0.7-2.7
		c-0.1-0.2-0.3-0.4-0.5-0.4c-0.2,0-0.4,0.2-0.5,0.5l-0.2,2.5l-0.4-2c0-0.2-0.3-0.4-0.5-0.4c-0.2,0-0.5,0.2-0.5,0.4l-0.3,2.3
		l-0.5-3.1c0-0.2-0.2-0.4-0.5-0.4c-0.2,0-0.5,0.2-0.5,0.4l-0.4,3.3l-0.5-3.1c0-0.2-0.3-0.4-0.5-0.4c-0.2,0-0.5,0.2-0.5,0.4l-0.2,1.3
		l-0.2-0.8c0-0.2-0.3-0.4-0.5-0.4c-0.2,0-0.4,0.2-0.5,0.5l-0.3,2.8l-0.6-2.4C13.2,74.1,13,74,12.8,74c-0.2,0-0.4,0.1-0.4,0.3
		l-0.1-0.9c0-0.2-0.2-0.4-0.5-0.4c-0.2,0-0.5,0.1-0.5,0.4l-0.7,2.5l-0.4-2.9c0-0.3-0.3-0.4-0.5-0.4c-0.3,0-0.5,0.2-0.5,0.5v2.9
		l-0.6-2.4c-0.1-0.2-0.3-0.4-0.5-0.4c-0.2,0-0.4,0.2-0.5,0.5l-0.1,1l-0.2-1.8c0-0.2-0.2-0.4-0.5-0.4c-0.2,0-0.5,0.2-0.5,0.4
		l-0.4,2.3l-0.2-1.5c0-0.3-0.2-0.4-0.5-0.4c-0.3,0-0.5,0.2-0.5,0.4l-0.5,3.5l-0.4-3.5c0-0.2-0.2-0.4-0.5-0.4c-0.3,0-0.5,0.2-0.5,0.4
		L2.2,77L2,74.7c0,0,0,0,0,0c0.1-0.2,0.2-0.4,0.2-0.6c0-0.6-0.5-1.1-1.1-1.1S0,73.4,0,74.1c0,0.6,0.5,1.1,1.1,1.1l0.5,5.7
		c0,0.2,0.2,0.4,0.5,0.5c0.2,0,0.5-0.2,0.5-0.4L3.2,77l0.4,4.1c0,0.3,0.2,0.4,0.5,0.4c0.2,0,0.5-0.2,0.5-0.4l0.5-3.5l0.1,0.9
		c0,0.2,0.2,0.4,0.5,0.4c0.3,0,0.5-0.2,0.5-0.4L6.7,76L7.1,79c0,0.3,0.2,0.5,0.5,0.4c0.3,0,0.5-0.2,0.5-0.5l0.2-2.5l0.9,3.6
		c0.1,0.2,0.3,0.4,0.5,0.4c0.3,0,0.4-0.2,0.4-0.5v-1.4c0.1,0.1,0.2,0.1,0.3,0.1c0.2,0,0.4-0.1,0.5-0.4l0.6-2.2l0.2,2.4
		c0,0.3,0.2,0.4,0.5,0.4c0.2,0,0.5-0.2,0.5-0.4l0.2-1.3l0.7,2.7c0.1,0.2,0.3,0.4,0.5,0.4c0.2,0,0.4-0.2,0.5-0.5l0.2-2.3l0.1,0.6
		c0,0.2,0.2,0.4,0.5,0.4c0.2,0,0.4-0.2,0.5-0.4l0.1-0.8l0.5,3.2c0,0.2,0.2,0.4,0.5,0.4c0.3,0,0.5-0.2,0.5-0.4l0.4-3.5l0.5,2.7
		c0,0.2,0.3,0.5,0.5,0.4c0.2,0,0.5-0.2,0.5-0.4l0.4-2.5l0.5,2.7c0,0.2,0.3,0.4,0.5,0.4c0.3,0,0.5-0.2,0.5-0.5l0.3-3.3l1.1,4.4
		c0.1,0.2,0.3,0.4,0.6,0.4c0.3,0,0.4-0.3,0.4-0.5l-0.1-2.3l0.1,0.6c0.1,0.2,0.3,0.4,0.5,0.4c0.2,0,0.4-0.2,0.5-0.5l0.2-2.9l0.9,4.5
		c0,0.2,0.3,0.4,0.5,0.4c0.3,0,0.5-0.2,0.5-0.5l0.1-1.4c0.1,0,0.1,0.1,0.2,0.1c0.2,0,0.5-0.2,0.5-0.4l0.4-2l0.4,3.5
		c0,0.3,0.2,0.4,0.5,0.4c0.3,0,0.5-0.2,0.5-0.5l0.2-2.9l0.6,3.2c0,0.2,0.2,0.4,0.5,0.4c0.2,0,0.4-0.2,0.5-0.4l0.3-2.7l0.3,2.2
		c0,0.3,0.3,0.4,0.5,0.4c0.3,0,0.5-0.2,0.5-0.5l0.3-3.2l0.3,1.2c0.1,0.2,0.2,0.4,0.5,0.4c0.2,0,0.4-0.2,0.5-0.4l0.3-1.9l0.8,4.5
		c0,0.2,0.2,0.4,0.5,0.4c0,0,0,0,0,0c0.2,0,0.5-0.2,0.5-0.4l0.9-5l0.8,3.7c0,0.2,0.3,0.4,0.5,0.4c0.2,0,0.4-0.2,0.5-0.4l0.2-1.5
		l0.1,1.4c0,0.2,0.2,0.4,0.5,0.5c0.3,0,0.5-0.2,0.5-0.4l0.5-2.3l0.4,2.8c0,0.2,0.2,0.4,0.5,0.4c0,0,0,0,0,0c0.2,0,0.5-0.2,0.5-0.4
		l0.5-2.9l0.9,3c0.1,0.2,0.3,0.4,0.5,0.3c0.2,0,0.4-0.2,0.5-0.4l0.4-3.3l0.7,3.3c0.1,0.2,0.3,0.4,0.5,0.4c0.3,0,0.4-0.2,0.5-0.5
		l0.1-2.8l0.7,2.7c0.1,0.2,0.2,0.4,0.5,0.4c0.2,0,0.4-0.2,0.5-0.4l0.5-2.9l0.6,3.1c0,0.2,0.3,0.4,0.5,0.4c0.3,0,0.5-0.2,0.5-0.5
		l0.2-2.6l0.6,3.4c0,0.2,0.3,0.4,0.5,0.4c0.2,0,0.4-0.2,0.5-0.4l0.4-2.9l0.3,3.1c0,0.3,0.2,0.4,0.5,0.4c0,0,0,0,0,0
		c0.3,0,0.5-0.2,0.5-0.5l0.2-1.9l0.2,1.6c0,0.2,0.2,0.4,0.5,0.5c0.3,0,0.5-0.2,0.5-0.4l0.5-3.1l0.4,2.8c0,0.3,0.2,0.5,0.5,0.4
		c0.3,0,0.5-0.2,0.5-0.4l0.3-2.6l0.3,2.5c0,0.3,0.2,0.4,0.5,0.4c0,0,0,0,0,0c0.3,0,0.5-0.2,0.5-0.4l0.3-2.6l0.3,2.6
		c0,0.2,0.2,0.4,0.5,0.4c0.2,0,0.5-0.2,0.5-0.4l0.4-2.6l0.2,1.9c0,0.3,0.2,0.4,0.5,0.4c0,0,0,0,0,0c0.3,0,0.5-0.2,0.5-0.4l0.3-2.2
		l0.3,2.4c0,0.2,0.2,0.4,0.5,0.4c0.2,0,0.5-0.2,0.5-0.4l0.4-2.4l0.7,4c0,0.3,0.3,0.4,0.5,0.4c0.3,0,0.5-0.2,0.5-0.5l0.1-2.4l0.2,1.4
		c0,0.2,0.3,0.4,0.5,0.4c0.3,0,0.5-0.2,0.5-0.5l0.3-3.4l0.4,1.8c0,0.2,0.3,0.4,0.5,0.4c0,0,0,0,0,0c0.2,0,0.4-0.2,0.5-0.4l0.3-1.8
		l0.4,2.9c0,0.2,0.3,0.5,0.5,0.4c0.3,0,0.5-0.2,0.5-0.4l0.3-2.2l0.5,2.5c0,0.2,0.3,0.5,0.5,0.4c0.2,0,0.5-0.2,0.5-0.5l0.2-2.4
		l0.1,0.7c0,0.2,0.2,0.4,0.5,0.4c0,0,0,0,0,0c0.2,0,0.4-0.2,0.5-0.4l0.2-1.4l0.3,2.5c0,0.2,0.2,0.4,0.5,0.4c0,0,0,0,0,0
		c0.3,0,0.5-0.2,0.5-0.4l0.2-1.8l0.4,2.7c0,0.3,0.3,0.4,0.5,0.4c0.3,0,0.5-0.2,0.5-0.5l0.2-2.7l0.4,2.7c0,0.2,0.2,0.4,0.5,0.4
		c0,0,0,0,0,0c0.2,0,0.5-0.2,0.5-0.4l0.5-2.9l0.3,2.4c0,0.2,0.2,0.4,0.5,0.4c0.2,0,0.5-0.2,0.5-0.4l0.5-2.5l0.2,2.2
		c0,0.3,0.2,0.4,0.5,0.5c0.2,0,0.5-0.2,0.5-0.4l0.2-2l0.4,2.3c0,0.2,0.2,0.4,0.5,0.4c0.3,0,0.5-0.2,0.5-0.4l0.3-2.6l0.3,2
		c0,0.2,0.2,0.4,0.5,0.4c0.2,0,0.5-0.2,0.5-0.4l0.6-2.8l0.4,3.5c0,0.3,0.3,0.4,0.5,0.4c0.3,0,0.5-0.2,0.5-0.5l0.2-2.4l0.5,2.5
		c0.1,0.2,0.3,0.4,0.5,0.4c0.3,0,0.4-0.2,0.5-0.5l0.1-2.5l0.4,2.1c0,0.2,0.3,0.4,0.5,0.4c0.2,0,0.5-0.2,0.5-0.4l0.3-2.4l0.5,1.7
		c0.1,0.2,0.3,0.4,0.5,0.4c0.2,0,0.4-0.2,0.5-0.4l0.2-1l0.2,1.7c0,0.2,0.2,0.4,0.5,0.5c0.2,0,0.5-0.1,0.5-0.4l0.6-2.5l0.3,2.4
		c0,0.2,0.2,0.4,0.5,0.4c0,0,0,0,0,0c0.3,0,0.5-0.2,0.5-0.4l0.2-1.8l0.3,1.4c0,0.2,0.2,0.4,0.5,0.4c0.2,0,0.4-0.2,0.5-0.4
		c0.2-0.9,0.3-1.9,0.5-2.7c0.2,1.3,0.5,2.5,0.5,2.7c0,0.2,0.2,0.4,0.5,0.4c0.2,0,0.4-0.2,0.5-0.4l0.2-1.4c0.1,0.7,0.2,1.1,0.3,1.4
		c0,0,0,0,0,0.1l0,0c0.1,0.5,0.3,0.5,0.5,0.5c0.3,0,0.5-0.3,0.5-0.5c0-0.1,0-0.4,0.1-0.9l0.1,0.7c0,0.2,0.2,0.4,0.5,0.4
		c0.3,0,0.5-0.2,0.5-0.5l0.3-3.3l0.1,0.4l0.4,3c0,0.2,0.2,0.4,0.5,0.4c0.3,0,0.5-0.2,0.5-0.4l0.4-1.9l0.4,2.7c0,0.2,0.2,0.4,0.5,0.4
		c0.3,0,0.5-0.2,0.5-0.4l0.3-2l0.3,3.2c0,0.3,0.2,0.5,0.5,0.5c0,0,0,0,0,0c0.3,0,0.5-0.2,0.5-0.5l0.4-4c0.7,2.4,0.8,2.4,1.2,2.4
		c0.2,0,0.5-0.2,0.5-0.4c0,0,0,0,0-0.1l0.3,1.9c0,0.2,0.3,0.4,0.5,0.4c0.2,0,0.5-0.2,0.5-0.4l0.2-1.4l0.2,2.2c0,0.3,0.2,0.5,0.5,0.5
		c0,0,0,0,0,0c0.3,0,0.5-0.2,0.5-0.4l0.6-5.3l0.8,3.5c0.1,0.2,0.3,0.4,0.5,0.4c0.3,0,0.4-0.2,0.5-0.5l0-1.4l0.4,1.8
		c0.1,0.2,0.3,0.4,0.5,0.4c0.2,0,0.4-0.2,0.4-0.4l0.2,1.6c0,0.3,0.2,0.4,0.5,0.4c0.3,0,0.5-0.2,0.5-0.5l0.3-4.3l0.8,4
		c0.1,0.2,0.3,0.4,0.5,0.4c0.2,0,0.4-0.2,0.5-0.5l0.2-2.4l0.2,2.1c0,0.3,0.3,0.4,0.5,0.4c0.3,0,0.5-0.2,0.5-0.5l0.2-3.3l0.6,3.6
		c0,0.3,0.2,0.4,0.5,0.4c0.3,0,0.5-0.2,0.5-0.5l0.2-2.1l0.2,1.3c0,0.2,0.2,0.4,0.5,0.4c0.2,0,0.5-0.2,0.5-0.4l0.6-3.9l0.8,5.8
		c0,0.2,0.2,0.4,0.5,0.4c0,0,0,0,0,0c0.2,0,0.5-0.2,0.5-0.4l0.4-2.2l0.2,1.5c0,0.2,0.2,0.4,0.5,0.4c0.3,0,0.5-0.2,0.5-0.4l0.5-2.4
		l0.4,0.4c0.1,0.1,0.3,0.2,0.4,0.2c0.2,0,0.3-0.1,0.4-0.3l0.4-0.8l0.2,0.2c0.1,0.2,0.3,0.2,0.5,0.2c0.2,0,0.3-0.2,0.4-0.3l0.3-1
		l0.1,0.1c0.1,0.2,0.3,0.2,0.5,0.2s0.3-0.2,0.4-0.4l0.5-1.9c0.4,0.9,0.7,1,0.9,1c0.2,0,0.5-0.1,0.6-0.3c0.3-0.5,0.6-3.2,0.7-4.6
		l1-0.8c0.1-0.1,0.2-0.2,0.2-0.4v-0.9l0.4,0.8c0.1,0.2,0.3,0.3,0.5,0.3c0.2,0,0.4-0.2,0.4-0.4l0.1-0.7l0.3,0.7
		c0.1,0.2,0.2,0.3,0.4,0.3c0.2,0,0.4-0.1,0.5-0.2l0.6-1l0.2,1.2c0,0.2,0.2,0.4,0.5,0.4c0.3,0,0.5-0.1,0.5-0.4l0.4-1.6l0.3,1.6
		c0,0.2,0.2,0.4,0.5,0.4c0.2,0,0.4-0.1,0.5-0.3l0.6-1.6l0.3,0.8c0.1,0.2,0.3,0.3,0.5,0.3c0.2,0,0.4-0.2,0.4-0.4l0.2-0.9l0.3,1
		c0.1,0.2,0.2,0.4,0.5,0.4c0.2,0,0.4-0.1,0.5-0.3l0.2-0.6l0.4,0.9c0.1,0.2,0.3,0.3,0.5,0.3c0.2,0,0.4-0.2,0.4-0.4l0.2-0.8l0.4,1.1
		c0.1,0.2,0.3,0.4,0.5,0.3c0.2,0,0.4-0.2,0.5-0.4l0.3-1.4l0.3,1c0.1,0.2,0.2,0.3,0.4,0.4c0.2,0,0.4-0.1,0.5-0.2l0.6-0.8l0.3,0.6
		c0.1,0.2,0.3,0.3,0.5,0.3c0.2,0,0.4-0.2,0.4-0.4l0.1-0.7l0.8,1.2c0.1,0.2,0.3,0.3,0.5,0.2c0.2-0.1,0.3-0.2,0.4-0.4l0.1-0.8l0.4,0.4
		c0.1,0.1,0.3,0.2,0.5,0.1c0.2,0,0.3-0.2,0.3-0.4l0.1-0.5l1.1,1.7c0.1,0.2,0.3,0.3,0.5,0.2c0.2,0,0.4-0.2,0.4-0.4l0.1-1l0.2,0.5
		c0.2,0.4,0.8,0.4,0.9,0l0.4-0.9l0.3,1c0.1,0.2,0.2,0.3,0.4,0.4c0.2,0,0.4-0.1,0.5-0.3l0.5-1l0.2,0.4c0.1,0.1,0.2,0.2,0.3,0.3
		c0.1,0,0.3,0,0.4-0.1l0.9-0.7l0.4,1.4c0.1,0.2,0.3,0.4,0.5,0.4c0,0,0,0,0,0c0.2,0,0.4-0.2,0.5-0.4l0.2-0.8l0.1,0.4
		c0.1,0.2,0.2,0.3,0.4,0.3c0.2,0,0.4-0.1,0.5-0.3l0.4-0.7l0.2,0.6c0.1,0.2,0.2,0.3,0.4,0.4s0.4-0.1,0.5-0.3l0.4-0.9l0.4,1.1
		c0.1,0.2,0.3,0.3,0.5,0.3c0.2,0,0.4-0.1,0.5-0.3l0.2-0.7c0.2,0.7,0.4,0.8,0.5,0.8c0.1,0.1,0.4,0.1,0.5,0.1c0.1,0,0.5-0.2,0.9-1.3
		l0.8,1.1c0.1,0.2,0.3,0.2,0.5,0.2c0.2,0,0.3-0.2,0.4-0.4l0-0.3l0,0.1c0,0.2,0.2,0.4,0.5,0.4c0.2,0,0.4-0.1,0.5-0.4l0.3-1.2l0.6,1.2
		c0.1,0.2,0.3,0.3,0.5,0.3c0.2,0,0.4-0.1,0.4-0.3l0-0.1l0.2,0.6c0.1,0.2,0.2,0.3,0.5,0.4c0,0,0,0,0,0c0.2,0,0.4-0.1,0.5-0.3l0.5-1.4
		l0.4,1.3c0.1,0.2,0.2,0.3,0.4,0.4c0.2,0,0.4-0.1,0.5-0.3l0.5-1.2l0.4,1.2c0.1,0.2,0.3,0.3,0.5,0.3c0,0,0,0,0,0
		c0.2,0,0.4-0.1,0.5-0.3l0.3-0.9l0.2,0.7c0,0.2,0.2,0.4,0.4,0.4c0.2,0,0.4-0.1,0.5-0.3l0.4-0.9l0.3,0.9c0.1,0.2,0.3,0.4,0.5,0.4
		c0.2,0,0.4-0.1,0.5-0.3l0.6-1.9l0.7,1.8c0.1,0.2,0.3,0.3,0.5,0.3c0.2,0,0.4-0.2,0.5-0.4l0.2-0.8l0.3,0.3c0.1,0.1,0.3,0.2,0.5,0.2
		c0.2,0,0.3-0.2,0.4-0.3l0.3-0.8l0.7,1.4c0.1,0.2,0.3,0.3,0.5,0.3c0.2,0,0.4-0.2,0.4-0.4l0.3-1l0.4,0.8c0.1,0.2,0.3,0.3,0.5,0.3
		c0.2,0,0.4-0.2,0.4-0.4l0.1-0.7l0.1,0.3c0.1,0.2,0.2,0.3,0.4,0.4c0.2,0,0.4-0.1,0.5-0.3l0.5-0.9l0.2,0.6c0,0.2,0.2,0.3,0.3,0.3
		c0.2,0,0.3,0,0.5-0.1l0.7-0.6l0.3,1.5c0,0.2,0.2,0.4,0.4,0.4c0.2,0,0.4-0.1,0.5-0.3l0.6-1.4l0.8,1.1c0.1,0.2,0.3,0.2,0.5,0.2
		c0.1,0,0.3-0.1,0.3-0.2c0,0.2,0.2,0.4,0.5,0.4c0.2,0,0.5-0.1,0.5-0.4l0.4-1.5l0.4,2c0,0.2,0.2,0.4,0.5,0.4c0.2,0,0.4-0.1,0.5-0.3
		l0.4-1.1l0.3,0.6c0.1,0.2,0.2,0.3,0.4,0.3c0.2,0,0.4-0.1,0.5-0.3l0.7-1.2l0.3,0.8c0.1,0.2,0.3,0.3,0.5,0.3c0,0,0,0,0,0
		c0.2,0,0.4-0.1,0.5-0.3l0.2-0.6l0.1,0.5c0,0.2,0.2,0.3,0.4,0.4c0.2,0,0.4,0,0.5-0.1l0.6-0.7l0.1,0.8c0,0.2,0.2,0.4,0.4,0.4
		c0.2,0,0.4-0.1,0.5-0.3l0.5-1v0.4c0,0.2,0.2,0.4,0.4,0.5c0.2,0.1,0.5,0,0.6-0.2l0.7-1.3l0.5,1.7c0.1,0.2,0.2,0.3,0.4,0.4
		c0.2,0,0.4-0.1,0.5-0.2l0.4-0.5l0.5,0.8c0.1,0.2,0.3,0.3,0.5,0.2c0.2,0,0.4-0.2,0.4-0.4l0.1-0.9l0.5,1.2c0.1,0.2,0.3,0.3,0.5,0.3
		c0.2,0,0.4-0.2,0.4-0.4l0.4-1.9l0.6,1.7c0.1,0.2,0.3,0.3,0.5,0.3c0.2,0,0.4-0.2,0.5-0.4l0.2-1.2l0.3,0.9c0.1,0.2,0.2,0.3,0.5,0.3
		c0.2,0,0.4-0.1,0.5-0.3l0.2-0.5l0.4,0.6c0.1,0.1,0.3,0.2,0.4,0.2c0.2,0,0.3-0.1,0.4-0.3l0.3-0.5l0.3,0.7c0.1,0.2,0.3,0.4,0.5,0.3
		c0.2,0,0.4-0.2,0.5-0.4l0.3-1.3l0.5,1c0.1,0.2,0.2,0.3,0.4,0.3c0.2,0,0.4-0.1,0.5-0.2l0.7-1l0.4,0.9c0.1,0.1,0.2,0.2,0.3,0.3
		c0.1,0,0.3,0,0.4-0.1l1-0.8l0.8-0.5l0.1,1c0,0.2,0.2,0.4,0.4,0.4c0.2,0,0.4,0,0.5-0.2l0.7-1.2l0.3,1.1c0.1,0.2,0.2,0.3,0.4,0.3
		c0.2,0,0.4-0.1,0.5-0.3l0.1-0.1l0.5,1c0.1,0.2,0.3,0.3,0.5,0.3c0.2,0,0.4-0.2,0.4-0.4l0.3-1.6l0.4,1.2c0.1,0.2,0.3,0.3,0.5,0.3
		c0.2,0,0.4-0.1,0.5-0.3l0.4-1.2l0.7,1.7c0.1,0.2,0.3,0.3,0.5,0.3c0.2,0,0.4-0.2,0.4-0.4l0.1-0.7c0,0,0.1,0,0.1,0
		c0.2,0,0.4-0.1,0.5-0.3l0.6-1.4l0.8,1.2c0.1,0.1,0.3,0.2,0.4,0.2c0.2,0,0.3-0.1,0.4-0.3l0.2-0.4l0.2,0.6c0.1,0.2,0.2,0.3,0.4,0.4
		c0.2,0,0.4-0.1,0.5-0.2l0.7-1l0.3,1c0.1,0.2,0.2,0.4,0.5,0.4c0.2,0,0.4-0.1,0.5-0.3l0.3-0.7l0.4,1.2c0.1,0.2,0.2,0.3,0.4,0.3
		c0.2,0,0.4-0.1,0.5-0.3l0.4-1l0.1,0.3c0,0.2,0.2,0.3,0.4,0.4c0.2,0,0.4,0,0.5-0.2l0.8-0.9l0.1,0.5c0,0.2,0.2,0.4,0.5,0.4
		c0.2,0,0.4-0.1,0.5-0.4l0.2-0.7L243,70c0.1,0.2,0.3,0.3,0.5,0.3c0.2,0,0.4-0.2,0.4-0.4l0.2-1l0.4,1.1c0.1,0.2,0.2,0.3,0.5,0.3
		c0.2,0,0.4-0.1,0.5-0.3l0.5-1.3l0.1,0.9c0,0.2,0.2,0.4,0.4,0.5c0.2,0,0.5-0.1,0.5-0.3l0.3-0.9l0.2,0.6c0.1,0.2,0.3,0.3,0.5,0.4
		c0.2,0,0.4-0.2,0.5-0.4l0.3-1l0.7,0.9c0.2,0.2,0.6,0.2,0.8,0l0.8-1l0.3,0.9c0.1,0.2,0.2,0.3,0.5,0.3c0.2,0,0.4-0.2,0.5-0.4l0.1-0.4
		l0.4,1.1c0.1,0.2,0.3,0.3,0.5,0.3c0.2,0,0.4-0.2,0.5-0.4l0.1-0.5l0.1,0.7c0,0.2,0.2,0.4,0.4,0.4c0.2,0,0.4-0.1,0.5-0.3l0.9-2
		l0.5,1.5c0.1,0.2,0.3,0.3,0.5,0.3c0,0,0,0,0,0c0.2,0,0.4-0.1,0.5-0.3l0.3-1l0.6,1.5c0.1,0.2,0.3,0.3,0.5,0.3c0.2,0,0.4-0.2,0.4-0.5
		l0-0.1l0.2,0.5c0.2,0.4,0.8,0.4,0.9,0l0.5-1.3l0.2,0.7c0.1,0.2,0.2,0.3,0.4,0.3c0.2,0,0.4-0.1,0.5-0.3l0.4-0.8l0.1,0.4
		c0.1,0.2,0.3,0.4,0.5,0.3c0.2,0,0.4-0.2,0.5-0.4l0.1-1c0.3-0.2,0.4-0.5,0.4-0.9C264.3,67.1,263.8,66.6,263.1,66.6z"/>
</g>
</svg>
