<?xml version="1.0" encoding="utf-8"?>
<!-- Generator: Adobe Illustrator 20.1.0, SVG Export Plug-In . SVG Version: 6.00 Build 0)  -->
<svg version="1.1" id="Layer_1" xmlns="http://www.w3.org/2000/svg" xmlns:xlink="http://www.w3.org/1999/xlink" x="0px" y="0px"
	 width="264.2px" height="81.8px" viewBox="0 0 264.2 81.8" style="enable-background:new 0 0 264.2 81.8;" xml:space="preserve">
<style type="text/css">
	.st0{fill:none;stroke:#13B2D4;stroke-linecap:round;stroke-linejoin:round;stroke-miterlimit:10;}
</style>
<path class="st0" d="M1.1,24.5C1.1,24.3,2.4,4,2.4,4L3,28L4,8.9l0.8,17.6L5.5,7.7l1.2,21.1L7.5,8.2l0.8,21L9.2,7.3L10.6,34l0.2-20
	c0,0,1.1,13.8,1.1,13.6s0.4-24.7,0.4-24.7l1.2,24.2L14.4,11l0.5,15.9l0.5-19l1,21.6l0.7-21.8l1.4,21.9L19.1,9l1,19l0.7-16.3
	l0.9,15.5L22,8.8L23.2,28l0.5-18.5l1,21.9L25.1,8l1.3,19.5l0.9-20.4l0.6,22.1L28.5,9l1.1,20.9L30.2,9l1.2,20l0.5-23l0.9,22.9
	l0.8-22.6l0.8,22.3L35.3,10L36,28.9l0.8-18.7l1,18.8l0.8-21.7l0.9,23l0.9-24.9l0.8,21.3L42,7.3L42.9,28l0.3-19.8L44,21.5l1-12
	l0.9,17.4l0.6-22.4l1.1,26.4L48.7,7l0.5,21.3l0.7-18.4l0.9,18.3l0.8-17.7l0.9,17.7l0.8-18L54,30.1l1-20.6l0.4,19.6l1.1-21.8
	l0.6,21.8l0.8-21.6l0.8,22.4l1-20.1l0.5,19.4l0.9-19.1l1.4,20.1l0.3-25.1L64,27.2l0.7-18c0,0,0.6,21,0.7,20.6s1-28.1,1-28.1
	l0.9,28.1l1-21.6L68.8,28l0.7-19.8l0.9,20.6L71.5,10L72,29.3l0.9-19.8l0.8,21.1l1-21.4l0.9,19.9l0.7-23.4l0.5,22.9l1-20.1l0.7,20.1
	l1.2-17.7l0.5,18.4l1-22.8l0.7,23.1l0.9-23l0.8,23l0.5-20.8l1,19.3l1-18.4l0.7,17.7l0.7-19.2l1,21l0.7-21.4l1.2,18L91.2,8l0.9,19.3
	l0.5-22.9l1.3,22.8l0.5-18.5L96,27.5L96.3,1l1.1,26.8L98,6.5L98.7,28l0.7-21.5l0.9,21.2l0.8-21.5l0.5,21.7l0.9-17.2l0.5,17.2l1-24
	l0.7,24l1-19.4l0.6,17.9l0.9-18.2l0.8,19l0.9-20.8l1.6,22.6l0.3-19.6l1.1,18.8l0.4-21.1l2.1,22.8l0.5-28l1.2,27.3l1.2-20.9l0.5,18.9
	L118.9,7c0,0,0.7,21.8,0.7,21.6c0-0.2,1-22.1,1-22.1l1.1,23.9l0.7-7.9l1.6,16.4l1.3-3.9l0.3,4.4l1.2-2.7c0,0,1,9.3,1,8.8
	c0.1-0.5,1.2-10,1.2-10l1.4,9.9l1.4-4.6l1.1,9.4l1.7-4.8l0.7,4.2l1.2-4.8l1.1,4.4l0.8-4.9l0.6,4.6l1-3.7l0.7,3.3L142,45l1.3,6.3
	l0.5-5.5l1,3l0.3-3.9l0.8,5.7l0.3-7l1.4,6.6l0.7-7l1.5,6.2l0.4-4.8l1.1,4.3l1.1-3.5l1.2,6.3l0.9-7.9l1.1,5.5l0.6-4.7l1.3,4.6
	l0.6-4.6l1.4,4.6l0.6-3.7l1.6,3.1l0.4-5.8l0.9,5.1l1-3.1l1,4.2l0.9-5.8l1,4.4l1.3-4.3l1.6,6l0.4-4.9l2.1,4.8l0.4-3.9l1.1,3.3
	l0.4-4.3l1.5,4.2l0.8-4l1.2,4l0.5-3.1l1.1,3.1l0.6-3.6l0.7,5.7l1-6.5l1.1,4.2l0.6-3.5l1,3.8l1-4.8l1,6.2l0.8-5.5l1.5,4.6l1.7-4.9
	l0.7,4.7l0.6-2.9l1.1,2.8l0.9-4.8l0.7,4.7l0.8-2.5l1.5,4l0.2-6.2l0.8,4.2l0.8-4.8l0.7,5l0.8-3.7l0.9,2.9l0.7-3.5l1,4.2l0.8-3.7
	l1.2,3.5l1-4.1l1.3,4.8l0.9-4.5l0.8,2.3L209,44l0.9,5.5l1-5.7l1.9,6.4l0.7-4.6l1.3,2.4l0.7-3.5l0.9,3.3l1.1-5.2l1.3,6.6l0.9-3.4
	l1.3,3.1l0.7-3.2l1.5,2.4l1.1-2.5l0.9,3.9l1.1-5.6l0.8,3.5l1.2-3.2l1,5.6l1-6.7l2.3,5.9l0.2-4.2l1.2,2.7l1.2-3.1l0.7,4.5l1.5-3.4
	l0.5,3.4l0.8-4.2l1,3.5l1.7-3.2l0.4,2.7l0.9-2l1.2,3.2l1.1-5.5l1.5,7l0.4-5.2l1,3.6l0.5-3.5l0.7,3l0.5-3.5l0.9,4l1.2-3.8l0.9,4.7
	l0.7-4.4l1.2,4l0.4-4.8l0.9,5l0.9-4.8l1.1,4.6l0.9-4.9l0.5,4l0.7-5.5l0.9,6.5l0.4-4.3l1,3.2l0.8-3.6"/>
<polyline class="st0" points="1.1,55.6 2.6,46.4 3.5,54.1 4.1,46.4 4.4,51.5 5.5,44.8 6.6,53.7 7.5,46.6 8.4,55.5 9,45.6 10.4,53.9 
	10.7,40.7 11.8,56.1 13.4,47.7 13.8,52.8 15.4,48.5 15.9,52.8 17.1,45.8 17.6,55.7 18.5,48 19.3,52.3 20.5,47.7 21.2,55.9 22.1,49 
	23.4,55.3 23.7,46.1 24.5,53.1 25.4,46.8 26.6,53.4 26.8,47 28.3,52.9 29,47.7 30,52.4 30.8,47 31.9,56.2 32.5,44.3 33.6,52.4 
	34.2,47.7 35.1,51.6 35.8,46.2 36.3,53.5 37.5,46.4 38.5,53.5 39.6,45.9 40.8,55.4 41.6,46.9 42.6,54.4 44.2,46.2 44.6,57.1 
	45.5,49 46.5,56.1 46.8,46.3 48.2,55.8 48.7,46.4 49.4,57 50.4,47 51.6,54.3 52.2,45.2 52.8,52.7 53.6,47.3 54.1,54.3 55.3,48.8 
	55.9,55 56.5,48.4 57.6,54.5 58.2,47.9 59.3,54.1 59.7,46.7 60.7,54.3 61.1,46.5 62.5,54.6 62.9,47.1 64.7,53.4 65,46 66.7,53.7 
	67.5,46.3 69,55.7 69.2,47.5 71,54.2 71.7,49.1 72,52.1 72.9,46.5 73.7,52.6 74.4,45.6 75.6,54.3 76.3,47 76.8,53.4 77.3,47.9 
	78.8,56.6 79.3,46.8 80.4,53.2 81,45.6 82,53.6 82.9,46.4 83.9,53.5 84.6,48.3 85.1,53.3 86.3,45.9 87.3,54.7 88,47.5 89,54.9 
	89.5,47 90.2,52.5 90.9,47.4 91.9,53.5 92.4,46.6 93.6,54.2 94.5,47.6 95.8,53.2 96.1,49 97.5,52.3 98,48 99.5,54.7 99.6,46.9 
	101.1,53.8 101.5,45 102.3,53 103,47.3 104,53.7 104.2,45.4 105.7,54.1 105.7,45.3 106.9,51.4 107.4,46 108.6,53.3 108.9,45.2 
	110.6,55.4 110.9,44.6 112.1,53.2 112.6,45 113.5,52.1 114.4,47.1 115.5,53.8 116.5,48.6 117.2,52.9 117.6,45.2 118.9,52.9 
	119.1,44.2 120.3,54.9 120.8,46.3 122,53.7 122.5,44.4 124,70.4 124.7,61.2 126.5,66.5 126.9,57.1 128.7,67 129.1,59.3 130.2,63.3 
	130.6,58.3 132.1,61.2 132.7,58.8 133.9,60.4 135.5,58 136.3,60.4 137.3,58.2 138.3,60.8 138.9,58.2 139.6,61.6 141.1,57.8 
	142.5,60.4 142.5,57.8 143.4,61.3 144.4,57.8 144.9,60.1 145.7,58.1 146.1,59.6 147.1,54.4 148.5,59.4 149.1,56.8 150,61.3 
	151,56.8 151.3,59.9 152.9,57.5 154.5,59.7 155,57.1 157,59.1 158.1,58 158.6,60.1 159.5,58.5 160.4,62 160.8,57.8 162,58.9 
	162.4,56.4 163.4,58.2 164.3,55.9 165.2,58.8 166.2,57.5 167.2,58.8 168,57.3 168.7,59.7 169.5,57.8 169.8,61.6 170.9,57.5 
	172.5,61.7 172.9,56.4 173.9,60.1 174.5,57.6 175.4,59.2 176.1,57.2 177.2,60.6 177.7,57.4 179.3,61.4 180,55 181.6,60 181.9,57.8 
	183.5,60 183.9,56.9 184.7,60.5 185.7,57.2 186.5,61 187.4,57.5 188.3,62.5 189.5,57.8 190.6,59.8 190.7,57.6 192.2,60 192.7,57.5 
	193.8,60.7 194.1,57.4 194.9,59.9 196.4,53.7 197.1,57.4 198.5,53.4 199.4,61.9 200,54.5 201.4,58.2 202.1,54.7 203.5,60.4 
	204.1,55.6 205,57.7 205.4,56 206.5,60.3 207.6,55.6 209.3,59 209.9,56.5 211.3,60 212.2,56.1 213.9,61 214.8,55.9 216.1,58.9 
	216.4,55.9 218.3,60.4 219,55.6 219.9,61 220.6,58.2 221.5,60 222.1,57.9 223.8,61.6 224.6,56.7 227.3,61.6 228.1,57 229,62.3 
	229.9,56.8 230.6,59.3 231.5,56.1 233.2,58.7 234,56.4 235.8,60.7 236.8,57.4 238.3,61.3 239.1,57.9 240.6,60.2 240.9,57.7 
	242,60.6 243.2,56.4 244.2,58.8 244.9,54.2 246.3,56.4 246.6,53.6 248.1,59.3 249.3,57.3 250.6,58.7 251.9,56.2 253.8,60.1 
	254.5,58.7 255.7,60.8 256.4,56.1 258.3,60.6 258.6,56.5 259.3,58.3 260,56.5 261,58.1 261.5,55.9 263,58.5 "/>
<polyline class="st0" points="1.1,72.8 2,79.9 3.2,71.9 4.1,80.5 5.2,72.3 5.7,77.9 6.7,71.9 7.6,78 8.1,72.2 9.7,79.4 10.2,72 
	11.7,77.4 12.7,71.9 14.1,79.2 14.3,72.5 15.5,76.8 16.2,72.4 17,79.8 17.9,71.4 19,78.6 19.4,72.6 20.8,79.2 21.5,72.4 22.7,79.8 
	23.1,72.7 24.1,77.8 24.5,71 25.8,79.5 26.4,72.6 27.6,77.7 28,72.3 28.9,79.6 29.3,72.2 30.2,79.4 31.4,72.2 32.6,79.2 33.2,72.8 
	33.8,76.3 34.6,71.7 35.9,79.5 37.2,71.4 38.7,78.5 39.3,71.7 40.5,78.1 40.8,72.8 41.9,79 42.5,73.3 43.8,78.7 44.9,72 45.9,78.6 
	46.9,72.7 48.1,78.2 49,72.6 49.8,78.6 50.6,72 52.1,79.7 52.8,71.7 53.8,79.9 54.2,72 55.2,79.6 56,72.6 57.1,79.3 57.5,71.9 
	58.7,78.8 59.1,71.6 60.3,79.2 60.7,72.3 61.9,78.5 62.5,71.5 63.5,78.7 64.1,73.2 65.5,79.9 65.6,71.9 66.9,79.2 67.1,71.9 
	68.6,77.5 69.1,72 70.3,78.6 70.6,73.1 72.1,78.9 72.2,72.2 73.4,77.1 73.7,72 74.9,77.8 75.2,72.1 76.4,78.8 76.7,71.3 78.1,79 
	78.8,71.9 79.9,78.5 80.6,72.2 81.6,78.3 81.8,72.1 83.2,78.6 83.4,71.7 84.8,78 85.5,71.6 86.8,78.7 87.3,72.9 88,78.3 88.8,71.4 
	90,78.2 90.7,72.8 91.8,77 92.2,72.1 93.2,78.3 94.1,72.7 95.1,78.2 95.3,72.8 96.5,77.2 97.3,72 98.7,77.1 98.9,72.6 100.1,78 
	100.2,73 101.5,77.2 101.8,72.3 103.1,77.7 103.5,72.6 104.9,78.5 105.2,72 106.5,79.8 107,72.9 108,77.2 108.4,71.9 109.4,79.1 
	110,72.6 111.3,80.4 112,71.7 113.2,78.2 113.9,72.3 114.6,78.5 116,72 116.7,79.6 117.4,71.9 118.6,79.2 119,71.5 120.2,79.2 
	121.2,72.8 122.9,79 123.2,72.8 124.5,79.4 124.9,75.4 126.2,78.3 126.5,75.2 127.4,78.3 128.4,75.2 129.1,77.1 129.8,74 
	130.7,75.3 131.2,72 133.1,74.6 133.1,70.2 134.2,68 134.5,66.2 135.8,68.9 136.2,66.2 137.1,68.7 138.1,66.1 138.6,68.4 
	139.5,65.2 140.2,69 140.9,66.7 142,68.7 142.5,65 143.3,68.6 143.9,66.2 144.7,68.7 145.6,65.8 146.7,68.6 147.4,65.1 148.4,68.5 
	149.2,66.8 149.8,68.1 150.6,66.1 151.2,68.1 151.7,66.3 152.9,68.5 153.9,65.9 154.7,67.9 155.5,65.7 156.8,68.9 158,66.1 
	159.2,68.3 159.6,66.4 161,68.2 161.5,66.3 162.8,69.3 163.2,66.3 164.5,68.5 165,66.1 166,68.5 166.8,66.2 167.8,68.7 168.8,66.1 
	170.7,68.7 170.9,65.4 172,68.2 172.5,65.8 173.5,68.3 174.4,65.7 175.6,68.9 176.5,66 177.5,68.6 178.1,65.9 179.3,68.9 
	180.2,65.8 181.1,67.9 182.3,65.5 183.7,68.8 184.1,66.3 185.2,68.2 185.4,65.9 187.1,68.7 187.8,65.8 188.7,68.4 189.2,65.8 
	190.3,67.8 191,66 191.7,68 192.8,66.1 194.1,68.9 195,66.1 195.6,68 196.8,64.8 198.6,69.5 200,66.6 200.7,68.7 201.9,66.1 
	202.7,67.6 203.4,66.8 204.5,67.8 205.5,65.6 206.4,68.6 207.2,66.1 208.5,69.6 209.5,66.2 210.5,69 211.3,66.2 212,68.8 
	212.8,65.7 213.8,68.8 214.3,67.2 214.9,68.7 216.5,66.2 217,68.1 217.7,65.8 218.5,68.4 220.1,66.4 220.6,68.6 221.4,66.5 
	222.3,68.2 223,65.8 224.7,68.8 225.1,66.2 226.6,68.8 227.3,65.8 228.2,69.2 229.1,65.8 231,69.4 231.4,65.7 232.5,68.6 
	233.1,66.1 234.4,68.1 235.3,66 236,68.1 236.6,66.2 238,68.8 238.9,66.4 240.1,69 241.1,66 241.9,68 242.8,65.5 243.9,68.9 
	244.8,65.4 245.3,68.7 246.5,65.4 246.9,68.4 247.9,65.5 248.5,68.5 249.4,66 250,67.8 251.3,66.1 252.4,68.2 252.7,65.5 
	253.4,68.8 254.6,64.5 255,69.1 256.1,65.4 257.4,68.6 257.8,65.8 258.8,69 259.7,65.7 260.5,68.8 261,66.4 261.9,68.7 262.5,65.8 
	263,67.2 "/>
</svg>
