<?xml version="1.0" encoding="utf-8"?>
<!-- Generator: Adobe Illustrator 19.1.0, SVG Export Plug-In . SVG Version: 6.00 Build 0)  -->
<svg version="1.1" id="Layer_1" xmlns="http://www.w3.org/2000/svg" xmlns:xlink="http://www.w3.org/1999/xlink" x="0px" y="0px"
	 width="100px" height="100px" viewBox="0 0 100 100" style="enable-background:new 0 0 100 100;" xml:space="preserve">
<style type="text/css">
	.st0{fill:#FFFFFF;}
</style>
<g>
	<path class="st0" d="M65.4,50.4v44.7c5.8-1.1,11.3-3,16.3-5.7V34.1L65.4,50.4z"/>
	<path class="st0" d="M54.3,61.5l-3.6,3.6l-3.6-3.6L45.6,60v35.5c2.9,0.4,5.9,0.7,8.9,0.7c2.5,0,5-0.2,7.4-0.5V53.9L54.3,61.5z"/>
	<path class="st0" d="M33.6,48l-7.8,7.8v32.8c5,2.9,10.5,5,16.3,6.2V56.5L33.6,48z"/>
	<path class="st0" d="M9.2,72.4l-0.9,0.9c3.9,5.1,8.7,9.5,14,13.1V59.3L9.2,72.4z"/>
	<path class="st0" d="M33.6,40.8L50.8,58l32.6-32.6l5.6,5.6l5.5-15.1L100,0.7c-0.1-0.1-15.1,5.5-15.1,5.5l-15.1,5.5l5.6,5.6L50.8,42
		L33.6,24.9L0,58.5c1.2,3.1,2.6,6.1,4.3,8.9l1.4,1.4L33.6,40.8z"/>
</g>
</svg>
