<?xml version="1.0" encoding="utf-8"?>
<!-- Generator: Adobe Illustrator 20.1.0, SVG Export Plug-In . SVG Version: 6.00 Build 0)  -->
<svg version="1.1" id="Layer_1" xmlns="http://www.w3.org/2000/svg" xmlns:xlink="http://www.w3.org/1999/xlink" x="0px" y="0px"
	 width="250px" height="250px" viewBox="0 0 250 250" style="enable-background:new 0 0 250 250;" xml:space="preserve">
<style type="text/css">
	.st0{fill:#3BB0C9;}
</style>
<g>
	<path class="st0" d="M224.7,81.4L224.7,81.4c0-15.3-45-27.7-100.4-27.7c-55.5,0-100.4,12.4-100.4,27.7V196h0.3
		c-0.2,0.7-0.3,1.3-0.3,2c0,15.3,45,27.7,100.4,27.7c55.5,0,100.4-12.4,100.4-27.7c0-0.7-0.1-1.3-0.3-2h0.3V81.4z M54.2,65.1
		c18.7-5.2,43.6-8,70.1-8c26.5,0,51.4,2.8,70.1,8c19.9,5.5,26.9,12,26.9,16.3c0,4.3-7.1,10.9-26.9,16.3c-18.7,5.2-43.6,8-70.1,8
		c-26.5,0-51.4-2.8-70.1-8c-19.9-5.5-26.9-12-26.9-16.3C27.3,77.1,34.4,70.6,54.2,65.1z M124.3,212.7c-25.5,0-46.2-20.7-46.2-46.2
		c0-25.5,20.7-46.2,46.2-46.2s46.2,20.7,46.2,46.2C170.5,192.1,149.8,212.7,124.3,212.7z"/>
	<path class="st0" d="M135,191.8h5.6l2.9-14.1c0.2-0.5,0.6-0.9,0.9-1.4c0.4-0.5,0.8-1,1.2-1.4c0.4-0.4,0.9-0.8,1.4-1
		c0.5-0.3,1-0.4,1.5-0.4c1.1,0,1.6,0.7,1.6,2.1c0,0.5-0.1,1.1-0.2,1.7c-0.1,0.6-0.3,1.4-0.4,2.2l-2.6,12.3h5.6l2.9-14
		c0.2-0.5,0.5-0.9,0.9-1.4c0.4-0.5,0.8-1,1.3-1.4c0.5-0.4,0.9-0.8,1.4-1.1c0.5-0.3,1-0.4,1.5-0.4c0.6,0,1,0.2,1.3,0.5
		c0.3,0.4,0.4,0.9,0.4,1.6c0,0.5,0,1-0.1,1.6c-0.1,0.6-0.2,1.3-0.4,1.9l-2.7,12.7h5.6l2.9-13.6c0.5-2.1,0.7-3.8,0.7-5.1
		c0-1.8-0.4-3-1.1-3.7c-0.7-0.7-1.8-1-3.2-1c-0.8,0-1.6,0.1-2.4,0.4c-0.8,0.3-1.5,0.7-2.2,1.1c-0.7,0.5-1.3,1-1.9,1.5
		c-0.6,0.6-1.1,1.2-1.6,1.7c0.1-1.5-0.2-2.6-0.8-3.5c-0.6-0.9-1.5-1.3-2.8-1.3c-1,0-1.9,0.2-2.7,0.5c-0.8,0.3-1.6,0.7-2.2,1.1
		c-0.7,0.5-1.3,1-1.8,1.5c-0.5,0.5-1,1.1-1.5,1.5h-0.2l0.3-4h-4.4L135,191.8z"/>
</g>
</svg>
