<?xml version="1.0" encoding="utf-8"?>
<!-- Generator: Adobe Illustrator 19.0.1, SVG Export Plug-In . SVG Version: 6.00 Build 0)  -->
<!DOCTYPE svg PUBLIC "-//W3C//DTD SVG 1.1//EN" "http://www.w3.org/Graphics/SVG/1.1/DTD/svg11.dtd">
<svg version="1.1" id="Layer_1" xmlns="http://www.w3.org/2000/svg" xmlns:xlink="http://www.w3.org/1999/xlink" x="0px" y="0px"
	 width="120px" height="120px" viewBox="0 0 120 120" style="enable-background:new 0 0 120 120;" xml:space="preserve">
<style type="text/css">
	.st0{fill:none;}
	.st1{fill:#272626;}
	.st2{fill:#22B350;}
	.st3{fill:none;stroke:#098F74;stroke-width:0;stroke-linecap:round;stroke-linejoin:round;}
	.st4{fill:#098F74;}
	.st5{fill:#153E22;}
	.st6{fill:#2874BB;}
	.st7{fill:none;stroke:#2874BB;stroke-width:0;stroke-linecap:round;stroke-linejoin:round;}
	.st8{fill:#818081;}
	.st9{fill:#0F8040;}
	.st10{fill:none;stroke:#0F8040;stroke-width:0;stroke-linecap:round;stroke-linejoin:round;}
	.st11{fill:none;stroke:#153E22;stroke-width:0;stroke-linecap:round;stroke-linejoin:round;}
	.st12{fill:none;stroke:#818081;stroke-width:0;stroke-linecap:round;stroke-linejoin:round;}
</style>
<g>
	<path class="st0" d="M8.3,52c0,0,0-0.1,0-0.1c-0.2,0-0.3-0.1-0.5-0.2c0.1,0.1,0.2,0.2,0.4,0.2C8.2,51.9,8.2,51.9,8.3,52z"/>
	<path class="st0" d="M90.7,110.8c0.3,0.6,0,0.9-0.6,1.2c0,0-0.3,0-0.3,0.3c-0.2,0.1-0.3,0.1-0.4,0.1c0,0.1,0.1,0.1,0.1,0.2
		c0.3,0.9,0.3,0.9,1.2,0.6c0,0,0.3,0,0.3-0.3c0.6-0.3,0.6-0.6,0.6-1.2c-1-3.2-1.8-6.7-2.7-10c-0.2,0.1-0.4,0.2-0.6,0.3
		C89.1,105,89.8,108,90.7,110.8z"/>
	<path class="st0" d="M72.6,113.2c-1.2-0.6-2.1-0.6-3.3-0.3c-0.6,0.3-0.9,0.6-1.2,0.9c0,0.3-0.3,0.3-0.6,0.3h-0.3
		c-0.6,0-1.1-0.1-1.5-0.2c0.5,0.9,1.1,1.1,2.4,1.1h0.3c0.3,0,0.6,0,0.6-0.3c0.3-0.6,0.6-0.9,1.2-0.9c1.1-0.3,1.9-0.3,3,0.2
		c0-0.1,0-0.1,0-0.2C73.2,113.5,72.9,113.5,72.6,113.2z"/>
	<path class="st0" d="M87.4,110.8c-1.2-0.3-3,0.6-3.9,1.8v0.3c0,0.3,0,0.9-0.3,0.9c-0.5,0-1,0-1.6,0.2c0.2,0.2,0.3,0.4,0.4,0.7
		c0,0,0,0.3,0.3,0.3c0.6,0,1.2,0,1.8-0.3c0.3,0,0.3-0.6,0.3-0.9v-0.3c0.6-1.2,2.4-1.8,3.9-1.8c0.1,0,0.2,0,0.3,0c0,0,0,0,0,0
		C88.3,111.1,88,110.8,87.4,110.8z"/>
	<path class="st0" d="M6.9,48.9c-0.3-3,0-6.3,0.6-9.4c0.3-1.8,0.6-3.6,1.2-5.4C8.8,34,8.9,34,9,33.9c0.3-2.3,1.8-3.8,3.2-5
		c1.1-0.8,2.2-1.5,3.4-2.1c0-0.1,0.1-0.1,0.1-0.2c-1.3,0.7-2.6,1.4-3.8,2.3c-1.8,1.2-3.3,2.7-3.3,5.1c-0.6,1.8-0.9,3.6-1.2,5.4
		C6.9,42.5,6.6,45.8,6.9,48.9c0,0.9,0.3,1.8,0.6,2.7c0,0,0,0,0,0c0,0,0,0,0,0C7.2,50.7,7.2,49.8,6.9,48.9z"/>
	<path class="st0" d="M79.4,112.6c-1.2,0-2.7,0.3-3.3,1.5c0,0.3-0.3,0.3-0.6,0.3c-0.3,0-0.9,0-1.2,0c-0.1,0-0.3,0-0.4,0
		c0.1,0.1,0.1,0.2,0.1,0.3c0,0.9,0.6,0.9,1.2,0.6c0.3,0,0.9,0,1.2,0c0.3,0,0.3,0,0.6-0.3c0.6-1.2,1.8-1.5,3.3-1.5
		c0.3,0,0.6,0,0.8,0.1C80.8,112.9,80.2,112.6,79.4,112.6z"/>
	<path class="st0" d="M23.3,98.4c0.3-1.5,0.9-2.9,1.8-4.2c0,0-0.1-0.1-0.1-0.1c-0.8,1.3-1.5,2.7-1.9,4.3c-0.3,1.4-0.3,2.8-0.3,4.4
		c0.1,0.1,0.2,0.3,0.3,0.4C22.7,101.7,22.7,100.2,23.3,98.4z"/>
	<path class="st0" d="M85.9,113.2c-0.6,0.3-0.6,0.9-0.6,1.5c0.3,0.9,0.6,1.5,1.5,2.1c0.3,0.3,0.6,0.6,1.2,0.3
		c0.3-0.3,0.3-0.9,0.3-1.5c0-0.6,0-1.2-0.3-1.5C87.7,112.6,87.1,112.3,85.9,113.2z"/>
	<path class="st0" d="M71.4,114.1h-0.3c-1.2,0-1.5,0.6-1.2,1.8c0.3,0.9,0.6,1.5,1.2,2.1c0.6,0.6,0.9,0.6,1.2-0.3
		c0.3-0.6,0.3-1.5,0.3-2.1C72.6,114.4,72.6,114.1,71.4,114.1z"/>
	<path class="st0" d="M79.7,114.1c-1.5,0-2.1,0.9-1.5,2.1c0.3,0.6,0.6,1.2,1.2,1.8c0.6,0.6,0.9,0.3,1.2-0.3c0-0.6,0-1.2,0-1.8
		c0-0.3,0-0.6,0-1.2S80.3,113.8,79.7,114.1z"/>
	<path class="st1" d="M11.1,51c0.5-0.8,1-1.5,1.7-1.9c-0.1-0.1-0.2-0.3-0.3-0.4c-0.8,0.3-1.4,1.2-2,2.1c-0.3,0.6-0.7,1-1.2,1.1
		c0,0.1,0,0.3,0,0.4C10,52.1,10.7,51.7,11.1,51z"/>
	<path class="st1" d="M19.1,25.3c5.3-2.1,11-3.3,16.9-4.5c0.3-0.1,0.6-0.1,0.9-0.2c-0.4,0.1-0.8,0.1-1.2,0.2
		c-5.6,1.2-11.3,2.4-16.9,4.5c-0.4,0.2-0.9,0.4-1.3,0.6c0,0.1-0.1,0.1-0.1,0.2C17.9,25.7,18.5,25.5,19.1,25.3z"/>
	<path class="st1" d="M13.2,46.1c0.3,0,0.3-0.3,0.3-0.3c0.3,0.2,0.7,0.4,0.9,0.7c-0.3-0.4-0.8-0.8-1.2-1.3c0,0.3-0.3,0.3-0.3,0.3
		c-0.8,0.6-1.1,2.1-0.5,2.8C12.2,47.6,12.5,46.6,13.2,46.1z M13.8,45.8c0,0-0.2,0-0.1,0C13.6,45.8,13.8,45.8,13.8,45.8
		c-0.1-0.2-0.2-0.2-0.2-0.2S13.6,45.7,13.8,45.8z"/>
	<path class="st1" d="M103.5,70.2c1.3,0.5,2.7,1,4.1,1.5C106.3,71.2,104.9,70.7,103.5,70.2z"/>
	<path class="st1" d="M33.7,45.8C33.7,45.8,33.7,45.8,33.7,45.8c-0.9-0.6-2.1-0.3-2.7,0.6c0.5,0,1.1-0.5,1.6-0.4
		C32.9,45.9,33.3,45.8,33.7,45.8z"/>
	<path class="st1" d="M34.6,47c0,0.2,0,0.4,0,0.5c0.4,0.5,0.7,1,0.9,1.6c0.6,0.9,0.9,1.8,1.2,2.4c-0.2-1.2-0.5-2.3-1-3.3
		C35.3,47.8,35,47.4,34.6,47z"/>
	<path class="st1" d="M15.2,47.9c0.7-0.1,1.3-0.2,2-0.2c-0.7,0-1.5,0-2.2,0.2c0,0.1,0,0.2,0,0.4C15,48.2,15.1,48.1,15.2,47.9z"/>
	<path class="st1" d="M80.9,77.6c-1.5,0.3-3,1.2-4.5,1.8c-1.7,0.9-3.2,1.8-4.9,2.7c0.2,0.1,0.3,0.2,0.5,0.4c0.3,0.3,0.3,0,0.6,0
		c1.5-1.2,3.3-2.1,5.1-2.7c1.4-0.6,2.9-1.2,4.3-1.7C81.6,77.6,81.1,77.6,80.9,77.6z"/>
	<path class="st1" d="M64.7,25.9c0.1,0.1,0.2,0.3,0.2,0.5C64.9,26.2,64.8,26.1,64.7,25.9z"/>
	<path class="st1" d="M26.8,60.9c0.7-0.1,1.4-0.2,2-0.4c-0.4,0.1-0.8,0.2-1.3,0.2C27.4,60.7,27.1,60.8,26.8,60.9z"/>
	<path class="st1" d="M34.1,47.1c0.2-0.4,0.1-0.6-0.4-0.6c-0.1-0.1-0.3-0.1-0.4-0.1c0.2,0.1,0.3,0.3-0.1,0.7
		c-0.6,0.9-1.2,1.8-2.1,2.4c-1.3,0.3-2.8,0.3-4.2,0.3c0,0,0,0,0,0c1.5,0,3.3,0,4.8-0.3c-1.5,1.2-3,2.1-4.8,2.4
		c-1.2,0.3-2.7-0.3-3.9-0.6c-1.2-0.3-2.1-0.9-3.3-1.2c-3.3-0.9-5.9,0.9-7.1,4.5c-0.3,0.6-0.3,1.2-0.9,1.5c-0.6,0.3-0.9,0.3-1.5,0
		c-0.1-0.1-0.2-0.2-0.3-0.3c0.2,0.2,0.4,0.4,0.6,0.6c0.6,0.6,0.9,0.6,1.5,0c0.6-0.3,0.6-0.9,0.9-1.5c0.9-3.6,3.6-5.4,7.1-4.5
		c1.2,0.3,2.1,0.9,3.3,1.2c1.2,0.3,2.7,0.9,3.9,0.6c1.8-0.3,3.3-1.2,4.8-2.4c0.7-0.5,1.3-1.2,1.8-2c0-0.3,0-0.8,0-1
		C33.8,46.8,33.9,47,34.1,47.1z"/>
	<path class="st1" d="M69.9,65.5c0-0.3,0-0.3-0.3-0.6c0,2.7-0.6,5.1-1.8,7.3c-0.9,1.5-1.8,3.3-3.6,4.2c-1.5,0.6-2.7,1.2-4.2,1.2
		c-3,0.3-5.6,0.3-8.6,0.3c-2.7,0-5.1-0.3-7.4-0.9c-0.1,0-0.1,0-0.2,0c0.4,0.1,0.9,0.2,1.3,0.3c2.4,0.6,5.1,0.9,7.4,0.9
		c3,0,5.6,0,8.6-0.3c1.5-0.3,3-0.6,4.2-1.2c1.8-0.9,2.7-2.4,3.6-4.2c0-0.1,0.1-0.1,0.1-0.2c0.2-0.5,0.4-1.1,0.5-1.6
		C70.2,68.8,70.2,67,69.9,65.5z"/>
	<path class="st1" d="M99,20.4C99,20.4,99,20.4,99,20.4C99,20.4,99,20.4,99,20.4C99,20.4,99,20.4,99,20.4z"/>
	<path class="st1" d="M87.2,58.6c0-0.1-0.1-0.1-0.1-0.2C87.2,58.5,87.2,58.5,87.2,58.6z"/>
	<path class="st1" d="M78.9,38.2c-0.1-0.2-0.2-0.3-0.4-0.5c-0.2-0.2-0.5-0.7-0.9-1c0,0,0,0,0,0.1c0.2,0.3,0.4,0.5,0.6,0.8
		C78.5,37.7,78.7,37.9,78.9,38.2z"/>
	<path class="st1" d="M81.6,43.4c1.3,2.7,2.3,5.6,3.2,8.5c0.6,1.5,0.9,3.3,1.5,4.8c0.1,0.2,0.2,0.4,0.3,0.6
		c-0.6-1.5-1.2-3.3-1.5-4.8C84.1,49.4,83,46.3,81.6,43.4z"/>
	<path class="st1" d="M98.9,20.4C98.9,20.3,98.9,20.3,98.9,20.4C98.9,20.3,98.9,20.3,98.9,20.4z"/>
	<path class="st1" d="M109.4,71.8c0-0.5,0.2-1.2,0.3-1.8c-0.3,0-0.3-0.3-0.6,0c-0.2,0-0.2-0.1-0.3-0.2c-0.1,0.7-0.3,1.2-0.3,1.7
		c0,0.2-0.1,0.4-0.3,0.4c0.2,0.1,0.4,0.1,0.6,0.2C109.1,72.1,109.4,72.1,109.4,71.8z"/>
	<path class="st1" d="M10.2,45.8c0.6,0.3,0.9,0.9,1.2,1.5c0.3,0.9-0.3,2.1-1.5,2.1c0,0,0,0-0.1,0c0.1,0.1,0.3,0.2,0.4,0.3
		c1.2,0,2.1-1.2,1.5-2.1C11.4,46.7,10.8,46.1,10.2,45.8z"/>
	<path class="st1" d="M86.8,57.7c0-0.1-0.1-0.1-0.1-0.2C86.7,57.6,86.7,57.7,86.8,57.7z"/>
	<path class="st1" d="M79.6,39.2c-0.2-0.3-0.5-0.7-0.7-1c0.1,0.1,0.1,0.2,0.2,0.4C79.3,38.8,79.4,39,79.6,39.2z"/>
	<path class="st1" d="M64.9,26.5c-0.6-0.3-0.9-0.6-1.5-0.9c-2.1-1.2-4.5-1.8-6.8-1.8c0,0-0.1,0-0.1,0c2.3,0,4.6,0.6,6.7,1.8
		c0.6,0.3,0.9,0.6,1.5,0.9C64.6,26.5,64.6,26.8,64.9,26.5C64.9,26.5,64.9,26.5,64.9,26.5C64.9,26.5,64.9,26.5,64.9,26.5z"/>
	<path class="st1" d="M27.9,26.7c-3.1,0.5-6.3,1.3-9.4,2.4C21.6,28.2,24.8,27.4,27.9,26.7z"/>
	<path class="st1" d="M69.9,42.8c0.3,1.8,0.3,3.6,0.3,5.4c0,0.3,0,0.6,0.3,0.6c0.1,0,0.1,0,0.1,0c-0.1-0.1-0.1-0.3-0.1-0.6
		c0-1.8,0-3.6-0.3-5.4c-0.3-3.6-0.9-7-2.1-10.3c-0.9-2.1-1.8-4.2-3-6c0,0,0,0-0.3,0c1.2,1.8,2.1,3.9,3,6
		C69,35.9,69.6,39.2,69.9,42.8z"/>
	<path class="st1" d="M70.2,36.2c0.9,1.2,1.2,2.4,1.8,3.6c2.1,5.1,3.6,10.3,4.5,15.7c0.3,1.8,0.6,3.6,1.2,5.1c0.6,1.8,1.8,3.6,3,5.1
		c0.4,0.5,0.9,1,1.4,1.5c-0.2-0.2-0.3-0.4-0.5-0.6c-1.2-1.5-2.4-3.3-3-5.1c-0.6-1.8-0.6-3.3-1.2-5.1C76.4,51,75,45.8,72.9,40.7
		c-0.6-1.2-0.9-2.4-1.8-3.6c-0.2-0.5-0.2-0.8-0.3-1c0-0.1-0.1-0.1-0.2-0.2c-0.1,0-0.1,0-0.1,0s0,0,0.1,0c-0.1-0.1-0.2-0.2-0.2-0.3
		c-0.1,0-0.2-0.1-0.2-0.3v0.3c0,0.2,0,0.2,0,0.3c0,0,0,0,0,0V36.2z M70.8,36c0,0,0,0,0,0.1C70.8,36,70.8,36,70.8,36z"/>
	<path class="st1" d="M53.7,18.3c0,0-0.1,0-0.1,0c-2.1,0-4.5,0.3-6.5,0.6c-0.2,0-0.3,0.1-0.5,0.1c0.3,0,0.5-0.1,0.8-0.1
		C49.3,18.6,51.6,18.4,53.7,18.3z"/>
	<path class="st1" d="M74.4,30.7c0.6,1.8,1.5,3.3,2.1,4.8c0,0,0,0.3,0.3,0.3v0.3c0.3,0.2,0.4,0.2,0.6,0.3c0,0,0,0,0,0c0,0,0,0,0,0
		c0.1,0.1,0.2,0.2,0.3,0.3c0,0,0-0.1,0-0.1c-0.1-0.1-0.2-0.1-0.3-0.2c0-0.3,0-0.3-0.3-0.3c0,0,0,0,0-0.3c0,0,0-0.3-0.3-0.3
		c-0.9-1.5-1.8-3-2.1-4.8V31v-0.3c-0.3-0.3-0.3-0.6-0.3-0.9c0,0,0,0-0.2,0c0.1,0.2,0.2,0.4,0.2,0.6V30.7z"/>
	<path class="st1" d="M99,20.4C99,20.4,99,20.4,99,20.4C99,20.4,99,20.4,99,20.4C99,20.4,99,20.4,99,20.4z"/>
	<path class="st1" d="M98.9,20.3C98.8,20.3,98.8,20.2,98.9,20.3C98.8,20.3,98.9,20.3,98.9,20.3C98.9,20.3,98.9,20.3,98.9,20.3z"/>
	<path class="st1" d="M74.4,29.5C72.9,23,70,17.1,65.1,12c-0.1,0-0.2,0-0.3,0c4.8,5.1,7.7,10.9,9.5,17.8c0,0,0,0,0.2,0
		C74.5,29.7,74.5,29.6,74.4,29.5z"/>
	<path class="st1" d="M60.7,105.7c0,0,0-0.1,0-0.1c-2.8-0.3-5.4-0.5-8-0.8c2.7-0.3,5.3-0.9,8-1.5c0-0.1,0-0.2,0-0.3
		c-0.6,0-0.9,0.3-1.2,0.3c-2.7,0.6-5.3,1.2-8,1.5c-2.1,0.3-4.4,0.6-6.5,0.6c5,1.7,10.2,2.7,15.7,2.8
		C60.7,107.3,60.7,106.5,60.7,105.7z"/>
	<path class="st1" d="M29.8,54.6c-0.1,0-0.2,0-0.3,0C29.6,54.6,29.7,54.6,29.8,54.6C29.8,54.6,29.8,54.6,29.8,54.6z"/>
	<path class="st1" d="M45.9,102.4c-0.1-0.1-0.2-0.2-0.3-0.3C45.6,102.3,45.7,102.4,45.9,102.4z"/>
	<path class="st1" d="M30.1,55.5c0.2-0.4,0.3-0.5,0.1-0.7c0,0.1-0.2,0.3-0.4,0.7c-0.9,1.8-2.4,2.7-4.2,3.3c-0.6,0-1.5,0.3-2.4,0.3
		c0.9,0,1.8,0,2.7-0.3C27.7,58.2,29.2,57.3,30.1,55.5z"/>
	<path class="st1" d="M26.7,55.3c-1.6,0.9-2.5,2.3-3.4,3.9C24.2,57.5,25.2,56.1,26.7,55.3z"/>
	<path class="st1" d="M23.3,22c0.3,0,0.3,0,0.3,0c0.3-0.1,0.6-0.2,1-0.3c0.4-0.5,0.8-0.9,1.1-1.2C33.1,12.3,42.3,7.1,53.3,5
		c9.2-1.7,18.1-1,26.7,2.3c0.2-0.1,0.4-0.2,0.7-0.2c1.3,0.5,1.9,1,2.6,1.4c0.1-0.1,0.2-0.1,0.4-0.2c4.5,2.1,8.6,4.8,11.9,8.2
		c0,0,0,0,0,0.3c0.3,0.3,0.3,0.6,0.6,0.6h0h0c0,0.2,0.1,0.3,0.3,0.4c0,0,0-0.1,0-0.1c0-0.1,0-0.1,0-0.1c0,0,0,0,0,0.1
		c0.3,0,0.3,0.3,0.6,0.6c0,0,0,0,0,0c0.1,0.1,0.2,0.2,0.3,0.3l0,0c0-0.1,0-0.1,0-0.1c0,0,0,0,0,0.1l0,0c0.2,0.2,0.4,0.4,0.5,0.6
		c0,0,0,0,0,0c0,0,0,0,0,0c0,0,0,0,0,0c0,0,0,0,0,0c0,0,0,0,0,0c0,0,0,0,0,0c0,0,0,0,0,0c0,0,0,0,0,0c0-0.2,0-0.2,0-0.2s0,0.1,0,0.2
		l0,0c0.3,0,0.6,0.3,0.6,0.6c-0.1-0.1-0.2-0.2-0.2-0.2c0.2,0.2,0.3,0.3,0.4,0.4c0,0-0.1-0.1-0.1-0.1s0,0,0.1,0.1
		c0.1,0.1,0.1,0.1,0.2,0.2c-0.3-0.3,0-0.3,0,0c0,0,0.1,0.1,0.1,0.1c0,0,0,0,0.1,0.1c0,0,0,0,0.1,0.1c0,0,0,0,0,0c0-0.2,0-0.2,0-0.2
		s0,0.1,0,0.2c2.7,3,5.1,6,6.8,9.4c3,5.4,4.8,11.5,5.6,17.5c0.9,6.6,0.3,13.3-1.2,19.9c0,0,0,0,0,0.3c-2.7-0.9-5.1-1.5-7.7-2.4
		c-4.2-1.5-8-3-11.9-5.1c-0.3-0.3-0.9-0.6-1.2-0.9c-0.5-0.7-1-1.5-1.4-2.2c0.5,1.1,1.1,2.1,2,3.1c0.3,0.3,0.9,0.6,1.2,0.9
		c3.9,2.1,7.7,3.6,11.9,5.1c2.4,0.9,5.1,1.5,7.7,2.4c-0.8,0-0.9,0.5-1.1,1.2c0.2,0,0.2,0,0.5,0c-0.3,1.2-0.9,2.4-1.2,3.6
		c-0.9,1.2-1.2,2.1-1.8,3c-1.2,0-2.4-0.3-3.6-0.6c-5.9-1.5-11.6-3.6-16.9-7.3c-2.4-1.8-4.5-3.6-6.2-6.3c-0.9-1.5-1.2-3.3-1.8-5.1
		c-0.9-5.7-2.4-11.5-4.8-16.9c-0.9-1.8-1.8-3.3-3-4.8c0-0.3-0.3-0.3-0.3-0.3c-0.9-0.6-1.2-1.5-1.5-2.4c-0.9-3.3-2.4-6.6-4.5-9.4
		c-1.5-1.8-3-3.6-4.8-5.1c-0.9-0.6-1.8-0.9-2.7-0.9c-1.2-0.3-2.4-0.3-3.6-0.3c-0.3,0-0.6,0-0.3-0.6c0-0.6,0.3-1.5,0.6-2.1
		c0,0,0,0,0-0.3c0.3,0,0.6-0.3,0.9-0.6c0.9-0.9,1.8-1.2,3-1.2c0.4,0,0.8,0.1,1.2,0.2c-0.7-0.3-1.4-0.5-2.1-0.5c-1.2,0-2.1,0.6-3,1.2
		c-0.3,0.3-0.3,0.5-0.8,0.6c0,0.1-0.1,0.2-0.1,0.3c0,0,0,0,0,0.3c-0.3,0.6-0.3,1.2-0.6,2.1c0,0.3,0,0.6,0.3,0.6c1.2,0,2.4,0,3.6,0.3
		c0.9,0.3,2.1,0.3,2.7,0.9c1.8,1.5,3.6,3,4.8,5.1c2.1,3,3.6,6,4.5,9.4c0.3,0.9,0.6,1.8,1.5,2.4c0,0,0.2,0,0.1,0c0.1,0,0.1,0,0.1,0
		s0,0-0.1,0c0,0-0.1,0-0.1,0c0.3,0,0.3,0.3,0.3,0.3c0-0.3,0-0.3,0-0.3c0.3,0.3,0.6,0.3,0.6,0.9c0,0,0,0.1,0,0.2c1,1.3,1.9,2.5,2.4,4
		C75.5,45.5,77,51,77.9,57c0.3,1.8,0.6,3.3,1.8,5.1c1.5,2.7,3.6,4.8,6.2,6.3c5.1,3.6,10.7,5.7,16.9,7.3c1.2,0.3,2.4,0.6,3.6,0.6
		c-0.4,0.9-0.7,1.7-1.1,2.5c0.8,0.2,0.8,0.3,0.2,1.1c-1.5,2.7-3.6,5.4-5.6,7.9c0,0-0.1,0.1-0.1,0.1c-2.3,3-4.9,5.7-7.9,8
		c-0.9,0.9-1.5,1.8-2.4,2.7c-0.3,0.3,0,0.3,0,0.6c0.1,0.3,0.1,0.5,0.2,0.8c14.9-9.5,24.9-26.3,24.9-45.5C114.6,25,90.9,1,61.9,1
		C44.4,1,28.8,9.7,19.2,23.2c1.2-0.5,2.5-1,3.7-1.2C23,22,23,22,23.3,22z M53.6,13.9c0,0,0-0.1,0-0.1C53.6,13.9,53.6,13.9,53.6,13.9
		C53.6,14,53.6,14,53.6,13.9C53.6,14,53.6,14,53.6,13.9z M97.4,18.6c0,0,0.1,0,0.1,0C97.5,18.6,97.4,18.6,97.4,18.6
		C97.3,18.6,97.3,18.6,97.4,18.6C97.3,18.6,97.3,18.6,97.4,18.6z"/>
	<path class="st1" d="M30.4,80.9c-0.3-0.1-0.6-0.1-0.9-0.1c0.1,0,0.2,0.1,0.3,0.1c1.8,0.6,3.3,1.5,4.5,2.4c0.3,0.3,0.9,0.3,1.2,0.3
		c0,0,0.1,0,0.1,0c-0.3,0-0.5-0.1-0.7-0.3C33.4,82.4,31.9,81.2,30.4,80.9z"/>
	<path class="st1" d="M22.7,88.4c0.3,0,0.3-0.3,0.6-0.3c0.1-0.1,0.3-0.2,0.4-0.3c-2-2.6-4-5.3-5.7-8.5c-3-5.4-4.8-11.5-5.6-17.5
		c0-1.5,0-2.4-0.3-3.6c1.2-0.6,1.8-1.5,2.1-2.7c0.3-0.9,0.6-1.8,1.2-2.7c0.7-0.7,1.5-1.1,2.4-1.2c-1.1-0.1-2.1,0.3-3,1.2
		c-0.6,0.6-1.2,1.8-1.2,2.7c-0.3,1.2-0.9,2.1-2.1,2.7h-0.3c-0.7,0.2-1.3,0.1-1.8-0.3c0.7,11.9,5.3,22.8,12.4,31.3
		C22,89,22.3,88.7,22.7,88.4z"/>
	<path class="st1" d="M26,88c-0.4,0.4-0.8,0.7-1.2,1.1c0.4-0.3,0.8-0.6,1.1-1C26,88.1,26,88.1,26,88z"/>
	<path class="st1" d="M105,78.8C104.9,78.8,104.9,78.8,105,78.8c-0.1,0.1-0.2,0.2-0.3,0.3c-1.8,2.7-3.6,5.4-5.6,7.9
		c-2.4,2.7-5.3,5.1-8.3,7.3c-1.2,0.6-1.8,1.8-2.7,2.7l-0.3,0.3c-0.6,0.3-0.6,0.9-0.3,1.5c0.2,0.8,0.4,1.6,0.7,2.3
		c0.2-0.1,0.4-0.2,0.5-0.3c-0.1-0.4-0.2-0.7-0.3-1.1c-0.3-0.6,0-1.2,0.3-1.5l0.3-0.3c0.9-0.9,1.5-2.1,2.7-2.7
		c2.9-2.1,5.8-4.5,8.2-7.1c2.1-2.8,4-5.8,5.5-9.1C105.2,78.8,105.1,78.8,105,78.8z"/>
	<path class="st1" d="M39.3,92.4c0.3,1.2,1.2,2.4,1.8,3.6c0.9,1.8,1.8,3.3,2.4,5.4c0.3,1.2,0.3,2.1,0,3c0.3-0.9,0.3-2,0-3.3
		c-0.6-1.8-1.5-3.6-2.4-5.4c-0.6-1.2-1.4-2.3-1.7-3.5C39.3,92.3,39.3,92.3,39.3,92.4z"/>
	<path class="st1" d="M30.1,82.1c1.5,0.6,3,1.2,4.2,2.4c0.6,0.6,1.2,0.6,2.1,0.6c2.1-0.3,4.2-0.9,5.9-1.8c0.5-0.5,0.6-0.6,0.7-0.6
		c0,0,0,0,0,0c-0.1,0-0.2,0.1-0.4,0.3c-2.1,0.9-3.9,1.5-5.9,1.8c-0.9,0-1.5,0-2.1-0.6c-1.2-0.9-2.7-1.8-4.2-2.4
		c-0.7-0.2-1.2-0.1-1.6,0.2C29.1,81.9,29.6,81.9,30.1,82.1z"/>
	<path class="st1" d="M28.6,89.4c0,0.6-0.3,1.2-0.9,1.5c-0.9,0.8-1.6,1.6-2.2,2.4c0,0,0.1,0.1,0.1,0.1c0.7-0.9,1.5-1.7,2.4-2.5
		c0.6-0.6,0.6-0.9,0.9-1.5c0-1.4,1.1-2.3,2.2-2.4c0,0-0.1,0-0.1,0C29.8,86.6,28.6,87.8,28.6,89.4z"/>
	<path class="st1" d="M41.1,84.8c-1.8,1.2-3.6,1.8-5.6,2.1c-0.7,0.1-1.4,0.2-2.1,0.2c0.8,0,1.6-0.1,2.4-0.2c2.1-0.3,3.9-0.9,5.6-2.1
		c0.3-0.3,0.6-0.6,0.9-1C41.9,84.2,41.6,84.5,41.1,84.8z"/>
	<path class="st1" d="M50.3,79.4c1.2,0,2.7,0,3.9,0c0.9,0,1.8,0,2.7,0c2.4-0.3,4.5-0.3,6.8-1.2c0.3,0,0.3,0,0.6,0.3
		c0.6,0.9,1.5,2.1,2.4,2.7c0.9,0.6,1.5,1.5,2.4,2.1c0.3,0.1,0.4,0.2,0.4,0.3c0-0.1-0.1-0.3-0.4-0.6c-0.9-0.6-1.8-1.2-2.4-2.1
		c-0.9-0.9-1.8-1.8-2.4-2.7c0-0.3-0.3-0.3-0.6-0.3c-2.1,0.9-4.5,0.9-6.8,1.2c-0.9,0-1.8,0-2.7,0c-1.2,0-2.7,0-3.9,0
		c-0.6,0-1.5-0.3-2.1,0c-0.7,0.8-1.6,1.4-2.4,1.9c0.9-0.5,1.7-1,2.4-1.6C48.8,79.1,49.7,79.4,50.3,79.4z"/>
	<path class="st1" d="M29.2,30.7h-0.3C28.9,31,29.2,30.7,29.2,30.7z"/>
	<path class="st1" d="M32.5,36.2c0.4,0.3,0.8,1,1,1.8c-0.2-0.8-0.5-1.5-0.7-2.1c-0.9-1.2-2.1-1.5-3.3-0.6c-0.2,0.2-0.4,0.4-0.6,0.5
		c0.1-0.1,0.2-0.2,0.3-0.2C30.4,34.6,31.6,35,32.5,36.2z"/>
	<path class="st1" d="M34.6,32.2c-0.3-0.6-0.6-0.9-0.9-1.2C34,31.3,34.3,31.9,34.6,32.2z"/>
	<path class="st1" d="M30.1,30.4c-0.3,0-0.6,0.3-0.9,0.3C29.5,30.7,29.8,30.4,30.1,30.4z"/>
	<path class="st1" d="M29.2,37.7c-0.3,0.3-0.3,0.6-0.5,1.1c0.1,0,0.2-0.1,0.2-0.2c0.3-0.3,0.3-0.6,0.6-1.2c0.2-0.3,0.4-0.5,0.6-0.6
		C29.8,36.9,29.5,37.2,29.2,37.7z"/>
	<path class="st1" d="M33.7,31c-0.2-0.2-0.5-0.4-0.7-0.6C33.2,30.6,33.4,30.8,33.7,31z"/>
	<path class="st1" d="M28.9,30.4c0,0-0.3,0.3,0,0.3V30.4z"/>
	<path class="st2" d="M9.3,52.2c0-0.1,0-0.3,0-0.4c-0.3,0.1-0.6,0.1-1,0.1c0,0,0,0.1,0,0.1C8.6,52.1,8.9,52.2,9.3,52.2z"/>
	<path class="st2" d="M115.6,54.6C115.6,24.5,91.5,0,61.9,0C43.5,0,27.2,9.5,17.6,23.9c0.3-0.1,0.6-0.3,1-0.4
		c0.2-0.1,0.5-0.2,0.7-0.3C28.8,9.7,44.4,1,61.9,1c29,0,52.7,24,52.7,53.6c0,19.2-10,36-24.9,45.5c0.1,0.3,0.2,0.7,0.2,1
		C105.3,91.5,115.6,74.3,115.6,54.6z"/>
	<path class="st2" d="M17.4,26c0-0.1,0.1-0.1,0.1-0.2c-0.6,0.2-1.1,0.5-1.6,0.8c0,0.1-0.1,0.1-0.1,0.2C16.3,26.5,16.8,26.3,17.4,26z
		"/>
	<path class="st2" d="M60.8,108.2c-5.5-0.1-10.8-1.1-15.7-2.8c0,0-0.1,0-0.1,0c-0.3,0-0.3,0-0.3,0.3c-0.1,0.2-0.2,0.4-0.2,0.5
		c5.2,1.8,10.7,2.8,16.4,3C60.8,108.8,60.8,108.5,60.8,108.2z"/>
	<path class="st2" d="M21.7,89.2C14.6,80.7,10,69.8,9.3,57.9c-0.1-0.1-0.2-0.2-0.3-0.3c-0.3-0.2-0.5-0.5-0.7-0.7
		c0.5,12.6,5.2,24,12.7,33C21.2,89.7,21.5,89.5,21.7,89.2z"/>
	<path class="st2" d="M88.4,102.1c0.2-0.1,0.4-0.2,0.6-0.3c-0.1-0.3-0.2-0.7-0.3-1c-0.2,0.1-0.4,0.2-0.5,0.3
		C88.2,101.4,88.3,101.7,88.4,102.1z"/>
	<path class="st2" d="M24.9,94.1c0,0,0.1,0.1,0.1,0.1c0.2-0.3,0.4-0.6,0.6-0.8c0,0-0.1-0.1-0.1-0.1C25.3,93.6,25.1,93.8,24.9,94.1z"
		/>
	<path class="st3" d="M98.9,20.3C98.8,20.3,98.8,20.2,98.9,20.3"/>
	<path class="st3" d="M99,20.4C99,20.4,99,20.4,99,20.4"/>
	<path class="st4" d="M74.6,29.8C74.6,29.8,74.6,29.8,74.6,29.8c0.1,0.2,0.1,0.4,0.1,0.6v0.3c0.3,1.8,1.2,3.3,2.1,4.8
		c0.3,0,0.3,0.3,0.3,0.3c0,0.3,0,0.3,0,0.3c0.3,0,0.3,0,0.3,0.3c0.1,0.1,0.2,0.1,0.3,0.2c0,0,0,0,0,0c0,0,0,0,0,0
		c0.4,0.3,0.7,0.8,0.9,1c0.1,0.2,0.2,0.3,0.4,0.5c0,0,0,0,0,0c0.2,0.3,0.5,0.7,0.7,1c2.1,2.6,3.8,5.7,5.1,9.1c1.2,2.7,2.1,5.4,3,7.9
		c0.1,0.3,0.2,0.5,0.3,0.8c0.4,0.8,0.9,1.5,1.4,2.2c0.3,0.3,0.9,0.6,1.2,0.9c3.9,2.1,7.7,3.6,11.9,5.1c2.7,0.9,5.1,1.5,7.7,2.4
		c0-0.3,0-0.3,0-0.3c1.5-6.6,2.1-13.3,1.2-19.9c-0.9-6-2.7-12.1-5.6-17.5c-1.8-3.3-4.2-6.3-6.8-9.4c0,0,0,0-0.1-0.1c0,0,0,0,0,0
		c0,0,0,0,0,0c0,0,0,0,0,0c0,0,0,0-0.1-0.1c0,0-0.1-0.1-0.1-0.1v0c-0.1-0.1-0.1-0.1-0.2-0.2c-0.1-0.1-0.2-0.2-0.4-0.4
		c-0.1-0.1-0.2-0.2-0.3-0.4c0,0,0,0,0,0c0,0,0,0,0,0c-0.2-0.2-0.3-0.3-0.5-0.6c0,0-0.2,0-0.1,0c0,0,0.1,0,0.1,0
		c-0.1-0.1-0.2-0.2-0.3-0.3c-0.3,0-0.5-0.2-0.6-0.5c-0.2-0.1-0.3-0.2-0.3-0.4c0,0-0.2,0-0.1,0c0,0,0.1,0,0.1,0
		c-0.3,0-0.3-0.3-0.6-0.6c0-0.3,0-0.3,0-0.3c-3.3-3.3-7.4-6-11.9-8.2c-0.1,0.1-0.2,0.1-0.4,0.2c0.1,0.1,0.2,0.1,0.4,0.2
		c-1.8,1.2-3.9,1.5-6.2,2.1c-3.3,0.9-6.5,1.2-9.8,1.2c-0.8,0-1.6,0-2.4,0c4.9,5.1,7.8,11,9.2,17.5C74.5,29.6,74.5,29.7,74.6,29.8z
		 M96,17.5c0,0,0,0.1,0,0.2C96,17.6,96,17.5,96,17.5z"/>
	<polygon class="st4" points="97.8,19.2 97.8,19.2 97.8,19.2 	"/>
	<path class="st4" d="M98.7,20.1c0,0-0.1-0.1-0.2-0.2C98.6,20,98.6,20.1,98.7,20.1C98.7,20.1,98.7,20.1,98.7,20.1z"/>
	<polygon class="st4" points="97.8,19.2 97.8,19.2 97.8,19.2 	"/>
	<polygon class="st4" points="97.8,19.2 97.8,19.2 97.8,19.2 	"/>
	<path class="st5" d="M105.5,80c0.5-0.8,0.6-0.9-0.2-1.1c-1.6,3.3-3.4,6.3-5.5,9.1c0,0,0.1-0.1,0.1-0.1
		C102,85.4,104.1,82.7,105.5,80z"/>
	<path class="st5" d="M34.1,47.1c0.2,0.2,0.3,0.3,0.5,0.5c0-0.2,0-0.3,0-0.5c0.5,0.3,0.8,0.8,1.1,1.2c-0.2-0.5-0.5-1-0.8-1.5
		c-0.3-0.3-0.6-0.9-1.2-0.9c-0.4,0-0.8,0.1-1.1,0.2c0.1,0,0.1,0,0.2,0.1c0.2,0.1,0.3,0.2,0.4,0.2c0.1,0,0.3,0,0.4,0.1
		C34.2,46.4,34.2,46.7,34.1,47.1z"/>
	<path class="st5" d="M26,60.9c0.3,0,0.5,0,0.8-0.1c0.3-0.1,0.5-0.1,0.8-0.2C27.1,60.7,26.6,60.8,26,60.9z"/>
	<path class="st5" d="M72.9,40.7c2.1,5.1,3.6,10.3,4.5,15.7c0.6,1.8,0.6,3.3,1.2,5.1c0.6,1.8,1.8,3.6,3,5.1c0.2,0.2,0.3,0.4,0.5,0.6
		c2.1,2,4.5,3.7,6.9,4.9c4.8,2.7,10.1,4.5,15.2,5.7c1,0.3,1.2,0.3,0.8,0.9c0,0,0.1,0,0.1,0c0.1,0,0.3,0.1,0.4,0.1
		c0.4-0.8,0.8-1.7,1.1-2.5c-1.2,0-2.4-0.3-3.6-0.6c-6.2-1.5-11.9-3.6-16.9-7.3c-2.7-1.5-4.8-3.6-6.2-6.3c-1.2-1.8-1.5-3.3-1.8-5.1
		c-0.9-6-2.4-11.5-4.8-16.9c-0.5-1.5-1.4-2.8-2.4-4c0,0.2,0.1,0.5,0.3,1C72,38.3,72.3,39.5,72.9,40.7z"/>
	<path class="st5" d="M70.8,36.1c0-0.1,0-0.2,0-0.2c-0.1,0-0.1,0-0.1,0C70.7,35.9,70.8,36,70.8,36.1z"/>
	<path class="st5" d="M70.4,35.5c0.1,0.1,0.2,0.2,0.2,0.3c0,0,0.1,0,0.1,0c0,0,0,0,0,0c-0.1-0.1-0.2-0.2,0,0c0,0,0,0,0,0
		c0-0.6-0.3-0.6-0.6-0.9C70.2,35.3,70.5,35.3,70.4,35.5C70.5,35.6,70.5,35.6,70.4,35.5z"/>
	<polygon class="st5" points="64.9,26.5 64.9,26.5 64.9,26.5 	"/>
	<path class="st5" d="M89.7,100.1c-0.1-0.3-0.1-0.5-0.2-0.8c0-0.3-0.3-0.3,0-0.6c0.9-0.9,1.5-1.8,2.4-2.7c3-2.4,5.6-5.1,7.9-8
		c-2.4,2.7-5.3,5-8.2,7.1c-1.2,0.6-1.8,1.8-2.7,2.7l-0.3,0.3c-0.3,0.3-0.6,0.9-0.3,1.5c0.1,0.4,0.2,0.7,0.3,1.1
		c0.1,0.3,0.2,0.7,0.3,1c0.9,3.3,1.7,6.7,2.7,10c0,0.6,0,0.9-0.6,1.2c0,0.3-0.3,0.3-0.3,0.3c-0.9,0.3-0.9,0.3-1.2-0.6
		c0-0.1-0.1-0.1-0.1-0.2c-0.5,0.1-0.5,0-0.8-0.7c-0.1,0-0.2,0-0.3,0c-1.5,0-3.3,0.6-3.9,1.8v0.3c0,0.3,0,0.9-0.3,0.9
		c-0.6,0.3-1.2,0.3-1.8,0.3c-0.3,0-0.3-0.3-0.3-0.3c-0.1-0.3-0.2-0.5-0.4-0.7c-0.1,0-0.1,0-0.2,0.1c0,0-0.3,0-0.3-0.3
		c0-0.1,0-0.1-0.1-0.2c-0.2-0.1-0.5-0.1-0.8-0.1c-1.5,0-2.7,0.3-3.3,1.5c-0.3,0.3-0.3,0.3-0.6,0.3c-0.3,0-0.9,0-1.2,0
		c-0.6,0.3-1.2,0.3-1.2-0.6c0-0.1,0-0.2-0.1-0.3c-0.4,0-0.7-0.1-0.8-0.4c-1.1-0.5-1.9-0.5-3-0.2c-0.6,0-0.9,0.3-1.2,0.9
		c0,0.3-0.3,0.3-0.6,0.3h-0.3c-1.2,0-1.8-0.2-2.4-1.1c-0.5-0.2-0.9-0.7-1.2-1.6c-0.3-0.6-0.6-1.2-0.6-2.1c0.2,0,0.4,0,0.5-0.1
		c-0.5-2.9-0.5-5.8-0.2-9c0.3-3,0.9-5.7,1.8-8.5c1.2-3.6,3.6-6.3,6.5-8.5c0.4-0.4,0.9-0.7,1.3-0.9c0.1-0.2,0.3-0.4,0.4-0.6
		c2.1-1.2,4.2-2.1,6.5-3c0.3,0,0.6-0.3,0.9-0.3c0.3-0.3,0.6-0.9,0.3-1.2c0-0.1-0.1-0.2-0.2-0.2c-1.4,0.6-2.9,1.2-4.3,1.7
		c-1.8,0.6-3.6,1.5-5.1,2.7c-0.3,0-0.3,0.3-0.6,0c-0.2-0.1-0.3-0.2-0.5-0.4c0,0-0.1,0-0.1,0.1c-0.3,0.3-0.3,0.3-0.6,0
		c-1.8-1.2-3.6-2.7-5.1-4.5c-0.3-0.3-0.3-0.3,0-0.6c1.6-1.2,2.7-2.9,3.4-4.8c0,0.1-0.1,0.1-0.1,0.2c-0.9,1.8-1.8,3.3-3.6,4.2
		c-1.2,0.6-2.7,0.9-4.2,1.2c-3,0.3-5.6,0.3-8.6,0.3c-2.4,0-5.1-0.3-7.4-0.9c-0.5-0.1-0.9-0.2-1.3-0.3c-3.8-0.6-7.6-1.8-11.1-3.9
		c-3.6-1.8-6.8-4.5-9.8-7.6c-1.2-1.2-2.4-2.7-3-4.2c0,0,0,0,0-0.3c0.6,0,1.5,0,2.1,0h0.3c2.1,0,4.2-0.3,5.9-1.2
		c3-1.5,4.8-3.9,5.1-7.3c0.5-1.2,0.7-2.4,0.7-3.6c-0.1-0.3-0.2-0.6-0.4-0.9c0,0,0-0.1,0-0.2c-0.5,0.8-1,1.5-1.8,2
		c-1.5,1.2-3,2.1-4.8,2.4c-1.2,0.3-2.7-0.3-3.9-0.6c-1.2-0.3-2.1-0.9-3.3-1.2c-3.6-0.9-6.2,0.9-7.1,4.5c-0.3,0.6-0.3,1.2-0.9,1.5
		c-0.6,0.6-0.9,0.6-1.5,0c-0.2-0.2-0.4-0.4-0.6-0.6c-1-0.9-1.8-2.3-2.4-4.3c0,0,0,0,0,0c-0.3-0.9-0.6-1.8-0.6-2.7
		c-0.3-3,0-6.3,0.6-9.4c0.3-1.8,0.6-3.6,1.2-5.4c0-2.4,1.5-3.9,3.3-5.1c1.2-0.9,2.5-1.6,3.8-2.3c0.5-0.3,1.1-0.5,1.6-0.8
		c0.4-0.2,0.9-0.4,1.3-0.6c5.6-2.1,11.3-3.3,16.9-4.5c0.4-0.1,0.8-0.1,1.2-0.2c3.2-0.7,6.3-1.2,9.5-1.5c0.2,0,0.3-0.1,0.5-0.1
		c2.1-0.3,4.5-0.6,6.5-0.6c0,0,0.1,0,0.1,0c0.1,0,0.1,0,0.2,0c1.2,0,2.1,0,3.3,0.3c1.5,0.3,2.4,0.9,3.6,2.1c1.5,1.5,2.7,3,3.9,4.8
		c-0.2,0,0,0.1,0.1,0.4c0.1,0.1,0.2,0.3,0.2,0.5c0,0,0,0,0,0c0.3,0,0.3,0,0.3,0c1.2,1.8,2.1,3.9,3,6c1.2,3.3,1.8,6.6,2.1,10.3
		c0.3,1.8,0.3,3.6,0.3,5.4c0,0.2,0,0.5,0.1,0.6c0.1-0.1,0.1-0.3,0.1-0.6c0.3-4.2,0-8.2-0.9-12.1c0-0.3,0-0.3,0-0.6
		c0,0,0.3,0,0.3,0.3c0-0.1,0-0.2,0-0.3v-0.3c0,0,0-0.3-0.3-0.3c-0.9-0.6-1.2-1.5-1.5-2.4c-0.9-3.3-2.4-6.3-4.5-9.4
		c-1.2-2.1-3-3.6-4.8-5.1c-0.6-0.6-1.8-0.6-2.7-0.9c-1.2-0.3-2.4-0.3-3.6-0.3c-0.3,0-0.3-0.3-0.3-0.6c0.3-0.9,0.3-1.5,0.6-2.1
		c0-0.3,0-0.3,0-0.3c0-0.1,0.1-0.2,0.1-0.3c0,0-0.1,0-0.1,0c0.6-2.4,3.6-3.9,5.9-3c1.8,0.6,3.6,1.8,5.1,3c3.6,3.3,5.9,7.3,8,11.5
		c0.6,1.5,1.2,3,1.8,4.5c0,0.1,0,0.2,0.1,0.3c0.2,0,0.2,0,0.2,0h0c-1.8-7-4.8-12.7-9.5-17.8c0.1,0,0.2,0,0.3,0c0.8,0,1.6,0,2.4,0
		c3.3,0,6.5-0.3,9.8-1.2c2.4-0.6,4.5-0.9,6.2-2.1c-0.1,0-0.3-0.1-0.4-0.2c-0.7-0.3-1.3-0.8-2.6-1.4c-0.2,0.1-0.4,0.2-0.7,0.2
		c0.3,0.1,0.6,0.2,1,0.4c-0.3-0.3,0-0.3,0.3,0c-1.5,0.6-3.3,1.2-5.1,1.5c-4.5,0.9-8.9,1.2-13.4,1.2c-0.3,0-0.3,0-0.6-0.3
		c-1.5-0.9-2.7-1.5-4.5-1.5c-1.8,0-3.3,0.9-4.5,2.4c-1.5,1.5-2.1,3.3-2.1,5.4c0,0.3,0,0.6-0.6,0.6c-2.7,0.3-5.6,0.6-8.3,1.2
		c-6.2,0.9-12.2,2.4-18.1,4.2h-0.3c0.2-0.3,0.4-0.6,0.7-0.9c-0.3,0.1-0.6,0.2-1,0.3c0,0,0,0-0.3,0C23,22,23,22,23,22
		c-1.2,0.3-2.5,0.7-3.7,1.2c-0.2,0.1-0.5,0.2-0.7,0.3c-0.3,0.1-0.6,0.3-1,0.4c-2.6,1.1-5.2,2.3-7.4,4.1c-1.8,1.2-3.3,3-3.6,5.1
		c-0.6,3-1.2,6-1.5,9.1c-0.3,3-0.3,5.7,0.3,8.8c0.3,2.1,1.2,4.2,2.8,5.9c0.2,0.2,0.5,0.5,0.7,0.7c0.1,0.1,0.2,0.2,0.3,0.3
		c0.5,0.4,1,0.6,1.8,0.3h0.3c1.2-0.6,1.8-1.5,2.1-2.7c0-0.9,0.6-2.1,1.2-2.7c0.9-0.9,1.9-1.3,3-1.2c0.6,0,1.2,0,1.8,0.3
		c1.2,0.3,2.7,0.9,3.9,1.2c0.6,0,0.6,0.3,0.6,0.9c-0.3,1.8-0.9,3.3-2.7,4.5c-0.6,0.3-1.2,0.6-1.8,0.9c-0.9,0.3-1.5,0.9-1.5,1.8
		c0,0.9,0.3,1.5,0.6,2.1c3,4.5,6.8,8.2,11.3,10.9c4.5,2.7,9.5,4.2,14.6,5.1c0.3,0,0.6,0,1.2,0.3c-1.2,0.9-2.7,1.5-3.9,2.1
		c-1.8,0.9-3.9,1.5-5.6,1.8c-0.2,0-0.4,0-0.5,0c0,0-0.1,0-0.1,0c-0.3,0-0.9,0-1.2-0.3c-1.2-0.9-2.7-1.8-4.5-2.4
		c-0.1,0-0.2-0.1-0.3-0.1c-1.1,0-1.9,0.4-2.6,1.3c-0.9,1.2-1.5,2.7-1.8,4.2c0,0.9-0.6,1.2-1.2,1.8c-0.1-0.1-0.1-0.2-0.2-0.3
		c-0.1,0.1-0.3,0.2-0.4,0.3c-0.3,0-0.3,0.3-0.6,0.3c-0.3,0.3-0.6,0.5-0.9,0.8c-0.3,0.2-0.5,0.4-0.7,0.7c-0.8,0.7-1.5,1.4-2.2,2.2
		c-0.9,1.2-1.8,2.1-1.8,3.6c0,1.2,0,2.1,0.3,3.3c0.9,3.3,2.7,6.3,5.1,8.8c1.2,1.5,2.7,3,4.8,3.6c5.3,1.8,10.4,0.9,14.9-2.4
		c1-0.8,1.9-1.6,2.4-2.8c0.1-0.2,0.2-0.3,0.2-0.5c0-0.3,0-0.3,0.3-0.3c0,0,0.1,0,0.1,0c2.1,0,4.4-0.3,6.5-0.6c2.7-0.3,5.3-0.9,8-1.5
		c0.3,0,0.6-0.3,1.2-0.3c0,0.1,0,0.2,0,0.3c0,0,0,0,0,0c0.3,0,0.9-0.3,1.2-0.3c0,0.9,0,1.8,0,2.7c-0.4,0-0.8-0.1-1.2-0.1
		c0,0,0,0.1,0,0.1c0,0.8,0,1.6,0.1,2.5c0,0.3,0.1,0.7,0.1,1c0.1,0.8,0.2,1.5,0.4,2.2c0.6,1.8,1.2,3.3,2.4,4.5
		c0.3,0.6,0.9,0.9,1.5,0.9c0.6,0,1.5,0,2.1,0c0.3,0,0.6,0,0.6,0.3c0.3,0.9,0.6,1.5,1.2,2.1c0.9,0.9,2.4,0.9,3-0.3
		c0.3-0.3,0.6-0.9,0.6-1.5c0-0.3,0.3-0.3,0.6-0.3c0.6,0,1.5,0,2.1,0c0.3,0,0.6,0,0.6,0.3c0.3,0.6,0.6,1.2,1.2,1.8
		c1.2,1.2,3,0.9,3.6-0.9c0-0.3,0-1.2,0.3-1.5c0.6-0.3,1.2-0.3,1.8-0.3H83c0.3,0,0.3,0,0.6,0.3c0.6,0.6,1.2,1.2,1.8,1.5
		c1.2,0.6,2.4,0.3,3-0.9c0.3-0.6,0.3-0.9,0.3-1.5c0-0.3,0.3-0.6,0.6-0.6c1.2-0.6,2.1-0.9,3-1.8c0.6-0.6,0.9-0.9,0.6-1.8
		c-1-3.6-2-7-2.9-10.6C89.8,100.8,89.8,100.4,89.7,100.1z M23.6,22.1c0,0,0-0.1,0-0.1C23.6,22,23.6,22.1,23.6,22.1
		C23.6,22.1,23.6,22.2,23.6,22.1C23.6,22.2,23.6,22.1,23.6,22.1z M26.7,55.3c0.5-0.3,1-0.5,1.6-0.7c0.1,0,0.2,0,0.3,0
		c0.2,0,0.6,0,0.9,0c0.1,0,0.2,0,0.3,0c0,0,0,0,0,0c0.3,0,0.5,0,0.4,0.2c0.2,0.1,0.1,0.3-0.1,0.7c-0.9,1.8-2.4,2.7-4.2,3.3
		c-0.9,0.3-1.8,0.3-2.7,0.3C24.2,57.5,25,56.1,26.7,55.3z M61.9,99.9c0,0.6-0.3,0.6-0.6,0.6c-2.1,0.6-3.9,0.9-5.9,1.2
		c-3,0.6-5.9,0.9-8.9,0.9c-0.3,0-0.5-0.1-0.6-0.2c-0.1-0.1-0.2-0.2-0.3-0.3c0,0,0,0,0-0.1c-0.3-2.1-1.2-3.9-2.4-5.7
		c-1.2-1.5-2.4-2.7-3.6-3.9c0,0-0.1-0.1-0.2-0.1c0.3,1.2,1.2,2.3,1.7,3.5c0.9,1.8,1.8,3.6,2.4,5.4c0.3,1.3,0.4,2.4,0,3.3
		c-0.3,0.9-0.9,1.7-1.8,2.5c-2.1,1.5-4.8,2.7-7.4,2.7c-3,0.3-5.3-0.3-7.7-2.1c-1.5-1.2-2.7-2.4-3.6-3.9v-0.3c0,0,0,0,0,0
		c-0.1-0.1-0.2-0.3-0.3-0.4c0,0.1,0,0.3,0,0.4v0.3c-1.5-1.8-2.4-3.9-3-6c-0.3-1.8,0-3.3,1.2-4.5c1.2-1.4,2.5-2.7,3.9-3.9
		c0.4-0.4,0.8-0.7,1.2-1.1c0.2-0.3,0.2-0.5,0.2-0.8c0.3-1.8,0.6-3.3,1.8-4.5c0.2-0.4,0.5-0.6,0.7-0.7c0.5-0.3,1-0.4,1.6-0.2
		c1.5,0.6,3,1.5,4.2,2.4c0.6,0.6,1.2,0.6,2.1,0.6c2.1-0.3,3.9-0.9,5.9-1.8c0.2-0.2,0.3-0.3,0.4-0.3c0.1-0.1,0.1-0.2,0.2-0.3
		c0.9-0.5,1.8-0.9,2.6-1.4c0.9-0.6,1.7-1.2,2.4-1.9c0.6-0.3,1.5,0,2.1,0c1.2,0,2.7,0,3.9,0c0.9,0,1.8,0,2.7,0
		c2.4-0.3,4.8-0.3,6.8-1.2c0.3,0,0.6,0,0.6,0.3c0.6,0.9,1.5,1.8,2.4,2.7c0.6,0.9,1.5,1.5,2.4,2.1c0.3,0.3,0.5,0.5,0.4,0.6
		c0,0.1-0.1,0.3-0.4,0.6c-2.1,1.8-3.9,3.9-4.8,6.6c-0.9,2.1-1.5,4.5-2.1,7C62.2,98.4,61.9,99.3,61.9,99.9z M72.3,117.8
		c-0.3,0.9-0.6,0.9-1.2,0.3c-0.6-0.6-0.9-1.2-1.2-2.1c-0.3-1.2,0-1.8,1.2-1.8h0.3c1.2,0,1.2,0.3,1.2,1.5
		C72.6,116.3,72.6,117.2,72.3,117.8z M80.6,116c0,0.6,0,1.2,0,1.8c-0.3,0.6-0.6,0.9-1.2,0.3c-0.6-0.6-0.9-1.2-1.2-1.8
		c-0.6-1.2,0-2.1,1.5-2.1c0.6-0.3,0.9,0,0.9,0.6S80.6,115.6,80.6,116z M88,117.2c-0.6,0.3-0.9,0-1.2-0.3c-0.9-0.6-1.2-1.2-1.5-2.1
		c0-0.6,0-1.2,0.6-1.5c1.2-0.9,1.8-0.6,2.1,0.9c0.3,0.3,0.3,0.9,0.3,1.5C88.3,116.3,88.3,116.9,88,117.2z"/>
	<path class="st6" d="M14.1,55.5c-0.3,1.2-0.9,2.1-2.1,2.7c0.3,1.2,0.3,2.1,0.3,3.6c0.9,6,2.7,12.1,5.6,17.5
		c1.7,3.2,3.7,5.9,5.7,8.5c0.1,0.1,0.1,0.2,0.2,0.3c0.6-0.6,1.2-0.9,1.2-1.8c0.3-1.5,0.9-3,1.8-4.2c0.7-0.9,1.6-1.3,2.6-1.3
		c0.3,0,0.6,0,0.9,0.1c1.5,0.3,3,1.5,4.5,2.4c0.2,0.2,0.4,0.3,0.7,0.3c0.1,0,0.3,0,0.5,0c1.8-0.3,3.9-0.9,5.6-1.8
		c1.2-0.6,2.7-1.2,3.9-2.1c-0.6-0.3-0.9-0.3-1.2-0.3c-5.1-0.9-10.1-2.4-14.6-5.1c-4.5-2.7-8.3-6.3-11.3-10.9
		c-0.3-0.6-0.6-1.2-0.6-2.1c0-0.9,0.6-1.5,1.5-1.8c0.6-0.3,1.2-0.6,1.8-0.9c1.8-1.2,2.4-2.7,2.7-4.5c0-0.6,0-0.9-0.6-0.9
		c-1.2-0.3-2.7-0.9-3.9-1.2c-0.6-0.2-1.2-0.3-1.8-0.3c-0.9,0.1-1.7,0.5-2.4,1.2C14.6,53.7,14.4,54.6,14.1,55.5z"/>
	<path class="st4" d="M109.7,70c-0.1,0.6-0.3,1.3-0.3,1.8c0,0.3-0.3,0.3-0.6,0.3c-0.2-0.1-0.4-0.1-0.6-0.2c-0.1,0-0.2,0-0.3-0.1
		c-0.1,0-0.2-0.1-0.3-0.1c-1.4-0.5-2.8-1-4.1-1.5c-1-0.4-2-0.7-3-1.1c-2.4-0.9-5.1-2.1-7.4-3.3c-2.1-1.2-4.2-2.4-5.9-3.9
		c-0.9-0.9-1.5-1.8-2.1-3c-0.9-2.1-1.5-4.2-2.1-6.3c-1.5-4.5-3.6-9.1-6.2-13c-0.6-1.2-1.5-2.1-2.1-3.3c-0.9-1.2-1.2-2.7-1.8-3.9
		c-1.8-4.8-4.2-9.4-6.8-13.6c-1.5-2.1-3-3.9-5.1-5.4c-0.6-0.4-1.1-0.8-1.7-1.1C58.9,12,58.5,12,58,12c-1.2,0-2.1,0.3-3,1.2
		c-0.3,0.3-0.6,0.6-0.9,0.6c0,0.3,0,0.3,0,0.3c-0.3,0.6-0.6,1.5-0.6,2.1c-0.3,0.6,0,0.6,0.3,0.6c1.2,0,2.4,0,3.6,0.3
		c0.9,0,1.8,0.3,2.7,0.9c1.8,1.5,3.3,3.3,4.8,5.1c2.1,2.7,3.6,6,4.5,9.4c0.3,0.9,0.6,1.8,1.5,2.4c0,0,0.3,0,0.3,0.3
		c1.2,1.5,2.1,3,3,4.8c2.4,5.4,3.9,11.2,4.8,16.9c0.6,1.8,0.9,3.6,1.8,5.1c1.8,2.7,3.9,4.5,6.2,6.3c5.3,3.6,11,5.7,16.9,7.3
		c1.2,0.3,2.4,0.6,3.6,0.6c0.6-0.9,0.9-1.8,1.8-3c0.3-1.2,0.9-2.4,1.2-3.6c-0.3,0-0.3,0-0.5,0C109.8,69.8,109.7,69.9,109.7,70
		C109.7,70,109.7,70,109.7,70z"/>
	<path class="st6" d="M53.3,5c-11,2.1-20.2,7.3-27.6,15.4c-0.4,0.4-0.8,0.8-1.1,1.2c-0.2,0.3-0.4,0.5-0.7,0.9h0.3
		c5.9-1.8,11.9-3.3,18.1-4.2c2.7-0.6,5.6-0.9,8.3-1.2c0.6,0,0.6-0.3,0.6-0.6c0-2.1,0.6-3.9,2.1-5.4c1.2-1.5,2.7-2.4,4.5-2.4
		c1.8,0,3,0.6,4.5,1.5c0.3,0.3,0.3,0.3,0.6,0.3c4.5,0,8.9-0.3,13.4-1.2c1.8-0.3,3.6-0.9,5.1-1.5c-0.3-0.3-0.6-0.3-0.3,0
		c-0.3-0.1-0.6-0.2-1-0.4C71.3,4.1,62.4,3.3,53.3,5z"/>
	<path class="st5" d="M84.8,48.3c-1.4-3.4-3-6.5-5.1-9.1c-0.2-0.2-0.3-0.4-0.5-0.6c-0.1-0.1-0.1-0.3-0.2-0.4c0,0,0,0,0,0
		c-0.2-0.3-0.4-0.5-0.7-0.6c0.7,1,1.4,1.9,1.8,2.9c0.6,1,1.1,2,1.6,3c1.4,2.9,2.6,6,3.5,9.1c0.3,1.5,0.9,3.3,1.5,4.8
		c0,0.1,0.1,0.2,0.1,0.2c0,0.1,0.1,0.1,0.1,0.2c0.1,0.2,0.2,0.5,0.4,0.7c0,0.1,0.1,0.1,0.1,0.2c0.3,0.5,0.7,1,1.1,1.5
		c0.6,0.6,1.5,1.2,2.1,1.5c5.6,3,11.6,5.7,17.8,7.6c0.3,0,0.3,0.3,0.6,0.3c0,0.2,0,0.3,0,0.4c0.1,0.1,0.2,0.2,0.3,0.2
		c0.3-0.3,0.3,0,0.6,0c0,0,0,0,0,0c0-0.1,0-0.1,0-0.1c0-0.1,0-0.1,0-0.1s0,0,0,0.1c0,0,0,0.1,0,0.1c0-0.1,0.1-0.2,0.1-0.3
		c0.2-0.7,0.3-1.2,1.1-1.2c-2.7-0.9-5.3-1.5-7.7-2.4c-4.2-1.5-8-3-11.9-5.1c-0.3-0.3-0.9-0.6-1.2-0.9c-1-1-1.5-2-2-3.1
		c-0.1-0.3-0.2-0.5-0.3-0.8C86.8,53.7,85.9,51,84.8,48.3z"/>
	<path class="st6" d="M60.7,105.6c0.4,0,0.8,0.1,1.2,0.1c0-0.9,0-1.8,0-2.7c-0.3,0-0.9,0.3-1.2,0.3c0,0,0,0,0,0
		c-2.7,0.6-5.3,1.2-8,1.5C55.3,105,57.9,105.3,60.7,105.6z"/>
	<path class="st6" d="M96.9,18.3C96.9,18.3,96.9,18.3,96.9,18.3c-0.3-0.3-0.3-0.6-0.6-0.6c0,0,0,0.1,0,0.1
		C96.4,18.1,96.7,18.3,96.9,18.3z"/>
	<path class="st6" d="M98.2,19.6c0.1,0.1,0.1,0.1,0.2,0.2c0-0.3-0.3-0.6-0.6-0.6l0,0C98,19.4,98.1,19.5,98.2,19.6z"/>
	<path class="st7" d="M97.1,18.6c0,0,0.1,0,0.1,0"/>
	<path class="st7" d="M97.2,18.6L97.2,18.6c0-0.1,0-0.1,0-0.1"/>
	<path class="st7" d="M96.3,17.7c0-0.1,0-0.1,0-0.1"/>
	<path class="st7" d="M96,17.5c0,0,0,0.1,0,0.2"/>
	<path class="st3" d="M109.7,69.8C109.7,69.8,109.7,69.8,109.7,69.8c0,0.1,0,0.2,0,0.2"/>
	<line class="st7" x1="96" y1="17.4" x2="96" y2="17.4"/>
	<path class="st7" d="M95.9,17.4c0,0,0.1,0,0.1,0"/>
	<path class="st7" d="M23.6,22c0,0.1,0,0.1,0,0.1c0,0.1,0,0.1,0,0.1"/>
	<path class="st7" d="M99,20.4c0-0.2,0-0.2,0-0.2"/>
	<path class="st6" d="M98.9,20.3C98.9,20.3,98.9,20.3,98.9,20.3C98.9,20.4,98.9,20.4,98.9,20.3C99,20.4,99,20.4,98.9,20.3
		C99,20.4,99,20.4,98.9,20.3C98.9,20.4,98.9,20.3,98.9,20.3C98.9,20.3,98.9,20.3,98.9,20.3C98.9,20.3,98.9,20.3,98.9,20.3z"/>
	<path class="st6" d="M99,20.4C99,20.4,99,20.4,99,20.4C99,20.4,99,20.4,99,20.4z"/>
	<path class="st7" d="M98.5,20C98.5,19.9,98.5,19.9,98.5,20"/>
	<path class="st7" d="M98.5,20c0,0,0.1,0.1,0.2,0.2"/>
	<path class="st6" d="M98.7,20.1C98.7,19.8,98.4,19.8,98.7,20.1C98.7,20.1,98.7,20.1,98.7,20.1L98.7,20.1z"/>
	<path class="st7" d="M97.8,19c0,0,0,0.1,0,0.2"/>
	<line class="st7" x1="97.8" y1="19.2" x2="97.8" y2="19.2"/>
	<path class="st6" d="M97.7,19.1C97.7,19.1,97.7,19.1,97.7,19.1L97.7,19.1z"/>
	<path class="st6" d="M97.8,19.2C97.7,19.1,97.7,19.1,97.8,19.2C97.7,19.1,97.7,19.1,97.8,19.2z"/>
	<path class="st6" d="M97.8,19.2C97.8,19.2,97.8,19.2,97.8,19.2C97.8,19.2,97.8,19.2,97.8,19.2C97.8,19.2,97.8,19.2,97.8,19.2
		C97.8,19.2,97.8,19.2,97.8,19.2z"/>
	<path class="st6" d="M97.8,19.2C97.8,19.2,97.8,19.2,97.8,19.2C97.8,19.2,97.8,19.2,97.8,19.2C97.8,19.2,97.8,19.2,97.8,19.2
		C97.8,19.2,97.8,19.2,97.8,19.2z"/>
	<path class="st7" d="M97.3,18.6C97.3,18.6,97.3,18.6,97.3,18.6c0.1,0,0.2,0,0.2,0"/>
	<path class="st8" d="M54.2,12.9c0.9-0.6,1.8-1.2,3-1.2c0.8,0,1.5,0.2,2.1,0.5c0.6,0.3,1.2,0.6,1.7,1.1c2.1,1.5,3.6,3.3,5.1,5.4
		c2.7,4.2,5.1,8.8,6.8,13.6c0.6,1.2,0.9,2.7,1.8,3.9c0.6,1.2,1.5,2.1,2.1,3.3c2.7,3.9,4.8,8.5,6.2,13c0.6,2.1,1.2,4.2,2.1,6.3
		c0.6,1.2,1.2,2.1,2.1,3c1.8,1.5,3.9,2.7,5.9,3.9c2.4,1.2,5.1,2.4,7.4,3.3c1,0.4,2,0.7,3,1.1c1.4,0.5,2.8,1,4.1,1.5
		c0.1,0,0.2,0.1,0.3,0.1c0.1,0.1,0.2,0.1,0.3,0.1c0.2-0.1,0.3-0.2,0.3-0.4c0-0.5,0.2-1,0.3-1.7c0-0.1,0-0.3,0-0.4
		c-0.3,0-0.3-0.3-0.6-0.3c-6.2-1.8-12.2-4.5-17.8-7.6c-0.6-0.3-1.5-0.9-2.1-1.5c-0.4-0.4-0.8-0.9-1.1-1.5c0-0.1-0.1-0.1-0.1-0.2
		c-0.1-0.2-0.2-0.4-0.4-0.7c0-0.1-0.1-0.1-0.1-0.2c0-0.1-0.1-0.2-0.1-0.2c-0.1-0.2-0.2-0.4-0.3-0.6c-0.6-1.5-0.9-3.3-1.5-4.8
		c-0.9-2.9-1.9-5.7-3.2-8.5c-0.5-1-1-2-1.6-3c-0.5-1-1.1-1.9-1.8-2.9c-0.2-0.3-0.4-0.5-0.6-0.8c-0.1,0-0.1,0-0.1,0c0,0,0.1,0,0.1,0
		c-0.1-0.2-0.2-0.2-0.3-0.3c-0.1,0-0.2,0-0.2,0s0.1,0,0.2,0c-0.1-0.1-0.3-0.2-0.6-0.3v-0.3c-0.3,0-0.3-0.3-0.3-0.3
		c-0.6-1.5-1.5-3-2.1-4.8v-0.3c0-0.2-0.1-0.4-0.2-0.6c0-0.1-0.1-0.2-0.1-0.3c-0.6-1.5-1.2-3-1.8-4.5c-2.1-4.2-4.5-8.2-8-11.5
		c-1.5-1.2-3.3-2.4-5.1-3c-2.4-0.9-5.3,0.6-5.9,3c0.1,0,0.1,0,0.1,0C53.8,13.4,53.9,13.2,54.2,12.9z"/>
	<path class="st9" d="M74.7,30.4c0-0.2,0-0.4,0-0.6c0,0-0.1,0-0.1,0c-0.2,0-0.2,0-0.2,0h0c0,0.3,0,0.6,0.3,0.9V30.4z"/>
	<line class="st10" x1="74.7" y1="30.7" x2="74.7" y2="31"/>
	<path class="st11" d="M77.6,36.8C77.6,36.7,77.6,36.7,77.6,36.8"/>
	<path class="st11" d="M77.6,36.7C77.6,36.6,77.6,36.6,77.6,36.7"/>
	<path class="st11" d="M77.6,36.8c-0.1,0-0.1,0-0.1,0"/>
	<path class="st11" d="M77.3,36.5C77.3,36.5,77.3,36.5,77.3,36.5"/>
	<path class="st11" d="M77.3,36.5c-0.1,0-0.2,0-0.2,0"/>
	<path class="st9" d="M90.1,112c0.6-0.3,0.9-0.6,0.6-1.2c-0.9-2.8-1.6-5.8-2.3-8.8c-0.1-0.3-0.2-0.7-0.3-1c-0.2-0.8-0.4-1.6-0.7-2.3
		c-0.3-0.6-0.3-1.2,0.3-1.5l0.3-0.3c0.9-0.9,1.5-2.1,2.7-2.7c3-2.1,5.9-4.5,8.3-7.3c2.1-2.4,3.9-5.1,5.6-7.9
		c0.1-0.1,0.2-0.2,0.2-0.3c0.4-0.6,0.2-0.6-0.8-0.9c-5.1-1.2-10.4-3-15.2-5.7c-2.4-1.2-4.8-2.9-6.9-4.9c-0.5-0.5-1-1-1.4-1.5
		c-1.2-1.5-2.4-3.3-3-5.1c-0.6-1.5-0.9-3.3-1.2-5.1c-0.9-5.4-2.4-10.6-4.5-15.7c-0.6-1.2-0.9-2.4-1.8-3.6v-0.3c0,0,0,0,0,0
		c0-0.3-0.3-0.3-0.3-0.3c0,0.3,0,0.3,0,0.6c0.9,3.9,1.2,7.9,0.9,12.1c0,0.2,0,0.5-0.1,0.6c0,0-0.1,0-0.1,0c-0.3,0-0.3-0.3-0.3-0.6
		c0-1.8,0-3.6-0.3-5.4c-0.3-3.6-0.9-7-2.1-10.3c-0.9-2.1-1.8-4.2-3-6c0,0.1,0,0.1,0,0.1c0,0,0,0,0-0.1c-0.3,0.3-0.3,0-0.3,0
		c-0.6-0.3-0.9-0.6-1.5-0.9c-2-1.2-4.4-1.8-6.7-1.8c-1.8,0-3.8,0.3-5.5,0.3c-1.2,0-2.4,0.3-3.6,0.3c-1.5,0-3,0.3-4.5,0.3
		c-1.2,0-2.4,0.3-3.6,0.3c-1.5,0.3-3.3,0.3-4.8,0.6c-1.8,0.3-3.9,0.6-5.6,0.9c-0.3,0.1-0.7,0.1-1,0.2c-3.1,0.7-6.3,1.5-9.4,2.4
		c-0.4,0.1-0.8,0.3-1.1,0.4c-2.7,0.9-5.3,2.1-7.7,3.9C9.3,33.7,9.3,34,9,34c0,0,0-0.1,0-0.1C8.9,34,8.8,34,8.7,34
		c-0.6,1.8-0.9,3.6-1.2,5.4c-0.6,3-0.9,6.3-0.6,9.4c0.3,0.9,0.3,1.8,0.6,2.7c0.1,0,0.2,0,0.2,0.1c0.2,0.1,0.4,0.1,0.5,0.2
		c0.4,0.1,0.7,0.1,1-0.1c0.5-0.2,0.9-0.5,1.2-1.1c0.6-0.9,1.1-1.7,2-2.1c0-0.1-0.1-0.2-0.1-0.2c-0.6-0.7-0.3-2.3,0.5-2.8
		c0,0,0.3,0,0.3-0.3c0.5,0.5,0.9,0.9,1.2,1.3c0.4,0.4,0.6,0.8,0.6,1.4c0.8-0.1,1.5-0.2,2.2-0.2c2.3-0.1,4.5,0.5,6.6,1.4
		c0.9,0.3,1.8,0.6,2.9,0.6c1.4,0,2.9,0,4.2-0.3c0.9-0.6,1.5-1.5,2.1-2.4c0.4-0.4,0.4-0.5,0.1-0.7c-0.1-0.1-0.3-0.1-0.4-0.2
		c-0.1,0-0.1,0-0.2-0.1c-0.5-0.1-1.1,0.4-1.6,0.4c0.6-0.9,1.8-1.2,2.7-0.6c0,0,0,0,0,0c0.6,0,0.9,0.6,1.2,0.9c0.3,0.5,0.5,1,0.8,1.5
		c0.5,1,0.8,2.1,1,3.3c-0.3-0.6-0.6-1.5-1.2-2.4c-0.2-0.6-0.5-1.1-0.9-1.6c-0.1-0.2-0.3-0.3-0.5-0.5c-0.1-0.1-0.3-0.2-0.4-0.3
		c0,0.3,0,0.7,0,1c0,0.1,0,0.1,0,0.2c0.2,0.3,0.3,0.6,0.4,0.9c0-0.3,0-0.6-0.1-0.9c0.6,1.2,0.6,2.1,0.9,3.3c0.3,1.5,0.3,3-0.3,4.2
		c-0.6,2.4-2.4,3.6-4.5,4.5c-0.4,0.2-0.8,0.3-1.2,0.4c-0.6,0.2-1.3,0.4-2,0.4c-0.3,0-0.5,0-0.8,0.1c0,0-0.1,0-0.1,0
		c-0.1,0-0.2,0-0.3,0c-1.1,0-1.9,0-3,0c-0.1,0-0.2,0-0.3,0h-0.3c-0.6,0-1.5,0-2.1,0c0,0.3,0,0.3,0,0.3c0.6,1.5,1.8,3,3,4.2
		c3,3,6.2,5.7,9.8,7.6c3.5,2.1,7.3,3.3,11.1,3.9c0.1,0,0.1,0,0.2,0c2.4,0.6,4.8,0.9,7.4,0.9c3,0,5.6,0,8.6-0.3
		c1.5,0,2.7-0.6,4.2-1.2c1.8-0.9,2.7-2.7,3.6-4.2c1.2-2.1,1.8-4.5,1.8-7.3c0.3,0.3,0.3,0.3,0.3,0.6c0.3,1.5,0.3,3.3-0.3,5.1
		c-0.1,0.5-0.3,1.1-0.5,1.6c-0.7,1.8-1.8,3.6-3.4,4.8c-0.3,0.3-0.3,0.3,0,0.6c1.5,1.8,3.3,3.3,5.1,4.5c0.3,0.3,0.3,0.3,0.6,0
		c0,0,0.1,0,0.1-0.1c1.7-0.9,3.2-1.8,4.9-2.7c1.5-0.6,3-1.5,4.5-1.8c0.3,0,0.7,0,1,0.4c0.1,0.1,0.1,0.1,0.2,0.2
		c0.3,0.3,0,0.9-0.3,1.2c-0.3,0-0.6,0.3-0.9,0.3c-2.4,0.9-4.5,1.8-6.5,3c-0.1,0.2-0.3,0.4-0.4,0.6c0.3-0.2,0.5-0.3,0.7-0.6
		c0,0.3,0,0,0.3,0.3c-1.2,1.5-2.4,2.7-3.3,4.5c-1.8,2.7-3,5.7-3.6,9.1c-0.3,2.4-0.3,4.8,0.6,7c0.3,1.2,1.2,2.1,2.1,3
		c0.9,0.6,1.8,1.2,2.1,2.1c0,0.3,0.3,0.6,0,0.9c-0.3,0.3-0.3,0.6-0.9,0.6c-1.8,0-3.6,0-5.3,0c-0.6,0-1.2,0.3-2.1,0.3
		c0-0.1,0-0.2-0.1-0.4c-0.2,0-0.4,0.1-0.5,0.1c0,0.9,0.3,1.5,0.6,2.1c0.3,0.9,0.7,1.3,1.2,1.6c0.4,0.2,0.8,0.2,1.5,0.2h0.3
		c0.3,0,0.6,0,0.6-0.3c0.3-0.3,0.6-0.6,1.2-0.9c1.2-0.3,2.1-0.3,3.3,0.3c0.3,0.3,0.6,0.3,0.6,0.6c0,0.1,0,0.1,0,0.2
		c0.1,0.3,0.4,0.4,0.8,0.4c0.1,0,0.3,0,0.4,0c0.3,0,0.9,0,1.2,0c0.3,0,0.6,0,0.6-0.3c0.6-1.2,2.1-1.5,3.3-1.5c0.8,0,1.4,0.3,1.7,1
		c0,0.1,0,0.1,0.1,0.2c0,0.3,0.3,0.3,0.3,0.3c0.1,0,0.1-0.1,0.2-0.1c0.5-0.2,1-0.2,1.6-0.2c0.3,0,0.3-0.6,0.3-0.9v-0.3
		c0.9-1.2,2.7-2.1,3.9-1.8c0.6,0,0.9,0.3,1.2,0.9c0,0,0,0,0,0c0.2,0.7,0.3,0.8,0.8,0.7c0.1,0,0.2-0.1,0.4-0.1
		C89.8,112,90.1,112,90.1,112z M10.2,49.8c-0.1-0.1-0.2-0.2-0.4-0.3c-0.6,0-0.8-0.6-0.8-1.2c0-0.9,0-1.5,0.9-2.1
		c0.3,0,0.3,0,0.3-0.3c0.6,0.3,1.2,0.9,1.5,1.8C12.3,48.6,11.4,49.8,10.2,49.8z M28.9,30.4c1.8-1.5,4.2-1.8,5.6,0.6
		c0.9,1.2,1.2,3,1.2,4.5c-0.3-1.2-0.6-2.1-1.2-3.3c-0.3-0.3-0.6-0.9-0.9-1.2c-0.2-0.2-0.5-0.4-0.7-0.6c-0.8-0.4-1.7-0.5-2.8,0
		c-0.3,0-0.6,0.3-0.9,0.3c0,0-0.3,0.3-0.3,0C28.6,30.7,28.9,30.4,28.9,30.4z M32.5,37.4c-0.6-0.9-1.6-1.1-2.4-0.6
		c-0.2,0.2-0.4,0.4-0.6,0.6c-0.3,0.6-0.3,0.9-0.6,1.2c-0.1,0.1-0.2,0.1-0.2,0.2c0,0,0,0.1-0.1,0.1c-0.3,0.3-0.6,0.3-0.9,0.3
		c-0.3,0-0.3-0.3-0.3-0.3c0.3-1.1,0.6-2.2,1.5-3.1c0.2-0.2,0.3-0.4,0.6-0.5c1.2-0.9,2.4-0.6,3.3,0.6c0.3,0.5,0.5,1.3,0.7,2.1
		c0.3,0.9,0.5,2,0.5,2.8C33.7,39.5,33.1,38.3,32.5,37.4z"/>
	<path class="st9" d="M64.3,90.9c0.9-2.7,2.7-4.8,4.8-6.6c0.3-0.3,0.5-0.5,0.4-0.6c0-0.1-0.2-0.2-0.4-0.3c-0.9-0.6-1.5-1.5-2.4-2.1
		c-0.9-0.6-1.8-1.8-2.4-2.7c-0.3-0.3-0.3-0.3-0.6-0.3c-2.4,0.9-4.5,0.9-6.8,1.2c-0.9,0-1.8,0-2.7,0c-1.2,0-2.7,0-3.9,0
		c-0.6,0-1.5-0.3-2.1,0c-0.7,0.6-1.6,1.1-2.4,1.6c-0.9,0.5-1.7,0.9-2.6,1.4c0,0.1,0,0.1,0,0.1c0,0,0-0.1,0-0.1
		c-0.1,0.1-0.1,0.2-0.2,0.3c0,0,0,0,0,0c0,0,0.1,0,0.2,0c-0.3,0.4-0.6,0.8-0.9,1.1c-0.3,0.4-0.6,0.7-0.9,1c-1.8,1.2-3.6,1.8-5.6,2.1
		c-0.8,0.2-1.6,0.2-2.4,0.2c-0.8,0-1.5-0.1-2.3-0.2c-1.1,0.1-2.2,1-2.2,2.4c-0.3,0.6-0.3,0.9-0.9,1.5c-0.9,0.8-1.7,1.6-2.4,2.5
		c-0.2,0.3-0.4,0.5-0.6,0.8c-0.8,1.3-1.5,2.6-1.8,4.2c-0.6,1.8-0.6,3.3-0.3,4.8c0,0,0,0,0,0v0.3c0.9,1.5,2.1,2.7,3.6,3.9
		c2.4,1.8,4.8,2.4,7.7,2.1c2.7,0,5.3-1.2,7.4-2.7c0.9-0.8,1.5-1.6,1.8-2.5c0.3-0.9,0.3-1.8,0-3c-0.6-2.1-1.5-3.6-2.4-5.4
		c-0.6-1.2-1.5-2.4-1.8-3.6c0-0.1,0-0.1,0.1-0.1c0.1,0,0.2,0.1,0.2,0.1c1.2,1.2,2.4,2.4,3.6,3.9c1.2,1.8,2.1,3.6,2.4,5.7
		c0,0,0,0,0,0.1c0.1,0.1,0.2,0.2,0.3,0.3c0.1,0.1,0.3,0.2,0.6,0.2c3,0,5.9-0.3,8.9-0.9c2.1-0.3,3.9-0.6,5.9-1.2c0.3,0,0.6,0,0.6-0.6
		c0-0.6,0.3-1.5,0.3-2.1C62.8,95.4,63.4,93,64.3,90.9z"/>
	<path class="st4" d="M19.1,25.3c-0.6,0.2-1.2,0.5-1.7,0.7c-0.6,0.2-1.1,0.5-1.6,0.8c-1.2,0.6-2.4,1.3-3.4,2.1
		c-1.5,1.2-2.9,2.7-3.2,5C9,34,9,34,9,34c0.3,0,0.3-0.3,0.6-0.6c2.4-1.8,5.1-3,7.7-3.9c0.4-0.1,0.8-0.3,1.1-0.4
		c3.1-1.1,6.3-1.9,9.4-2.4c0.3-0.1,0.7-0.1,1-0.2c1.8-0.3,3.9-0.6,5.6-0.9c1.5-0.3,3.3-0.3,4.8-0.6c1.2,0,2.4-0.3,3.6-0.3
		c1.5,0,3-0.3,4.5-0.3c1.2,0,2.4-0.3,3.6-0.3c1.7,0,3.8-0.3,5.5-0.3c0,0,0.1,0,0.1,0c2.4,0,4.8,0.6,6.8,1.8c0.6,0.3,0.9,0.6,1.5,0.9
		c0,0,0,0,0,0c0,0,0,0,0,0c0-0.2-0.1-0.4-0.2-0.5c-0.1-0.2-0.3-0.4-0.1-0.4c-1.2-1.8-2.4-3.3-3.9-4.8c-1.2-1.2-2.1-1.8-3.6-2.1
		c-1.2-0.3-2.1-0.3-3.3-0.3c-0.1,0-0.1,0-0.2,0c-2,0-4.3,0.3-6.3,0.6C47,19,46.8,19,46.5,19c-3.2,0.3-6.3,0.8-9.5,1.5
		c-0.3,0.1-0.6,0.1-0.9,0.2C30.1,22,24.5,23.2,19.1,25.3z"/>
	<path class="st4" d="M66.6,110.2c1.8,0,3.6,0,5.3,0c0.6,0,0.6-0.3,0.9-0.6c0.3-0.3,0-0.6,0-0.9c-0.3-0.9-1.2-1.5-2.1-2.1
		c-0.9-0.9-1.8-1.8-2.1-3c-0.9-2.1-0.9-4.5-0.6-7c0.6-3.3,1.8-6.3,3.6-9.1c0.9-1.8,2.1-3,3.3-4.5c-0.3-0.3-0.3,0-0.3-0.3
		c-0.2,0.2-0.5,0.4-0.7,0.6c-0.5,0.3-1,0.6-1.3,0.9c-3,2.1-5.3,4.8-6.5,8.5c-0.9,2.7-1.5,5.4-1.8,8.5c-0.3,3.2-0.3,6.1,0.2,9
		c0,0.1,0,0.2,0.1,0.4C65.4,110.5,66,110.2,66.6,110.2z"/>
	<path class="st4" d="M24.9,94.1c0.2-0.3,0.4-0.6,0.6-0.8c0.6-0.9,1.4-1.7,2.2-2.4c0.6-0.3,0.9-0.9,0.9-1.5c0-1.5,1.2-2.7,2.4-2.4
		c0,0,0.1,0,0.1,0c0.8,0.1,1.5,0.2,2.3,0.2c0.7,0,1.4-0.1,2.1-0.2c2.1-0.3,3.9-0.9,5.6-2.1c0.5-0.3,0.9-0.6,1.2-1
		c0.3-0.3,0.6-0.7,0.9-1.1c-0.1,0-0.1,0-0.2,0c-0.2,0-0.3,0.1-0.7,0.6c-1.8,0.9-3.9,1.5-5.9,1.8c-0.9,0-1.5,0-2.1-0.6
		c-1.2-1.2-2.7-1.8-4.2-2.4c-0.5-0.2-1-0.2-1.3-0.1c-0.3,0.1-0.5,0.3-0.7,0.7c-1.2,1.2-1.5,2.7-1.8,4.5c0,0.3,0,0.5-0.2,0.8
		c0,0-0.1,0.1-0.1,0.1c-0.4,0.3-0.8,0.6-1.1,1c-1.4,1.2-2.7,2.4-3.9,3.9c-1.2,1.2-1.5,2.7-1.2,4.5c0.6,2.1,1.5,4.2,3,6v-0.3
		c0-0.1,0-0.3,0-0.4c0-1.6,0-3,0.3-4.4C23.4,96.8,24.1,95.4,24.9,94.1z"/>
	<path class="st4" d="M11.7,56.1c0.6-0.3,0.6-0.9,0.9-1.5c1.2-3.6,3.9-5.4,7.1-4.5c1.2,0.3,2.1,0.9,3.3,1.2c1.2,0.3,2.7,0.9,3.9,0.6
		c1.8-0.3,3.3-1.2,4.8-2.4c-1.5,0.3-3.3,0.3-4.8,0.3c0,0,0,0,0,0c-1.2,0-2.1-0.3-2.9-0.6c-2.1-0.9-4.3-1.5-6.6-1.4
		c-0.7,0-1.3,0.1-2,0.2c-0.1,0.1-0.2,0.2-0.3,0.3c0,0,0,0,0,0c-0.6,0.9-1.2,1.2-2.1,0.9c0,0-0.1-0.1-0.1-0.1
		c-0.7,0.4-1.2,1.2-1.7,1.9c-0.4,0.8-1.1,1.2-1.8,1.2c-0.4,0-0.7-0.1-1-0.2c-0.1,0-0.1,0-0.2-0.1c-0.2,0-0.3-0.1-0.4-0.2
		c-0.1-0.1-0.1-0.1-0.2-0.1c0,0,0,0,0,0c0.5,1.9,1.3,3.3,2.4,4.3c0.1,0.1,0.2,0.2,0.3,0.3C10.8,56.4,11.1,56.4,11.7,56.1z"/>
	<path class="st4" d="M25.6,60.9c0.1,0,0.2,0,0.3,0c0,0,0.1,0,0.1,0c0.5-0.1,1.1-0.2,1.6-0.3c0.4-0.1,0.8-0.1,1.3-0.2
		c0.4-0.1,0.8-0.2,1.2-0.4c2.1-0.9,3.9-2.1,4.5-4.5c0.6-1.2,0.6-2.7,0.3-4.2c-0.3-1.2-0.3-2.1-0.9-3.3c0.1,0.3,0.1,0.6,0.1,0.9
		c0.1,1.2-0.2,2.4-0.7,3.6c-0.3,3.3-2.1,5.7-5.1,7.3c-1.8,0.9-3.9,1.2-5.9,1.2c0.1,0,0.2,0,0.3,0C23.7,60.9,24.6,60.9,25.6,60.9z"/>
	<path class="st8" d="M29.8,55.5c0.2-0.3,0.4-0.5,0.4-0.7c0.1-0.2-0.1-0.2-0.4-0.2c-0.1,0-0.2,0-0.3,0c-0.3,0-0.7,0-0.9,0
		c-0.1,0-0.2,0-0.3,0c-0.6,0.2-1.1,0.4-1.6,0.7c-1.5,0.9-2.5,2.3-3.4,3.9c0.9,0,1.8-0.3,2.4-0.3C27.4,58.2,28.9,57.3,29.8,55.5z"/>
	<path class="st4" d="M70.4,35.5C70.5,35.6,70.5,35.6,70.4,35.5c0.1-0.3-0.2-0.3-0.2-0.6c0,0,0,0,0,0.3
		C70.2,35.5,70.3,35.5,70.4,35.5z"/>
	<path class="st3" d="M64.9,26.5c0,0.1,0,0.1,0,0.1"/>
	<path class="st3" d="M70.8,36c0,0,0,0,0,0.1"/>
	<path class="st12" d="M53.6,13.8c0,0.1,0,0.1,0,0.1c0,0.1,0,0.1,0,0.1"/>
	<path class="st3" d="M70.1,35C70.1,35,70.1,35,70.1,35c-0.1,0-0.2,0-0.2,0"/>
	<path class="st3" d="M43.2,82.4c0,0.1,0,0.1,0,0.1"/>
	<path class="st3" d="M70.7,35.9C70.6,35.9,70.6,35.9,70.7,35.9"/>
	<path class="st3" d="M70.8,35.9c-0.1,0-0.1,0-0.1,0"/>
	<path class="st4" d="M70.8,35.8C70.6,35.6,70.7,35.8,70.8,35.8L70.8,35.8z"/>
	<path class="st4" d="M70.8,35.9C70.8,35.9,70.8,35.8,70.8,35.9C70.8,35.8,70.8,35.8,70.8,35.9z"/>
	<path class="st5" d="M33.5,37.9c-0.3-0.8-0.6-1.5-1-1.8c-0.9-1.2-2.1-1.5-3.3-0.6c-0.1,0.1-0.2,0.2-0.3,0.2c-1,0.9-1.2,2-1.5,3.1
		c0,0,0,0.3,0.3,0.3c0.3,0,0.6,0,0.9-0.3c0,0,0-0.1,0.1-0.1c0.2-0.5,0.3-0.8,0.5-1.1c0.3-0.4,0.6-0.7,0.9-0.9
		c0.8-0.5,1.7-0.2,2.4,0.6c0.6,0.9,1.2,2.1,1.5,3.3C34,39.9,33.8,38.8,33.5,37.9z"/>
	<path class="st5" d="M29.2,30.7c0.3,0,0.6-0.3,0.9-0.3c1.1-0.5,2.1-0.4,2.8,0c0.3,0.1,0.5,0.3,0.7,0.6c0.3,0.3,0.6,0.6,0.9,1.2
		c0.6,1.2,0.9,2.1,1.2,3.3c0-1.5-0.3-3.3-1.2-4.5c-1.5-2.4-3.9-2.1-5.6-0.6v0.3H29.2z"/>
	<path class="st5" d="M11.4,47.3c-0.3-0.6-0.6-1.2-1.2-1.5c0,0.3,0,0.3-0.3,0.3C9,46.7,9,47.3,9,48.3c0,0.6,0.3,1.2,0.8,1.2
		c0,0,0,0,0.1,0C11.1,49.5,11.7,48.3,11.4,47.3z"/>
	<path class="st5" d="M12.8,49c0,0,0.1,0.1,0.1,0.1c0.9,0.3,1.5,0,2.1-0.9c0,0,0,0,0,0c0-0.1,0-0.2,0-0.4c0-0.6-0.2-1-0.6-1.4
		c-0.3-0.3-0.6-0.5-0.9-0.7c0,0,0,0.3-0.3,0.3c-0.6,0.4-1,1.5-0.8,2.2c0,0.1,0,0.2,0.1,0.2C12.5,48.8,12.6,48.9,12.8,49z"/>
	<path class="st11" d="M13.6,45.8c0,0,0.1,0,0.1,0c-0.1-0.2-0.2-0.2-0.2-0.2"/>
</g>
</svg>
