<?xml version="1.0" encoding="utf-8"?>
<!-- Generator: Adobe Illustrator 20.1.0, SVG Export Plug-In . SVG Version: 6.00 Build 0)  -->
<svg version="1.1" id="Layer_1" xmlns="http://www.w3.org/2000/svg" xmlns:xlink="http://www.w3.org/1999/xlink" x="0px" y="0px"
	 width="200px" height="48.4px" viewBox="0 0 200 48.4" style="enable-background:new 0 0 200 48.4;" xml:space="preserve">
<style type="text/css">
	.st0{fill:none;}
	.st1{fill:#272626;}
	.st2{fill:#22B350;}
	.st3{fill:#098F74;}
	.st4{fill:#153E22;}
	.st5{fill:#2874BB;}
	.st6{fill:none;stroke:#2874BB;stroke-width:0;stroke-linecap:round;stroke-linejoin:round;}
	.st7{fill:none;stroke:#098F74;stroke-width:0;stroke-linecap:round;stroke-linejoin:round;}
	.st8{fill:#818081;}
	.st9{fill:#0F8040;}
	.st10{fill:none;stroke:#0F8040;stroke-width:0;stroke-linecap:round;stroke-linejoin:round;}
	.st11{fill:none;stroke:#153E22;stroke-width:0;stroke-linecap:round;stroke-linejoin:round;}
	.st12{fill:none;stroke:#818081;stroke-width:0;stroke-linecap:round;stroke-linejoin:round;}
	.st13{fill:#FFFFFF;}
</style>
<g>
	<path class="st0" d="M34,44.7c-0.5-0.1-1.2,0.2-1.6,0.7v0.1c0,0.1,0,0.4-0.1,0.4c-0.2,0-0.4,0-0.6,0.1c0.1,0.1,0.1,0.2,0.2,0.3
		c0,0,0,0.1,0.1,0.1c0.2,0,0.5,0,0.7-0.1c0.1,0,0.1-0.2,0.1-0.4v-0.1c0,0,0,0,0,0l0-0.1l0.2-0.1c0.2-0.2,0.6-0.4,1-0.5l0.1,0l0,0
		c0.1,0,0.2,0,0.3,0c0.1,0,0.1,0,0.1,0c0,0,0,0,0,0C34.4,44.8,34.3,44.7,34,44.7z"/>
	<path class="st0" d="M35.4,44.7c0.1,0.2,0,0.4-0.2,0.5c0,0-0.1,0-0.1,0.1c-0.1,0-0.1,0-0.2,0.1c0,0,0,0,0.1,0.1
		c0.1,0.4,0.1,0.4,0.5,0.2c0,0,0.1,0,0.1-0.1c0.2-0.1,0.2-0.2,0.2-0.5c-0.4-1.2-0.7-2.5-1-3.7c-0.1,0-0.2,0.1-0.2,0.1
		C34.8,42.6,35,43.7,35.4,44.7z"/>
	<path class="st0" d="M7.6,39.7c0.1-0.5,0.3-1,0.6-1.4c0,0,0,0,0,0c-0.3,0.5-0.5,0.9-0.6,1.5c-0.1,0.6-0.1,1.1-0.1,1.8
		c0,0.1,0.1,0.1,0.1,0.2C7.3,41,7.3,40.4,7.6,39.7z"/>
	<path class="st0" d="M30.7,45.5c-0.5,0-1.1,0.1-1.3,0.6c0,0.1-0.1,0.1-0.2,0.1c-0.1,0-0.4,0-0.5,0c-0.1,0-0.1,0-0.2,0
		c0,0,0.1,0.1,0.1,0.1c0,0.4,0.2,0.4,0.5,0.2c0.1,0,0.4,0,0.5,0c0.1,0,0.1,0,0.2-0.1c0.2-0.5,0.7-0.6,1.3-0.6c0.1,0,0.2,0,0.3,0.1
		C31.3,45.6,31.1,45.5,30.7,45.5z"/>
	<path class="st0" d="M27.9,45.7c-0.5-0.2-0.9-0.2-1.3-0.1c-0.2,0.1-0.4,0.2-0.5,0.4c0,0.1-0.1,0.1-0.2,0.1h-0.1
		c-0.3,0-0.4,0-0.6-0.1c0.2,0.4,0.5,0.5,1,0.5h0.1c0.1,0,0.2,0,0.2-0.1c0.1-0.2,0.2-0.4,0.5-0.4c0.5-0.1,0.8-0.1,1.3,0.1
		c0,0,0,0,0-0.1C28.1,45.8,28,45.8,27.9,45.7z"/>
	<path class="st0" d="M1.1,20.7C1.1,20.7,1.1,20.7,1.1,20.7C1.1,20.7,1.1,20.7,1.1,20.7C1.1,20.7,1.1,20.7,1.1,20.7z"/>
	<path class="st0" d="M0.8,19.6c-0.1-1.2,0-2.6,0.2-3.8c0.1-0.7,0.2-1.5,0.5-2.2c0.1,0,0.1,0,0.1-0.1c0.1-0.9,0.7-1.5,1.3-2
		c0.3-0.2,0.6-0.4,0.9-0.5c0,0,0-0.1,0.1-0.1c-0.4,0.2-0.7,0.4-1.1,0.7c-0.7,0.5-1.3,1.1-1.3,2.1c-0.2,0.7-0.4,1.5-0.5,2.2
		C0.8,17,0.7,18.4,0.8,19.6c0,0.4,0.1,0.7,0.2,1.1c0,0,0,0,0,0c0,0,0,0,0,0C0.9,20.3,0.9,20,0.8,19.6z"/>
	<path class="st0" d="M30.8,46.1c-0.6,0-0.9,0.4-0.6,0.9c0.1,0.2,0.2,0.5,0.5,0.7c0.2,0.2,0.4,0.1,0.5-0.1c0-0.2,0-0.5,0-0.7
		c0-0.1,0-0.2,0-0.5C31.2,46.1,31.1,46,30.8,46.1z"/>
	<path class="st0" d="M27.4,46.1h-0.1c-0.5,0-0.6,0.2-0.5,0.7c0.1,0.4,0.2,0.6,0.5,0.9s0.4,0.2,0.5-0.1c0.1-0.2,0.1-0.6,0.1-0.9
		C27.9,46.2,27.9,46.1,27.4,46.1z"/>
	<path class="st0" d="M34,47.3L34,47.3C34,47.3,34,47.3,34,47.3z"/>
	<path class="st1" d="M12,18.9c0.1-0.2,0.1-0.3-0.2-0.3c-0.1,0-0.1,0-0.2,0c0.1,0.1,0.1,0.1-0.1,0.3c-0.2,0.4-0.5,0.7-0.9,1
		C10.2,20,9.6,20,9,20c0,0,0,0,0,0c0.6,0,1.3,0,2-0.1c-0.6,0.5-1.2,0.9-2,1c-0.5,0.1-1.1-0.1-1.6-0.2c-0.5-0.1-0.9-0.4-1.3-0.5
		c-1.3-0.4-2.5,0.4-2.9,1.8C3,22.2,3,22.4,2.8,22.5c-0.2,0.1-0.4,0.1-0.6,0c0,0,0,0,0,0c0.1,0.1,0.1,0.1,0.2,0.2
		c0.2,0.2,0.4,0.2,0.6,0c0.2-0.1,0.2-0.4,0.4-0.6c0.4-1.5,1.5-2.2,2.9-1.8c0.5,0.1,0.9,0.4,1.3,0.5C8,20.8,8.7,21.1,9.1,21
		c0.7-0.1,1.3-0.5,2-1c0.3-0.2,0.5-0.5,0.7-0.8c0-0.1,0-0.3,0-0.4C11.9,18.8,11.9,18.9,12,18.9z"/>
	<path class="st1" d="M2.5,20.5c0.2-0.3,0.4-0.6,0.7-0.8c-0.1,0-0.1-0.1-0.1-0.2c-0.3,0.1-0.6,0.5-0.8,0.8c0,0.1-0.1,0.2-0.2,0.2
		c0,0.1,0,0.2,0,0.3C2.3,20.8,2.4,20.7,2.5,20.5z"/>
	<path class="st1" d="M12.2,18.9c0,0.1,0,0.2,0,0.2c0.2,0.2,0.3,0.4,0.4,0.6c0.2,0.4,0.4,0.7,0.5,1c-0.1-0.5-0.3-1-0.5-1.4
		C12.5,19.1,12.4,19,12.2,18.9z"/>
	<path class="st1" d="M12,18.4C12,18.4,12,18.4,12,18.4C12,18.4,12,18.4,12,18.4z"/>
	<path class="st1" d="M3.4,18.5c0.1,0,0.1-0.1,0.1-0.1c0.1,0.1,0.3,0.2,0.4,0.3c-0.1-0.2-0.3-0.3-0.5-0.5c0,0.1-0.1,0.1-0.1,0.1
		c-0.3,0.2-0.4,0.8-0.2,1.1C3,19.1,3.1,18.7,3.4,18.5z M3.6,18.4C3.6,18.4,3.6,18.4,3.6,18.4C3.6,18.4,3.6,18.4,3.6,18.4
		C3.6,18.3,3.5,18.3,3.6,18.4C3.5,18.3,3.6,18.3,3.6,18.4z"/>
	<path class="st1" d="M4.2,19.2c0.3-0.1,0.5-0.1,0.8-0.1c-0.3,0-0.6,0-0.9,0.1c0,0,0,0.1,0,0.1C4.2,19.3,4.2,19.3,4.2,19.2z"/>
	<path class="st1" d="M10.4,12.1c-0.1,0-0.2,0.1-0.4,0.1C10.1,12.3,10.3,12.1,10.4,12.1z"/>
	<path class="st1" d="M12.2,12.9c-0.1-0.2-0.2-0.4-0.4-0.5C12,12.5,12.1,12.7,12.2,12.9z"/>
	<path class="st1" d="M10,12.3H9.9C9.9,12.4,10,12.3,10,12.3z"/>
	<path class="st1" d="M2.3,18.5C2.3,18.5,2.3,18.5,2.3,18.5c0.1,0.1,0.2,0.3,0.3,0.5c0.1,0.3-0.1,0.8-0.5,0.8c0,0,0,0.1,0,0.1
		c0,0,0,0,0,0c0.5,0,0.9-0.5,0.6-0.9C2.7,18.8,2.5,18.7,2.3,18.5z"/>
	<path class="st1" d="M26.8,26.3c0-0.1,0-0.1-0.1-0.2c0,1.1-0.2,2.1-0.7,2.9c-0.4,0.6-0.7,1.3-1.5,1.7c-0.6,0.2-1.1,0.5-1.7,0.5
		c-1.2,0.1-2.3,0.1-3.6,0.1c-1.1,0-2.1-0.1-3-0.4c0.2,0,0.3,0.1,0.5,0.1c1,0.2,2.1,0.4,3.1,0.4c1.2,0,2.3,0,3.6-0.1
		c0.6-0.1,1.2-0.2,1.7-0.5c0.7-0.4,1.1-1,1.5-1.7c0,0,0,0,0-0.1c0.1-0.2,0.2-0.4,0.2-0.7C26.9,27.7,26.9,27,26.8,26.3z"/>
	<path class="st1" d="M9.1,24.4c0.2,0,0.4-0.1,0.5-0.1c-0.1,0-0.2,0-0.3,0.1C9.3,24.4,9.2,24.4,9.1,24.4z"/>
	<path class="st1" d="M31.3,31.2c-0.6,0.1-1.2,0.5-1.8,0.7c-0.7,0.4-1.3,0.7-2,1.1c0.1,0,0.1,0.1,0.2,0.1c0.1,0.1,0.1,0,0.2,0
		c0.6-0.5,1.3-0.9,2.1-1.1c0.6-0.2,1.2-0.5,1.8-0.7C31.6,31.3,31.4,31.2,31.3,31.2z"/>
	<path class="st1" d="M11.8,18.4c-0.4-0.2-0.9-0.1-1.1,0.2c0.2,0,0.4-0.2,0.7-0.1C11.5,18.4,11.7,18.4,11.8,18.4
		C11.9,18.4,11.9,18.4,11.8,18.4z"/>
	<path class="st1" d="M29.9,14.6C29.8,14.6,29.8,14.6,29.9,14.6c0,0,0.1,0.1,0.1,0.1c0,0,0,0,0,0C29.9,14.7,29.9,14.6,29.9,14.6z"/>
	<path class="st1" d="M33.5,22.8c0,0.1,0.1,0.1,0.1,0.2c-0.1-0.3-0.2-0.6-0.3-0.9C33.4,22.3,33.4,22.6,33.5,22.8z"/>
	<path class="st1" d="M30.6,15.4c0.1,0.1,0.2,0.3,0.3,0.4c-0.2-0.3-0.4-0.5-0.6-0.8c-0.1-0.1-0.2-0.3-0.4-0.4c0,0,0,0,0,0
		c0.1,0.1,0.2,0.2,0.2,0.3C30.4,15.1,30.5,15.2,30.6,15.4z"/>
	<path class="st1" d="M31.6,17.4c0.5,1.1,1,2.3,1.3,3.4c0.2,0.4,0.3,0.8,0.4,1.2c-0.1-0.3-0.2-0.7-0.3-1
		C32.7,19.8,32.2,18.6,31.6,17.4z"/>
	<path class="st1" d="M34,23.6c-0.1-0.1-0.1-0.2-0.2-0.3C33.8,23.4,33.9,23.5,34,23.6z"/>
	<path class="st1" d="M9.9,12.1c0,0-0.1,0.1,0,0.1V12.1z"/>
	<path class="st1" d="M40.7,28.3c0.4,0.2,0.8,0.3,1.3,0.5C41.5,28.6,41.1,28.4,40.7,28.3z"/>
	<path class="st1" d="M43.1,28.9c0-0.2,0.1-0.5,0.1-0.7c-0.1,0-0.1-0.1-0.2,0c-0.1,0-0.1,0-0.1-0.1c0,0.3-0.1,0.5-0.1,0.7
		c0,0.1,0,0.1-0.1,0.2c0.1,0,0.2,0.1,0.2,0.1C43,29,43.1,29,43.1,28.9z"/>
	<path class="st1" d="M24.6,10.3c0,0.1,0.1,0.1,0.1,0.2C24.7,10.4,24.7,10.4,24.6,10.3z"/>
	<path class="st1" d="M24.7,10.5c-0.2-0.1-0.4-0.2-0.6-0.4c-0.9-0.5-1.8-0.7-2.8-0.7c0,0,0,0-0.1,0c1,0,1.9,0.3,2.8,0.7
		c0.2,0.1,0.4,0.2,0.6,0.4C24.6,10.5,24.6,10.7,24.7,10.5C24.7,10.5,24.7,10.5,24.7,10.5L24.7,10.5z"/>
	<path class="st1" d="M20.1,7.2C20.1,7.2,20.1,7.2,20.1,7.2c-0.9,0-1.9,0.1-2.7,0.2c-0.1,0-0.3,0-0.4,0.1c0.2,0,0.3,0,0.5-0.1
		C18.3,7.4,19.3,7.2,20.1,7.2z"/>
	<path class="st1" d="M9.4,10.6c-1.3,0.2-2.6,0.5-3.8,1C6.9,11.2,8.1,10.9,9.4,10.6z"/>
	<path class="st1" d="M5.8,10c2.2-0.9,4.5-1.3,7-1.8c0.2,0,0.4-0.1,0.5-0.1c-0.2,0-0.5,0.1-0.7,0.1c-2.3,0.5-4.7,1-7,1.8
		c0,0,0,0-0.1,0c0,0,0,0,0,0.1C5.7,10.1,5.8,10.1,5.8,10z"/>
	<path class="st1" d="M26.9,14.5c0.4,0.5,0.5,1,0.7,1.5c0.9,2.1,1.5,4.2,1.8,6.4c0.1,0.7,0.2,1.5,0.5,2.1c0.2,0.7,0.7,1.5,1.2,2.1
		c0.2,0.3,0.5,0.5,0.8,0.8c-0.1-0.1-0.3-0.3-0.4-0.4c-0.5-0.6-1-1.3-1.2-2.1c-0.2-0.7-0.2-1.3-0.5-2.1c-0.4-2.2-1-4.3-1.8-6.4
		c-0.2-0.5-0.4-1-0.7-1.5c-0.1-0.2-0.1-0.3-0.1-0.4c0,0,0-0.1-0.1-0.1c0,0,0,0,0,0s0,0,0,0c0,0-0.1-0.1-0.1-0.1c0,0-0.1,0-0.1-0.1
		v0.1c0,0.1,0,0.1,0,0.1c0,0,0,0,0,0V14.5z M27.2,14.4C27.2,14.4,27.2,14.4,27.2,14.4C27.2,14.4,27.2,14.4,27.2,14.4z"/>
	<path class="st1" d="M28.6,12.3c0.2,0.7,0.6,1.3,0.9,2c0,0,0,0.1,0.1,0.1v0.1c0.1,0.1,0.2,0.1,0.2,0.1c0,0,0,0,0,0
		c0-0.1,0-0.1-0.1-0.1c0,0,0,0,0-0.1c0,0,0-0.1-0.1-0.1c-0.4-0.6-0.7-1.2-0.9-2v0.1v-0.1c-0.1-0.1-0.1-0.2-0.1-0.4c0,0,0,0-0.1,0
		c0,0.1,0.1,0.2,0.1,0.2V12.3z"/>
	<path class="st1" d="M28.6,11.8c-0.6-2.6-1.8-5.1-3.8-7.1c0,0-0.1,0-0.1,0c2,2.1,3.2,4.4,3.9,7.2c0,0,0,0,0.1,0
		C28.7,11.8,28.7,11.8,28.6,11.8z"/>
	<path class="st1" d="M26.8,17.2c0.1,0.7,0.1,1.5,0.1,2.2c0,0.1,0,0.2,0.1,0.2c0,0,0,0,0.1,0c0,0-0.1-0.1-0.1-0.2
		c0-0.7,0-1.5-0.1-2.2c-0.1-1.5-0.4-2.8-0.9-4.2c-0.4-0.9-0.7-1.7-1.2-2.5c0,0,0,0-0.1,0c0.5,0.7,0.9,1.6,1.2,2.5
		C26.4,14.3,26.7,15.7,26.8,17.2z"/>
	<path class="st1" d="M41.3,31.7C41.2,31.7,41.2,31.7,41.3,31.7c-0.1,0-0.1,0.1-0.1,0.1c-0.7,1.1-1.5,2.2-2.3,3.2
		c-1,1.1-2.2,2.1-3.4,2.9c-0.5,0.2-0.7,0.7-1.1,1.1l-0.1,0.1c-0.2,0.1-0.2,0.4-0.1,0.6c0.1,0.2,0.1,0.4,0.2,0.6
		c0.1,0,0.2-0.1,0.2-0.1c0,0,0-0.1,0-0.1c-0.1-0.2,0-0.5,0.1-0.6l0.1-0.1c0.4-0.4,0.6-0.9,1.1-1.1c1.2-0.8,2.4-1.8,3.4-2.9
		c0.9-1.1,1.6-2.4,2.3-3.7C41.4,31.8,41.3,31.8,41.3,31.7z"/>
	<path class="st1" d="M10.3,21.9c0,0-0.1,0-0.1,0C10.2,21.9,10.2,21.9,10.3,21.9C10.3,21.9,10.3,21.9,10.3,21.9z"/>
	<path class="st1" d="M10.5,32.6c-0.2,0-0.3,0-0.4,0c0.1,0,0.1,0,0.2,0c0.7,0.2,1.3,0.6,1.8,1c0.1,0.1,0.4,0.1,0.5,0.1c0,0,0,0,0,0
		c-0.1,0-0.2,0-0.3-0.1C11.7,33.2,11.1,32.7,10.5,32.6z"/>
	<path class="st1" d="M7.6,8.7c0.1,0,0.1,0,0.1,0c0.1,0,0.3-0.1,0.4-0.1c0.2-0.2,0.3-0.4,0.5-0.5c3.1-3.3,6.9-5.4,11.4-6.2
		c3.8-0.7,7.4-0.4,11,1c0.1,0,0.2-0.1,0.3-0.1c0.5,0.2,0.8,0.4,1.1,0.5c0.1,0,0.1,0,0.2-0.1c1.8,0.9,3.6,2,4.9,3.3c0,0,0,0,0,0.1
		c0.1,0.1,0.1,0.2,0.2,0.2h0h0c0,0.1,0.1,0.1,0.1,0.2c0,0,0,0,0,0c0,0,0,0,0-0.1c0,0,0,0,0,0.1c0.1,0,0.1,0.1,0.2,0.2
		c0,0,0.1,0.1,0.1,0.1c0,0,0,0,0-0.1c0,0,0,0,0,0.1c0.1,0.1,0.1,0.1,0.2,0.2c0,0,0,0,0.1,0.1c0-0.1,0-0.1,0-0.1s0,0,0,0.1
		c0.1,0,0.2,0.1,0.2,0.2c0,0,0,0,0,0c0,0,0.1,0.1,0.1,0.1c-0.1-0.1,0-0.1,0,0c0,0,0,0,0,0c0,0,0,0,0,0c0,0,0,0,0.1,0.1
		c0-0.1,0-0.1,0-0.1s0,0,0,0.1c1.1,1.2,2.1,2.5,2.8,3.8c1.2,2.2,2,4.7,2.3,7.1c0.4,2.7,0.1,5.4-0.5,8.1c0,0,0,0,0,0.1
		c-1.1-0.4-2.1-0.6-3.2-1c-1.7-0.6-3.3-1.2-4.9-2.1c-0.1-0.1-0.4-0.2-0.5-0.4c-0.2-0.3-0.4-0.6-0.6-0.9c0.2,0.5,0.4,0.9,0.8,1.3
		c0.1,0.1,0.4,0.2,0.5,0.4c1.6,0.9,3.2,1.5,4.9,2.1c1,0.4,2.1,0.6,3.2,1c-0.3,0-0.4,0.2-0.5,0.5c0.1,0,0.1,0,0.2,0
		c-0.1,0.5-0.4,1-0.5,1.5c-0.4,0.5-0.5,0.9-0.7,1.2c-0.5,0-1-0.1-1.5-0.2c-2.5-0.6-4.8-1.5-7-2.9c-1-0.7-1.8-1.5-2.6-2.6
		c-0.4-0.6-0.5-1.3-0.7-2.1c-0.4-2.3-1-4.7-2-6.9c-0.4-0.7-0.7-1.3-1.2-2c0-0.1-0.1-0.1-0.1-0.1c-0.4-0.2-0.5-0.6-0.6-1
		c-0.4-1.3-1-2.7-1.8-3.8c-0.6-0.7-1.2-1.5-2-2.1c-0.4-0.2-0.7-0.4-1.1-0.4c-0.5-0.1-1-0.1-1.5-0.1c-0.1,0-0.2,0-0.1-0.2
		c0-0.2,0.1-0.6,0.2-0.9c0,0,0,0,0-0.1c0.1,0,0.2-0.1,0.4-0.2c0.4-0.4,0.7-0.5,1.2-0.5c0.2,0,0.4,0,0.5,0.1
		c-0.3-0.1-0.6-0.2-0.9-0.2c-0.5,0-0.9,0.2-1.2,0.5c-0.1,0.1-0.1,0.2-0.3,0.2c0,0,0,0.1-0.1,0.1c0,0,0,0,0,0.1
		c-0.1,0.2-0.1,0.5-0.2,0.9c0,0.1,0,0.2,0.1,0.2c0.5,0,1,0,1.5,0.1c0.4,0.1,0.9,0.1,1.1,0.4c0.7,0.6,1.5,1.2,2,2.1
		c0.9,1.2,1.5,2.5,1.8,3.8c0.1,0.4,0.2,0.7,0.6,1c0,0,0.1,0,0.1,0c0,0,0,0,0,0s0,0,0,0c0,0-0.1,0-0.1,0c0.1,0,0.1,0.1,0.1,0.1
		c0-0.1,0-0.1,0-0.1c0.1,0.1,0.2,0.1,0.2,0.4c0,0,0,0,0,0.1c0.4,0.5,0.8,1,1,1.6c1,2.2,1.6,4.4,2,6.9c0.1,0.7,0.2,1.3,0.7,2.1
		c0.6,1.1,1.5,2,2.6,2.6c2.1,1.5,4.4,2.3,7,2.9c0.5,0.1,1,0.2,1.5,0.2c-0.1,0.3-0.3,0.7-0.5,1c0.3,0.1,0.3,0.1,0.1,0.4
		c-0.6,1.1-1.5,2.2-2.3,3.2c0,0,0,0-0.1,0.1c-0.9,1.2-2,2.3-3.3,3.3c-0.4,0.4-0.6,0.7-1,1.1c-0.1,0.1,0,0.1,0,0.2
		c6-3.8,10-10.5,10-18.1c0-11.8-9.6-21.4-21.4-21.4c-7,0-13.1,3.3-17,8.5c0.3-0.1,0.7-0.2,1-0.3C7.4,8.7,7.4,8.7,7.6,8.7z M20.1,5.4
		C20.1,5.4,20.1,5.4,20.1,5.4C20.1,5.4,20.1,5.4,20.1,5.4C20.1,5.5,20.1,5.5,20.1,5.4C20.1,5.5,20.1,5.5,20.1,5.4z M38.1,7.4
		C38.2,7.4,38.2,7.4,38.1,7.4C38.2,7.4,38.2,7.4,38.1,7.4C38.1,7.4,38.1,7.4,38.1,7.4C38.1,7.4,38.1,7.4,38.1,7.4z"/>
	<path class="st1" d="M9,22.2c-0.7,0.4-1,0.9-1.4,1.6C7.9,23.1,8.4,22.6,9,22.2z"/>
	<path class="st1" d="M7.3,35.7c0.1,0,0.1-0.1,0.2-0.1c0.1,0,0.1-0.1,0.2-0.1c-0.8-1.1-1.7-2.1-2.4-3.4c-1.2-2.2-2-4.7-2.3-7.1
		c0-0.6,0-1-0.1-1.5c0.5-0.2,0.7-0.6,0.9-1.1c0.1-0.4,0.2-0.7,0.5-1.1c0.3-0.3,0.7-0.5,1.1-0.5c-0.5-0.1-0.9,0.1-1.3,0.5
		c-0.2,0.2-0.5,0.7-0.5,1.1c-0.1,0.5-0.4,0.9-0.9,1.1H2.5c-0.2,0.1-0.3,0.1-0.4,0c0.3,4.7,2.2,9,5,12.4C7.2,35.7,7.3,35.7,7.3,35.7z
		"/>
	<path class="st1" d="M9,22.2c0.1-0.1,0.3-0.1,0.4-0.2C9.2,22.1,9.1,22.1,9,22.2z"/>
	<path class="st1" d="M23,42.6C23,42.6,23,42.6,23,42.6c-1.2-0.2-2.2-0.3-3.3-0.4c1.1-0.1,2.2-0.4,3.3-0.6c0,0,0-0.1,0-0.1
		c-0.2,0-0.4,0.1-0.5,0.1c-1.1,0.2-2.2,0.5-3.3,0.6c-0.6,0.1-1.2,0.1-1.8,0.2c1.8,0.5,3.7,0.8,5.6,0.9C23,43.1,23,42.9,23,42.6z"/>
	<path class="st1" d="M10.4,33.1c0.6,0.2,1.2,0.5,1.7,1c0.2,0.2,0.5,0.2,0.9,0.2c0.9-0.1,1.7-0.4,2.5-0.7c0.1-0.1,0.1-0.1,0.1-0.1
		c0,0,0,0,0,0c-0.9,0.4-1.6,0.6-2.5,0.7c-0.4,0-0.6,0-0.9-0.2c-0.5-0.4-1.1-0.7-1.7-1c-0.3-0.1-0.5,0-0.7,0.1
		C10,33,10.1,33,10.4,33.1z"/>
	<path class="st1" d="M8.7,35.5c-0.1,0.1-0.2,0.2-0.4,0.3C8.4,35.7,8.5,35.6,8.7,35.5C8.7,35.5,8.7,35.5,8.7,35.5z"/>
	<path class="st1" d="M14.2,37.3c0.1,0.5,0.5,1,0.7,1.5c0.4,0.7,0.7,1.3,1,2.2c0.1,0.4,0.1,0.7,0,1c0,0,0,0,0,0
		c0.1-0.3,0.1-0.7-0.1-1.2c-0.2-0.7-0.6-1.5-1-2.2C14.7,38.1,14.3,37.7,14.2,37.3C14.2,37.2,14.2,37.2,14.2,37.3z"/>
	<path class="st1" d="M16.9,41.3c0,0-0.1-0.1-0.1-0.1C16.8,41.3,16.8,41.3,16.9,41.3z"/>
	<path class="st1" d="M18.7,32c0.5,0,1.1,0,1.6,0c0.4,0,0.7,0,1.1,0c1-0.1,1.8-0.1,2.8-0.5c0.1,0,0.1,0,0.2,0.1
		c0.2,0.4,0.6,0.9,1,1.1s0.6,0.6,1,0.9c0.1,0.1,0.2,0.1,0.2,0.1c0,0,0-0.1-0.2-0.2c-0.4-0.2-0.7-0.5-1-0.9c-0.4-0.4-0.7-0.7-1-1.1
		c0-0.1-0.1-0.1-0.2-0.1c-0.9,0.4-1.8,0.4-2.8,0.5c-0.4,0-0.7,0-1.1,0c-0.5,0-1.1,0-1.6,0c-0.2,0-0.6-0.1-0.9,0
		c-0.3,0.3-0.6,0.6-1,0.8c0.4-0.2,0.7-0.4,1-0.7C18.1,31.9,18.5,32,18.7,32z"/>
	<path class="st1" d="M15.6,33.4c0,0,0.1-0.1,0.1-0.1C15.6,33.3,15.6,33.4,15.6,33.4z"/>
	<path class="st1" d="M11.4,14.5c0.2,0.1,0.3,0.4,0.4,0.7c-0.1-0.3-0.2-0.6-0.3-0.8c-0.4-0.5-0.9-0.6-1.3-0.2
		c-0.1,0.1-0.2,0.2-0.3,0.3c0.1-0.1,0.1-0.1,0.2-0.2C10.5,13.8,11,14,11.4,14.5z"/>
	<path class="st1" d="M9.8,36c0,0.2-0.1,0.5-0.4,0.6c-0.3,0.2-0.5,0.5-0.7,0.7c0,0,0,0,0.1,0.1c0.2-0.3,0.5-0.5,0.8-0.8
		c0.2-0.2,0.2-0.4,0.4-0.6c0-0.6,0.5-1,0.9-1c0,0-0.1,0-0.1,0C10.3,34.9,9.8,35.4,9.8,36z"/>
	<path class="st1" d="M10,15.1c-0.1,0.1-0.1,0.2-0.2,0.4c0,0,0.1,0,0.1-0.1c0.1-0.1,0.1-0.2,0.2-0.5c0.1-0.1,0.2-0.2,0.2-0.3
		C10.2,14.8,10.1,14.9,10,15.1z"/>
	<path class="st1" d="M14.9,34.2c-0.7,0.5-1.5,0.7-2.3,0.9c-0.3,0.1-0.6,0.1-0.9,0.1c0.3,0,0.7,0,1-0.1c0.9-0.1,1.6-0.4,2.3-0.9
		c0.1-0.1,0.3-0.3,0.4-0.4C15.3,33.9,15.1,34.1,14.9,34.2z"/>
	<path class="st1" d="M10.4,22.3c0.1-0.2,0.1-0.2,0-0.3c0,0.1-0.1,0.1-0.2,0.3c-0.4,0.7-1,1.1-1.7,1.3c-0.2,0-0.6,0.1-1,0.1
		c0.4,0,0.7,0,1.1-0.1C9.4,23.4,10,23,10.4,22.3z"/>
	<path class="st2" d="M1.3,20.8c0.2,0.1,0.5,0.1,0.8,0c0-0.1,0-0.2,0-0.3c-0.3,0.3-0.6,0.3-1,0.2c0,0,0,0,0,0
		C1.2,20.7,1.2,20.8,1.3,20.8z"/>
	<path class="st2" d="M5.6,10.2C5.6,10.1,5.6,10.1,5.6,10.2c-0.5,0.1-1.1,0.4-1.6,0.7c0,0,0,0.1-0.1,0.1C4.5,10.7,5,10.4,5.6,10.2z"
		/>
	<path class="st2" d="M45.9,21.9c0-12.4-10.1-22.4-22.4-22.4C15.6-0.5,8.7,3.6,4.7,9.7C5,9.5,5.3,9.4,5.6,9.3C5.9,9.2,6.2,9.1,6.4,9
		c3.9-5.1,10.1-8.5,17-8.5c11.8,0,21.4,9.6,21.4,21.4c0,7.6-4,14.3-10,18.1c0,0,0,0,0,0c0.1,0.4,0.2,0.7,0.3,1
		C41.6,37.2,45.9,30,45.9,21.9z"/>
	<path class="st2" d="M15.9,42.1c0-0.1,0-0.1,0.1-0.2c0,0,0,0,0,0C15.9,42,15.9,42.1,15.9,42.1z"/>
	<path class="st2" d="M8.1,38.2C8.1,38.2,8.1,38.3,8.1,38.2c0.2-0.2,0.4-0.5,0.6-0.8c0,0,0,0-0.1-0.1C8.4,37.6,8.3,37.9,8.1,38.2z"
		/>
	<path class="st2" d="M34.5,41.5c0.1,0,0.2-0.1,0.2-0.1c-0.1-0.3-0.2-0.7-0.3-1c-0.1,0-0.2,0.1-0.2,0.1
		C34.3,40.8,34.4,41.1,34.5,41.5z"/>
	<path class="st2" d="M7.2,35.8c-2.9-3.4-4.7-7.7-5-12.4c-0.2,0-0.3-0.1-0.5-0.3c-0.2-0.2-0.4-0.4-0.6-0.6
		c0.1,5.3,2.1,10.2,5.3,13.9C6.6,36.2,6.9,36,7.2,35.8z"/>
	<path class="st2" d="M15.9,42.2c0,0.1-0.1,0.1-0.1,0.2C15.8,42.3,15.8,42.3,15.9,42.2z"/>
	<path class="st2" d="M2.3,18.5c-0.1,0-0.1-0.1-0.2-0.1C2.2,18.4,2.3,18.5,2.3,18.5C2.3,18.5,2.3,18.5,2.3,18.5z"/>
	<path class="st2" d="M2,19.9C2,19.9,2,19.8,2,19.9c0,0,0.1,0.1,0.1,0.1c0,0,0-0.1,0-0.1C2.1,19.8,2.1,19.9,2,19.9z"/>
	<path class="st2" d="M23,43.3c-1.9,0-3.8-0.3-5.6-0.9c-0.3,0-0.6,0.1-0.9,0.1c-0.1,0-0.1,0-0.1,0.1c-0.1,0.2-0.2,0.3-0.3,0.5
		c2.2,0.8,4.5,1.2,7,1.2C23,44,23,43.7,23,43.3z"/>
	<path class="st1" d="M33.9,45.1c0,0,0.1,0,0.1,0L33.9,45.1L33.9,45.1z"/>
	<path class="st1" d="M34.5,46.8c0,0.2,0,0.4-0.1,0.6h0.1l0.1-0.8C34.6,46.7,34.5,46.7,34.5,46.8z"/>
	<path class="st1" d="M33.2,46.3c0.1,0.4,0.2,0.6,0.6,0.9c0.1,0.1,0.1,0.1,0.2,0.1l0,0c0.1,0,0.2,0,0.3,0c0.1-0.1,0.1-0.4,0.1-0.6
		c0-0.2,0-0.5-0.1-0.6c-0.1-0.6-0.4-0.7-0.9-0.4C33.2,45.8,33.2,46.1,33.2,46.3z"/>
	<path class="st1" d="M32.8,45.8c0-0.1,0.1-0.1,0.2-0.2L32.8,45.8L32.8,45.8z"/>
	<path class="st3" d="M28.7,11.9C28.7,11.9,28.7,11.9,28.7,11.9c0.1,0.1,0.1,0.2,0.1,0.2v0.1c0.1,0.7,0.5,1.3,0.9,2
		c0.1,0,0.1,0.1,0.1,0.1c0,0.1,0,0.1,0,0.1c0.1,0,0.1,0,0.1,0.1c0.1,0,0.1,0.1,0.1,0.1c0,0,0,0,0,0c0,0,0,0,0,0
		c0.2,0.1,0.3,0.3,0.4,0.4c0.2,0.3,0.4,0.5,0.6,0.8c0.8,1,1.4,2.2,2,3.5c0.5,1.1,0.9,2.2,1.2,3.2c0,0.1,0.1,0.2,0.1,0.3
		c0.2,0.3,0.4,0.6,0.6,0.9c0.1,0.1,0.4,0.2,0.5,0.4c1.6,0.9,3.2,1.5,4.9,2.1c1.1,0.4,2.1,0.6,3.2,1c0-0.1,0-0.1,0-0.1
		c0.6-2.7,0.9-5.4,0.5-8.1c-0.4-2.5-1.1-4.9-2.3-7.1c-0.7-1.3-1.7-2.6-2.8-3.8c0,0,0,0-0.1-0.1c0,0,0,0,0,0c0,0,0,0,0,0
		c0,0-0.1-0.1-0.1-0.1c0,0,0,0,0,0c-0.1-0.1-0.1-0.1-0.2-0.2c0,0,0,0-0.1-0.1c-0.1-0.1-0.1-0.1-0.2-0.2c0,0-0.1,0-0.1,0
		c0,0,0.1,0,0.1,0c0,0-0.1-0.1-0.1-0.1c-0.1,0-0.2-0.1-0.2-0.2c-0.1-0.1-0.1-0.1-0.1-0.2c0,0-0.1,0-0.1,0c0,0,0.1,0,0.1,0
		c-0.1,0-0.1-0.1-0.2-0.2c0-0.1,0-0.1,0-0.1C36,5.1,34.3,4,32.4,3.2c-0.1,0-0.1,0-0.2,0.1c0.1,0,0.1,0,0.2,0.1
		c-0.7,0.5-1.6,0.6-2.6,0.9c-1.3,0.4-2.7,0.5-4,0.5c-0.3,0-0.7,0-1,0c2,2.1,3.2,4.5,3.8,7.1C28.7,11.8,28.7,11.8,28.7,11.9z
		 M37.6,6.9C37.6,6.9,37.6,6.9,37.6,6.9C37.6,6.9,37.6,6.9,37.6,6.9z"/>
	<path class="st4" d="M41.5,32.2c0.2-0.3,0.2-0.4-0.1-0.4c-0.6,1.3-1.4,2.6-2.3,3.7c0,0,0,0,0.1-0.1C40,34.4,40.9,33.3,41.5,32.2z"
		/>
	<path class="st4" d="M8.8,24.5c0.1,0,0.2,0,0.3,0c0.1,0,0.1,0,0.2,0C9.2,24.4,9,24.4,8.8,24.5z"/>
	<path class="st4" d="M28,16.3c0.9,2.1,1.5,4.2,1.8,6.4c0.2,0.7,0.2,1.3,0.5,2.1c0.2,0.7,0.7,1.5,1.2,2.1c0.1,0.2,0.3,0.3,0.4,0.4
		c0.8,0.7,1.7,1.3,2.6,1.8c2,1.1,4.2,1.8,6.2,2.3c0.4,0.1,0.5,0.1,0.3,0.4c0,0,0,0,0,0c0.1,0,0.1,0,0.1,0c0.2-0.3,0.3-0.7,0.5-1
		c-0.5,0-1-0.1-1.5-0.2c-2.6-0.6-4.9-1.5-7-2.9c-1.1-0.6-2-1.5-2.6-2.6c-0.5-0.7-0.6-1.3-0.7-2.1c-0.4-2.5-1-4.7-2-6.9
		c-0.2-0.6-0.6-1.1-1-1.6c0,0.1,0,0.2,0.1,0.4C27.7,15.3,27.8,15.8,28,16.3z"/>
	<path class="st4" d="M27.2,14.4C27.2,14.4,27.2,14.3,27.2,14.4C27.1,14.3,27.1,14.3,27.2,14.4C27.1,14.4,27.2,14.4,27.2,14.4z"/>
	<path class="st4" d="M27,14.2c0,0,0.1,0.1,0.1,0.1c0,0,0,0,0.1,0c0,0-0.1-0.1-0.1-0.1c0,0,0.1,0.1,0.1,0.1c0-0.2-0.1-0.2-0.2-0.4
		C26.9,14.1,27,14.1,27,14.2C27,14.2,27,14.2,27,14.2z"/>
	<polygon class="st4" points="24.7,10.5 24.7,10.5 24.7,10.5 	"/>
	<path class="st4" d="M11.8,18.6c0.2,0,0.2,0.1,0.2,0.3c0.1,0.1,0.1,0.1,0.2,0.2c0-0.1,0-0.1,0-0.2c0.2,0.1,0.3,0.2,0.4,0.4
		c-0.1-0.2-0.2-0.3-0.3-0.5c-0.1-0.1-0.2-0.3-0.3-0.3c0,0,0,0,0,0c0,0-0.1,0-0.1,0c-0.2,0-0.3,0-0.5,0.1c0,0,0,0,0.1,0
		c0.1,0,0.1,0.1,0.2,0.1C11.7,18.6,11.8,18.6,11.8,18.6z"/>
	<path class="st4" d="M34.9,40.1C34.9,40.1,34.9,40.1,34.9,40.1c0-0.1-0.1-0.1,0-0.2c0.4-0.4,0.6-0.7,1-1.1c1.2-1,2.3-2.1,3.3-3.3
		c-1,1.1-2.2,2-3.4,2.9c-0.5,0.2-0.7,0.7-1.1,1.1l-0.1,0.1c-0.1,0.1-0.2,0.4-0.1,0.6c0,0,0,0.1,0,0.1c0.1,0.3,0.2,0.7,0.3,1
		c0.3,1.3,0.7,2.5,1,3.7c0,0.2,0,0.4-0.2,0.5c0,0.1-0.1,0.1-0.1,0.1c-0.4,0.1-0.4,0.1-0.5-0.2c0,0,0,0-0.1-0.1c-0.2,0-0.2,0-0.3-0.3
		c0,0-0.1,0-0.1,0c-0.1,0-0.2,0-0.3,0c0,0-0.1,0-0.1,0c-0.4,0.1-0.7,0.2-1,0.5c-0.1,0.1-0.1,0.1-0.2,0.2c0,0,0,0,0,0V46
		c0,0.1,0,0.4-0.1,0.4c-0.2,0.1-0.5,0.1-0.7,0.1c-0.1,0-0.1-0.1-0.1-0.1c0-0.1-0.1-0.2-0.2-0.3c0,0-0.1,0-0.1,0c0,0-0.1,0-0.1-0.1
		c0,0,0,0,0-0.1c-0.1,0-0.2-0.1-0.3-0.1c-0.6,0-1.1,0.1-1.3,0.6c-0.1,0.1-0.1,0.1-0.2,0.1c-0.1,0-0.4,0-0.5,0
		c-0.2,0.1-0.5,0.1-0.5-0.2c0,0,0-0.1-0.1-0.1c-0.1,0-0.2-0.1-0.3-0.2c-0.4-0.2-0.8-0.2-1.3-0.1c-0.2,0-0.4,0.1-0.5,0.4
		c0,0.1-0.1,0.1-0.2,0.1h-0.1c-0.5,0-0.8-0.1-1-0.5c-0.2-0.1-0.4-0.3-0.5-0.6c-0.1-0.2-0.2-0.5-0.2-0.9c0.1,0,0.1,0,0.2,0
		c-0.2-1.2-0.2-2.4-0.1-3.6c0.1-1.2,0.4-2.3,0.7-3.4c0.5-1.5,1.5-2.6,2.7-3.4c0.2-0.2,0.4-0.3,0.6-0.4c0.1-0.1,0.1-0.1,0.2-0.2
		c0.9-0.5,1.7-0.9,2.7-1.2c0.1,0,0.2-0.1,0.4-0.1c0.1-0.1,0.2-0.4,0.1-0.5c0,0,0-0.1-0.1-0.1c-0.6,0.2-1.2,0.5-1.8,0.7
		c-0.7,0.2-1.5,0.6-2.1,1.1c-0.1,0-0.1,0.1-0.2,0c-0.1,0-0.1-0.1-0.2-0.1c0,0,0,0,0,0c-0.1,0.1-0.1,0.1-0.2,0
		c-0.7-0.5-1.5-1.1-2.1-1.8c-0.1-0.1-0.1-0.1,0-0.2c0.7-0.5,1.1-1.2,1.4-1.9c0,0,0,0,0,0.1c-0.4,0.7-0.7,1.3-1.5,1.7
		c-0.5,0.2-1.1,0.4-1.7,0.5c-1.2,0.1-2.3,0.1-3.6,0.1c-1,0-2.1-0.1-3.1-0.4c-0.2,0-0.3-0.1-0.5-0.1c0,0,0,0,0,0
		c-1.6-0.2-3.2-0.7-4.7-1.6c-1.5-0.7-2.8-1.8-4-3.1c-0.5-0.5-1-1.1-1.2-1.7c0,0,0,0,0-0.1c0.2,0,0.6,0,0.9,0h0.1
		c0.9,0,1.7-0.1,2.5-0.5c1.2-0.6,2-1.6,2.1-2.9c0.2-0.5,0.3-1,0.3-1.5c0-0.1-0.1-0.3-0.2-0.4c0,0,0-0.1,0-0.1
		c-0.2,0.3-0.4,0.6-0.7,0.8c-0.6,0.5-1.2,0.9-2,1c-0.5,0.1-1.1-0.1-1.6-0.2c-0.5-0.1-0.9-0.4-1.3-0.5c-1.5-0.4-2.6,0.4-2.9,1.8
		c-0.1,0.2-0.1,0.5-0.4,0.6c-0.2,0.2-0.4,0.2-0.6,0c-0.1,0-0.1-0.1-0.2-0.2c-0.5-0.4-0.8-1-1.1-1.8c0,0,0,0,0,0
		c-0.1-0.4-0.2-0.7-0.2-1.1c-0.1-1.2,0-2.6,0.2-3.8c0.1-0.7,0.2-1.5,0.5-2.2c0-1,0.6-1.6,1.3-2.1c0.3-0.2,0.7-0.5,1.1-0.7
		c0.5-0.3,1.1-0.6,1.7-0.8c0,0,0,0,0.1,0c2.3-0.9,4.7-1.3,7-1.8c0.2,0,0.4-0.1,0.7-0.1c1.2-0.3,2.4-0.5,3.6-0.6c0.1,0,0.3,0,0.4-0.1
		c0.9-0.1,1.8-0.2,2.7-0.2c0,0,0,0,0,0c0,0,0.1,0,0.1,0c0.5,0,0.9,0,1.3,0.1c0.6,0.1,1,0.4,1.5,0.9c0.6,0.6,1.1,1.2,1.6,2
		c-0.1,0,0,0,0,0.1c0,0,0.1,0.1,0.1,0.2c0,0,0,0,0,0c0.1,0,0.1,0,0.1,0c0.5,0.7,0.9,1.6,1.2,2.5c0.5,1.3,0.7,2.7,0.9,4.2
		c0.1,0.7,0.1,1.5,0.1,2.2c0,0.1,0,0.2,0.1,0.2c0,0,0.1-0.1,0.1-0.2c0.1-1.7,0-3.3-0.4-4.9c0-0.1,0-0.1,0-0.2c0,0,0.1,0,0.1,0.1
		c0,0,0-0.1,0-0.1v-0.1c0,0,0-0.1-0.1-0.1c-0.4-0.2-0.5-0.6-0.6-1c-0.4-1.3-1-2.6-1.8-3.8c-0.5-0.9-1.2-1.5-2-2.1
		c-0.2-0.2-0.7-0.2-1.1-0.4c-0.5-0.1-1-0.1-1.5-0.1c-0.1,0-0.1-0.1-0.1-0.2c0.1-0.4,0.1-0.6,0.2-0.9c0-0.1,0-0.1,0-0.1
		c0,0,0-0.1,0.1-0.1c0,0,0,0-0.1,0c0.2-1,1.5-1.6,2.5-1.2c0.7,0.2,1.5,0.7,2.1,1.2c1.5,1.3,2.5,2.9,3.3,4.7c0.2,0.6,0.5,1.2,0.7,1.8
		c0,0,0,0.1,0,0.1c0.1,0,0.1,0,0.1,0c-0.7-2.8-2-5.1-3.9-7.2c0,0,0.1,0,0.1,0c0.3,0,0.7,0,1,0c1.3,0,2.7-0.1,4-0.5
		c1-0.2,1.8-0.4,2.6-0.9c-0.1,0-0.1,0-0.2-0.1c-0.3-0.1-0.5-0.3-1.1-0.5c-0.1,0-0.2,0.1-0.3,0.1c0.1,0.1,0.3,0.1,0.4,0.1
		c-0.1-0.1,0-0.1,0.1,0c-0.6,0.2-1.3,0.5-2.1,0.6C27.5,3.9,25.7,4,23.9,4c-0.1,0-0.1,0-0.2-0.1c-0.6-0.4-1.1-0.6-1.8-0.6
		s-1.3,0.4-1.8,1c-0.6,0.6-0.9,1.3-0.9,2.2c0,0.1,0,0.2-0.2,0.2c-1.1,0.1-2.3,0.2-3.4,0.5c-2.6,0.4-5,1-7.5,1.7H7.8
		C7.9,8.8,8,8.7,8.1,8.6c-0.1,0-0.3,0.1-0.4,0.1c0,0,0,0-0.1,0s-0.1,0-0.1,0C7.1,8.8,6.8,8.9,6.4,9C6.2,9.1,5.9,9.2,5.6,9.3
		C5.3,9.4,5,9.5,4.7,9.7c-0.9,0.4-1.8,0.8-2.5,1.5c-0.7,0.5-1.3,1.2-1.5,2.1c-0.2,1.2-0.5,2.5-0.6,3.7C0,18.1,0,19.2,0.2,20.5
		c0.1,0.7,0.4,1.4,0.9,2.1c0.2,0.2,0.4,0.4,0.6,0.6c0.1,0.1,0.3,0.2,0.5,0.3c0.1,0,0.2,0,0.4,0h0.1c0.5-0.2,0.7-0.6,0.9-1.1
		c0-0.4,0.2-0.9,0.5-1.1c0.4-0.4,0.8-0.5,1.3-0.5c0.2,0,0.4,0,0.7,0.1c0.5,0.1,1.1,0.4,1.6,0.5c0.2,0,0.2,0.1,0.2,0.4
		c-0.1,0.7-0.4,1.3-1.1,1.8c-0.2,0.1-0.5,0.2-0.7,0.4c-0.4,0.1-0.6,0.4-0.6,0.7c0,0.4,0.1,0.6,0.2,0.9c1.2,1.8,2.8,3.3,4.7,4.4
		c1.8,1.1,3.9,1.7,6,2.1c0.1,0,0.2,0,0.5,0.1c-0.5,0.4-1.1,0.6-1.6,0.9c-0.7,0.4-1.6,0.6-2.3,0.7c-0.1,0-0.1,0-0.2,0c0,0,0,0,0,0
		c-0.1,0-0.4,0-0.5-0.1c-0.5-0.4-1.1-0.7-1.8-1c-0.1,0-0.1,0-0.2,0c-0.4,0-0.8,0.2-1,0.5c-0.4,0.5-0.6,1.1-0.7,1.7
		c0,0.4-0.2,0.5-0.5,0.7c0,0-0.1-0.1-0.1-0.1c-0.1,0-0.1,0.1-0.2,0.1c-0.1,0-0.1,0.1-0.2,0.1c-0.1,0-0.1,0.1-0.1,0.1
		c-0.3,0.2-0.5,0.4-0.8,0.7c-0.2,0.2-0.5,0.4-0.7,0.7C5.3,37.6,5,38,5,38.6c0,0.5,0,0.9,0.1,1.3c0.4,1.3,1.1,2.6,2.1,3.6
		c0.5,0.6,1.1,1.2,2,1.5c2.2,0.7,4.3,0.4,6.1-1c0.3-0.3,0.6-0.5,0.9-0.9c0.1-0.1,0.2-0.3,0.3-0.5c0-0.1,0-0.1,0.1-0.1
		c0.3,0,0.6,0,0.9-0.1c0.6,0,1.2-0.1,1.8-0.2c1.1-0.1,2.2-0.4,3.3-0.6c0.1,0,0.2-0.1,0.5-0.1c0,0,0,0.1,0,0.1c0,0,0,0,0,0
		c0.1,0,0.4-0.1,0.5-0.1c0,0.4,0,0.7,0,1.1c-0.2,0-0.3,0-0.5,0c0,0,0,0,0,0c0,0.2,0,0.5,0,0.7c0,0.3,0,0.7,0.1,1
		c0,0.2,0.1,0.4,0.1,0.6c0.2,0.7,0.5,1.3,1,1.8c0.1,0.2,0.4,0.4,0.6,0.4c0.2,0,0.6,0,0.9,0c0.1,0,0.2,0,0.2,0.1
		c0.1,0.4,0.2,0.6,0.5,0.9c0.4,0.4,1,0.4,1.2-0.1c0.1-0.1,0.2-0.4,0.2-0.6c0-0.1,0.1-0.1,0.2-0.1c0.2,0,0.6,0,0.9,0
		c0.1,0,0.2,0,0.2,0.1c0.1,0.2,0.2,0.5,0.5,0.7c0.5,0.5,1.2,0.4,1.5-0.4c0-0.1,0-0.5,0.1-0.6c0.2-0.1,0.5-0.1,0.7-0.1h0.1
		c0.1,0,0.1,0,0.2,0.1c0.2,0.2,0.5,0.5,0.7,0.6c0.5,0.2,1,0.1,1.2-0.4c0.1-0.2,0.1-0.4,0.1-0.6c0-0.1,0.1-0.1,0.1-0.2
		c0,0,0.1-0.1,0.1-0.1c0.5-0.2,0.9-0.4,1.2-0.7c0.2-0.2,0.4-0.4,0.2-0.7c-0.4-1.4-0.8-2.7-1.1-4C35.1,40.8,35,40.4,34.9,40.1z
		 M7.7,8.8C7.7,8.7,7.7,8.7,7.7,8.8C7.7,8.7,7.7,8.7,7.7,8.8C7.7,8.8,7.7,8.8,7.7,8.8C7.7,8.8,7.7,8.8,7.7,8.8z M9,22.2
		c0.1-0.1,0.3-0.1,0.4-0.2c0.1,0,0.2-0.1,0.2-0.1c0,0,0.1,0,0.1,0c0.1,0,0.2,0,0.4,0c0,0,0.1,0,0.1,0c0,0,0,0,0,0
		c0.1,0,0.2,0,0.1,0.1c0.1,0.1,0.1,0.1,0,0.3c-0.4,0.7-1,1.1-1.7,1.3c-0.4,0.1-0.7,0.1-1.1,0.1C7.9,23.1,8.3,22.6,9,22.2z
		 M23.5,40.3c0,0.2-0.1,0.2-0.2,0.2c-0.9,0.2-1.6,0.4-2.5,0.5c-1.2,0.2-2.5,0.4-3.7,0.4c-0.1,0-0.2,0-0.2-0.1c0,0-0.1-0.1-0.1-0.1
		c0,0,0,0,0,0c-0.1-0.9-0.5-1.6-1-2.3c-0.5-0.6-1-1.1-1.5-1.6c0,0-0.1-0.1-0.1-0.1c0.1,0.5,0.5,0.9,0.7,1.4c0.4,0.7,0.7,1.5,1,2.2
		c0.1,0.5,0.1,0.8,0.1,1.2c0,0.1,0,0.1-0.1,0.2c0,0,0,0,0,0.1c0,0.1-0.1,0.1-0.1,0.2c-0.1,0.3-0.3,0.5-0.6,0.7
		c-0.9,0.6-2,1.1-3.1,1.1c-1.2,0.1-2.2-0.1-3.2-0.9c-0.6-0.5-1.1-1-1.5-1.6v-0.1c0,0,0,0,0,0c0-0.1-0.1-0.1-0.1-0.2
		c0,0.1,0,0.1,0,0.2v0.1c-0.6-0.7-1-1.6-1.2-2.5c-0.1-0.7,0-1.3,0.5-1.8c0.5-0.6,1.1-1.2,1.7-1.7c0.1-0.1,0.2-0.2,0.4-0.3
		c0.1-0.1,0.1-0.2,0.1-0.3c0.1-0.7,0.2-1.3,0.7-1.8c0.1-0.1,0.2-0.2,0.3-0.3c0.2-0.1,0.4-0.2,0.7-0.1c0.6,0.2,1.2,0.6,1.7,1
		c0.2,0.2,0.5,0.2,0.9,0.2c0.9-0.1,1.6-0.4,2.5-0.7c0,0,0,0,0,0c0,0,0,0,0,0c0,0,0.1-0.1,0.1-0.1c0,0,0,0,0,0c0,0,0-0.1,0.1-0.1
		c0.4-0.2,0.7-0.4,1.1-0.6c0.4-0.2,0.7-0.5,1-0.8c0.2-0.1,0.6,0,0.9,0c0.5,0,1.1,0,1.6,0c0.4,0,0.7,0,1.1,0c1-0.1,2-0.1,2.8-0.5
		c0.1,0,0.2,0,0.2,0.1c0.2,0.4,0.6,0.7,1,1.1c0.2,0.4,0.6,0.6,1,0.9c0.1,0.1,0.2,0.2,0.2,0.2c0,0,0,0.1-0.2,0.2
		c-0.9,0.7-1.6,1.6-2,2.7c-0.4,0.9-0.6,1.8-0.9,2.8C23.6,39.7,23.5,40.1,23.5,40.3z M27.8,47.5c-0.1,0.4-0.2,0.4-0.5,0.1
		s-0.4-0.5-0.5-0.9c-0.1-0.5,0-0.7,0.5-0.7h0.1c0.5,0,0.5,0.1,0.5,0.6C27.9,46.9,27.9,47.3,27.8,47.5z M31.2,46.8c0,0.2,0,0.5,0,0.7
		c-0.1,0.2-0.2,0.4-0.5,0.1c-0.2-0.2-0.4-0.5-0.5-0.7c-0.2-0.5,0-0.9,0.6-0.9c0.2-0.1,0.4,0,0.4,0.2C31.2,46.6,31.2,46.7,31.2,46.8z
		 M34.3,46.1c0.1,0.1,0.1,0.4,0.1,0.6c0,0.2,0,0.5-0.1,0.6c-0.1,0.1-0.2,0.1-0.3,0c0,0,0,0,0,0c-0.1,0-0.1-0.1-0.2-0.1
		c-0.4-0.2-0.5-0.5-0.6-0.9c0-0.2,0-0.5,0.2-0.6C33.9,45.3,34.1,45.5,34.3,46.1z"/>
	<path class="st5" d="M3.8,22.3c-0.1,0.5-0.4,0.9-0.9,1.1C3,23.9,3,24.3,3,24.9c0.4,2.5,1.1,4.9,2.3,7.1c0.7,1.3,1.5,2.4,2.4,3.4
		c0,0,0.1,0.1,0.1,0.1c0.2-0.2,0.5-0.4,0.5-0.7c0.1-0.6,0.4-1.2,0.7-1.7c0.3-0.4,0.6-0.5,1-0.5c0.1,0,0.3,0,0.4,0
		c0.6,0.1,1.2,0.6,1.8,1c0.1,0.1,0.2,0.1,0.3,0.1c0.1,0,0.1,0,0.2,0c0.7-0.1,1.6-0.4,2.3-0.7c0.5-0.2,1.1-0.5,1.6-0.9
		C16.5,32,16.4,32,16.3,32c-2.1-0.4-4.2-1-6-2.1c-1.8-1.1-3.4-2.6-4.7-4.4c-0.1-0.2-0.2-0.5-0.2-0.9c0-0.4,0.2-0.6,0.6-0.7
		c0.2-0.1,0.5-0.2,0.7-0.4c0.7-0.5,1-1.1,1.1-1.8c0-0.2,0-0.4-0.2-0.4C7.1,21.2,6.5,21,6,20.8c-0.2-0.1-0.4-0.1-0.7-0.1
		c-0.4,0-0.7,0.2-1.1,0.5C4,21.6,3.9,21.9,3.8,22.3z"/>
	<path class="st3" d="M43.2,28.2c0,0.2-0.1,0.5-0.1,0.7c0,0.1-0.1,0.1-0.2,0.1c-0.1,0-0.2-0.1-0.2-0.1c0,0-0.1,0-0.1,0
		c-0.2-0.1-0.4-0.1-0.6-0.2c-0.4-0.2-0.8-0.3-1.3-0.5c-0.4-0.1-0.8-0.3-1.2-0.4c-1-0.4-2.1-0.9-3.1-1.3c-0.9-0.5-1.7-1-2.5-1.6
		c-0.4-0.4-0.6-0.7-0.9-1.2c-0.4-0.9-0.6-1.7-0.9-2.6c-0.6-1.8-1.5-3.7-2.6-5.3c-0.2-0.5-0.6-0.9-0.9-1.3c-0.4-0.5-0.5-1.1-0.7-1.6
		c-0.7-2-1.7-3.8-2.8-5.5c-0.6-0.9-1.2-1.6-2.1-2.2c-0.2-0.2-0.5-0.3-0.7-0.4c-0.2,0-0.3-0.1-0.5-0.1c-0.5,0-0.9,0.1-1.2,0.5
		c-0.1,0.1-0.2,0.2-0.4,0.2c0,0.1,0,0.1,0,0.1c-0.1,0.2-0.2,0.6-0.2,0.9c-0.1,0.2,0,0.2,0.1,0.2c0.5,0,1,0,1.5,0.1
		c0.4,0,0.7,0.1,1.1,0.4c0.7,0.6,1.3,1.3,2,2.1c0.9,1.1,1.5,2.5,1.8,3.8c0.1,0.4,0.2,0.7,0.6,1c0,0,0.1,0,0.1,0.1
		c0.5,0.6,0.9,1.2,1.2,2c1,2.2,1.6,4.5,2,6.9c0.2,0.7,0.4,1.5,0.7,2.1c0.7,1.1,1.6,1.8,2.6,2.6c2.2,1.5,4.5,2.3,7,2.9
		c0.5,0.1,1,0.2,1.5,0.2c0.2-0.4,0.4-0.7,0.7-1.2c0.1-0.5,0.4-1,0.5-1.5c-0.1,0-0.1,0-0.2,0C43.2,28.1,43.2,28.1,43.2,28.2
		C43.2,28.2,43.2,28.2,43.2,28.2z"/>
	<path class="st5" d="M19.9,1.8c-4.5,0.9-8.3,2.9-11.4,6.2C8.4,8.2,8.2,8.4,8.1,8.6C8,8.7,7.9,8.8,7.8,8.9h0.1
		c2.5-0.7,4.9-1.3,7.5-1.7c1.1-0.2,2.3-0.4,3.4-0.5c0.2,0,0.2-0.1,0.2-0.2c0-0.9,0.2-1.6,0.9-2.2c0.5-0.6,1.1-1,1.8-1
		s1.2,0.2,1.8,0.6C23.7,4,23.7,4,23.9,4c1.8,0,3.7-0.1,5.5-0.5c0.7-0.1,1.5-0.4,2.1-0.6c-0.1-0.1-0.2-0.1-0.1,0
		c-0.1-0.1-0.3-0.1-0.4-0.1C27.4,1.5,23.7,1.1,19.9,1.8z"/>
	<path class="st4" d="M32.9,19.4c-0.5-1.3-1.2-2.5-2-3.5c-0.1-0.1-0.2-0.3-0.3-0.4c-0.1-0.2-0.2-0.3-0.4-0.4
		c0.3,0.4,0.6,0.8,0.7,1.1c0.2,0.4,0.4,0.8,0.6,1.2c0.6,1.2,1.1,2.4,1.4,3.7c0.1,0.3,0.2,0.6,0.3,1c0,0,0,0,0,0
		c0.1,0.3,0.2,0.6,0.3,0.9c0,0.1,0.1,0.2,0.1,0.3c0.1,0.1,0.1,0.2,0.2,0.3c0.1,0.2,0.3,0.4,0.4,0.6c0.2,0.2,0.6,0.5,0.9,0.6
		c2.3,1.2,4.8,2.3,7.4,3.1c0.1,0,0.1,0.1,0.2,0.1c0,0.1,0,0.1,0,0.2c0,0,0.1,0.1,0.1,0.1c0.1-0.1,0.1,0,0.2,0c0,0,0,0,0,0
		c0,0,0,0,0-0.1c0,0,0,0,0,0s0,0,0,0c0,0,0,0,0,0.1c0,0,0-0.1,0-0.1c0.1-0.3,0.1-0.5,0.5-0.5c-1.1-0.4-2.2-0.6-3.2-1
		c-1.7-0.6-3.3-1.2-4.9-2.1c-0.1-0.1-0.4-0.2-0.5-0.4c-0.4-0.4-0.6-0.8-0.8-1.3c0-0.1-0.1-0.2-0.1-0.3
		C33.8,21.6,33.4,20.5,32.9,19.4z"/>
	<path class="st5" d="M23,42.6c0.2,0,0.3,0,0.5,0c0-0.4,0-0.7,0-1.1c-0.1,0-0.4,0.1-0.5,0.1c0,0,0,0,0,0c-1.1,0.2-2.2,0.5-3.3,0.6
		C20.8,42.4,21.8,42.5,23,42.6z"/>
	<path class="st5" d="M37.9,7.2C37.8,7.1,37.8,7,37.7,7c0,0,0,0,0,0C37.7,7.1,37.8,7.2,37.9,7.2z"/>
	<path class="st5" d="M38.3,7.6c0.1,0.1,0.2,0.2,0.2,0.2C38.6,7.7,38.4,7.6,38.3,7.6z"/>
	<path class="st6" d="M38,7.4C38,7.4,38.1,7.4,38,7.4"/>
	<path class="st6" d="M38.1,7.4C38.1,7.3,38.1,7.3,38.1,7.4"/>
	<path class="st6" d="M37.7,7C37.7,7,37.7,6.9,37.7,7"/>
	<path class="st6" d="M37.6,6.9C37.6,6.9,37.6,6.9,37.6,6.9"/>
	<path class="st7" d="M43.2,28.1C43.2,28.1,43.2,28.1,43.2,28.1C43.2,28.1,43.2,28.1,43.2,28.1"/>
	<path class="st6" d="M37.5,6.9C37.5,6.9,37.6,6.9,37.5,6.9"/>
	<line class="st6" x1="37.6" y1="6.9" x2="37.6" y2="6.9"/>
	<path class="st6" d="M7.7,8.8C7.7,8.8,7.7,8.8,7.7,8.8C7.7,8.7,7.7,8.7,7.7,8.8"/>
	<path class="st6" d="M38.8,8.1C38.8,8,38.8,8,38.8,8.1"/>
	<path class="st6" d="M38.7,8C38.8,8.1,38.8,8.1,38.7,8"/>
	<path class="st5" d="M38.7,8C38.7,7.8,38.6,7.8,38.7,8L38.7,8z"/>
	<path class="st6" d="M38.6,7.9C38.6,7.9,38.7,7.9,38.6,7.9"/>
	<path class="st6" d="M38.3,7.6C38.3,7.5,38.3,7.5,38.3,7.6"/>
	<path class="st6" d="M38.3,7.5C38.3,7.6,38.3,7.6,38.3,7.5"/>
	<path class="st6" d="M38.1,7.4C38.1,7.4,38.1,7.4,38.1,7.4C38.2,7.4,38.2,7.4,38.1,7.4"/>
	<path class="st8" d="M20.3,5c0.4-0.2,0.7-0.5,1.2-0.5c0.3,0,0.6,0.1,0.9,0.2c0.2,0.1,0.5,0.2,0.7,0.4c0.9,0.6,1.5,1.3,2.1,2.2
		c1.1,1.7,2.1,3.6,2.8,5.5c0.2,0.5,0.4,1.1,0.7,1.6c0.2,0.5,0.6,0.9,0.9,1.3c1.1,1.6,2,3.4,2.6,5.3c0.2,0.9,0.5,1.7,0.9,2.6
		c0.2,0.5,0.5,0.9,0.9,1.2c0.7,0.6,1.6,1.1,2.5,1.6c1,0.5,2.1,1,3.1,1.3c0.4,0.1,0.8,0.3,1.2,0.4c0.4,0.2,0.8,0.3,1.3,0.5
		c0.2,0.1,0.4,0.1,0.6,0.2c0,0,0.1,0.1,0.1,0c0.1,0,0.1-0.1,0.1-0.2c0-0.2,0.1-0.4,0.1-0.7c0-0.1,0-0.1,0-0.2
		c-0.1,0-0.1-0.1-0.2-0.1c-2.6-0.7-5-1.8-7.4-3.1c-0.2-0.1-0.6-0.4-0.9-0.6c-0.2-0.2-0.3-0.4-0.4-0.6c-0.1-0.1-0.1-0.2-0.2-0.3
		c0-0.1-0.1-0.2-0.1-0.3c0-0.1-0.1-0.1-0.1-0.2c-0.1-0.2-0.2-0.5-0.2-0.7c0,0,0,0,0,0c-0.1-0.4-0.2-0.8-0.4-1.2
		c-0.4-1.2-0.8-2.3-1.3-3.4c-0.2-0.4-0.4-0.8-0.6-1.2c-0.2-0.4-0.5-0.8-0.7-1.1c-0.1-0.1-0.2-0.2-0.2-0.3c0,0,0,0-0.1,0
		c0,0,0,0,0.1,0c-0.1-0.1-0.1-0.1-0.1-0.1c0,0-0.1,0-0.1,0s0,0,0.1,0c0,0-0.1-0.1-0.2-0.1v-0.1c-0.1,0-0.1-0.1-0.1-0.1
		c-0.2-0.6-0.6-1.2-0.9-2v-0.1c0-0.1,0-0.2-0.1-0.2c0,0,0-0.1,0-0.1c-0.2-0.6-0.5-1.2-0.7-1.8c-0.9-1.7-1.8-3.3-3.3-4.7
		c-0.6-0.5-1.3-1-2.1-1.2c-1-0.4-2.2,0.2-2.5,1.2c0,0,0,0,0.1,0C20.2,5.2,20.2,5.1,20.3,5z"/>
	<path class="st9" d="M28.8,12.1c0-0.1,0-0.2,0-0.2c0,0,0,0-0.1,0c-0.1,0-0.1,0-0.1,0c0,0.1,0,0.2,0.1,0.4V12.1z"/>
	<line class="st10" x1="28.8" y1="12.3" x2="28.8" y2="12.4"/>
	<path class="st11" d="M30,14.7C30,14.7,30,14.7,30,14.7"/>
	<path class="st11" d="M30,14.7C30,14.7,30,14.7,30,14.7"/>
	<path class="st11" d="M30,14.7C29.9,14.7,29.9,14.7,30,14.7"/>
	<path class="st11" d="M29.8,14.6C29.8,14.6,29.8,14.6,29.8,14.6"/>
	<path class="st11" d="M29.8,14.6C29.8,14.6,29.8,14.6,29.8,14.6"/>
	<path class="st9" d="M35.1,45.2c0.2-0.1,0.4-0.2,0.2-0.5c-0.3-1.1-0.6-2.2-0.9-3.2c-0.1-0.3-0.2-0.7-0.3-1
		c-0.1-0.2-0.1-0.4-0.2-0.6c-0.1-0.2-0.1-0.5,0.1-0.6l0.1-0.1c0.4-0.4,0.6-0.9,1.1-1.1c1.2-0.9,2.5-1.8,3.4-2.9
		c0.9-1,1.6-2.1,2.3-3.2c0-0.1,0.1-0.1,0.1-0.1c0.1-0.2,0.1-0.3-0.3-0.4c-2.1-0.5-4.3-1.2-6.2-2.3c-0.9-0.5-1.8-1.1-2.6-1.8
		c-0.3-0.2-0.5-0.5-0.8-0.8c-0.5-0.6-1-1.3-1.2-2.1c-0.2-0.6-0.4-1.3-0.5-2.1c-0.4-2.2-1-4.3-1.8-6.4c-0.2-0.5-0.4-1-0.7-1.5v-0.1
		c0,0,0,0,0,0c0-0.1-0.1-0.1-0.1-0.1c0,0.1,0,0.1,0,0.2c0.4,1.6,0.5,3.2,0.4,4.9c0,0.1,0,0.2-0.1,0.2c0,0,0,0-0.1,0
		c-0.1,0-0.1-0.1-0.1-0.2c0-0.7,0-1.5-0.1-2.2c-0.1-1.5-0.4-2.8-0.9-4.2c-0.4-0.9-0.7-1.7-1.2-2.5c0,0,0,0,0,0.1c0,0,0,0,0-0.1
		c-0.1,0.1-0.1,0-0.1,0c-0.2-0.1-0.4-0.2-0.6-0.4c-0.8-0.5-1.8-0.7-2.8-0.7c-0.7,0-1.5,0.1-2.3,0.1c-0.5,0-1,0.1-1.5,0.1
		c-0.6,0-1.2,0.1-1.8,0.1c-0.5,0-1,0.1-1.5,0.1c-0.6,0.1-1.3,0.1-2,0.2c-0.7,0.1-1.6,0.2-2.3,0.4c-0.2,0-0.3,0.1-0.5,0.1
		c-1.3,0.3-2.6,0.6-3.8,1c-0.2,0.1-0.3,0.1-0.5,0.2c-1.1,0.4-2.2,0.9-3.2,1.6c-0.1,0.1-0.1,0.2-0.2,0.2c0,0,0,0,0-0.1
		c0,0-0.1,0.1-0.1,0.1c-0.2,0.7-0.4,1.5-0.5,2.2c-0.2,1.2-0.4,2.6-0.2,3.8c0.1,0.4,0.1,0.7,0.2,1.1c0,0,0,0,0,0
		c0.4,0.2,0.8,0.1,1-0.2c0.1-0.1,0.1-0.1,0.2-0.2c0.2-0.4,0.5-0.7,0.8-0.8c0,0,0-0.1,0-0.1c-0.3-0.3-0.1-0.9,0.2-1.1
		c0,0,0.1,0,0.1-0.1c0.2,0.2,0.4,0.4,0.5,0.5C4,18.8,4.1,19,4.1,19.2c0.3-0.1,0.6-0.1,0.9-0.1c1,0,1.9,0.2,2.7,0.6
		C8.2,19.8,8.5,20,9,20c0.6,0,1.2,0,1.7-0.1c0.4-0.2,0.6-0.6,0.9-1c0.2-0.2,0.2-0.2,0.1-0.3c0,0-0.1-0.1-0.2-0.1c0,0,0,0-0.1,0
		c-0.2,0-0.4,0.1-0.7,0.1c0.2-0.4,0.7-0.5,1.1-0.2c0,0,0,0,0,0c0,0,0.1,0,0.1,0c0,0,0,0,0,0c0.1,0.1,0.2,0.2,0.3,0.3
		c0.1,0.2,0.2,0.3,0.3,0.5c0.2,0.4,0.4,0.9,0.5,1.4c-0.1-0.2-0.2-0.6-0.5-1c-0.1-0.2-0.2-0.4-0.4-0.6C12.2,19,12.1,19,12,18.9
		c-0.1,0-0.1-0.1-0.2-0.2c0,0.1,0,0.3,0,0.4c0,0,0,0.1,0,0.1c0.1,0.1,0.1,0.2,0.2,0.4c0-0.1,0-0.2,0-0.4c0.2,0.5,0.2,0.9,0.4,1.3
		c0.1,0.6,0.1,1.2-0.1,1.7c-0.2,1-1,1.5-1.8,1.8c-0.3,0.1-0.5,0.2-0.7,0.2c-0.2,0-0.3,0.1-0.5,0.1c-0.1,0-0.2,0-0.3,0
		c-0.1,0-0.1,0-0.2,0c0,0-0.1,0-0.1,0c-0.4,0-0.8,0-1.2,0c0,0-0.1,0-0.1,0H7.1c-0.2,0-0.6,0-0.9,0c0,0.1,0,0.1,0,0.1
		c0.2,0.6,0.7,1.2,1.2,1.7c1.2,1.2,2.6,2.3,4,3.1c1.5,0.9,3.1,1.3,4.7,1.6c0,0,0,0,0,0c1,0.2,2,0.4,3,0.4c1.2,0,2.3,0,3.6-0.1
		c0.6,0,1.1-0.2,1.7-0.5c0.7-0.4,1.1-1.1,1.5-1.7c0.5-0.9,0.7-1.8,0.7-2.9c0.1,0.1,0.1,0.1,0.1,0.2c0.1,0.6,0.1,1.3-0.1,2.1
		c-0.1,0.2-0.1,0.4-0.2,0.7c-0.3,0.7-0.7,1.4-1.4,1.9c-0.1,0.1-0.1,0.1,0,0.2c0.6,0.7,1.3,1.3,2.1,1.8c0.1,0.1,0.1,0.1,0.2,0
		c0,0,0,0,0,0c0.7-0.4,1.3-0.7,2-1.1c0.6-0.2,1.2-0.6,1.8-0.7c0.1,0,0.3,0,0.4,0.2c0,0,0.1,0.1,0.1,0.1c0.1,0.1,0,0.4-0.1,0.5
		c-0.1,0-0.2,0.1-0.4,0.1c-1,0.4-1.8,0.7-2.7,1.2c-0.1,0.1-0.1,0.1-0.2,0.2c0.1-0.1,0.2-0.1,0.3-0.2c0,0.1,0,0,0.1,0.1
		c-0.5,0.6-1,1.1-1.3,1.8c-0.7,1.1-1.2,2.3-1.5,3.7c-0.1,1-0.1,2,0.2,2.8c0.1,0.5,0.5,0.9,0.9,1.2c0.4,0.2,0.7,0.5,0.9,0.9
		c0,0.1,0.1,0.2,0,0.4c-0.1,0.1-0.1,0.2-0.4,0.2c-0.7,0-1.5,0-2.2,0c-0.2,0-0.5,0.1-0.9,0.1c0-0.1,0-0.1,0-0.2c-0.1,0-0.2,0-0.2,0
		c0,0.4,0.1,0.6,0.2,0.9c0.1,0.4,0.3,0.5,0.5,0.6c0.2,0.1,0.3,0.1,0.6,0.1h0.1c0.1,0,0.2,0,0.2-0.1c0.1-0.1,0.2-0.2,0.5-0.4
		c0.5-0.1,0.9-0.1,1.3,0.1c0.1,0.1,0.2,0.1,0.2,0.2c0,0,0,0.1,0,0.1c0,0.1,0.1,0.1,0.3,0.2c0.1,0,0.1,0,0.2,0c0.1,0,0.4,0,0.5,0
		c0.1,0,0.2,0,0.2-0.1c0.2-0.5,0.9-0.6,1.3-0.6c0.3,0,0.6,0.1,0.7,0.4c0,0,0,0,0,0.1c0,0.1,0.1,0.1,0.1,0.1c0,0,0.1,0,0.1,0
		c0.2-0.1,0.4-0.1,0.6-0.1c0.1,0,0.1-0.2,0.1-0.4v-0.1c0.4-0.5,1.1-0.9,1.6-0.7c0.2,0,0.4,0.1,0.5,0.4c0,0,0,0,0,0
		c0.1,0.2,0.1,0.3,0.3,0.3c0,0,0.1,0,0.2-0.1C35,45.2,35.1,45.2,35.1,45.2z M2.2,20C2.2,20,2.2,20,2.2,20c-0.1,0-0.1-0.1-0.2-0.1
		c-0.2,0-0.3-0.2-0.3-0.5c0-0.4,0-0.6,0.4-0.9c0.1,0,0.1,0,0.1-0.1c0.1,0,0.1,0.1,0.2,0.1c0.2,0.1,0.3,0.3,0.4,0.6
		C3,19.5,2.7,20,2.2,20z M9.9,12.1c0.7-0.6,1.7-0.7,2.3,0.2c0.4,0.5,0.5,1.2,0.5,1.8c-0.1-0.5-0.2-0.9-0.5-1.3
		c-0.1-0.1-0.2-0.4-0.4-0.5c-0.4-0.4-0.9-0.5-1.5-0.2c-0.1,0-0.2,0.1-0.4,0.1c0,0-0.1,0.1-0.1,0C9.8,12.3,9.9,12.1,9.9,12.1z
		 M11.4,14.9c-0.3-0.3-0.6-0.4-1-0.3c-0.1,0.1-0.2,0.1-0.2,0.3c-0.1,0.2-0.1,0.4-0.2,0.5c0,0-0.1,0-0.1,0.1c0,0,0,0,0,0.1
		c-0.1,0.1-0.2,0.1-0.4,0.1s-0.1-0.1-0.1-0.1c0.1-0.4,0.2-0.8,0.5-1.2c0.1-0.1,0.2-0.2,0.3-0.3c0.5-0.4,1-0.2,1.3,0.2
		c0.1,0.2,0.2,0.5,0.3,0.8c0.1,0.4,0.2,0.8,0.2,1.2C11.8,15.8,11.6,15.3,11.4,14.9z"/>
	<path class="st9" d="M24.5,36.6c0.4-1.1,1.1-2,2-2.7c0.1-0.1,0.2-0.2,0.2-0.2c0,0-0.1-0.1-0.2-0.1c-0.4-0.2-0.6-0.6-1-0.9
		s-0.7-0.7-1-1.1c-0.1-0.1-0.1-0.1-0.2-0.1c-1,0.4-1.8,0.4-2.8,0.5c-0.4,0-0.7,0-1.1,0c-0.5,0-1.1,0-1.6,0c-0.2,0-0.6-0.1-0.9,0
		c-0.3,0.2-0.6,0.5-1,0.7c-0.4,0.2-0.7,0.4-1.1,0.6c0,0,0,0,0,0.1c0,0,0,0,0-0.1c0,0,0,0.1-0.1,0.1c0,0,0,0,0.1,0
		c-0.1,0.2-0.2,0.3-0.3,0.4c-0.1,0.2-0.3,0.3-0.4,0.4c-0.7,0.5-1.5,0.7-2.3,0.9c-0.3,0.1-0.7,0.1-1,0.1c-0.3,0-0.6,0-0.9-0.1
		c-0.5,0-0.9,0.4-0.9,1c-0.1,0.2-0.1,0.4-0.4,0.6c-0.3,0.3-0.5,0.5-0.8,0.8c-0.2,0.3-0.4,0.5-0.6,0.8c-0.3,0.4-0.5,0.9-0.6,1.4
		c-0.2,0.7-0.2,1.3-0.1,2c0,0,0,0,0,0v0.1c0.4,0.6,0.9,1.1,1.5,1.6c1,0.7,2,1,3.2,0.9c1.1,0,2.2-0.5,3.1-1.1
		c0.3-0.2,0.5-0.5,0.6-0.7c0-0.1,0.1-0.1,0.1-0.2c0,0,0,0,0-0.1c0-0.1,0-0.1,0-0.2c0.1-0.3,0.1-0.6,0-1c-0.2-0.9-0.6-1.5-1-2.2
		c-0.2-0.5-0.6-1-0.7-1.5c0,0,0,0,0-0.1c0,0,0.1,0.1,0.1,0.1c0.5,0.5,1,1,1.5,1.6c0.5,0.7,0.9,1.5,1,2.3c0,0,0,0,0,0
		c0,0,0.1,0.1,0.1,0.1c0,0.1,0.1,0.1,0.2,0.1c1.2,0,2.5-0.1,3.7-0.4c0.9-0.1,1.6-0.2,2.5-0.5c0.1,0,0.2,0,0.2-0.2
		c0-0.2,0.1-0.6,0.1-0.9C23.9,38.5,24.1,37.5,24.5,36.6z"/>
	<path class="st3" d="M5.8,10c-0.1,0-0.2,0.1-0.2,0.1C5,10.4,4.5,10.7,3.9,11c-0.3,0.2-0.6,0.3-0.9,0.5c-0.6,0.5-1.2,1.1-1.3,2
		c0,0,0,0,0,0.1c0.1,0,0.1-0.1,0.2-0.2c1-0.7,2.1-1.2,3.2-1.6c0.2-0.1,0.3-0.1,0.5-0.2c1.3-0.5,2.6-0.8,3.8-1c0.2,0,0.3-0.1,0.5-0.1
		c0.7-0.1,1.6-0.2,2.3-0.4c0.6-0.1,1.3-0.1,2-0.2c0.5,0,1-0.1,1.5-0.1c0.6,0,1.2-0.1,1.8-0.1c0.5,0,1-0.1,1.5-0.1
		c0.7,0,1.5-0.1,2.3-0.1c0,0,0,0,0.1,0c1,0,2,0.2,2.8,0.7c0.2,0.1,0.4,0.2,0.6,0.4l0,0c0,0,0,0,0,0c0-0.1,0-0.2-0.1-0.2
		c-0.1-0.1-0.1-0.1,0-0.1c-0.5-0.7-1-1.3-1.6-2c-0.5-0.5-0.9-0.7-1.5-0.9c-0.5-0.1-0.9-0.1-1.3-0.1c0,0-0.1,0-0.1,0
		c-0.8,0-1.8,0.1-2.6,0.2c-0.2,0-0.3,0-0.5,0.1c-1.2,0.1-2.4,0.3-3.6,0.6c-0.2,0-0.4,0.1-0.5,0.1C10.4,8.7,8,9.2,5.8,10z"/>
	<path class="st3" d="M25.4,44.5c0.7,0,1.5,0,2.2,0c0.2,0,0.2-0.1,0.4-0.2c0.1-0.1,0-0.2,0-0.4c-0.1-0.4-0.5-0.6-0.9-0.9
		c-0.4-0.4-0.7-0.7-0.9-1.2c-0.4-0.9-0.4-1.8-0.2-2.8c0.2-1.3,0.7-2.6,1.5-3.7c0.4-0.7,0.9-1.2,1.3-1.8c-0.1-0.1-0.1,0-0.1-0.1
		c-0.1,0.1-0.2,0.1-0.3,0.2c-0.2,0.1-0.4,0.2-0.6,0.4c-1.2,0.9-2.2,2-2.7,3.4c-0.4,1.1-0.6,2.2-0.7,3.4c-0.1,1.3-0.1,2.5,0.1,3.6
		c0,0.1,0,0.1,0,0.2C25,44.6,25.2,44.5,25.4,44.5z"/>
	<path class="st3" d="M8.1,38.2c0.2-0.3,0.4-0.6,0.6-0.8c0.2-0.3,0.5-0.5,0.7-0.7c0.2-0.1,0.4-0.4,0.4-0.6c0-0.6,0.5-1.1,1-1
		c0,0,0.1,0,0.1,0c0.3,0.1,0.6,0.1,0.9,0.1c0.3,0,0.6,0,0.9-0.1c0.9-0.1,1.6-0.4,2.3-0.9c0.2-0.1,0.4-0.3,0.5-0.4
		c0.1-0.1,0.2-0.3,0.3-0.4c0,0-0.1,0-0.1,0c0,0,0,0,0,0c0,0-0.1,0-0.1,0.1c0,0,0,0,0,0c0,0-0.1,0.1-0.1,0.1
		c-0.7,0.4-1.6,0.6-2.5,0.7c-0.4,0-0.6,0-0.9-0.2c-0.5-0.5-1.1-0.7-1.7-1c-0.2-0.1-0.4-0.1-0.6,0c-0.1,0-0.2,0.1-0.3,0.3
		c-0.5,0.5-0.6,1.1-0.7,1.8c0,0.1,0,0.2-0.1,0.3c0,0,0,0,0,0c-0.1,0.1-0.2,0.2-0.3,0.3c-0.6,0.5-1.2,1.1-1.7,1.7
		C6.1,38,6,38.6,6.1,39.3c0.2,0.9,0.6,1.7,1.2,2.5v-0.1c0-0.1,0-0.1,0-0.2c0-0.7,0-1.2,0.1-1.8C7.6,39.2,7.8,38.7,8.1,38.2z"/>
	<path class="st3" d="M2.8,22.5C3,22.4,3,22.2,3.1,21.9c0.5-1.5,1.6-2.2,2.9-1.8c0.5,0.1,0.9,0.4,1.3,0.5C7.9,20.7,8.5,21,9,20.8
		c0.7-0.1,1.3-0.5,2-1C10.4,20,9.6,20,9,20c0,0,0,0,0,0c-0.5,0-0.8-0.1-1.2-0.2c-0.9-0.4-1.8-0.6-2.7-0.6c-0.3,0-0.5,0-0.8,0.1
		c0,0-0.1,0.1-0.1,0.1c0,0,0,0,0,0c-0.2,0.4-0.5,0.5-0.9,0.4c0,0,0,0,0,0c-0.3,0.2-0.5,0.5-0.7,0.8c-0.1,0.2-0.3,0.3-0.4,0.4
		c-0.3,0.1-0.6,0.1-0.8,0c-0.1,0-0.1-0.1-0.2-0.1c0,0,0,0,0,0c0,0,0,0,0,0c0.2,0.8,0.6,1.4,1.1,1.8c0,0,0,0,0,0
		C2.4,22.7,2.5,22.7,2.8,22.5z"/>
	<path class="st3" d="M8.5,24.5c0,0,0.1,0,0.1,0c0.1,0,0.1,0,0.2,0c0.2,0,0.3-0.1,0.5-0.1c0.1,0,0.2,0,0.3-0.1
		c0.2,0,0.5-0.1,0.7-0.2c0.9-0.4,1.6-0.9,1.8-1.8c0.2-0.5,0.2-1.1,0.1-1.7c-0.1-0.5-0.1-0.9-0.4-1.3c0,0.1,0,0.2,0,0.4
		c0,0.5-0.1,1-0.3,1.5c-0.1,1.3-0.9,2.3-2.1,2.9c-0.7,0.4-1.6,0.5-2.5,0.5c0,0,0.1,0,0.1,0C7.7,24.5,8.1,24.5,8.5,24.5z"/>
	<path class="st8" d="M10.3,22.3c0.1-0.1,0.1-0.2,0.2-0.3c0-0.1,0-0.1-0.1-0.1c0,0-0.1,0-0.1,0c-0.1,0-0.3,0-0.4,0c0,0-0.1,0-0.1,0
		C9.5,22,9.5,22,9.4,22c-0.1,0.1-0.3,0.1-0.4,0.2c-0.6,0.4-1,0.9-1.4,1.6c0.4,0,0.7-0.1,1-0.1C9.3,23.4,9.9,23,10.3,22.3z"/>
	<path class="st3" d="M27,14.2C27,14.2,27,14.2,27,14.2c0-0.1-0.1-0.1-0.1-0.2c0,0,0,0,0,0.1C26.9,14.2,27,14.2,27,14.2z"/>
	<path class="st7" d="M24.7,10.5C24.7,10.6,24.7,10.6,24.7,10.5"/>
	<path class="st7" d="M27.2,14.4C27.2,14.4,27.2,14.4,27.2,14.4"/>
	<path class="st12" d="M20.1,5.4C20.1,5.4,20.1,5.4,20.1,5.4C20.1,5.5,20.1,5.5,20.1,5.4"/>
	<path class="st7" d="M26.8,14C26.8,14,26.9,14,26.8,14C26.9,14,26.9,14,26.8,14"/>
	<path class="st7" d="M15.8,33.2C15.8,33.2,15.8,33.2,15.8,33.2"/>
	<path class="st7" d="M27.1,14.3C27.1,14.3,27.1,14.3,27.1,14.3"/>
	<path class="st7" d="M27.2,14.3C27.1,14.3,27.1,14.3,27.2,14.3"/>
	<path class="st7" d="M27.2,14.3C27.2,14.3,27.1,14.3,27.2,14.3"/>
	<path class="st4" d="M11.8,15.1c-0.1-0.3-0.2-0.6-0.4-0.7C11,14,10.5,13.8,10,14.2c-0.1,0.1-0.1,0.1-0.2,0.2
		c-0.3,0.3-0.4,0.8-0.5,1.2c0,0,0,0.1,0.1,0.1s0.2,0,0.4-0.1c0,0,0,0,0-0.1c0.1-0.2,0.1-0.3,0.2-0.4c0.1-0.2,0.2-0.3,0.4-0.4
		c0.3-0.2,0.7-0.1,1,0.3c0.2,0.4,0.5,0.9,0.6,1.3C12,16,11.9,15.5,11.8,15.1z"/>
	<path class="st4" d="M10,12.3c0.1,0,0.2-0.1,0.4-0.1c0.6-0.2,1.1-0.1,1.5,0.2c0.1,0.1,0.2,0.2,0.4,0.5c0.2,0.5,0.4,0.9,0.5,1.3
		c0-0.6-0.1-1.3-0.5-1.8c-0.6-1-1.6-0.9-2.3-0.2v0.1H10z"/>
	<path class="st4" d="M2.2,19.8c0.4-0.1,0.6-0.5,0.5-0.8c-0.1-0.2-0.2-0.3-0.3-0.4c-0.1-0.1-0.1-0.1-0.2-0.2c0,0.1,0,0.1-0.1,0.1
		c-0.4,0.2-0.4,0.5-0.4,0.9c0,0.2,0.1,0.5,0.3,0.5c0,0,0,0,0,0C2.1,19.9,2.1,19.8,2.2,19.8z"/>
	<path class="st4" d="M3.3,19.7c0.4,0.1,0.6,0,0.9-0.4c0,0,0,0,0,0c0,0,0-0.1,0-0.1c0-0.2-0.1-0.4-0.2-0.5c-0.1-0.1-0.2-0.2-0.4-0.3
		c0,0,0,0.1-0.1,0.1c-0.3,0.2-0.4,0.6-0.3,0.9c0,0,0,0.1,0,0.1C3.1,19.6,3.2,19.6,3.3,19.7C3.2,19.7,3.3,19.7,3.3,19.7z"/>
	<path class="st11" d="M3.6,18.4C3.6,18.4,3.6,18.4,3.6,18.4C3.6,18.3,3.5,18.3,3.6,18.4"/>
</g>
<g>
	<path class="st13" d="M122.8,19.2c-0.4-4.1-3.8-7.6-8.1-7.8c-1.9-0.1-3.7,0.1-5.5,0.7c-0.8-0.4-1.6-0.8-2.5-1.2
		c0,8.9,0,17.7,0,26.6c1.1,0,2.2,0.1,3.3-0.1c0-2.8,0-5.6,0-8.5c0.8,0.2,1.5,0.4,2.1,0.5c3.4,0.5,6.4-0.4,8.7-3.1
		C122.5,24.3,123.1,21.9,122.8,19.2z M116.2,26c-1.7,0.8-4.4,0.8-6.1-0.4c0-3.4,0-6.9,0-10.5c2.6-0.9,5.1-1.1,7.3,0.8
		C120.3,18.4,120.1,24.3,116.2,26z"/>
	<path class="st13" d="M102.3,15.9c0-2.2-1.6-3.8-3.4-4.3c-1.7-0.5-3.4-0.4-5.1-0.1c-1.5,0.2-2.9,0.7-4.2,1.6
		c0.5,0.9,0.8,1.8,1.4,2.6c0.3-0.2,0.6-0.3,0.8-0.5c1.5-0.8,3-1.2,4.7-1.1c1.2,0,2.1,0.7,2.4,1.6c0.2,0.7,0.2,1.4,0.1,2.3
		c-0.4,0-0.7,0-1,0c-1.3,0-2.6,0.1-3.9,0.4c-3.1,0.8-5.3,2.8-4.9,6.3c0.2,2.2,2.2,4.4,4.4,4.8c1.4,0.3,2.7,0,4.1-0.2
		c1.3-0.2,2.6-0.3,3.8,0.3c0.2,0.1,0.5,0.3,0.8,0.1c0-0.1,0.1-0.2,0.1-0.3C102.3,24.9,102.3,20.4,102.3,15.9z M98.9,26.1
		c-1.4,0.5-2.8,0.7-4.2,0.6C93.7,26.7,93,26,92.7,25c-0.3-1.1-0.2-2.2,0.7-3c0.9-0.8,2-1.1,3.2-1.2c0.7,0,1.5,0,2.4,0
		C99.2,22.5,98.9,24.3,98.9,26.1z"/>
	<path class="st13" d="M85.6,17.3c-0.1-1.3-0.5-2.6-1.4-3.6c-1.5-1.9-3.6-2.4-5.9-2.4c-1.8,0-3.6,0.3-5.2,1.1
		c-0.9-0.3-1.6-0.9-2.5-1.2c0,6,0,12,0,17.9c1.1,0,2.2,0,3.3,0c0-4.7,0-9.3,0-13.8c1.5-0.9,3-1,4.5-1c1.3,0,2.4,0.5,3.1,1.7
		c0.5,0.8,0.8,1.6,0.8,2.6c0,3.2,0,6.3,0,9.5c0,0.3-0.1,0.7,0.1,1.1c1,0.1,2.1,0,3.2,0C85.6,25.2,85.8,21.3,85.6,17.3z"/>
	<path class="st13" d="M64.9,20.2c-1.1-0.6-2.4-0.9-3.6-1.2c-1.1-0.3-2.3-0.5-3.4-0.9c-1.5-0.7-1.6-2-0.3-2.9
		c1.1-0.8,2.3-0.9,3.6-0.7c1.3,0.1,2.5,0.5,3.7,1.2c0.5-0.9,1-1.7,1.4-2.5c-0.1-0.3-0.3-0.3-0.5-0.4c-1.5-0.8-3.2-1.2-4.9-1.3
		c-2.3-0.1-4.4,0.5-6.2,2.1c-2,1.8-2.2,5.1,0.7,6.8c1.1,0.6,2.3,1,3.5,1.3c1.3,0.3,2.6,0.5,3.8,1c1.3,0.6,1.6,1.6,0.7,2.8
		c-0.3,0.3-0.6,0.5-1,0.7c-1.2,0.6-2.4,0.6-3.7,0.4c-1.4-0.2-2.8-0.9-4.2-1.4c-0.4,0.9-0.8,1.7-1.2,2.6c2.5,1.4,5.1,2.1,7.9,1.8
		c1.7-0.2,3.3-0.8,4.6-2C67.7,25.7,68,21.8,64.9,20.2z"/>
</g>
</svg>
