<?xml version="1.0" encoding="utf-8"?>
<!-- Generator: Adobe Illustrator 20.1.0, SVG Export Plug-In . SVG Version: 6.00 Build 0)  -->
<svg version="1.1" id="Layer_1" xmlns="http://www.w3.org/2000/svg" xmlns:xlink="http://www.w3.org/1999/xlink" x="0px" y="0px"
	 width="250px" height="250px" viewBox="0 0 250 250" style="enable-background:new 0 0 250 250;" xml:space="preserve">
<style type="text/css">
	.st0{fill:none;}
	.st1{fill:#FFFFFF;}
</style>
<g>
	<path class="st0" d="M126.3,139.9h-2.5c-2,0.6-3.4,2.4-3.4,4.5c0,2.6,2.1,4.7,4.7,4.7c2.6,0,4.7-2.1,4.7-4.7
		C129.7,142.2,128.2,140.4,126.3,139.9z"/>
	<path class="st0" d="M125,59c-46.8,0-84.9,38.1-84.9,84.9c0,46.8,38.1,84.9,84.9,84.9s84.9-38.1,84.9-84.9
		C209.9,97.1,171.8,59,125,59z M192.6,104.2c0.4-0.3,1-0.1,1.2,0.3c0.3,0.4,0.1,1-0.3,1.2l-8.2,4.7c-0.3-0.5-0.6-1.1-0.9-1.6
		L192.6,104.2z M124,65.7c0-0.5,0.4-0.9,0.9-0.9c0.5,0,0.9,0.4,0.9,0.9v9.3c-0.3,0-0.5,0-0.8,0c-0.3,0-0.7,0-1,0V65.7z M85.1,75.4
		c0.4-0.3,1-0.1,1.2,0.3l4.7,8.1c-0.5,0.3-1.1,0.6-1.6,0.9l-4.7-8.1C84.5,76.2,84.7,75.7,85.1,75.4z M56,104.6
		c0.3-0.4,0.8-0.6,1.2-0.3l8.3,4.8c-0.3,0.5-0.6,1.1-0.9,1.6l-8.3-4.8C55.9,105.6,55.7,105,56,104.6z M45.3,144.4
		c0-0.5,0.4-0.9,0.9-0.9H56c0,0.1,0,0.3,0,0.4c0,0.5,0,0.9,0,1.4h-9.9C45.7,145.3,45.3,144.9,45.3,144.4z M57.2,184.5
		c-0.1,0.1-0.3,0.1-0.5,0.1c-0.3,0-0.6-0.2-0.8-0.5c-0.3-0.4-0.1-1,0.3-1.2l8.7-5c0.3,0.5,0.6,1.1,0.9,1.6L57.2,184.5z M86.3,213
		c-0.2,0.3-0.5,0.5-0.8,0.5c-0.2,0-0.3,0-0.5-0.1c-0.4-0.3-0.6-0.8-0.3-1.2l5.1-8.8c0.5,0.3,1.1,0.6,1.6,0.9L86.3,213z M125.8,223.1
		c0,0.5-0.4,0.9-0.9,0.9c-0.5,0-0.9-0.4-0.9-0.9v-10.2c0.3,0,0.7,0,1,0c0.3,0,0.5,0,0.8,0V223.1z M125,154.6
		c-5.6,0-10.2-4.6-10.2-10.2c0-3.9,2.2-7.4,5.5-9l1.7-51.1l3.1-3.7l3.1,3.7l1.7,51.2c3.2,1.7,5.3,5.1,5.3,8.9
		C135.2,150,130.6,154.6,125,154.6z M164.7,213.3c-0.1,0.1-0.3,0.1-0.5,0.1c-0.3,0-0.6-0.2-0.8-0.5l-5.1-8.7
		c0.5-0.3,1.1-0.6,1.6-0.9l5,8.7C165.3,212.5,165.1,213.1,164.7,213.3z M165,76.7l-4.6,8c-0.5-0.3-1.1-0.6-1.6-0.9l4.6-8
		c0.3-0.4,0.8-0.6,1.2-0.3C165.1,75.7,165.3,76.2,165,76.7z M193.9,184.2c-0.2,0.3-0.5,0.5-0.8,0.5c-0.2,0-0.3,0-0.5-0.1l-8.6-4.9
		c0.3-0.5,0.6-1.1,0.9-1.6l8.6,4.9C194,183.2,194.1,183.7,193.9,184.2z M203.6,145.3h-9.7c0-0.5,0-0.9,0-1.4c0-0.1,0-0.3,0-0.4h9.6
		c0.5,0,0.9,0.4,0.9,0.9S204.1,145.3,203.6,145.3z"/>
	<path class="st1" d="M135.5,39.4v-9.5h4.8c2.7,0,4.9-2.2,4.9-4.9V6c0-2.7-2.2-4.9-4.9-4.9h-30.8c-2.7,0-4.9,2.2-4.9,4.9V25
		c0,2.7,2.2,4.9,4.9,4.9h5.5v9.5c-21.1,2-40.4,10.3-56,22.9l-5-5l0.5-0.5c1.9-1.9,1.9-5,0-7l-4.9-4.9c-1-1-2.2-1.4-3.5-1.4
		c-1.3,0-2.5,0.5-3.5,1.4l-9.8,9.8c-1.9,1.9-1.9,5,0,7l4.9,4.9c1,1,2.2,1.4,3.5,1.4c1.3,0,2.5-0.5,3.5-1.4l4.9-4.9l-4.2,4.2l4.6,4.6
		C31.5,89.3,20,115.2,20,143.9c0,58,47,105,105,105c58,0,105-47,105-105C230,89.4,188.6,44.7,135.5,39.4z M125,228.8
		c-46.8,0-84.9-38.1-84.9-84.9C40.1,97.1,78.2,59,125,59s84.9,38.1,84.9,84.9C209.9,190.7,171.8,228.8,125,228.8z"/>
	<path class="st1" d="M125.8,74.9v-9.3c0-0.5-0.4-0.9-0.9-0.9c-0.5,0-0.9,0.4-0.9,0.9v9.3c0.3,0,0.7,0,1,0
		C125.3,74.9,125.5,74.9,125.8,74.9z"/>
	<path class="st1" d="M124,212.8v10.2c0,0.5,0.4,0.9,0.9,0.9c0.5,0,0.9-0.4,0.9-0.9v-10.2c-0.3,0-0.5,0-0.8,0
		C124.7,212.9,124.3,212.8,124,212.8z"/>
	<path class="st1" d="M160,203.3c-0.5,0.3-1.1,0.6-1.6,0.9l5.1,8.7c0.2,0.3,0.5,0.5,0.8,0.5c0.2,0,0.3,0,0.5-0.1
		c0.4-0.3,0.6-0.8,0.3-1.2L160,203.3z"/>
	<path class="st1" d="M89.4,84.8c0.5-0.3,1.1-0.6,1.6-0.9l-4.7-8.1c-0.3-0.4-0.8-0.6-1.2-0.3c-0.4,0.3-0.6,0.8-0.3,1.2L89.4,84.8z"
		/>
	<path class="st1" d="M56.3,105.8l8.3,4.8c0.3-0.5,0.6-1.1,0.9-1.6l-8.3-4.8c-0.4-0.3-1-0.1-1.2,0.3C55.7,105,55.9,105.6,56.3,105.8
		z"/>
	<path class="st1" d="M193.5,182.9L185,178c-0.3,0.5-0.6,1.1-0.9,1.6l8.6,4.9c0.1,0.1,0.3,0.1,0.5,0.1c0.3,0,0.6-0.2,0.8-0.5
		C194.1,183.7,194,183.2,193.5,182.9z"/>
	<path class="st1" d="M56,143.9c0-0.1,0-0.3,0-0.4h-9.8c-0.5,0-0.9,0.4-0.9,0.9s0.4,0.9,0.9,0.9h9.9C56.1,144.8,56,144.4,56,143.9z"
		/>
	<path class="st1" d="M203.6,143.5H194c0,0.1,0,0.3,0,0.4c0,0.5,0,0.9,0,1.4h9.7c0.5,0,0.9-0.4,0.9-0.9S204.1,143.5,203.6,143.5z"/>
	<path class="st1" d="M56.3,182.9c-0.4,0.3-0.6,0.8-0.3,1.2c0.2,0.3,0.5,0.5,0.8,0.5c0.2,0,0.3,0,0.5-0.1l8.7-5
		c-0.3-0.5-0.6-1.1-0.9-1.6L56.3,182.9z"/>
	<path class="st1" d="M193.5,105.8c0.4-0.3,0.6-0.8,0.3-1.2c-0.3-0.4-0.8-0.6-1.2-0.3l-8.1,4.7c0.3,0.5,0.6,1.1,0.9,1.6L193.5,105.8
		z"/>
	<path class="st1" d="M84.8,212.1c-0.3,0.4-0.1,1,0.3,1.2c0.1,0.1,0.3,0.1,0.5,0.1c0.3,0,0.6-0.2,0.8-0.5l5.1-8.8
		c-0.5-0.3-1.1-0.6-1.6-0.9L84.8,212.1z"/>
	<path class="st1" d="M164.7,75.4c-0.4-0.3-1-0.1-1.2,0.3l-4.6,8c0.5,0.3,1.1,0.6,1.6,0.9l4.6-8C165.3,76.2,165.1,75.7,164.7,75.4z"
		/>
	<path class="st1" d="M129.9,135.4l-1.7-51.2l-3.1-3.7l-3.1,3.7l-1.7,51.1c-3.3,1.7-5.5,5.1-5.5,9c0,5.6,4.6,10.2,10.2,10.2
		c5.6,0,10.2-4.6,10.2-10.2C135.2,140.5,133,137.2,129.9,135.4z M125,149.1c-2.6,0-4.7-2.1-4.7-4.7c0-2.1,1.5-3.9,3.4-4.5h2.5
		c2,0.6,3.4,2.4,3.4,4.5C129.7,147,127.6,149.1,125,149.1z"/>
</g>
</svg>
