<?xml version="1.0" encoding="utf-8"?>
<!-- Generator: Adobe Illustrator 20.1.0, SVG Export Plug-In . SVG Version: 6.00 Build 0)  -->
<svg version="1.1" id="Layer_1" xmlns="http://www.w3.org/2000/svg" xmlns:xlink="http://www.w3.org/1999/xlink" x="0px" y="0px"
	 width="200px" height="48.4px" viewBox="0 0 200 48.4" style="enable-background:new 0 0 200 48.4;" xml:space="preserve">
<style type="text/css">
	.st0{fill:#FFFFFF;}
	.st1{fill:url(#SVGID_1_);}
	.st2{fill:url(#SVGID_2_);}
	.st3{fill:url(#SVGID_3_);}
	.st4{fill:url(#SVGID_4_);}
</style>
<g>
	<g>
		<path class="st0" d="M37.8,30.7l7.2,3c-2.3,5-6.3,9-11.3,11.3l-3-7.2C33.8,36.3,36.3,33.8,37.8,30.7 M37.4,29.8
			c-1.4,3.3-4,6.1-7.6,7.6l3.5,8.4c5.9-2.5,10.2-7.1,12.5-12.5L37.4,29.8L37.4,29.8z"/>
	</g>
	<g>
		<linearGradient id="SVGID_1_" gradientUnits="userSpaceOnUse" x1="42.5782" y1="0.766" x2="42.5782" y2="47.7507">
			<stop  offset="0" style="stop-color:#FFF200"/>
			<stop  offset="1" style="stop-color:#F15A29"/>
		</linearGradient>
		<path class="st1" d="M37.5,29.6l8.4,3.5c2.2-5.5,2.4-11.8,0-17.7l-8.4,3.5C39,22.4,38.8,26.3,37.5,29.6z"/>
	</g>
	<g>
		<linearGradient id="SVGID_2_" gradientUnits="userSpaceOnUse" x1="24.2259" y1="0.766" x2="24.2259" y2="47.7507">
			<stop  offset="0" style="stop-color:#FFF200"/>
			<stop  offset="1" style="stop-color:#F15A29"/>
		</linearGradient>
		<path class="st2" d="M24.2,38.6c-1.9,0-3.7-0.4-5.4-1l-3.5,8.4c2.8,1.1,5.8,1.8,8.9,1.8c3,0,6-0.6,8.9-1.7l-3.5-8.4
			C27.9,38.2,26.1,38.6,24.2,38.6z"/>
	</g>
	<g>
		<path class="st0" d="M14.8,3.5l3,7.2c-3.1,1.5-5.6,4-7.1,7.1l-7.2-3C5.8,9.8,9.8,5.8,14.8,3.5 M15.2,2.6C9.3,5.1,4.9,9.7,2.6,15.2
			l8.4,3.5c1.5-3.5,4.2-6.1,7.6-7.6L15.2,2.6L15.2,2.6z"/>
	</g>
	<g>
		<path class="st0" d="M10.7,30.7c1.5,3.1,4,5.6,7.1,7.1l-3,7.2c-5-2.3-9-6.3-11.3-11.3L10.7,30.7 M11,29.8l-8.4,3.5
			c2.5,5.9,7.1,10.2,12.5,12.5l3.5-8.4C15.3,36,12.5,33.3,11,29.8L11,29.8z"/>
	</g>
	<g>
		<path class="st0" d="M33.7,3.5c5,2.3,9,6.3,11.3,11.3l-7.2,3c-1.5-3.1-4-5.6-7.1-7.1L33.7,3.5 M33.3,2.6L29.8,11
			c3.4,1.4,6.1,4.1,7.6,7.6l8.4-3.5C43.4,9.3,38.8,4.9,33.3,2.6L33.3,2.6z"/>
	</g>
	<g>
		<linearGradient id="SVGID_3_" gradientUnits="userSpaceOnUse" x1="24.225" y1="0.766" x2="24.225" y2="47.7507">
			<stop  offset="0" style="stop-color:#FFF200"/>
			<stop  offset="1" style="stop-color:#F15A29"/>
		</linearGradient>
		<path class="st3" d="M24.2,9.9L24.2,9.9L24.2,9.9c1.9,0,3.7,0.4,5.4,1l3.5-8.4c-2.8-1.1-5.8-1.8-8.9-1.8c-3,0-6,0.6-8.9,1.7
			l3.5,8.4C20.6,10.3,22.4,9.9,24.2,9.9z"/>
	</g>
	<g>
		<linearGradient id="SVGID_4_" gradientUnits="userSpaceOnUse" x1="5.8697" y1="0.766" x2="5.8697" y2="47.7507">
			<stop  offset="0" style="stop-color:#FFF200"/>
			<stop  offset="1" style="stop-color:#F15A29"/>
		</linearGradient>
		<path class="st4" d="M11,18.8l-8.4-3.5c-2.2,5.5-2.4,11.8,0,17.7l8.4-3.5C9.5,26.1,9.5,22.3,11,18.8z"/>
	</g>
	<path class="st0" d="M37.8,48.5H10.7C4.8,48.5,0,43.7,0,37.8V10.7C0,4.8,4.8,0,10.7,0h27.1c5.9,0,10.7,4.8,10.7,10.7v27.1
		C48.5,43.7,43.7,48.5,37.8,48.5z M10.7,0.9c-5.4,0-9.8,4.4-9.8,9.8v27.1c0,5.4,4.4,9.8,9.8,9.8h27.1c5.4,0,9.8-4.4,9.8-9.8V10.7
		c0-5.4-4.4-9.8-9.8-9.8H10.7z"/>
</g>
<g>
	<path class="st0" d="M66.1,29.9c0-0.6-0.2-1.1-0.5-1.5c-0.3-0.4-0.7-0.8-1.2-1.1c-0.5-0.3-1-0.7-1.5-1c-0.5-0.3-1-0.7-1.5-1.1
		c-0.5-0.4-0.9-0.9-1.2-1.4c-0.3-0.5-0.5-1.2-0.5-2c0-0.7,0.2-1.3,0.5-1.8s0.7-1.1,1.3-1.5c0.5-0.4,1.2-0.8,2-1
		c0.8-0.2,1.6-0.4,2.5-0.4c1.2,0,2.2,0.1,2.9,0.2s1.3,0.4,1.8,0.7l-0.9,2.1c-0.9-0.5-2.2-0.8-3.8-0.8c-1,0-1.8,0.2-2.4,0.6
		c-0.6,0.4-1,1-1,1.9c0,0.5,0.2,0.9,0.5,1.3c0.3,0.4,0.7,0.7,1.2,1c0.5,0.3,1,0.7,1.5,1c0.5,0.3,1,0.7,1.5,1.2
		c0.5,0.4,0.9,0.9,1.2,1.5c0.3,0.6,0.5,1.3,0.5,2.1c0,1.8-0.6,3.2-1.8,4.1c-1.2,0.9-2.9,1.4-4.9,1.4c-1,0-2-0.1-2.9-0.3
		s-1.6-0.5-2.1-0.8l1-2.2c0.5,0.3,1.1,0.6,1.8,0.8c0.8,0.2,1.5,0.3,2.4,0.3c1.1,0,2.1-0.3,2.7-0.8C65.7,31.7,66.1,30.9,66.1,29.9z"
		/>
	<path class="st0" d="M78.4,17.3L75.9,29c-0.1,0.6-0.2,1.2-0.2,1.8c0,0.7,0.1,1.2,0.4,1.6c0.3,0.4,0.7,0.6,1.4,0.6
		c0.6,0,1.1-0.1,1.7-0.4c0.6-0.3,1.1-0.6,1.6-1.1c0.5-0.4,1-0.9,1.4-1.5c0.4-0.5,0.8-1.1,1.1-1.6l2.3-11.1h2.6l-2.2,10.4
		c-0.1,0.4-0.2,0.9-0.3,1.5c-0.1,0.6-0.2,1.2-0.3,1.8c-0.1,0.6-0.1,1.2-0.2,1.8c0,0.6-0.1,1.1-0.1,1.6v0.5h-2.1v-3.3h-0.1
		c-0.4,0.5-0.8,0.9-1.2,1.4c-0.5,0.4-1,0.8-1.5,1.2s-1.1,0.6-1.8,0.9c-0.6,0.2-1.3,0.3-2,0.3c-0.5,0-1-0.1-1.4-0.2
		c-0.4-0.1-0.8-0.3-1.1-0.6c-0.3-0.3-0.6-0.7-0.8-1.2c-0.2-0.5-0.3-1.1-0.3-1.8c0-0.8,0.1-1.7,0.4-2.8l2.4-11.4H78.4z"/>
	<path class="st0" d="M93.9,17.3h1.8l-0.2,3h0.1c0.3-0.4,0.7-0.8,1.1-1.2c0.4-0.4,0.9-0.8,1.3-1.1c0.5-0.3,1-0.6,1.6-0.8
		c0.6-0.2,1.2-0.3,1.9-0.3c0.6,0,1.1,0.1,1.6,0.3c0.5,0.2,0.9,0.5,1.3,0.9c0.4,0.4,0.7,1,0.9,1.6s0.3,1.5,0.3,2.5
		c0,2.1-0.3,3.9-0.8,5.5c-0.6,1.6-1.3,3-2.2,4.1s-1.9,2-3.1,2.6c-1.1,0.6-2.3,0.9-3.4,0.9c-0.8,0-1.5-0.1-2.2-0.2
		c-0.6-0.2-1-0.3-1.2-0.5l-1.5,7.3h-2.6L93.9,17.3z M100.6,19.1c-0.6,0-1.2,0.2-1.8,0.5c-0.6,0.3-1.1,0.7-1.6,1.2
		c-0.5,0.5-0.9,1-1.3,1.5c-0.4,0.5-0.7,1.1-0.9,1.5l-1.7,8.3c0.4,0.3,0.8,0.5,1.2,0.6c0.4,0.1,0.9,0.2,1.4,0.2
		c0.9,0,1.8-0.3,2.6-0.8c0.8-0.5,1.6-1.2,2.2-2.2c0.7-0.9,1.2-2.1,1.6-3.4c0.4-1.3,0.6-2.8,0.6-4.4c0-0.9-0.2-1.7-0.6-2.3
		C101.9,19.4,101.4,19.1,100.6,19.1z"/>
	<path class="st0" d="M111.6,17.3h1.8l-0.2,3h0.1c0.3-0.4,0.7-0.8,1.1-1.2c0.4-0.4,0.9-0.8,1.3-1.1c0.5-0.3,1-0.6,1.6-0.8
		c0.6-0.2,1.2-0.3,1.9-0.3c0.6,0,1.1,0.1,1.6,0.3c0.5,0.2,0.9,0.5,1.3,0.9c0.4,0.4,0.7,1,0.9,1.6s0.3,1.5,0.3,2.5
		c0,2.1-0.3,3.9-0.8,5.5c-0.6,1.6-1.3,3-2.2,4.1s-1.9,2-3.1,2.6c-1.1,0.6-2.3,0.9-3.4,0.9c-0.8,0-1.5-0.1-2.2-0.2
		c-0.6-0.2-1-0.3-1.2-0.5l-1.5,7.3h-2.6L111.6,17.3z M118.4,19.1c-0.6,0-1.2,0.2-1.8,0.5c-0.6,0.3-1.1,0.7-1.6,1.2
		c-0.5,0.5-0.9,1-1.3,1.5c-0.4,0.5-0.7,1.1-0.9,1.5l-1.7,8.3c0.4,0.3,0.8,0.5,1.2,0.6c0.4,0.1,0.9,0.2,1.4,0.2
		c0.9,0,1.8-0.3,2.6-0.8c0.8-0.5,1.6-1.2,2.2-2.2c0.7-0.9,1.2-2.1,1.6-3.4c0.4-1.3,0.6-2.8,0.6-4.4c0-0.9-0.2-1.7-0.6-2.3
		C119.7,19.4,119.1,19.1,118.4,19.1z"/>
	<path class="st0" d="M126.1,29.4c0-1.8,0.2-3.5,0.7-5.1c0.5-1.5,1.1-2.8,2-3.9c0.8-1.1,1.8-1.9,2.9-2.6s2.3-0.9,3.6-0.9
		c1,0,1.8,0.2,2.5,0.5c0.7,0.3,1.2,0.7,1.7,1.3s0.7,1.2,0.9,1.9c0.2,0.7,0.3,1.5,0.3,2.2c0,1.8-0.2,3.4-0.7,4.9
		c-0.5,1.5-1.1,2.8-1.9,4c-0.8,1.1-1.7,2-2.8,2.6s-2.2,1-3.5,1c-1,0-1.9-0.2-2.6-0.5s-1.3-0.8-1.8-1.3s-0.8-1.2-1-1.9
		C126.2,30.8,126.1,30.1,126.1,29.4z M128.9,28.7c0,1.4,0.3,2.4,0.8,3.2c0.5,0.7,1.3,1.1,2.4,1.1c0.8,0,1.5-0.3,2.2-0.8
		c0.7-0.5,1.3-1.3,1.8-2.2c0.5-0.9,0.9-2,1.3-3.2c0.3-1.2,0.5-2.5,0.5-3.8c0-1.2-0.2-2.1-0.6-2.8c-0.4-0.7-1.3-1-2.5-1
		c-0.8,0-1.5,0.3-2.2,0.8c-0.7,0.5-1.3,1.2-1.9,2.1c-0.5,0.9-1,1.9-1.3,3.1C129.1,26.3,128.9,27.5,128.9,28.7z"/>
	<path class="st0" d="M154.5,19.6c-0.2,0-0.4-0.1-0.6-0.1c-0.2,0-0.4,0-0.6,0c-1.2,0-2.2,0.4-3.1,1.1c-0.9,0.7-1.5,1.7-2,2.7
		l-2.4,11.5h-2.6l3.7-17.5h1.8v3h0.1c0.3-0.4,0.6-0.9,0.9-1.2c0.3-0.4,0.7-0.7,1.1-1c0.4-0.3,0.8-0.5,1.3-0.7c0.5-0.2,1-0.3,1.5-0.3
		c0.5,0,1,0.1,1.6,0.2L154.5,19.6z"/>
	<path class="st0" d="M155.7,17.3h2.6l0.7-3.5l2.8-0.8l-0.9,4.3h4.6l-0.5,2.2h-4.5l-2.2,10.6c0,0.3-0.1,0.5-0.1,0.8
		c0,0.2-0.1,0.4-0.1,0.6c0,0.6,0.1,0.9,0.4,1.2c0.3,0.2,0.6,0.3,1.2,0.3c0.6,0,1.1-0.1,1.5-0.2c0.5-0.1,0.9-0.4,1.4-0.6v2.1
		c-0.5,0.3-1.1,0.5-1.9,0.7c-0.8,0.2-1.5,0.3-2.2,0.3c-2.1,0-3.2-1-3.2-2.9c0-0.4,0.1-0.9,0.2-1.5l2.4-11.3h-2.6L155.7,17.3z"/>
</g>
</svg>
