<?xml version="1.0" encoding="utf-8"?>
<!-- Generator: Adobe Illustrator 19.1.0, SVG Export Plug-In . SVG Version: 6.00 Build 0)  -->
<svg version="1.0" xmlns="http://www.w3.org/2000/svg" xmlns:xlink="http://www.w3.org/1999/xlink" x="0px" y="0px" width="250px"
	 height="135px" viewBox="0 0 250 135" style="enable-background:new 0 0 250 135;" xml:space="preserve">
<style type="text/css">
	.st0{display:none;}
	.st1{fill:none;}
	.st2{fill:#11B2D3;}
</style>
<g id="Layer_1">
	<g id="_x32_QHTng.tif" class="st0">
		
			<image style="display:inline;overflow:visible;" width="3113" height="1925" id="Layer_0_1_" xlink:href="436CD9FDC9EFE92.png"  transform="matrix(5.264069e-02 0 0 5.393939e-02 35.9176 12.5)">
		</image>
	</g>
</g>
<g id="Layer_2">
	<g>
		<path class="st1" d="M32.5,115.3c0,0.2,0,0.4-0.1,0.6c0.2-0.2,0.4-0.3,0.6-0.4v-0.2C32.8,115.3,32.6,115.3,32.5,115.3
			C32.5,115.3,32.5,115.3,32.5,115.3z"/>
		<path class="st1" d="M24.2,112h-1.1v1.5c0.4,0.1,0.7,0.1,1.1,0.2V112z"/>
		<path class="st1" d="M23.1,114.8v1.1h1.1v-1C23.8,114.9,23.5,114.9,23.1,114.8z"/>
		<path class="st1" d="M26,117.8c0-0.7,0.5-1.3,1.1-1.5v-0.9c-0.6-0.1-1.2-0.1-1.8-0.2v2.9c0.6,0.2,1.1,0.8,1.1,1.5
			c0,0.3-0.1,0.6-0.3,0.8h1v-1.1C26.5,119.1,26,118.5,26,117.8z"/>
		<path class="st1" d="M35,112.8h-0.9v1c0.2,0,0.4-0.1,0.6-0.1C34.6,113.4,34.8,113.1,35,112.8z"/>
		<path class="st1" d="M50.3,106.7c0,0,0.1,0.1,0.1,0.1c0.1,0,0.1-0.1,0.2-0.1H50.3z"/>
		<path class="st1" d="M30.3,118.2v-1.4c-0.6-0.2-1-0.8-1.1-1.4c-0.3,0-0.7,0-1,0v0.8c0.6,0.2,1.1,0.8,1.1,1.5c0,0.2,0,0.3-0.1,0.5
			H30.3z"/>
		<path class="st1" d="M37.6,114.6c-0.1,0.2-0.3,0.4-0.5,0.5v0.8H38c0.2-0.2,0.4-0.4,0.6-0.5v-0.9h-0.8
			C37.8,114.6,37.7,114.6,37.6,114.6z"/>
		<path class="st1" d="M39.7,118.4v0.5h0.9c0,0,0,0,0,0c0-0.7,0.4-1.2,0.9-1.5V117h-0.6C40.8,117.7,40.3,118.3,39.7,118.4z"/>
		<path class="st1" d="M36.1,115.9v-0.6c-0.3,0-0.6-0.2-0.9-0.4c-0.4,0.1-0.8,0.1-1.2,0.1v0.3c0.3,0.1,0.6,0.4,0.8,0.7v-0.2H36.1z"
			/>
		<path class="st1" d="M31.9,117c0-0.2,0-0.4,0.1-0.6c-0.2,0.2-0.4,0.3-0.6,0.4v1.4h1.1C32.1,117.9,31.9,117.5,31.9,117z"/>
		<path class="st2" d="M248.4,130.3c-0.6,0-1.2,0.4-1.4,0.9c-1.4-0.1-3.5-0.2-5.6-0.2c-0.2-0.6-0.8-1.1-1.5-1.1
			c-0.7,0-1.2,0.4-1.5,1c-0.7,0-1.3,0-1.8,0c-0.1,0-0.2,0-0.2,0c-0.2-0.6-0.8-1-1.5-1c-0.6,0-1.1,0.3-1.4,0.8c-0.2,0-0.3,0-0.5-0.1
			c-0.1-0.8-0.8-1.4-1.6-1.4c-0.5,0-0.9,0.2-1.2,0.5c-0.2-0.7-0.8-1.2-1.5-1.2c-0.4,0-0.8,0.2-1.1,0.4c-0.2-0.6-0.8-1.1-1.5-1.1
			c-0.5,0-0.9,0.2-1.2,0.5c-0.3-0.4-0.8-0.7-1.3-0.7c-0.4,0-0.8,0.2-1.1,0.4c-0.3-0.5-0.8-0.9-1.4-0.9c-0.5,0-0.9,0.2-1.2,0.6
			c-0.3-0.4-0.8-0.7-1.3-0.7c-0.5,0-1,0.3-1.3,0.7c-0.3-0.3-0.7-0.6-1.2-0.6c-0.5,0-0.9,0.2-1.2,0.6c-0.3-0.4-0.8-0.7-1.3-0.7
			c-0.5,0-1,0.3-1.3,0.6c-0.3-0.4-0.7-0.6-1.2-0.6c-0.5,0-1,0.3-1.3,0.6c-0.3-0.4-0.7-0.6-1.3-0.6c-0.4,0-0.8,0.2-1.1,0.5
			c-0.3-0.4-0.8-0.7-1.3-0.7c-0.4,0-0.7,0.1-0.9,0.3c-0.2-0.6-0.8-1-1.5-1c-0.4,0-0.7,0.2-1,0.4c-0.3-0.6-0.8-1-1.5-1
			c-0.4,0-0.7,0.1-1,0.4c-0.2-0.6-0.8-1-1.5-1c-0.4,0-0.7,0.1-0.9,0.3c-0.3-0.6-0.8-1-1.5-1c-0.6,0-1.1,0.3-1.4,0.8
			c-0.2-0.7-0.8-1.2-1.5-1.2c-0.5,0-0.9,0.2-1.2,0.6c-0.3-0.4-0.7-0.7-1.3-0.7c-0.4,0-0.8,0.2-1.1,0.5c-0.3-0.3-0.7-0.5-1.1-0.5
			c-0.5,0-1,0.3-1.3,0.7c0,0,0,0,0,0c-0.3-0.4-0.7-0.7-1.3-0.7c-0.4,0-0.8,0.2-1.1,0.5c0,0,0,0-0.1,0c-0.3-0.5-0.8-0.8-1.4-0.8
			c-0.4,0-0.8,0.2-1.1,0.4c-0.2-0.7-0.8-1.1-1.5-1.1c-0.2,0-0.4,0-0.6,0.1h-0.1c-0.1-0.8-0.8-1.5-1.6-1.5c-0.3,0-0.6,0.1-0.8,0.2
			v-0.1v-0.2V121h-0.2c-0.2-0.7-0.8-1.2-1.5-1.2c-0.2,0-0.5,0.1-0.7,0.2c0,0,0,0-0.1-0.1c0,0-0.1-0.1-0.1-0.1c0-0.1,0.1-0.1,0.1-0.2
			h0.2v-0.1V119v-0.1h-0.1c-0.1-0.8-0.7-1.5-1.6-1.5c-0.3,0-0.6,0.1-0.9,0.3c0,0,0,0,0,0v-0.4v0h-0.2c-0.1-0.8-0.8-1.4-1.6-1.4
			c-0.3,0-0.5,0.1-0.7,0.2c-0.1,0-0.1-0.1-0.2-0.1c-0.2-0.6-0.8-1.1-1.5-1.1c-0.4,0-0.8,0.2-1.1,0.4c-0.3-0.4-0.7-0.6-1.3-0.6
			c-0.6,0-1.1,0.4-1.4,0.9h-0.3v0.1c-0.2-0.1-0.5-0.2-0.8-0.2c-0.6,0-1.2,0.4-1.4,0.9c-0.3-0.5-0.8-0.8-1.4-0.8
			c-0.6,0-1.2,0.4-1.5,0.9c-0.2-0.1-0.5-0.3-0.8-0.3c-0.4,0-0.7,0.1-0.9,0.3c-0.3-0.6-0.8-1-1.5-1c-0.2,0-0.4,0-0.6,0.1c0,0,0,0,0,0
			c0-0.9-0.7-1.6-1.6-1.6c-0.3,0-0.6,0.1-0.9,0.3c-0.1-0.1-0.1-0.1-0.2-0.2h0.2v-0.2v-0.4v-0.2H153c0,0,0,0,0,0
			c0-0.9-0.7-1.6-1.6-1.6c-0.1,0-0.2,0-0.3,0.1c-0.3-0.4-0.5-0.7-0.6-1c0.1-0.1,0.1-0.1,0.2-0.2h0.4v-0.4V110v-0.4h-0.2
			c-0.1-0.8-0.8-1.5-1.6-1.5c-0.1,0-0.2,0-0.3,0.1c-0.2-0.2-0.4-0.5-0.7-0.7c0,0,0-0.1,0-0.1h0.2V107v-0.2v-0.4h-0.2
			c-0.2-0.7-0.8-1.2-1.6-1.2c-0.6,0-1.2,0.4-1.4,0.9c-0.1,0-0.2,0-0.3,0c-0.3-0.5-0.8-0.9-1.4-0.9c-0.8,0-1.4,0.5-1.6,1.3
			c-0.3-0.3-0.7-0.4-1.1-0.4c-0.5,0-0.9,0.2-1.2,0.6h-0.5v0.5v0v0.2c-0.3-0.2-0.6-0.3-0.9-0.3c-0.8,0-1.4,0.5-1.5,1.2h-0.3v0.5v0.1
			c-0.1,0-0.2-0.1-0.4-0.1c-0.6,0-1.1,0.3-1.4,0.8c-0.3-0.4-0.7-0.6-1.2-0.6c-0.3,0-0.6,0.1-0.9,0.3c0,0,0,0,0,0
			c0-0.1,0.1-0.3,0.1-0.4h0.1v0v-0.5v0h-0.2c-0.2-0.6-0.8-1.1-1.5-1.1c-0.1,0-0.1,0-0.2,0c-0.5-0.8-1-1.6-1.4-2.6
			c0.2-0.2,0.4-0.5,0.5-0.8h0.1v0v-0.5v0H130c-0.1-0.8-0.8-1.5-1.6-1.5c0,0,0,0-0.1,0c-0.5-1.5-1-3.1-1.5-4.7
			c0.2-0.1,0.3-0.3,0.4-0.5h0.3v-0.3V96v-0.3h-0.1c-0.1-0.8-0.6-1.4-1.4-1.5c-0.1-0.5-0.3-1-0.4-1.5c-0.3-1.2-0.6-2.3-1-3.5
			c0.2-0.2,0.4-0.5,0.4-0.8h0.2v-0.3v-0.3v-0.3h-0.2c-0.2-0.5-0.6-0.9-1.2-1.1c-0.5-1.5-1-3-1.5-4.4c0.2-0.2,0.3-0.4,0.3-0.7h0.2
			v-0.5h-0.2c0-0.1,0-0.2-0.1-0.2h0.2v-0.5h-0.5c-0.3-0.3-0.6-0.5-1.1-0.6c-0.5-0.9-0.9-1.5-1.4-2v-0.3h-0.1
			c-0.1-0.8-0.8-1.4-1.6-1.4s-1.4,0.6-1.6,1.4h-0.2v0.2c-0.3,0.3-0.7,0.6-1,1c-0.1,0-0.2-0.1-0.3-0.1c-0.8,0-1.4,0.6-1.6,1.3h-0.2
			v0.5v0.1v0.5h0.3c0,0.1,0.1,0.2,0.2,0.3c-0.1,0.3-0.3,0.5-0.4,0.8c-0.8,0-1.4,0.6-1.5,1.4h-0.2v0.5h0.3c0,0.1,0,0.3,0.1,0.4h-0.3
			v0.5h0.3c-0.1,0.3-0.3,0.6-0.4,0.9c-0.3,0.7-0.7,1.5-1,2.2c-0.6,0.1-1.2,0.5-1.4,1.1h-0.2v0.4v0.1v0.4h0.2c0,0.1,0.1,0.2,0.1,0.3
			c-0.3,0.6-0.7,1.1-1,1.5c-0.5,0.1-0.9,0.4-1.1,0.8c-0.1,0-0.1,0-0.2,0c-0.3-0.3-0.7-0.5-1.1-0.5c-0.1,0-0.1,0-0.2,0
			c-0.1-0.1-0.1-0.1-0.2-0.2h0.1v-0.5h-0.2c0-0.1,0-0.2,0-0.2s0-0.2,0-0.2h0.2v-0.5h-0.3c-0.3-0.5-0.7-0.8-1.3-0.8
			c-0.3-0.6-0.6-1.3-0.9-2.1c0.1-0.1,0.1-0.1,0.2-0.2h0.5v-0.5h-0.2c0-0.1,0.1-0.3,0.1-0.4c0-0.1,0-0.3-0.1-0.4h0.2v-0.5h-0.5
			c-0.3-0.4-0.7-0.7-1.2-0.7c-0.5-1.2-1-2.5-1.5-3.8h0.7v-0.5h-0.4c0.2-0.2,0.3-0.5,0.3-0.8c0,0,0-0.1,0-0.1h0.1v-0.5h-0.2
			c-0.2-0.6-0.8-1-1.5-1c-0.1,0-0.2,0-0.3,0.1c0-0.1,0-0.1-0.1-0.2c0-0.1-0.1-0.1-0.1-0.2c0.1-0.1,0.1-0.2,0.2-0.3h0.2v-0.5H99
			c0,0,0,0,0-0.1c0-0.1,0-0.2-0.1-0.3h0.2v-0.5h-0.4c-0.3-0.5-0.8-0.8-1.4-0.8c-0.4,0-0.7,0.1-0.9,0.3c-0.2,0-0.4-0.1-0.6-0.1
			c-0.6,0-1.2,0.4-1.7,0.9c-0.1,0-0.2-0.1-0.4-0.1c-0.4,0-0.8,0.2-1.1,0.4H92v0.5h0.3c-0.1,0.2-0.2,0.4-0.2,0.7c0,0,0,0.1,0,0.1H92
			v0.5h0.2c0.1,0.1,0.1,0.2,0.2,0.3c-0.5,1-1.1,2.3-1.7,3.7c-0.4,0-0.7,0.2-0.9,0.4h-0.8v0.5h0.3c-0.1,0.2-0.2,0.5-0.2,0.7
			c0,0.1,0,0.1,0,0.2h-0.2v0.5h0.3c0.1,0.2,0.2,0.3,0.3,0.4c-0.2,0.6-0.4,1.1-0.6,1.7c-0.3,0.8-0.6,1.6-0.9,2.4
			c-0.5,0-0.9,0.3-1.2,0.7h-0.4v0.5h0.2c0,0.1-0.1,0.2-0.1,0.3h-0.1v0.5h0.2c0.1,0.2,0.2,0.4,0.3,0.6c-0.2,0.5-0.4,1-0.6,1.5
			c-0.2,0.4-0.3,0.7-0.5,0.9C86,94,85.9,94,85.8,94c-0.3,0-0.6,0.1-0.8,0.2c-0.1-0.1-0.2-0.3-0.3-0.5c0.1-0.1,0.1-0.1,0.1-0.2h0.4
			v-0.5H85c0-0.1,0.1-0.2,0.1-0.4c0-0.1,0-0.2-0.1-0.3h0.2v-0.5h-0.4c-0.3-0.4-0.7-0.7-1.1-0.7c-0.5-1.9-1.1-4.3-1.6-7.1
			c0.1-0.1,0.3-0.2,0.4-0.3H83v-0.5h-0.2c0.1-0.2,0.1-0.3,0.1-0.5c0-0.2,0-0.4-0.1-0.6H83v-0.5h-0.6c-0.2-0.2-0.5-0.4-0.8-0.4
			c-0.6-3.7-1.1-7.8-1.5-11.7c0-0.4-0.2-2.2-0.5-5.1c0.1-0.1,0.2-0.1,0.3-0.2h0.6v-0.5h-0.3c0.1-0.2,0.1-0.4,0.1-0.6s0-0.4-0.1-0.6
			h0.3v-0.5h-0.6c-0.2-0.1-0.3-0.3-0.5-0.3c-0.5-4.9-1.1-11.6-1.9-18.6h0.9v-0.5h-0.4c0.2-0.3,0.3-0.6,0.3-0.9c0-0.5-0.3-1-0.6-1.3
			h0.8v-0.5h-1.2c-0.6-5.3-1.2-10.7-1.9-15.5h0.8v-0.5h-0.5c0.3-0.3,0.5-0.7,0.5-1.1c0-0.6-0.3-1-0.7-1.3h0.8v-0.5h-1.3
			c-0.7-5-1.5-9.2-2.2-11.8c-0.4-1.3-0.8-2.7-1.6-3.1h1.6V4.9h-1.1c0.6-0.3,1-0.8,1-1.5c0-0.7-0.4-1.2-1-1.5h1.1V1.4H69v0.5h1.1
			c-0.6,0.3-1,0.8-1,1.5c0,0.7,0.4,1.2,1,1.5H69v0.5h0.7c-0.4,0.3-0.8,0.9-1.2,1.7h-2v0.5h1.2V8c-0.6,0.2-1,0.8-1,1.5
			c0,0.5,0.3,1,0.7,1.3c0,0.2-0.1,0.3-0.1,0.5h-0.7v0.5h0.6c-0.7,3.1-1.3,6.9-1.7,10.4h-1.3v0.5h1.2c0,0,0,0,0,0
			c-0.6,0.2-1.1,0.8-1.1,1.5c0,0.6,0.3,1.1,0.8,1.3c0,0.2,0,0.3,0,0.5h-0.8v0.5h0.8c-0.1,0.7-1,8.1-2.2,17.6h-1.3v0.5h1
			c-0.5,0.3-0.9,0.8-0.9,1.5c0,0.6,0.3,1.1,0.8,1.4c0,0,0,0.1,0,0.1h-0.9v0.5h0.9C61.6,53.2,61,58.7,60.4,64h-1.1v0.5h0.5
			c-0.3,0.3-0.5,0.7-0.5,1.2c0,0.6,0.3,1.1,0.8,1.4c0,0,0,0,0,0h-0.8v0.5H60c-0.7,6.7-1.3,12.9-1.6,17.3c0,0.7-0.1,1.3-0.2,1.9
			c-0.1,0-0.3,0.1-0.4,0.1h-1v0.5h0.4c-0.2,0.3-0.3,0.5-0.3,0.9c0,0.3,0.1,0.5,0.2,0.8h-0.3v0.5h0.8c0.1,0.1,0.1,0.1,0.2,0.2
			c-0.6,5-1.6,8.5-2.8,11.2h-2.5v0.5h0.6c-0.3,0.3-0.5,0.7-0.5,1.1h-0.1v0h-1.2v0.5h1.1c-0.4,0.3-0.7,0.8-0.7,1.3
			c0,0.1,0,0.2,0.1,0.4h-0.5v0.5h0.6c-0.3,0.4-0.7,0.7-1.1,1v-0.3h-3.5v0.5H48c-0.3,0.3-0.5,0.7-0.5,1.2c0,0.3,0.1,0.5,0.2,0.8h-0.4
			v0.4c-0.6,0.4-1.2,0.8-1.8,1.1h-2.3v0.5h1.2v0c-2.1,1.1-4.3,1.9-6.7,2.5c-0.1-0.3-0.3-0.6-0.6-0.8v-1.7h1.2v-0.5h-3.5v0.5h1.2v1.5
			c-0.3,0-0.6,0.1-0.8,0.3v-0.2h-3.5v0.5H33v1.1c-0.4,0-0.8,0.1-1.2,0.1c-0.1-0.1-0.3-0.2-0.4-0.2v-3.1h1.2v-0.5h-3.5v0.5h1.2v3.1
			c-0.2,0.1-0.4,0.2-0.5,0.3c-0.5,0-1.1,0-1.6,0v-0.5h1.2v-0.5h-3.5v0.5h1.2v0.4c-0.6-0.1-1.2-0.1-1.8-0.2V112h1.2v-0.5h-3.4v-2.2
			c0.6-0.2,1.1-0.8,1.1-1.5c0-0.7-0.5-1.3-1.1-1.5V92.6h1.2v-0.5h-3.5v0.5H22v13.6c-0.6,0.2-1.1,0.8-1.1,1.5c0,0.7,0.4,1.3,1.1,1.5
			v4c-0.5-0.1-1-0.2-1.5-0.4V112h1.2v-0.5h-3.5v0.5h1.2v0.6c-0.7-0.2-1.3-0.4-1.9-0.6v-5.4c0.5-0.3,0.9-0.8,0.9-1.4
			c0-0.6-0.4-1.2-0.9-1.4V76.5h1.2v-0.5h-3.5v0.5h1.2v27.1c-0.7,0.2-1.3,0.8-1.3,1.6c0,0.8,0.5,1.4,1.3,1.6v5
			c-0.9-0.3-1.8-0.6-2.6-0.9v-7H15v-0.5h-3.5v0.5h1.2v6.7c0,0-0.1,0-0.1,0c-1.2-0.4-2.5-0.8-3.7-1.1V79.2h1.2v-0.5H6.6v0.5h1.2V109
			c-1.8-0.4-3.4-0.7-4.5-1c-0.2-0.7-0.8-1.2-1.5-1.2c-0.9,0-1.6,0.7-1.6,1.6c0,0.3,0.1,0.5,0.2,0.8H0v0.5h0.8
			c0.1,0.1,0.2,0.2,0.4,0.2v15.8c-0.6,0.2-1.1,0.8-1.1,1.5c0,0.7,0.5,1.3,1.1,1.5v1.4H0v0.5h3.5v-0.5H2.3v-1.4
			c0.6-0.2,1.1-0.8,1.1-1.5c0-0.7-0.5-1.3-1.1-1.5v-15.8c0.1-0.1,0.3-0.1,0.4-0.2h0.8v-0.3c1,0.2,2.4,0.5,3.8,0.8
			c-0.3,0.3-0.5,0.7-0.5,1.2c0,0.7,0.4,1.3,1,1.5v7.5H6.6v0.5h3.5v-0.5H8.9v-7.5c0.7-0.2,1.1-0.8,1.1-1.5c0-0.2,0-0.4-0.1-0.5
			c0.8,0.2,1.6,0.5,2.4,0.8c0.1,0,0.3,0.1,0.4,0.1v6.3c-0.7,0.2-1.2,0.8-1.2,1.5s0.5,1.3,1.2,1.5v3.2h-1.2v0.5H15v-0.5h-1.2v-3.2
			c0.6-0.2,1-0.8,1-1.5s-0.4-1.3-1-1.5v-5.9c0.8,0.3,1.7,0.6,2.6,0.9v0h-1.2v0.5h3c0.4,0.1,0.8,0.2,1.3,0.3v5.2
			c-0.6,0.2-1.1,0.8-1.1,1.5c0,0.7,0.5,1.3,1.1,1.5v2.1h-1.2v0.5h3.5v-0.5h-1.2v-2.1c0.6-0.2,1.1-0.8,1.1-1.5c0-0.7-0.5-1.3-1.1-1.5
			v-4.9c0.5,0.1,1,0.2,1.5,0.3v1.4h-1.2v0.5h3.4v1.6c-0.6,0.2-1.1,0.8-1.1,1.5c0,0.7,0.5,1.3,1.1,1.5v2.4H23v0.5h3.5v-0.5h-1.2v-2.4
			c0.2-0.1,0.4-0.2,0.6-0.4v0.2h3.5v-0.5h-1.2v-1.1c0.4-0.1,0.7-0.4,0.9-0.8v0.3h3.5v-0.5c0.1,0.1,0.3,0.2,0.4,0.2v0.4h-1.2v0.5h3.5
			v-0.5h-1.2v-0.4c0.6-0.2,1.1-0.8,1.1-1.5c0-0.2,0-0.4-0.1-0.5h2.7c0,0.1-0.1,0.3-0.1,0.4c0,0.7,0.4,1.2,0.9,1.5v0.6h-1.2v0.5h3.3
			c0.1,0.2,0.2,0.3,0.3,0.5h-0.6v0.5h1.5c0.1,0,0.3,0.1,0.4,0.1c0.1,0,0.3,0,0.4-0.1h1.2v-0.5h-0.4c0.2-0.3,0.4-0.6,0.4-1
			c0-0.8-0.5-1.4-1.2-1.5V117h1.2v-0.5h-3c-0.2-0.6-0.6-1-1.2-1.1v-0.8h1.2V114h-1c1.2-0.4,2.4-0.8,3.6-1.4c0,0,0,0.1,0,0.1
			c0,0.4,0.2,0.9,0.5,1.1h-0.7v0.5h3.5v-0.5h-0.5c0.3-0.3,0.5-0.7,0.5-1.1c0-0.6-0.3-1.1-0.8-1.4c0.9-0.5,1.8-1.1,2.8-1.7
			c0.1-0.1,0.2-0.2,0.3-0.2c0,0,0.1,0,0.1,0c0.4,0,0.7-0.1,0.9-0.3h0.8v-0.5h-0.3c0.1-0.1,0.1-0.2,0.1-0.4c0.9-0.7,1.7-1.4,2.4-2.2
			c0.1,0,0.2,0.1,0.3,0.1c0.6,0,1-0.3,1.3-0.7h0.1v-0.2c0.1-0.2,0.2-0.4,0.2-0.7c0-0.1,0-0.3-0.1-0.4c0.4-0.2,0.7-0.5,0.8-1h0.3
			v-0.5h-0.2c0-0.1,0-0.2-0.1-0.3c1.5-2.8,2.7-6.7,3.4-12.5c0.1-0.1,0.3-0.1,0.4-0.2h0.8v-0.5H60c0.1-0.2,0.2-0.5,0.2-0.8
			c0-0.3-0.1-0.6-0.3-0.9h0.4V87h-0.9c0.1-0.6,0.1-1.3,0.2-1.9c0.3-4.4,0.9-10.6,1.6-17.4h1.5v-0.5h-1.1c0.5-0.3,0.8-0.8,0.8-1.4
			c0-0.5-0.2-0.9-0.5-1.2h0.8V64h-1.1c0.6-5.3,1.2-10.8,1.8-15.9h1.3v-0.5h-1c0.5-0.3,0.9-0.8,0.9-1.5c0-0.6-0.3-1.1-0.8-1.4
			c0,0,0,0,0-0.1h0.9v-0.5H64c1.2-9.8,2.2-17.3,2.2-17.5c0,0,0,0,0-0.1h1.4v-0.5h-1.2v-0.3c0.6-0.2,1.1-0.8,1.1-1.5
			c0-0.6-0.4-1.1-0.9-1.4c0,0,0-0.1,0-0.1h1v-0.5h-0.9c0.5-3.8,1.1-7.5,1.7-10.4H70v-0.5h-1.2V11c0.7-0.2,1.1-0.8,1.1-1.5
			c0-0.5-0.2-0.9-0.6-1.2c0.1-0.2,0.1-0.4,0.2-0.6H70V7.1h-0.2c0.2-0.3,0.3-0.5,0.5-0.6c0,0,0.5,0.2,1.1,2.4
			c0.7,2.5,1.4,6.6,2.1,11.5h-0.8v0.5h0.9c-0.4,0.3-0.7,0.8-0.7,1.3c0,0.4,0.2,0.9,0.5,1.1h-0.7v0.5h1.3c0.7,4.8,1.3,10.2,1.9,15.5
			h-1V40h0.8c-0.4,0.3-0.6,0.7-0.6,1.3c0,0.3,0.1,0.7,0.3,0.9h-0.4v0.5h1.1c0.1,0,0.2,0.1,0.3,0.1c0.8,7,1.4,13.7,1.9,18.6
			c-0.1,0.1-0.3,0.2-0.4,0.3h-0.6v0.5h0.3c-0.1,0.2-0.1,0.4-0.1,0.6s0,0.4,0.1,0.6h-0.3V64h0.6c0.2,0.2,0.4,0.3,0.7,0.4
			c0.3,3,0.4,4.9,0.5,5c0.2,2.4,0.7,7.1,1.5,11.9c-0.1,0.1-0.2,0.1-0.2,0.2h-0.6V82h0.2c-0.1,0.2-0.1,0.4-0.1,0.6
			c0,0.2,0,0.4,0.1,0.5h-0.2v0.5H80c0.2,0.2,0.5,0.4,0.8,0.5c0.5,2.7,1,5.2,1.7,7.2c-0.1,0.1-0.3,0.2-0.4,0.4h-0.4v0.5h0.2
			c0,0.1-0.1,0.2-0.1,0.3c0,0.1,0,0.2,0.1,0.4h-0.2v0.5h0.4c0.3,0.4,0.8,0.7,1.3,0.7c0.1,0,0.1,0,0.2,0c0.1,0.3,0.3,0.5,0.4,0.7v0.4
			h0.2c0,0.1-0.1,0.2-0.1,0.3c0,0.1,0,0.2,0.1,0.4H84v0.5h0.4c0.3,0.4,0.8,0.7,1.3,0.7s1-0.3,1.3-0.7h0.4V96h-0.2
			c0-0.1,0.1-0.2,0.1-0.4c0-0.1,0-0.2-0.1-0.3h0.2v-0.5h-0.3c0.3-0.4,0.5-0.9,0.6-1.1c0.2-0.5,0.4-1,0.6-1.4c0,0,0,0,0,0
			c0.7,0,1.3-0.5,1.5-1.2h0.2v-0.5H90c0-0.1,0-0.2-0.1-0.3h0.2v-0.5h-0.4c-0.1-0.1-0.1-0.2-0.2-0.3c0.3-0.8,0.6-1.5,0.9-2.3
			c0.2-0.6,0.4-1.1,0.6-1.7c0.6,0,1.1-0.4,1.4-0.9h0.3V84h-0.2c0-0.1,0-0.1,0-0.2c0-0.3-0.1-0.5-0.2-0.7h0.3v-0.5h-0.6
			c0.5-1.3,1-2.4,1.5-3.4c0.1,0,0.1,0,0.2,0c0.7,0,1.3-0.4,1.5-1h0.2v-0.5h-0.1c0,0,0-0.1,0-0.1c0-0.2-0.1-0.5-0.2-0.7h0.3v-0.3
			c0.1-0.1,0.2-0.1,0.2-0.1c0,0,0,0,0,0.1c0,0,0,0,0,0.1h-0.1V77h0.2c0.2,0.6,0.8,1,1.5,1c0.1,0,0.2,0,0.3-0.1c0,0,0,0.1,0.1,0.1
			c0.1,0.1,0.1,0.2,0.1,0.3c0,0.1-0.1,0.1-0.1,0.2h-0.2v0.5h0.1c0,0,0,0.1,0,0.1c0,0.3,0.1,0.6,0.3,0.8h-0.4v0.5h0.9
			c0.2,0.1,0.4,0.2,0.6,0.2c0.6,1.4,1.2,2.8,1.6,4.1c-0.1,0.1-0.1,0.2-0.2,0.2H100v0.5h0.2c0,0.1-0.1,0.3-0.1,0.4
			c0,0.1,0,0.3,0.1,0.4H100V87h0.5c0.3,0.4,0.7,0.7,1.2,0.7c0.3,0.8,0.6,1.5,0.9,2.1c-0.1,0.1-0.2,0.3-0.3,0.4H102v0.5h0.2
			c0,0.1,0,0.2,0,0.2s0,0.2,0,0.2H102v0.5h0.3c0.3,0.5,0.8,0.9,1.4,0.9c0.2,0,0.4,0,0.6-0.1c0,0.1,0.1,0.1,0.1,0.2
			c0,0.1-0.1,0.1-0.1,0.2h-0.3v0.1v0.4v0.1h0.1c0,0.9,0.7,1.6,1.6,1.6c0.7,0,1.3-0.4,1.5-1c0.3,0.4,0.7,0.6,1.2,0.6
			c0.7,0,1.3-0.5,1.5-1.2h0.2v-0.3v-0.2v-0.3h-0.2c-0.1-0.3-0.3-0.6-0.5-0.8c0.2-0.3,0.5-0.7,0.7-1.1c0.1,0,0.2,0.1,0.4,0.1
			c0.7,0,1.3-0.5,1.5-1.1h0.2v-0.4v-0.1v-0.4h-0.2c-0.1-0.3-0.2-0.5-0.5-0.7c0.3-0.7,0.6-1.3,1-2.1c0.2-0.3,0.3-0.7,0.5-1.1
			c0.1,0,0.1,0,0.2,0c0.4,0,0.8-0.2,1.1-0.4h0.6V84h-0.2c0.1-0.1,0.1-0.3,0.1-0.4h0.1V83H115c-0.1-0.4-0.2-0.7-0.5-0.9
			c0.1-0.2,0.2-0.4,0.3-0.6c0.1,0,0.1,0,0.2,0c0.7,0,1.2-0.4,1.5-1h0.3v-0.5v-0.1v-0.5h-0.2c0-0.2-0.1-0.3-0.2-0.5
			c0.2-0.2,0.3-0.4,0.5-0.5h0.1c0.3,0.3,0.7,0.5,1.2,0.5c0.4,0,0.8-0.2,1.1-0.4c0.3,0.3,0.5,0.7,0.8,1.2c-0.1,0.1-0.1,0.1-0.1,0.2
			h-0.5v0.5h0.2c0,0.1,0,0.2-0.1,0.2h-0.2v0.5h0.2c0.1,0.7,0.8,1.3,1.6,1.3c0,0,0.1,0,0.1,0c0.5,1.3,0.9,2.6,1.4,4
			c-0.3,0.2-0.5,0.5-0.6,0.8h-0.2v0.3v0.3v0.3h0.2c0.1,0.7,0.7,1.3,1.5,1.3c0.3,1.1,0.6,2.3,0.9,3.4c0.1,0.5,0.3,1,0.4,1.5
			c-0.3,0.3-0.5,0.7-0.6,1.1h-0.2V96v0.2v0.3h0.4c0.2,0.4,0.7,0.8,1.2,0.8c0.5,1.7,1,3.4,1.6,5c-0.2,0.2-0.3,0.5-0.4,0.9h-0.2v0v0.5
			v0h0.3c0.2,0.6,0.7,1.1,1.3,1.2c0.5,1.1,1,2.1,1.5,2.9c-0.1,0.1-0.2,0.2-0.2,0.4h-0.2v0v0.5v0h0.1c0,0.9,0.7,1.6,1.6,1.6
			c0,0,0.1,0,0.1,0v0v0.3v0.2h0.8c0.2,0.7,0.8,1.3,1.6,1.3c0.6,0,1.1-0.3,1.4-0.8c0.3,0.4,0.7,0.6,1.2,0.6c0.8,0,1.4-0.6,1.6-1.3
			h0.1v-0.2v0c0.1-0.1,0.3-0.1,0.4-0.2c0,0,0.1,0,0.1,0c0.7,0,1.3-0.4,1.5-1h0.2v-0.2c0,0,0.1-0.1,0.1-0.1c0.3,0.2,0.5,0.3,0.9,0.3
			c0.8,0,1.4-0.5,1.6-1.3c0.3,0.3,0.7,0.4,1.1,0.4c0.7,0,1.3-0.5,1.5-1.1c0,0,0,0,0.1,0c0.2,0.6,0.8,1.1,1.5,1.1
			c0.2,0,0.4,0,0.5-0.1c0.2,0.2,0.4,0.4,0.6,0.6c-0.1,0.2-0.2,0.4-0.2,0.7h-0.1v0.4v0.2v0.4h0.3c0.3,0.5,0.8,0.9,1.4,0.9
			c0,0,0.1,0,0.1,0c0.2,0.3,0.4,0.7,0.7,1.1c-0.1,0.2-0.3,0.5-0.3,0.8c0,0,0,0,0,0h-0.1v0.2v0.4v0.2h0.3c0.3,0.5,0.8,0.9,1.4,0.9
			c0.2,0,0.3,0,0.5-0.1c0.2,0.2,0.3,0.3,0.5,0.5c0,0.1,0,0.1,0,0.2c0,0.1,0,0.2,0.1,0.3h-0.2v0.3v0.2v0.3h0.7c0.3,0.2,0.6,0.4,1,0.4
			c0.2,0,0.3,0,0.5-0.1v0.2v0.3v0.2h0.4c0.3,0.5,0.8,0.9,1.4,0.9c0.3,0,0.5-0.1,0.8-0.2h0.2c0.3,0.5,0.8,0.9,1.4,0.9
			s1.1-0.4,1.4-0.9h0.2c0.2,0.1,0.4,0.2,0.7,0.2c0.6,0,1.1-0.3,1.4-0.8c0,0,0.1,0,0.1,0c0.3,0.4,0.8,0.7,1.3,0.7
			c0.7,0,1.3-0.5,1.5-1.1c0.3,0.2,0.6,0.4,1,0.4c0.4,0,0.8-0.2,1.1-0.4c0.3,0.4,0.7,0.6,1.3,0.6c0.3,0,0.6-0.1,0.8-0.3h0.1
			c0.2,0.7,0.8,1.3,1.6,1.3c0.4,0,0.7-0.1,1-0.4c0,0,0.1,0.1,0.1,0.1c0,0,0,0.1,0,0.1h-0.1v0.1v0.4v0.1h0.2c0.2,0.6,0.8,1.1,1.5,1.1
			c0.1,0,0.3,0,0.4-0.1c0.1,0.1,0.1,0.1,0.2,0.2c0,0,0.1,0.1,0.1,0.1c0,0,0,0.1,0,0.1h-0.2v0.3v0.2v0.3h0.2c0.2,0.7,0.8,1.2,1.5,1.2
			c0.2,0,0.5-0.1,0.7-0.2c0.1,0.1,0.2,0.1,0.2,0.2v0.3v0.1h0.1c0.2,0.7,0.8,1.2,1.5,1.2c0.2,0,0.4,0,0.6-0.1v0.2v0.1h0.1
			c0.2,0.7,0.8,1.1,1.5,1.1c0.4,0,0.8-0.2,1.1-0.4c0.2,0.7,0.8,1.1,1.5,1.1c0.5,0,0.9-0.2,1.2-0.5c0.3,0.5,0.8,0.9,1.4,0.9
			c0.5,0,1-0.3,1.3-0.7c0.3,0.4,0.7,0.7,1.3,0.7c0.4,0,0.8-0.2,1.1-0.5c0.3,0.3,0.7,0.5,1.1,0.5c0.5,0,0.9-0.2,1.2-0.6
			c0.3,0.4,0.7,0.7,1.3,0.7c0.6,0,1.1-0.3,1.4-0.8c0,0,0,0,0,0c0.2,0.7,0.8,1.2,1.5,1.2c0.4,0,0.7-0.1,0.9-0.3c0.3,0.6,0.8,1,1.5,1
			c0.4,0,0.7-0.1,1-0.4c0.2,0.6,0.8,1,1.5,1c0.4,0,0.7-0.2,1-0.4c0.3,0.6,0.8,1,1.5,1c0.4,0,0.7-0.1,0.9-0.3c0.2,0.6,0.8,1,1.5,1
			c0.4,0,0.8-0.2,1.1-0.5c0.3,0.4,0.8,0.7,1.3,0.7c0.5,0,1-0.3,1.3-0.6c0.3,0.4,0.7,0.6,1.3,0.6c0.5,0,1-0.3,1.3-0.6
			c0.3,0.4,0.7,0.6,1.2,0.6c0.5,0,0.9-0.2,1.2-0.6c0.3,0.4,0.8,0.7,1.3,0.7c0.5,0,1-0.3,1.3-0.7c0.3,0.3,0.7,0.6,1.2,0.6
			c0.5,0,0.9-0.2,1.2-0.6c0.3,0.4,0.8,0.7,1.3,0.7c0.4,0,0.8-0.2,1.1-0.4c0.3,0.5,0.8,0.9,1.4,0.9c0.5,0,0.9-0.2,1.2-0.5
			c0.3,0.4,0.8,0.7,1.3,0.7c0.4,0,0.8-0.2,1.1-0.4c0.2,0.6,0.8,1.1,1.5,1.1c0.5,0,0.9-0.2,1.2-0.5c0,0,0,0,0,0
			c0.2,0.7,0.8,1.2,1.5,1.2c0.5,0,1-0.3,1.3-0.6c0.2,0,0.4,0.1,0.6,0.1c0.2,0.7,0.8,1.2,1.5,1.2c0.7,0,1.2-0.4,1.5-1
			c0.1,0,0.2,0,0.3,0c0.5,0,1.1,0,1.7,0c0.2,0.6,0.8,1,1.5,1c0.6,0,1.2-0.4,1.4-0.9c2.1,0.1,4.2,0.2,5.6,0.2c0.2,0.6,0.8,1,1.5,1
			c0.9,0,1.6-0.7,1.6-1.6S249.3,130.3,248.4,130.3z M50.3,106.7h0.3c-0.1,0-0.1,0.1-0.2,0.1C50.4,106.8,50.3,106.8,50.3,106.7z
			 M34.1,112.8H35c-0.2,0.3-0.3,0.6-0.3,1c-0.2,0-0.4,0.1-0.6,0.1V112.8z M33,115.5c-0.2,0.1-0.5,0.2-0.6,0.4
			c0.1-0.2,0.1-0.4,0.1-0.6c0,0,0,0,0,0c0.2,0,0.4,0,0.5,0V115.5z M23.1,112h1.1v1.7c-0.4-0.1-0.7-0.1-1.1-0.2V112z M23.1,115.9
			v-1.1c0.4,0.1,0.7,0.1,1.1,0.2v1H23.1z M26.1,120.4c0.2-0.3,0.3-0.5,0.3-0.8c0-0.7-0.5-1.3-1.1-1.5v-2.9c0.6,0.1,1.2,0.1,1.8,0.2
			v0.9c-0.6,0.2-1.1,0.8-1.1,1.5c0,0.7,0.5,1.3,1.1,1.5v1.1H26.1z M28.2,116.2v-0.8c0.4,0,0.7,0,1,0c0,0.7,0.5,1.2,1.1,1.4v1.4h-1.1
			c0-0.1,0.1-0.3,0.1-0.5C29.3,117.1,28.8,116.5,28.2,116.2z M31.4,118.2v-1.4c0.2-0.1,0.5-0.2,0.6-0.4c-0.1,0.2-0.1,0.4-0.1,0.6
			c0,0.5,0.2,0.9,0.6,1.2H31.4z M34.1,115.5v-0.3c0.4,0,0.8-0.1,1.2-0.1c0.2,0.2,0.5,0.3,0.9,0.4v0.6h-1.2v0.2
			C34.7,115.8,34.4,115.6,34.1,115.5z M41.5,117.4c-0.6,0.3-0.9,0.8-0.9,1.5c0,0,0,0,0,0h-0.9v-0.5c0.7-0.2,1.2-0.7,1.2-1.4h0.6
			V117.4z M38.6,115.4c-0.2,0.1-0.4,0.3-0.6,0.5h-0.8v-0.8c0.2-0.1,0.3-0.3,0.5-0.5c0.1,0,0.1,0,0.2,0h0.8V115.4z"/>
	</g>
</g>
</svg>
