<?xml version="1.0" encoding="iso-8859-1"?>
<!-- Generator: Adobe Illustrator 19.1.0, SVG Export Plug-In . SVG Version: 6.00 Build 0)  -->
<svg version="1.1" id="Layer_1" xmlns="http://www.w3.org/2000/svg" xmlns:xlink="http://www.w3.org/1999/xlink" x="0px" y="0px"
	 width="400px" height="112.176px" viewBox="0 0 400 112.176" style="enable-background:new 0 0 400 112.176;" xml:space="preserve"
	>
<path style="fill:#DEDDDD;" d="M114.361,37.766h4.528l7.685,26.554h0.137l8.852-26.554h3.911l9.4,26.554h0.137l7.479-26.554h4.117
	l-9.332,31.7h-4.254l-9.469-25.937h-0.137l-8.851,25.937h-4.254L114.361,37.766z"/>
<path style="fill:#DEDDDD;" d="M161.686,53.615c0-2.424,0.412-4.653,1.235-6.69c0.824-2.034,1.966-3.796,3.431-5.283
	c1.464-1.486,3.225-2.642,5.283-3.466c2.059-0.823,4.299-1.235,6.724-1.235c2.424,0,4.654,0.412,6.69,1.235
	c2.035,0.824,3.796,1.98,5.283,3.466c1.486,1.487,2.642,3.248,3.465,5.283c0.823,2.036,1.235,4.266,1.235,6.69
	c0,2.426-0.412,4.655-1.235,6.691c-0.824,2.035-1.979,3.797-3.465,5.283c-1.487,1.487-3.248,2.642-5.283,3.466
	c-2.036,0.823-4.266,1.235-6.69,1.235c-2.425,0-4.666-0.412-6.724-1.235c-2.059-0.824-3.82-1.979-5.283-3.466
	c-1.464-1.486-2.607-3.247-3.431-5.283C162.097,58.271,161.686,56.041,161.686,53.615z M165.802,53.615
	c0,1.784,0.285,3.466,0.858,5.044c0.572,1.579,1.406,2.951,2.504,4.117s2.424,2.093,3.98,2.778c1.555,0.687,3.293,1.029,5.214,1.029
	c1.921,0,3.659-0.343,5.215-1.029c1.555-0.686,2.882-1.612,3.98-2.778s1.932-2.538,2.505-4.117c0.571-1.578,0.857-3.259,0.857-5.044
	c0-1.783-0.286-3.465-0.857-5.043c-0.573-1.579-1.407-2.951-2.505-4.117s-2.425-2.093-3.98-2.778
	c-1.556-0.687-3.293-1.029-5.215-1.029c-1.921,0-3.66,0.343-5.214,1.029c-1.556,0.686-2.882,1.612-3.98,2.778
	s-1.933,2.538-2.504,4.117C166.088,50.15,165.802,51.832,165.802,53.615z"/>
<path style="fill:#DEDDDD;" d="M200.345,46.686c0-0.594-0.024-1.315-0.069-2.161c-0.046-0.846-0.081-1.704-0.103-2.573
	c-0.024-0.869-0.058-1.682-0.103-2.436c-0.046-0.755-0.069-1.339-0.069-1.75h4.117c0.045,1.19,0.079,2.333,0.103,3.431
	c0.023,1.098,0.08,1.808,0.171,2.127c1.052-1.875,2.402-3.407,4.049-4.597s3.659-1.784,6.038-1.784c0.412,0,0.812,0.034,1.201,0.103
	c0.388,0.069,0.789,0.149,1.201,0.241l-0.48,4.048c-0.549-0.182-1.075-0.274-1.578-0.274c-1.784,0-3.328,0.286-4.632,0.858
	c-1.303,0.573-2.379,1.361-3.225,2.367c-0.847,1.007-1.475,2.185-1.887,3.533c-0.412,1.35-0.617,2.803-0.617,4.357v17.291h-4.117
	V46.686z"/>
<path style="fill:#DEDDDD;" d="M272.064,20.887h18.046c2.515,0,4.894,0.229,7.136,0.686c2.241,0.458,4.196,1.247,5.867,2.367
	c1.669,1.122,2.996,2.631,3.98,4.528c0.983,1.899,1.475,4.289,1.475,7.171c0,2.837-0.458,5.215-1.373,7.136
	c-0.915,1.92-2.173,3.454-3.774,4.597c-1.601,1.144-3.499,1.956-5.695,2.436c-2.196,0.48-4.575,0.721-7.136,0.721h-7.822v18.937
	h-10.704V20.887z M282.768,41.471h7.136c0.96,0,1.887-0.091,2.779-0.274c0.892-0.182,1.692-0.491,2.401-0.926
	c0.709-0.433,1.28-1.029,1.715-1.783c0.435-0.755,0.652-1.704,0.652-2.848c0-1.235-0.286-2.23-0.858-2.985
	c-0.573-0.754-1.303-1.338-2.196-1.749c-0.892-0.412-1.887-0.674-2.985-0.789c-1.098-0.114-2.15-0.171-3.156-0.171h-5.489V41.471z"
	/>
<path style="fill:#DEDDDD;" d="M312.527,36.119h10.292v33.347h-10.292V36.119z"/>
<path style="fill:#DEDDDD;" d="M329.016,36.119h9.88v4.529h0.137c0.32-0.64,0.777-1.28,1.373-1.921
	c0.594-0.64,1.303-1.212,2.127-1.716c0.824-0.502,1.761-0.914,2.814-1.235c1.051-0.32,2.196-0.48,3.431-0.48
	c2.607,0,4.711,0.4,6.312,1.201c1.601,0.8,2.848,1.91,3.74,3.328c0.892,1.418,1.498,3.088,1.819,5.008
	c0.319,1.921,0.48,4.003,0.48,6.244v18.389h-10.292v-16.33c0-0.961-0.034-1.956-0.103-2.985c-0.069-1.029-0.274-1.978-0.617-2.847
	c-0.343-0.869-0.869-1.579-1.578-2.127c-0.71-0.549-1.727-0.824-3.053-0.824c-1.327,0-2.402,0.24-3.225,0.721
	c-0.824,0.48-1.453,1.121-1.887,1.92c-0.435,0.801-0.72,1.705-0.857,2.711c-0.137,1.007-0.206,2.059-0.206,3.156v16.605h-10.292
	V36.119z"/>
<path style="fill:#DEDDDD;" d="M399.953,66.652c0,6.313-1.59,11.104-4.769,14.376c-3.18,3.269-8.017,4.905-14.512,4.905
	c-2.974,0-5.9-0.333-8.783-0.995c-2.882-0.663-5.535-1.956-7.959-3.876l5.695-8.508c1.601,1.326,3.282,2.378,5.043,3.156
	c1.761,0.777,3.694,1.166,5.798,1.166c3.156,0,5.478-0.767,6.965-2.299c1.486-1.533,2.23-3.489,2.23-5.867v-3.225h-0.137
	c-1.19,1.602-2.665,2.734-4.426,3.396c-1.762,0.663-3.42,0.995-4.975,0.995c-2.47,0-4.712-0.422-6.724-1.269
	c-2.013-0.846-3.74-2.034-5.18-3.568c-1.441-1.532-2.551-3.35-3.328-5.455c-0.779-2.104-1.167-4.414-1.167-6.93
	c0-2.196,0.354-4.346,1.064-6.45c0.709-2.104,1.715-3.957,3.019-5.558c1.303-1.601,2.892-2.893,4.769-3.877
	c1.875-0.983,4.002-1.475,6.381-1.475c1.464,0,2.802,0.16,4.014,0.48c1.211,0.321,2.298,0.733,3.259,1.235
	c0.96,0.504,1.784,1.064,2.47,1.682c0.686,0.617,1.235,1.224,1.647,1.818h0.137v-4.391h9.469V66.652z M374.017,52.587
	c0,1.098,0.206,2.138,0.617,3.121c0.412,0.985,0.995,1.853,1.75,2.608c0.755,0.754,1.623,1.361,2.607,1.818
	c0.983,0.459,2.069,0.687,3.259,0.687c1.143,0,2.218-0.228,3.225-0.687c1.006-0.457,1.887-1.064,2.642-1.818
	c0.755-0.755,1.338-1.623,1.75-2.608c0.412-0.983,0.617-2.023,0.617-3.121s-0.206-2.138-0.617-3.122
	c-0.411-0.984-0.995-1.853-1.75-2.608c-0.755-0.754-1.636-1.36-2.642-1.818c-1.007-0.457-2.082-0.687-3.225-0.687
	c-1.19,0-2.276,0.23-3.259,0.687c-0.984,0.458-1.852,1.064-2.607,1.818c-0.755,0.755-1.338,1.624-1.75,2.608
	C374.223,50.449,374.017,51.489,374.017,52.587z"/>
<path style="fill:none;" d="M65.851,50.846c0,0,0-6.612,3.306-6.612c3.306,0,6.612-6.612,13.223,0c0,0,3.821-2.547,9.226-3.17
	c-1.696-3.97-4.02-7.608-6.848-10.788c-0.594,0.427-1.371,0.734-2.378,0.734c-3.306,0,3.306,6.612,0,6.612
	c-3.306,0-3.306-3.306-6.612-3.306c-3.306,0-3.306,3.306-6.612,6.612c-3.306,3.306,0,0-3.306-3.306
	c-3.306-3.306,6.612,0,3.306-3.306c-3.306-3.306,3.306-3.306,3.306-6.611c0-2.593,4.067-3.152,5.822-3.273
	c-1.908-1.376-3.943-2.586-5.822-3.339c3.306,3.306-3.306,6.612-6.612,6.612c-3.105,0-0.377-5.834-0.034-9.282
	c-3.407-0.953-6.999-1.463-10.71-1.463c-2.007,0-3.979,0.149-5.905,0.437c-0.412,0.898-0.706,1.884-0.706,2.869
	c0,3.306-3.306-3.306-6.612,3.306c-3.306,6.611,0,0,0,6.611c0,3.306-4.784,0.914-3.306,1.653c3.306,1.653,3.306,1.653,0,4.959
	c0,0-6.611-3.306-6.611,0c0,3.306-3.306,3.306-6.612,3.306c-3.306,0,0,6.612-3.306,6.612c-2.542,0-1.175-3.909-3.413-5.715
	c-0.851,1.982-1.544,4.047-2.066,6.179c2.228,1.996,2.601,9.882,5.478,12.76c3.306-3.306,3.306,0,6.611,0
	c3.306,0,3.306,0,4.959,3.306c3.306,0,4.959,3.306,8.265,6.612c3.306,3.306,9.917,3.306,9.917,6.612c0,3.306-3.306,0-3.306,6.612
	c0,3.306,0,3.306-3.306,3.306c-2.081,0-4.163,3.932-5.419,6.844c4.718,1.979,9.9,3.073,15.337,3.073
	c11.103,0,21.141-4.562,28.341-11.913l-1.895-3.79c0,0,4.132-6.612,0.827-9.917c-3.306-3.306-3.306-6.612-3.306-6.612
	s-6.611,6.612-9.917,3.306c-3.306-3.306-3.306,0-6.611-6.612C59.24,54.151,65.851,50.846,65.851,50.846z"/>
<path style="fill:none;" d="M20.396,69.028c0-2.653-1.065-4.774,0.224-7.217c-4.664-4.684-1.877-2.145-1.877-5.18
	c0-1.574-1.498-3.147-3.068-4.365c-0.157,1.434-0.237,2.89-0.237,4.365c0,11.668,5.037,22.16,13.056,29.418l-3.139-6.278
	C22.049,79.772,20.396,72.334,20.396,69.028z"/>
<path style="fill:#DEDDDD;" d="M55.107,13.102c-17.035,0-31.816,9.837-38.961,24.129c-1.887,3.775-3.242,7.862-3.965,12.16
	c-0.396,2.355-0.602,4.774-0.602,7.24c0,24.001,19.527,43.528,43.528,43.528c24.002,0,43.529-19.527,43.529-43.528
	C98.636,32.629,79.109,13.102,55.107,13.102z M15.438,56.631c0-1.475,0.08-2.931,0.237-4.365c1.57,1.217,3.068,2.791,3.068,4.365
	c0,3.036-2.788,0.496,1.877,5.18c-1.288,2.443-0.224,4.563-0.224,7.217c0,3.306,1.653,10.744,4.959,10.744l3.139,6.278
	C20.475,78.791,15.438,68.299,15.438,56.631z M62.546,60.763c3.306,6.612,3.306,3.306,6.611,6.612
	c3.306,3.306,9.917-3.306,9.917-3.306s0,3.306,3.306,6.612c3.306,3.306-0.827,9.917-0.827,9.917l1.895,3.79
	c-7.2,7.351-17.238,11.913-28.341,11.913c-5.437,0-10.619-1.094-15.337-3.073c1.256-2.912,3.338-6.844,5.419-6.844
	c3.306,0,3.306,0,3.306-3.306c0-6.612,3.306-3.306,3.306-6.612c0-3.306-6.611-3.306-9.917-6.612
	c-3.306-3.306-4.959-6.612-8.265-6.612c-1.653-3.306-1.653-3.306-4.959-3.306c-3.306,0-3.306-3.306-6.611,0
	c-2.877-2.877-3.25-10.763-5.478-12.76c0.521-2.133,1.215-4.198,2.066-6.179c2.238,1.807,0.871,5.715,3.413,5.715
	c3.306,0,0-6.612,3.306-6.612c3.306,0,6.612,0,6.612-3.306c0-3.306,6.611,0,6.611,0c3.306-3.306,3.306-3.306,0-4.959
	c-1.478-0.739,3.306,1.653,3.306-1.653c0-6.611-3.306,0,0-6.611c3.306-6.612,6.612,0,6.612-3.306c0-0.986,0.294-1.971,0.706-2.869
	c1.927-0.288,3.899-0.437,5.905-0.437c3.711,0,7.303,0.51,10.71,1.463c-0.343,3.448-3.071,9.282,0.034,9.282
	c3.306,0,9.917-3.306,6.612-6.612c1.879,0.753,3.914,1.963,5.822,3.339c-1.754,0.12-5.822,0.68-5.822,3.273
	c0,3.306-6.612,3.306-3.306,6.611c3.306,3.306-6.611,0-3.306,3.306c3.306,3.306,0,6.612,3.306,3.306
	c3.306-3.306,3.306-6.612,6.612-6.612c3.306,0,3.306,3.306,6.612,3.306c3.306,0-3.306-6.612,0-6.612
	c1.007,0,1.785-0.307,2.378-0.734c2.828,3.18,5.152,6.817,6.848,10.788c-5.406,0.623-9.226,3.17-9.226,3.17
	c-6.612-6.612-9.917,0-13.223,0c-3.306,0-3.306,6.612-3.306,6.612S59.24,54.151,62.546,60.763z"/>
<path style="fill:none;" d="M31.467,14.007c3.48,0,6.312-2.832,6.312-6.313c0-3.48-2.832-6.312-6.312-6.312
	s-6.312,2.832-6.312,6.312C25.155,11.175,27.987,14.007,31.467,14.007z"/>
<linearGradient id="SVGID_1_" gradientUnits="userSpaceOnUse" x1="27.4111" y1="91.3869" x2="95.2307" y2="4.4214">
	<stop  offset="0" style="stop-color:#3BB0C9"/>
	<stop  offset="0.1622" style="stop-color:#3FB1CA"/>
	<stop  offset="0.3064" style="stop-color:#49B6CD"/>
	<stop  offset="0.4438" style="stop-color:#5CBDD2"/>
	<stop  offset="0.577" style="stop-color:#75C7D9"/>
	<stop  offset="0.7072" style="stop-color:#96D5E2"/>
	<stop  offset="0.8352" style="stop-color:#BFE5ED"/>
	<stop  offset="0.959" style="stop-color:#EEF8FA"/>
	<stop  offset="1" style="stop-color:#FFFFFF"/>
</linearGradient>
<path style="fill:url(#SVGID_1_);" d="M55.117,1.458c-0.285,0-0.516,0.231-0.516,0.516s0.231,0.516,0.516,0.516
	c29.848,0,54.131,24.283,54.131,54.132s-24.283,54.132-54.131,54.132S0.985,86.47,0.985,56.622c0-18.211,9.051-35.032,24.22-45.108
	c1.292,2.11,3.612,3.525,6.261,3.525c4.05,0,7.345-3.295,7.345-7.345c0-4.05-3.295-7.344-7.345-7.344s-7.345,3.295-7.345,7.344
	c0,1.03,0.215,2.009,0.599,2.9C9.209,20.855-0.047,38.028-0.047,56.622c0,30.418,24.747,55.164,55.164,55.164
	s55.164-24.746,55.164-55.164S85.534,1.458,55.117,1.458z M31.467,1.382c3.48,0,6.312,2.832,6.312,6.312
	c0,3.481-2.832,6.313-6.312,6.313s-6.312-2.832-6.312-6.313C25.155,4.214,27.987,1.382,31.467,1.382z"/>
<circle style="fill:#3BB0C9;" cx="31.467" cy="7.694" r="4.712"/>
<rect x="221.877" y="20.907" style="fill:#DEDDDD;" width="4.117" height="48.559"/>
<path style="fill:#DEDDDD;" d="M260.468,43.324h-0.137c-0.641-1.098-1.441-2.046-2.402-2.848c-0.961-0.799-2.002-1.463-3.122-1.989
	c-1.121-0.525-2.298-0.915-3.533-1.166c-1.235-0.251-2.448-0.378-3.637-0.378c-2.425,0-4.666,0.412-6.724,1.235
	c-2.059,0.824-3.82,1.98-5.283,3.466c-1.464,1.487-2.607,3.248-3.431,5.283c-0.823,2.036-1.235,4.266-1.235,6.69
	c0,2.426,0.412,4.655,1.235,6.691c0.824,2.035,1.966,3.797,3.431,5.283c1.464,1.487,3.225,2.642,5.283,3.466
	c2.059,0.823,4.299,1.235,6.724,1.235c1.189,0,2.402-0.127,3.637-0.378c1.235-0.252,2.412-0.639,3.533-1.166
	c1.121-0.525,2.161-1.189,3.122-1.989c0.961-0.8,1.761-1.75,2.402-2.848h0.137v5.558h4.117V20.907h-4.117V43.324z M259.851,58.659
	c-0.687,1.579-1.625,2.951-2.813,4.117c-1.19,1.166-2.585,2.093-4.186,2.778c-1.602,0.687-3.34,1.029-5.215,1.029
	c-1.921,0-3.66-0.343-5.214-1.029c-1.556-0.686-2.882-1.612-3.98-2.778c-1.098-1.166-1.933-2.538-2.504-4.117
	c-0.573-1.578-0.858-3.259-0.858-5.044c0-1.783,0.285-3.465,0.858-5.043c0.572-1.579,1.406-2.951,2.504-4.117
	c1.098-1.166,2.424-2.093,3.98-2.778c1.555-0.687,3.293-1.029,5.214-1.029c1.875,0,3.613,0.343,5.215,1.029
	c1.6,0.686,2.996,1.612,4.186,2.778c1.189,1.166,2.127,2.538,2.813,4.117c0.686,1.578,1.029,3.259,1.029,5.043
	C260.88,55.4,260.537,57.081,259.851,58.659z"/>
<line style="fill:#666766;" x1="115.571" y1="39.075" x2="115.571" y2="38.387"/>
<path style="fill:#DEDDDD;" d="M317.621,32.874c-4.05,0-7.345-3.295-7.345-7.345s3.295-7.345,7.345-7.345
	c4.05,0,7.345,3.295,7.345,7.345S321.671,32.874,317.621,32.874z M317.621,19.217c-3.48,0-6.312,2.832-6.312,6.313
	s2.832,6.313,6.312,6.313c3.481,0,6.313-2.832,6.313-6.313S321.102,19.217,317.621,19.217z"/>
<circle style="fill:#3BB0C9;" cx="317.621" cy="25.529" r="4.712"/>
</svg>
